<?xml version="1.0" encoding="utf-8" standalone="no"?>
<!DOCTYPE svg PUBLIC "-//W3C//DTD SVG 1.1//EN"
  "http://www.w3.org/Graphics/SVG/1.1/DTD/svg11.dtd">
<svg xmlns:xlink="http://www.w3.org/1999/xlink" width="864pt" height="432pt" viewBox="0 0 864 432" xmlns="http://www.w3.org/2000/svg" version="1.1">
 <metadata>
  <rdf:RDF xmlns:dc="http://purl.org/dc/elements/1.1/" xmlns:cc="http://creativecommons.org/ns#" xmlns:rdf="http://www.w3.org/1999/02/22-rdf-syntax-ns#">
   <cc:Work>
    <dc:type rdf:resource="http://purl.org/dc/dcmitype/StillImage"/>
    <dc:date>2025-01-03T17:57:34.224508</dc:date>
    <dc:format>image/svg+xml</dc:format>
    <dc:creator>
     <cc:Agent>
      <dc:title>Matplotlib v3.10.0, https://matplotlib.org/</dc:title>
     </cc:Agent>
    </dc:creator>
   </cc:Work>
  </rdf:RDF>
 </metadata>
 <defs>
  <style type="text/css">*{stroke-linejoin: round; stroke-linecap: butt}</style>
 </defs>
 <g id="figure_1">
  <g id="patch_1">
   <path d="M 0 432 
L 864 432 
L 864 0 
L 0 0 
z
" style="fill: #ffffff"/>
  </g>
  <g id="axes_1">
   <g id="patch_2">
    <path d="M 108 384.48 
L 777.6 384.48 
L 777.6 51.84 
L 108 51.84 
z
" style="fill: #ffffff"/>
   </g>
   <g id="matplotlib.axis_1">
    <g id="xtick_1">
     <g id="line2d_1">
      <path d="M 138.436364 384.48 
L 138.436364 51.84 
" clip-path="url(#pa7016a08eb)" style="fill: none; stroke: #b0b0b0; stroke-width: 0.8; stroke-linecap: square"/>
     </g>
     <g id="line2d_2">
      <defs>
       <path id="m68412c2a30" d="M 0 0 
L 0 3.5 
" style="stroke: #000000; stroke-width: 0.8"/>
      </defs>
      <g>
       <use xlink:href="#m68412c2a30" x="138.436364" y="384.48" style="stroke: #000000; stroke-width: 0.8"/>
      </g>
     </g>
     <g id="text_1">
      <!-- 0 -->
      <g transform="translate(135.255114 399.078438) scale(0.1 -0.1)">
       <defs>
        <path id="DejaVuSans-30" d="M 2034 4250 
Q 1547 4250 1301 3770 
Q 1056 3291 1056 2328 
Q 1056 1369 1301 889 
Q 1547 409 2034 409 
Q 2525 409 2770 889 
Q 3016 1369 3016 2328 
Q 3016 3291 2770 3770 
Q 2525 4250 2034 4250 
z
M 2034 4750 
Q 2819 4750 3233 4129 
Q 3647 3509 3647 2328 
Q 3647 1150 3233 529 
Q 2819 -91 2034 -91 
Q 1250 -91 836 529 
Q 422 1150 422 2328 
Q 422 3509 836 4129 
Q 1250 4750 2034 4750 
z
" transform="scale(0.015625)"/>
       </defs>
       <use xlink:href="#DejaVuSans-30"/>
      </g>
     </g>
    </g>
    <g id="xtick_2">
     <g id="line2d_3">
      <path d="M 282.004117 384.48 
L 282.004117 51.84 
" clip-path="url(#pa7016a08eb)" style="fill: none; stroke: #b0b0b0; stroke-width: 0.8; stroke-linecap: square"/>
     </g>
     <g id="line2d_4">
      <g>
       <use xlink:href="#m68412c2a30" x="282.004117" y="384.48" style="stroke: #000000; stroke-width: 0.8"/>
      </g>
     </g>
     <g id="text_2">
      <!-- 500 -->
      <g transform="translate(272.460367 399.078438) scale(0.1 -0.1)">
       <defs>
        <path id="DejaVuSans-35" d="M 691 4666 
L 3169 4666 
L 3169 4134 
L 1269 4134 
L 1269 2991 
Q 1406 3038 1543 3061 
Q 1681 3084 1819 3084 
Q 2600 3084 3056 2656 
Q 3513 2228 3513 1497 
Q 3513 744 3044 326 
Q 2575 -91 1722 -91 
Q 1428 -91 1123 -41 
Q 819 9 494 109 
L 494 744 
Q 775 591 1075 516 
Q 1375 441 1709 441 
Q 2250 441 2565 725 
Q 2881 1009 2881 1497 
Q 2881 1984 2565 2268 
Q 2250 2553 1709 2553 
Q 1456 2553 1204 2497 
Q 953 2441 691 2322 
L 691 4666 
z
" transform="scale(0.015625)"/>
       </defs>
       <use xlink:href="#DejaVuSans-35"/>
       <use xlink:href="#DejaVuSans-30" transform="translate(63.623047 0)"/>
       <use xlink:href="#DejaVuSans-30" transform="translate(127.246094 0)"/>
      </g>
     </g>
    </g>
    <g id="xtick_3">
     <g id="line2d_5">
      <path d="M 425.57187 384.48 
L 425.57187 51.84 
" clip-path="url(#pa7016a08eb)" style="fill: none; stroke: #b0b0b0; stroke-width: 0.8; stroke-linecap: square"/>
     </g>
     <g id="line2d_6">
      <g>
       <use xlink:href="#m68412c2a30" x="425.57187" y="384.48" style="stroke: #000000; stroke-width: 0.8"/>
      </g>
     </g>
     <g id="text_3">
      <!-- 1000 -->
      <g transform="translate(412.84687 399.078438) scale(0.1 -0.1)">
       <defs>
        <path id="DejaVuSans-31" d="M 794 531 
L 1825 531 
L 1825 4091 
L 703 3866 
L 703 4441 
L 1819 4666 
L 2450 4666 
L 2450 531 
L 3481 531 
L 3481 0 
L 794 0 
L 794 531 
z
" transform="scale(0.015625)"/>
       </defs>
       <use xlink:href="#DejaVuSans-31"/>
       <use xlink:href="#DejaVuSans-30" transform="translate(63.623047 0)"/>
       <use xlink:href="#DejaVuSans-30" transform="translate(127.246094 0)"/>
       <use xlink:href="#DejaVuSans-30" transform="translate(190.869141 0)"/>
      </g>
     </g>
    </g>
    <g id="xtick_4">
     <g id="line2d_7">
      <path d="M 569.139623 384.48 
L 569.139623 51.84 
" clip-path="url(#pa7016a08eb)" style="fill: none; stroke: #b0b0b0; stroke-width: 0.8; stroke-linecap: square"/>
     </g>
     <g id="line2d_8">
      <g>
       <use xlink:href="#m68412c2a30" x="569.139623" y="384.48" style="stroke: #000000; stroke-width: 0.8"/>
      </g>
     </g>
     <g id="text_4">
      <!-- 1500 -->
      <g transform="translate(556.414623 399.078438) scale(0.1 -0.1)">
       <use xlink:href="#DejaVuSans-31"/>
       <use xlink:href="#DejaVuSans-35" transform="translate(63.623047 0)"/>
       <use xlink:href="#DejaVuSans-30" transform="translate(127.246094 0)"/>
       <use xlink:href="#DejaVuSans-30" transform="translate(190.869141 0)"/>
      </g>
     </g>
    </g>
    <g id="xtick_5">
     <g id="line2d_9">
      <path d="M 712.707376 384.48 
L 712.707376 51.84 
" clip-path="url(#pa7016a08eb)" style="fill: none; stroke: #b0b0b0; stroke-width: 0.8; stroke-linecap: square"/>
     </g>
     <g id="line2d_10">
      <g>
       <use xlink:href="#m68412c2a30" x="712.707376" y="384.48" style="stroke: #000000; stroke-width: 0.8"/>
      </g>
     </g>
     <g id="text_5">
      <!-- 2000 -->
      <g transform="translate(699.982376 399.078438) scale(0.1 -0.1)">
       <defs>
        <path id="DejaVuSans-32" d="M 1228 531 
L 3431 531 
L 3431 0 
L 469 0 
L 469 531 
Q 828 903 1448 1529 
Q 2069 2156 2228 2338 
Q 2531 2678 2651 2914 
Q 2772 3150 2772 3378 
Q 2772 3750 2511 3984 
Q 2250 4219 1831 4219 
Q 1534 4219 1204 4116 
Q 875 4013 500 3803 
L 500 4441 
Q 881 4594 1212 4672 
Q 1544 4750 1819 4750 
Q 2544 4750 2975 4387 
Q 3406 4025 3406 3419 
Q 3406 3131 3298 2873 
Q 3191 2616 2906 2266 
Q 2828 2175 2409 1742 
Q 1991 1309 1228 531 
z
" transform="scale(0.015625)"/>
       </defs>
       <use xlink:href="#DejaVuSans-32"/>
       <use xlink:href="#DejaVuSans-30" transform="translate(63.623047 0)"/>
       <use xlink:href="#DejaVuSans-30" transform="translate(127.246094 0)"/>
       <use xlink:href="#DejaVuSans-30" transform="translate(190.869141 0)"/>
      </g>
     </g>
    </g>
    <g id="text_6">
     <!-- Position in Text (Words) -->
     <g transform="translate(384.540625 412.756563) scale(0.1 -0.1)">
      <defs>
       <path id="DejaVuSans-50" d="M 1259 4147 
L 1259 2394 
L 2053 2394 
Q 2494 2394 2734 2622 
Q 2975 2850 2975 3272 
Q 2975 3691 2734 3919 
Q 2494 4147 2053 4147 
L 1259 4147 
z
M 628 4666 
L 2053 4666 
Q 2838 4666 3239 4311 
Q 3641 3956 3641 3272 
Q 3641 2581 3239 2228 
Q 2838 1875 2053 1875 
L 1259 1875 
L 1259 0 
L 628 0 
L 628 4666 
z
" transform="scale(0.015625)"/>
       <path id="DejaVuSans-6f" d="M 1959 3097 
Q 1497 3097 1228 2736 
Q 959 2375 959 1747 
Q 959 1119 1226 758 
Q 1494 397 1959 397 
Q 2419 397 2687 759 
Q 2956 1122 2956 1747 
Q 2956 2369 2687 2733 
Q 2419 3097 1959 3097 
z
M 1959 3584 
Q 2709 3584 3137 3096 
Q 3566 2609 3566 1747 
Q 3566 888 3137 398 
Q 2709 -91 1959 -91 
Q 1206 -91 779 398 
Q 353 888 353 1747 
Q 353 2609 779 3096 
Q 1206 3584 1959 3584 
z
" transform="scale(0.015625)"/>
       <path id="DejaVuSans-73" d="M 2834 3397 
L 2834 2853 
Q 2591 2978 2328 3040 
Q 2066 3103 1784 3103 
Q 1356 3103 1142 2972 
Q 928 2841 928 2578 
Q 928 2378 1081 2264 
Q 1234 2150 1697 2047 
L 1894 2003 
Q 2506 1872 2764 1633 
Q 3022 1394 3022 966 
Q 3022 478 2636 193 
Q 2250 -91 1575 -91 
Q 1294 -91 989 -36 
Q 684 19 347 128 
L 347 722 
Q 666 556 975 473 
Q 1284 391 1588 391 
Q 1994 391 2212 530 
Q 2431 669 2431 922 
Q 2431 1156 2273 1281 
Q 2116 1406 1581 1522 
L 1381 1569 
Q 847 1681 609 1914 
Q 372 2147 372 2553 
Q 372 3047 722 3315 
Q 1072 3584 1716 3584 
Q 2034 3584 2315 3537 
Q 2597 3491 2834 3397 
z
" transform="scale(0.015625)"/>
       <path id="DejaVuSans-69" d="M 603 3500 
L 1178 3500 
L 1178 0 
L 603 0 
L 603 3500 
z
M 603 4863 
L 1178 4863 
L 1178 4134 
L 603 4134 
L 603 4863 
z
" transform="scale(0.015625)"/>
       <path id="DejaVuSans-74" d="M 1172 4494 
L 1172 3500 
L 2356 3500 
L 2356 3053 
L 1172 3053 
L 1172 1153 
Q 1172 725 1289 603 
Q 1406 481 1766 481 
L 2356 481 
L 2356 0 
L 1766 0 
Q 1100 0 847 248 
Q 594 497 594 1153 
L 594 3053 
L 172 3053 
L 172 3500 
L 594 3500 
L 594 4494 
L 1172 4494 
z
" transform="scale(0.015625)"/>
       <path id="DejaVuSans-6e" d="M 3513 2113 
L 3513 0 
L 2938 0 
L 2938 2094 
Q 2938 2591 2744 2837 
Q 2550 3084 2163 3084 
Q 1697 3084 1428 2787 
Q 1159 2491 1159 1978 
L 1159 0 
L 581 0 
L 581 3500 
L 1159 3500 
L 1159 2956 
Q 1366 3272 1645 3428 
Q 1925 3584 2291 3584 
Q 2894 3584 3203 3211 
Q 3513 2838 3513 2113 
z
" transform="scale(0.015625)"/>
       <path id="DejaVuSans-20" transform="scale(0.015625)"/>
       <path id="DejaVuSans-54" d="M -19 4666 
L 3928 4666 
L 3928 4134 
L 2272 4134 
L 2272 0 
L 1638 0 
L 1638 4134 
L -19 4134 
L -19 4666 
z
" transform="scale(0.015625)"/>
       <path id="DejaVuSans-65" d="M 3597 1894 
L 3597 1613 
L 953 1613 
Q 991 1019 1311 708 
Q 1631 397 2203 397 
Q 2534 397 2845 478 
Q 3156 559 3463 722 
L 3463 178 
Q 3153 47 2828 -22 
Q 2503 -91 2169 -91 
Q 1331 -91 842 396 
Q 353 884 353 1716 
Q 353 2575 817 3079 
Q 1281 3584 2069 3584 
Q 2775 3584 3186 3129 
Q 3597 2675 3597 1894 
z
M 3022 2063 
Q 3016 2534 2758 2815 
Q 2500 3097 2075 3097 
Q 1594 3097 1305 2825 
Q 1016 2553 972 2059 
L 3022 2063 
z
" transform="scale(0.015625)"/>
       <path id="DejaVuSans-78" d="M 3513 3500 
L 2247 1797 
L 3578 0 
L 2900 0 
L 1881 1375 
L 863 0 
L 184 0 
L 1544 1831 
L 300 3500 
L 978 3500 
L 1906 2253 
L 2834 3500 
L 3513 3500 
z
" transform="scale(0.015625)"/>
       <path id="DejaVuSans-28" d="M 1984 4856 
Q 1566 4138 1362 3434 
Q 1159 2731 1159 2009 
Q 1159 1288 1364 580 
Q 1569 -128 1984 -844 
L 1484 -844 
Q 1016 -109 783 600 
Q 550 1309 550 2009 
Q 550 2706 781 3412 
Q 1013 4119 1484 4856 
L 1984 4856 
z
" transform="scale(0.015625)"/>
       <path id="DejaVuSans-57" d="M 213 4666 
L 850 4666 
L 1831 722 
L 2809 4666 
L 3519 4666 
L 4500 722 
L 5478 4666 
L 6119 4666 
L 4947 0 
L 4153 0 
L 3169 4050 
L 2175 0 
L 1381 0 
L 213 4666 
z
" transform="scale(0.015625)"/>
       <path id="DejaVuSans-72" d="M 2631 2963 
Q 2534 3019 2420 3045 
Q 2306 3072 2169 3072 
Q 1681 3072 1420 2755 
Q 1159 2438 1159 1844 
L 1159 0 
L 581 0 
L 581 3500 
L 1159 3500 
L 1159 2956 
Q 1341 3275 1631 3429 
Q 1922 3584 2338 3584 
Q 2397 3584 2469 3576 
Q 2541 3569 2628 3553 
L 2631 2963 
z
" transform="scale(0.015625)"/>
       <path id="DejaVuSans-64" d="M 2906 2969 
L 2906 4863 
L 3481 4863 
L 3481 0 
L 2906 0 
L 2906 525 
Q 2725 213 2448 61 
Q 2172 -91 1784 -91 
Q 1150 -91 751 415 
Q 353 922 353 1747 
Q 353 2572 751 3078 
Q 1150 3584 1784 3584 
Q 2172 3584 2448 3432 
Q 2725 3281 2906 2969 
z
M 947 1747 
Q 947 1113 1208 752 
Q 1469 391 1925 391 
Q 2381 391 2643 752 
Q 2906 1113 2906 1747 
Q 2906 2381 2643 2742 
Q 2381 3103 1925 3103 
Q 1469 3103 1208 2742 
Q 947 2381 947 1747 
z
" transform="scale(0.015625)"/>
       <path id="DejaVuSans-29" d="M 513 4856 
L 1013 4856 
Q 1481 4119 1714 3412 
Q 1947 2706 1947 2009 
Q 1947 1309 1714 600 
Q 1481 -109 1013 -844 
L 513 -844 
Q 928 -128 1133 580 
Q 1338 1288 1338 2009 
Q 1338 2731 1133 3434 
Q 928 4138 513 4856 
z
" transform="scale(0.015625)"/>
      </defs>
      <use xlink:href="#DejaVuSans-50"/>
      <use xlink:href="#DejaVuSans-6f" transform="translate(56.677734 0)"/>
      <use xlink:href="#DejaVuSans-73" transform="translate(117.859375 0)"/>
      <use xlink:href="#DejaVuSans-69" transform="translate(169.958984 0)"/>
      <use xlink:href="#DejaVuSans-74" transform="translate(197.742188 0)"/>
      <use xlink:href="#DejaVuSans-69" transform="translate(236.951172 0)"/>
      <use xlink:href="#DejaVuSans-6f" transform="translate(264.734375 0)"/>
      <use xlink:href="#DejaVuSans-6e" transform="translate(325.916016 0)"/>
      <use xlink:href="#DejaVuSans-20" transform="translate(389.294922 0)"/>
      <use xlink:href="#DejaVuSans-69" transform="translate(421.082031 0)"/>
      <use xlink:href="#DejaVuSans-6e" transform="translate(448.865234 0)"/>
      <use xlink:href="#DejaVuSans-20" transform="translate(512.244141 0)"/>
      <use xlink:href="#DejaVuSans-54" transform="translate(544.03125 0)"/>
      <use xlink:href="#DejaVuSans-65" transform="translate(588.115234 0)"/>
      <use xlink:href="#DejaVuSans-78" transform="translate(647.888672 0)"/>
      <use xlink:href="#DejaVuSans-74" transform="translate(707.068359 0)"/>
      <use xlink:href="#DejaVuSans-20" transform="translate(746.277344 0)"/>
      <use xlink:href="#DejaVuSans-28" transform="translate(778.064453 0)"/>
      <use xlink:href="#DejaVuSans-57" transform="translate(817.078125 0)"/>
      <use xlink:href="#DejaVuSans-6f" transform="translate(910.080078 0)"/>
      <use xlink:href="#DejaVuSans-72" transform="translate(971.261719 0)"/>
      <use xlink:href="#DejaVuSans-64" transform="translate(1010.625 0)"/>
      <use xlink:href="#DejaVuSans-73" transform="translate(1074.101562 0)"/>
      <use xlink:href="#DejaVuSans-29" transform="translate(1126.201172 0)"/>
     </g>
    </g>
   </g>
   <g id="matplotlib.axis_2">
    <g id="ytick_1">
     <g id="line2d_11">
      <path d="M 108 364.843329 
L 777.6 364.843329 
" clip-path="url(#pa7016a08eb)" style="fill: none; stroke: #b0b0b0; stroke-width: 0.8; stroke-linecap: square"/>
     </g>
     <g id="line2d_12">
      <defs>
       <path id="mf75378b970" d="M 0 0 
L -3.5 0 
" style="stroke: #000000; stroke-width: 0.8"/>
      </defs>
      <g>
       <use xlink:href="#mf75378b970" x="108" y="364.843329" style="stroke: #000000; stroke-width: 0.8"/>
      </g>
     </g>
     <g id="text_7">
      <!-- −0.6 -->
      <g transform="translate(76.717187 368.642547) scale(0.1 -0.1)">
       <defs>
        <path id="DejaVuSans-2212" d="M 678 2272 
L 4684 2272 
L 4684 1741 
L 678 1741 
L 678 2272 
z
" transform="scale(0.015625)"/>
        <path id="DejaVuSans-2e" d="M 684 794 
L 1344 794 
L 1344 0 
L 684 0 
L 684 794 
z
" transform="scale(0.015625)"/>
        <path id="DejaVuSans-36" d="M 2113 2584 
Q 1688 2584 1439 2293 
Q 1191 2003 1191 1497 
Q 1191 994 1439 701 
Q 1688 409 2113 409 
Q 2538 409 2786 701 
Q 3034 994 3034 1497 
Q 3034 2003 2786 2293 
Q 2538 2584 2113 2584 
z
M 3366 4563 
L 3366 3988 
Q 3128 4100 2886 4159 
Q 2644 4219 2406 4219 
Q 1781 4219 1451 3797 
Q 1122 3375 1075 2522 
Q 1259 2794 1537 2939 
Q 1816 3084 2150 3084 
Q 2853 3084 3261 2657 
Q 3669 2231 3669 1497 
Q 3669 778 3244 343 
Q 2819 -91 2113 -91 
Q 1303 -91 875 529 
Q 447 1150 447 2328 
Q 447 3434 972 4092 
Q 1497 4750 2381 4750 
Q 2619 4750 2861 4703 
Q 3103 4656 3366 4563 
z
" transform="scale(0.015625)"/>
       </defs>
       <use xlink:href="#DejaVuSans-2212"/>
       <use xlink:href="#DejaVuSans-30" transform="translate(83.789062 0)"/>
       <use xlink:href="#DejaVuSans-2e" transform="translate(147.412109 0)"/>
       <use xlink:href="#DejaVuSans-36" transform="translate(179.199219 0)"/>
      </g>
     </g>
    </g>
    <g id="ytick_2">
     <g id="line2d_13">
      <path d="M 108 317.376623 
L 777.6 317.376623 
" clip-path="url(#pa7016a08eb)" style="fill: none; stroke: #b0b0b0; stroke-width: 0.8; stroke-linecap: square"/>
     </g>
     <g id="line2d_14">
      <g>
       <use xlink:href="#mf75378b970" x="108" y="317.376623" style="stroke: #000000; stroke-width: 0.8"/>
      </g>
     </g>
     <g id="text_8">
      <!-- −0.4 -->
      <g transform="translate(76.717187 321.175842) scale(0.1 -0.1)">
       <defs>
        <path id="DejaVuSans-34" d="M 2419 4116 
L 825 1625 
L 2419 1625 
L 2419 4116 
z
M 2253 4666 
L 3047 4666 
L 3047 1625 
L 3713 1625 
L 3713 1100 
L 3047 1100 
L 3047 0 
L 2419 0 
L 2419 1100 
L 313 1100 
L 313 1709 
L 2253 4666 
z
" transform="scale(0.015625)"/>
       </defs>
       <use xlink:href="#DejaVuSans-2212"/>
       <use xlink:href="#DejaVuSans-30" transform="translate(83.789062 0)"/>
       <use xlink:href="#DejaVuSans-2e" transform="translate(147.412109 0)"/>
       <use xlink:href="#DejaVuSans-34" transform="translate(179.199219 0)"/>
      </g>
     </g>
    </g>
    <g id="ytick_3">
     <g id="line2d_15">
      <path d="M 108 269.909917 
L 777.6 269.909917 
" clip-path="url(#pa7016a08eb)" style="fill: none; stroke: #b0b0b0; stroke-width: 0.8; stroke-linecap: square"/>
     </g>
     <g id="line2d_16">
      <g>
       <use xlink:href="#mf75378b970" x="108" y="269.909917" style="stroke: #000000; stroke-width: 0.8"/>
      </g>
     </g>
     <g id="text_9">
      <!-- −0.2 -->
      <g transform="translate(76.717187 273.709136) scale(0.1 -0.1)">
       <use xlink:href="#DejaVuSans-2212"/>
       <use xlink:href="#DejaVuSans-30" transform="translate(83.789062 0)"/>
       <use xlink:href="#DejaVuSans-2e" transform="translate(147.412109 0)"/>
       <use xlink:href="#DejaVuSans-32" transform="translate(179.199219 0)"/>
      </g>
     </g>
    </g>
    <g id="ytick_4">
     <g id="line2d_17">
      <path d="M 108 222.443212 
L 777.6 222.443212 
" clip-path="url(#pa7016a08eb)" style="fill: none; stroke: #b0b0b0; stroke-width: 0.8; stroke-linecap: square"/>
     </g>
     <g id="line2d_18">
      <g>
       <use xlink:href="#mf75378b970" x="108" y="222.443212" style="stroke: #000000; stroke-width: 0.8"/>
      </g>
     </g>
     <g id="text_10">
      <!-- 0.0 -->
      <g transform="translate(85.096875 226.24243) scale(0.1 -0.1)">
       <use xlink:href="#DejaVuSans-30"/>
       <use xlink:href="#DejaVuSans-2e" transform="translate(63.623047 0)"/>
       <use xlink:href="#DejaVuSans-30" transform="translate(95.410156 0)"/>
      </g>
     </g>
    </g>
    <g id="ytick_5">
     <g id="line2d_19">
      <path d="M 108 174.976506 
L 777.6 174.976506 
" clip-path="url(#pa7016a08eb)" style="fill: none; stroke: #b0b0b0; stroke-width: 0.8; stroke-linecap: square"/>
     </g>
     <g id="line2d_20">
      <g>
       <use xlink:href="#mf75378b970" x="108" y="174.976506" style="stroke: #000000; stroke-width: 0.8"/>
      </g>
     </g>
     <g id="text_11">
      <!-- 0.2 -->
      <g transform="translate(85.096875 178.775725) scale(0.1 -0.1)">
       <use xlink:href="#DejaVuSans-30"/>
       <use xlink:href="#DejaVuSans-2e" transform="translate(63.623047 0)"/>
       <use xlink:href="#DejaVuSans-32" transform="translate(95.410156 0)"/>
      </g>
     </g>
    </g>
    <g id="ytick_6">
     <g id="line2d_21">
      <path d="M 108 127.5098 
L 777.6 127.5098 
" clip-path="url(#pa7016a08eb)" style="fill: none; stroke: #b0b0b0; stroke-width: 0.8; stroke-linecap: square"/>
     </g>
     <g id="line2d_22">
      <g>
       <use xlink:href="#mf75378b970" x="108" y="127.5098" style="stroke: #000000; stroke-width: 0.8"/>
      </g>
     </g>
     <g id="text_12">
      <!-- 0.4 -->
      <g transform="translate(85.096875 131.309019) scale(0.1 -0.1)">
       <use xlink:href="#DejaVuSans-30"/>
       <use xlink:href="#DejaVuSans-2e" transform="translate(63.623047 0)"/>
       <use xlink:href="#DejaVuSans-34" transform="translate(95.410156 0)"/>
      </g>
     </g>
    </g>
    <g id="ytick_7">
     <g id="line2d_23">
      <path d="M 108 80.043095 
L 777.6 80.043095 
" clip-path="url(#pa7016a08eb)" style="fill: none; stroke: #b0b0b0; stroke-width: 0.8; stroke-linecap: square"/>
     </g>
     <g id="line2d_24">
      <g>
       <use xlink:href="#mf75378b970" x="108" y="80.043095" style="stroke: #000000; stroke-width: 0.8"/>
      </g>
     </g>
     <g id="text_13">
      <!-- 0.6 -->
      <g transform="translate(85.096875 83.842314) scale(0.1 -0.1)">
       <use xlink:href="#DejaVuSans-30"/>
       <use xlink:href="#DejaVuSans-2e" transform="translate(63.623047 0)"/>
       <use xlink:href="#DejaVuSans-36" transform="translate(95.410156 0)"/>
      </g>
     </g>
    </g>
    <g id="text_14">
     <!-- Alignment with characteristic -->
     <g transform="translate(70.6375 291.5975) rotate(-90) scale(0.1 -0.1)">
      <defs>
       <path id="DejaVuSans-41" d="M 2188 4044 
L 1331 1722 
L 3047 1722 
L 2188 4044 
z
M 1831 4666 
L 2547 4666 
L 4325 0 
L 3669 0 
L 3244 1197 
L 1141 1197 
L 716 0 
L 50 0 
L 1831 4666 
z
" transform="scale(0.015625)"/>
       <path id="DejaVuSans-6c" d="M 603 4863 
L 1178 4863 
L 1178 0 
L 603 0 
L 603 4863 
z
" transform="scale(0.015625)"/>
       <path id="DejaVuSans-67" d="M 2906 1791 
Q 2906 2416 2648 2759 
Q 2391 3103 1925 3103 
Q 1463 3103 1205 2759 
Q 947 2416 947 1791 
Q 947 1169 1205 825 
Q 1463 481 1925 481 
Q 2391 481 2648 825 
Q 2906 1169 2906 1791 
z
M 3481 434 
Q 3481 -459 3084 -895 
Q 2688 -1331 1869 -1331 
Q 1566 -1331 1297 -1286 
Q 1028 -1241 775 -1147 
L 775 -588 
Q 1028 -725 1275 -790 
Q 1522 -856 1778 -856 
Q 2344 -856 2625 -561 
Q 2906 -266 2906 331 
L 2906 616 
Q 2728 306 2450 153 
Q 2172 0 1784 0 
Q 1141 0 747 490 
Q 353 981 353 1791 
Q 353 2603 747 3093 
Q 1141 3584 1784 3584 
Q 2172 3584 2450 3431 
Q 2728 3278 2906 2969 
L 2906 3500 
L 3481 3500 
L 3481 434 
z
" transform="scale(0.015625)"/>
       <path id="DejaVuSans-6d" d="M 3328 2828 
Q 3544 3216 3844 3400 
Q 4144 3584 4550 3584 
Q 5097 3584 5394 3201 
Q 5691 2819 5691 2113 
L 5691 0 
L 5113 0 
L 5113 2094 
Q 5113 2597 4934 2840 
Q 4756 3084 4391 3084 
Q 3944 3084 3684 2787 
Q 3425 2491 3425 1978 
L 3425 0 
L 2847 0 
L 2847 2094 
Q 2847 2600 2669 2842 
Q 2491 3084 2119 3084 
Q 1678 3084 1418 2786 
Q 1159 2488 1159 1978 
L 1159 0 
L 581 0 
L 581 3500 
L 1159 3500 
L 1159 2956 
Q 1356 3278 1631 3431 
Q 1906 3584 2284 3584 
Q 2666 3584 2933 3390 
Q 3200 3197 3328 2828 
z
" transform="scale(0.015625)"/>
       <path id="DejaVuSans-77" d="M 269 3500 
L 844 3500 
L 1563 769 
L 2278 3500 
L 2956 3500 
L 3675 769 
L 4391 3500 
L 4966 3500 
L 4050 0 
L 3372 0 
L 2619 2869 
L 1863 0 
L 1184 0 
L 269 3500 
z
" transform="scale(0.015625)"/>
       <path id="DejaVuSans-68" d="M 3513 2113 
L 3513 0 
L 2938 0 
L 2938 2094 
Q 2938 2591 2744 2837 
Q 2550 3084 2163 3084 
Q 1697 3084 1428 2787 
Q 1159 2491 1159 1978 
L 1159 0 
L 581 0 
L 581 4863 
L 1159 4863 
L 1159 2956 
Q 1366 3272 1645 3428 
Q 1925 3584 2291 3584 
Q 2894 3584 3203 3211 
Q 3513 2838 3513 2113 
z
" transform="scale(0.015625)"/>
       <path id="DejaVuSans-63" d="M 3122 3366 
L 3122 2828 
Q 2878 2963 2633 3030 
Q 2388 3097 2138 3097 
Q 1578 3097 1268 2742 
Q 959 2388 959 1747 
Q 959 1106 1268 751 
Q 1578 397 2138 397 
Q 2388 397 2633 464 
Q 2878 531 3122 666 
L 3122 134 
Q 2881 22 2623 -34 
Q 2366 -91 2075 -91 
Q 1284 -91 818 406 
Q 353 903 353 1747 
Q 353 2603 823 3093 
Q 1294 3584 2113 3584 
Q 2378 3584 2631 3529 
Q 2884 3475 3122 3366 
z
" transform="scale(0.015625)"/>
       <path id="DejaVuSans-61" d="M 2194 1759 
Q 1497 1759 1228 1600 
Q 959 1441 959 1056 
Q 959 750 1161 570 
Q 1363 391 1709 391 
Q 2188 391 2477 730 
Q 2766 1069 2766 1631 
L 2766 1759 
L 2194 1759 
z
M 3341 1997 
L 3341 0 
L 2766 0 
L 2766 531 
Q 2569 213 2275 61 
Q 1981 -91 1556 -91 
Q 1019 -91 701 211 
Q 384 513 384 1019 
Q 384 1609 779 1909 
Q 1175 2209 1959 2209 
L 2766 2209 
L 2766 2266 
Q 2766 2663 2505 2880 
Q 2244 3097 1772 3097 
Q 1472 3097 1187 3025 
Q 903 2953 641 2809 
L 641 3341 
Q 956 3463 1253 3523 
Q 1550 3584 1831 3584 
Q 2591 3584 2966 3190 
Q 3341 2797 3341 1997 
z
" transform="scale(0.015625)"/>
      </defs>
      <use xlink:href="#DejaVuSans-41"/>
      <use xlink:href="#DejaVuSans-6c" transform="translate(68.408203 0)"/>
      <use xlink:href="#DejaVuSans-69" transform="translate(96.191406 0)"/>
      <use xlink:href="#DejaVuSans-67" transform="translate(123.974609 0)"/>
      <use xlink:href="#DejaVuSans-6e" transform="translate(187.451172 0)"/>
      <use xlink:href="#DejaVuSans-6d" transform="translate(250.830078 0)"/>
      <use xlink:href="#DejaVuSans-65" transform="translate(348.242188 0)"/>
      <use xlink:href="#DejaVuSans-6e" transform="translate(409.765625 0)"/>
      <use xlink:href="#DejaVuSans-74" transform="translate(473.144531 0)"/>
      <use xlink:href="#DejaVuSans-20" transform="translate(512.353516 0)"/>
      <use xlink:href="#DejaVuSans-77" transform="translate(544.140625 0)"/>
      <use xlink:href="#DejaVuSans-69" transform="translate(625.927734 0)"/>
      <use xlink:href="#DejaVuSans-74" transform="translate(653.710938 0)"/>
      <use xlink:href="#DejaVuSans-68" transform="translate(692.919922 0)"/>
      <use xlink:href="#DejaVuSans-20" transform="translate(756.298828 0)"/>
      <use xlink:href="#DejaVuSans-63" transform="translate(788.085938 0)"/>
      <use xlink:href="#DejaVuSans-68" transform="translate(843.066406 0)"/>
      <use xlink:href="#DejaVuSans-61" transform="translate(906.445312 0)"/>
      <use xlink:href="#DejaVuSans-72" transform="translate(967.724609 0)"/>
      <use xlink:href="#DejaVuSans-61" transform="translate(1008.837891 0)"/>
      <use xlink:href="#DejaVuSans-63" transform="translate(1070.117188 0)"/>
      <use xlink:href="#DejaVuSans-74" transform="translate(1125.097656 0)"/>
      <use xlink:href="#DejaVuSans-65" transform="translate(1164.306641 0)"/>
      <use xlink:href="#DejaVuSans-72" transform="translate(1225.830078 0)"/>
      <use xlink:href="#DejaVuSans-69" transform="translate(1266.943359 0)"/>
      <use xlink:href="#DejaVuSans-73" transform="translate(1294.726562 0)"/>
      <use xlink:href="#DejaVuSans-74" transform="translate(1346.826172 0)"/>
      <use xlink:href="#DejaVuSans-69" transform="translate(1386.035156 0)"/>
      <use xlink:href="#DejaVuSans-63" transform="translate(1413.818359 0)"/>
     </g>
    </g>
   </g>
   <g id="line2d_25">
    <path d="M 138.436364 224.215616 
L 145.04048 222.672392 
L 149.634648 230.671178 
L 155.95163 236.795503 
L 161.407204 233.592288 
L 165.139966 237.693311 
L 171.744082 240.799246 
L 177.773928 234.152566 
L 183.229503 228.514929 
L 189.259348 228.180772 
L 196.1506 233.549709 
L 201.319039 229.777734 
L 206.487479 230.606216 
L 208.784563 227.74245 
L 214.240137 224.07588 
L 216.537221 223.762511 
L 219.408576 226.240115 
L 224.864151 213.732988 
L 230.319726 218.40983 
L 236.923842 223.774905 
L 242.666552 226.786389 
L 246.399314 226.605221 
L 250.132075 240.705707 
L 255.874786 248.577213 
L 257.597599 258.891283 
L 263.627444 258.75449 
L 268.508748 276.482779 
L 274.538593 280.77983 
L 279.707033 288.331082 
L 285.162607 293.425597 
L 291.766724 291.137656 
L 298.083705 289.124758 
L 306.69777 300.560606 
L 312.153345 295.400122 
L 314.163293 298.464734 
L 315.0247 295.64304 
L 319.906003 300.508729 
L 328.520069 305.971098 
L 336.272727 306.021675 
L 342.876844 302.702002 
L 346.32247 316.074352 
L 349.768096 311.09057 
L 353.500858 298.028272 
L 358.095026 295.184099 
L 364.124871 300.63266 
L 373.313208 307.466992 
L 375.323156 319.606568 
L 379.055918 317.98735 
L 387.382847 309.471027 
L 388.244254 307.891888 
L 391.68988 315.603036 
L 398.006861 316.902575 
L 399.442539 310.595239 
L 400.878216 314.543762 
L 402.313894 323.450338 
L 406.620926 323.162261 
L 412.076501 320.557003 
L 420.116295 333.632819 
L 421.551973 343.692303 
L 423.561921 339.421922 
L 427.868954 341.234463 
L 432.750257 328.699586 
L 435.908748 331.088756 
L 439.354374 337.264932 
L 442.8 330.268879 
L 447.107033 317.720095 
L 451.988336 298.389049 
L 458.879588 284.904969 
L 461.176672 257.947242 
L 465.77084 243.600964 
L 470.652144 234.071116 
L 473.236364 218.036988 
L 475.246312 202.458344 
L 481.563293 193.23515 
L 485.870326 183.014776 
L 492.761578 181.065623 
L 498.504288 170.836539 
L 504.534134 168.29553 
L 507.118353 165.604364 
L 508.266895 159.124421 
L 514.296741 164.488941 
L 520.613722 180.068109 
L 524.633619 183.248162 
L 527.79211 191.069118 
L 531.237736 189.599692 
L 537.841852 185.455623 
L 541.000343 185.124127 
L 541.574614 186.327263 
L 543.010292 184.602032 
L 552.485763 182.105154 
L 555.644254 184.156497 
L 559.951286 190.161696 
L 563.684048 191.877256 
L 566.268268 192.687996 
L 575.743739 203.065978 
L 579.763636 217.402589 
L 583.496398 212.471673 
L 586.367753 214.618625 
L 590.38765 220.017613 
L 593.833276 226.764983 
L 599.575986 239.993717 
L 603.883019 252.472767 
L 606.754374 263.359377 
L 607.902916 262.407666 
L 611.348542 265.957862 
L 614.794168 267.019326 
L 618.239794 265.21469 
L 623.695369 268.956341 
L 628.863808 275.983405 
L 635.467925 271.749848 
L 641.784906 262.218743 
L 645.517667 271.210645 
L 651.547513 268.668725 
L 653.270326 268.94968 
L 655.280274 274.836445 
L 659.013036 280.579637 
L 664.755746 279.413769 
L 669.924185 273.32594 
L 673.082676 280.622434 
L 674.518353 282.382833 
L 675.37976 284.340882 
L 677.102573 287.152161 
L 682.271012 286.18266 
L 683.993825 288.598198 
L 684.855232 290.860368 
L 688.300858 286.640129 
L 692.033619 279.52546 
L 693.182161 277.704182 
L 693.756432 273.390583 
L 694.904974 267.001676 
L 695.479245 262.068566 
L 701.509091 260.856388 
L 702.370497 263.87883 
L 707.826072 255.142886 
L 708.687479 249.989752 
L 710.697427 258.238227 
L 712.42024 263.938929 
L 715.291595 264.914491 
L 719.598628 259.817497 
L 722.757118 262.444245 
L 725.915609 277.471812 
L 727.351286 281.110124 
L 727.925557 278.5174 
L 729.64837 279.222535 
L 733.093997 280.770349 
L 735.965352 268.095257 
L 736.539623 269.809165 
L 738.549571 287.204012 
L 739.698113 295.316705 
L 743.71801 304.580765 
L 747.163636 302.633673 
L 747.163636 302.633673 
" clip-path="url(#pa7016a08eb)" style="fill: none; stroke: #006837; stroke-width: 1.5; stroke-linecap: square"/>
   </g>
   <g id="line2d_26">
    <path d="M 138.436364 178.0328 
L 145.04048 180.380506 
L 149.634648 181.13935 
L 155.95163 166.816396 
L 161.407204 164.492735 
L 165.139966 167.78544 
L 171.744082 167.234297 
L 177.773928 169.247473 
L 183.229503 173.445003 
L 189.259348 167.571674 
L 196.1506 162.034115 
L 201.319039 169.216497 
L 206.487479 173.128305 
L 208.784563 170.978007 
L 214.240137 169.00558 
L 216.537221 172.164704 
L 219.408576 173.283398 
L 224.864151 174.56591 
L 230.319726 194.914455 
L 236.923842 202.697493 
L 242.666552 203.354306 
L 246.399314 199.179771 
L 250.132075 195.173644 
L 255.874786 205.631067 
L 257.597599 214.601911 
L 263.627444 225.568346 
L 268.508748 236.140613 
L 274.538593 249.62126 
L 279.707033 269.755617 
L 285.162607 280.827042 
L 291.766724 278.286378 
L 298.083705 284.134313 
L 306.69777 298.935694 
L 312.153345 300.608167 
L 314.163293 297.057507 
L 315.0247 300.685108 
L 319.906003 315.554766 
L 328.520069 326.445452 
L 336.272727 328.690974 
L 342.876844 329.2659 
L 346.32247 335.889549 
L 349.768096 335.693087 
L 353.500858 329.283691 
L 358.095026 322.6981 
L 364.124871 320.552279 
L 373.313208 320.894451 
L 375.323156 325.53446 
L 379.055918 326.201758 
L 387.382847 316.943877 
L 388.244254 325.423664 
L 391.68988 334.640118 
L 398.006861 333.199124 
L 399.442539 339.045348 
L 400.878216 337.724286 
L 402.313894 339.699354 
L 406.620926 335.648493 
L 412.076501 333.646447 
L 420.116295 336.666261 
L 421.551973 342.512988 
L 423.561921 354.350915 
L 427.868954 362.112587 
L 432.750257 351.958737 
L 435.908748 341.414906 
L 439.354374 342.303339 
L 440.502916 336.028785 
L 442.8 331.654945 
L 447.107033 327.744751 
L 451.988336 316.109581 
L 458.879588 300.445533 
L 461.176672 285.573332 
L 465.77084 272.875466 
L 473.236364 249.062025 
L 475.246312 230.608689 
L 481.563293 217.187444 
L 485.870326 202.660119 
L 492.761578 206.42742 
L 498.504288 206.787145 
L 504.534134 200.975641 
L 507.118353 197.856303 
L 508.266895 191.733315 
L 514.296741 180.491745 
L 520.613722 170.232117 
L 524.633619 177.337535 
L 527.79211 179.966761 
L 531.237736 178.555596 
L 537.841852 182.699292 
L 541.000343 183.043172 
L 541.574614 189.134877 
L 543.010292 181.072022 
L 552.485763 169.945422 
L 555.644254 158.873842 
L 559.951286 151.460558 
L 563.684048 152.941731 
L 566.268268 156.009572 
L 575.743739 164.202159 
L 579.763636 180.09146 
L 583.496398 190.521424 
L 586.367753 196.11534 
L 590.38765 200.609369 
L 593.833276 211.136338 
L 599.575986 225.781237 
L 603.883019 237.430162 
L 606.754374 245.54198 
L 607.902916 258.053935 
L 611.348542 272.523965 
L 614.794168 279.032696 
L 618.239794 289.621511 
L 623.695369 299.220876 
L 628.863808 305.453599 
L 635.467925 295.556237 
L 641.784906 295.15141 
L 645.517667 301.202831 
L 651.547513 297.874509 
L 653.270326 288.947793 
L 655.280274 287.436965 
L 659.013036 286.228825 
L 664.755746 284.25222 
L 669.924185 287.927437 
L 673.082676 282.740169 
L 674.518353 290.749129 
L 675.37976 298.501707 
L 677.102573 292.649916 
L 682.271012 285.43201 
L 683.993825 289.386757 
L 684.855232 298.252737 
L 688.300858 295.159673 
L 692.033619 289.034307 
L 693.182161 285.696469 
L 693.756432 286.893219 
L 694.904974 277.923309 
L 695.479245 277.881803 
L 701.509091 280.478892 
L 702.370497 270.361134 
L 704.667581 269.140928 
L 707.826072 257.838249 
L 708.687479 255.688199 
L 710.697427 264.90127 
L 712.42024 274.236882 
L 715.291595 270.135123 
L 719.598628 264.456641 
L 722.757118 273.785579 
L 725.915609 283.57058 
L 727.351286 293.131663 
L 727.925557 299.453873 
L 729.64837 307.829943 
L 733.093997 303.521447 
L 735.965352 297.377951 
L 736.539623 311.312637 
L 738.549571 322.954022 
L 739.698113 338.171901 
L 743.71801 336.444848 
L 747.163636 340.015114 
L 747.163636 340.015114 
" clip-path="url(#pa7016a08eb)" style="fill: none; stroke: #39a758; stroke-width: 1.5; stroke-linecap: square"/>
   </g>
   <g id="line2d_27">
    <path d="M 138.436364 168.293763 
L 145.04048 184.389837 
L 149.634648 189.156811 
L 155.95163 189.739962 
L 161.407204 194.056507 
L 165.139966 185.686486 
L 171.744082 182.179047 
L 177.773928 185.218458 
L 183.229503 205.344211 
L 189.259348 199.595157 
L 196.1506 203.119088 
L 201.319039 209.735936 
L 206.487479 218.413389 
L 208.784563 214.603341 
L 214.240137 205.27226 
L 219.408576 177.964058 
L 224.864151 184.905522 
L 230.319726 202.961918 
L 236.923842 204.455631 
L 242.666552 222.188493 
L 246.399314 221.641696 
L 250.132075 204.327298 
L 255.874786 200.524844 
L 257.597599 198.163568 
L 263.627444 201.409642 
L 268.508748 210.015634 
L 274.538593 215.58253 
L 279.707033 238.801616 
L 285.162607 250.00999 
L 291.766724 249.53414 
L 298.083705 265.731647 
L 306.69777 270.149609 
L 312.153345 253.531158 
L 314.163293 255.707818 
L 315.0247 246.577832 
L 319.906003 248.552643 
L 328.520069 261.732894 
L 336.272727 266.676124 
L 342.876844 270.495128 
L 346.32247 272.636855 
L 349.768096 267.376621 
L 353.500858 264.772591 
L 358.095026 253.075268 
L 364.124871 251.453172 
L 373.313208 255.739113 
L 375.323156 251.959343 
L 379.055918 251.161358 
L 387.382847 259.385646 
L 388.244254 268.710847 
L 391.68988 281.019023 
L 398.006861 288.008839 
L 399.442539 290.43137 
L 400.878216 295.870937 
L 402.313894 297.006643 
L 406.620926 292.134334 
L 412.076501 298.824579 
L 420.116295 303.144789 
L 421.551973 310.464132 
L 423.561921 319.446826 
L 427.868954 322.766866 
L 432.750257 315.077433 
L 435.908748 298.041318 
L 439.354374 290.377033 
L 440.502916 282.399188 
L 442.8 281.725443 
L 447.107033 288.004599 
L 451.988336 294.236719 
L 458.879588 276.628203 
L 461.176672 278.021568 
L 465.77084 277.84277 
L 470.652144 278.371155 
L 473.236364 278.334917 
L 475.246312 268.710688 
L 481.563293 265.822908 
L 485.870326 270.501245 
L 492.761578 280.465047 
L 498.504288 294.618844 
L 504.534134 302.89529 
L 507.118353 293.745522 
L 508.266895 285.557295 
L 514.296741 274.341106 
L 520.613722 272.3271 
L 524.633619 284.781803 
L 527.79211 284.929647 
L 531.237736 280.458562 
L 537.841852 275.362795 
L 541.000343 279.44372 
L 541.574614 274.03732 
L 543.010292 269.75665 
L 552.485763 251.813682 
L 555.644254 239.892379 
L 559.951286 235.823764 
L 563.684048 229.376683 
L 566.268268 235.702016 
L 575.743739 233.19086 
L 579.763636 234.441434 
L 583.496398 235.158437 
L 586.367753 236.692487 
L 590.38765 235.246522 
L 593.833276 248.503338 
L 599.575986 246.911454 
L 603.883019 244.697547 
L 606.754374 247.957467 
L 607.902916 263.798002 
L 611.348542 279.018219 
L 614.794168 291.360833 
L 618.239794 298.818146 
L 623.695369 311.407726 
L 628.863808 320.979783 
L 635.467925 325.7711 
L 641.784906 325.464912 
L 645.517667 327.908969 
L 651.547513 324.161402 
L 653.270326 319.769182 
L 655.280274 317.244109 
L 659.013036 327.783186 
L 664.755746 326.092663 
L 669.924185 336.713698 
L 673.082676 324.770846 
L 674.518353 325.85554 
L 675.37976 326.861414 
L 677.102573 324.416991 
L 682.271012 321.400965 
L 683.993825 320.879238 
L 684.855232 331.566417 
L 688.300858 339.197713 
L 692.033619 337.828704 
L 693.182161 347.502381 
L 693.756432 348.048739 
L 694.904974 344.221788 
L 695.479245 338.807859 
L 701.509091 336.882624 
L 702.370497 334.149091 
L 704.667581 330.093713 
L 707.826072 322.681793 
L 708.687479 318.753038 
L 710.697427 321.442548 
L 712.42024 328.330557 
L 715.291595 324.822323 
L 719.598628 316.921244 
L 722.757118 318.224346 
L 725.915609 315.947465 
L 727.351286 313.204096 
L 727.925557 319.314058 
L 729.64837 318.034023 
L 733.093997 317.480783 
L 735.965352 323.241295 
L 736.539623 325.568578 
L 738.549571 324.986414 
L 739.698113 331.37084 
L 743.71801 335.905092 
L 747.163636 337.57471 
L 747.163636 337.57471 
" clip-path="url(#pa7016a08eb)" style="fill: none; stroke: #9dd569; stroke-width: 1.5; stroke-linecap: square"/>
   </g>
   <g id="line2d_28">
    <path d="M 138.436364 128.745723 
L 145.04048 135.87978 
L 149.634648 145.034559 
L 155.95163 139.863065 
L 161.407204 130.948128 
L 165.139966 135.089945 
L 171.744082 133.984389 
L 177.773928 129.916007 
L 183.229503 126.074689 
L 189.259348 129.409749 
L 196.1506 130.504326 
L 201.319039 140.306435 
L 206.487479 148.466273 
L 208.784563 151.377035 
L 214.240137 146.732159 
L 216.537221 145.526264 
L 219.408576 149.465124 
L 224.864151 141.126244 
L 230.319726 157.506889 
L 236.923842 167.42958 
L 242.666552 168.620238 
L 246.399314 166.92356 
L 250.132075 168.414011 
L 255.874786 176.386114 
L 257.597599 184.215302 
L 263.627444 192.359494 
L 274.538593 213.690284 
L 279.707033 230.641499 
L 285.162607 242.162656 
L 291.766724 239.228567 
L 298.083705 237.03973 
L 306.69777 251.139598 
L 312.153345 246.828426 
L 314.163293 246.567133 
L 315.0247 245.757784 
L 319.906003 253.880443 
L 328.520069 260.617198 
L 336.272727 258.836135 
L 342.876844 258.041971 
L 346.32247 268.311665 
L 349.768096 271.782989 
L 353.500858 257.784686 
L 358.095026 248.970976 
L 364.124871 252.968554 
L 373.313208 255.565815 
L 375.323156 264.63953 
L 379.055918 265.866527 
L 387.382847 262.8824 
L 388.244254 268.0934 
L 391.68988 281.841744 
L 398.006861 284.648963 
L 399.442539 286.838107 
L 402.313894 297.483244 
L 406.620926 291.222221 
L 412.076501 285.523691 
L 420.116295 295.434438 
L 421.551973 306.073554 
L 423.561921 308.06086 
L 427.868954 314.740168 
L 432.750257 297.293612 
L 435.908748 286.803957 
L 439.354374 278.930243 
L 440.502916 275.225816 
L 442.8 260.679904 
L 447.107033 248.513174 
L 451.988336 241.46321 
L 458.879588 222.330011 
L 461.176672 205.527298 
L 465.77084 185.124624 
L 470.652144 172.755651 
L 473.236364 158.824619 
L 475.246312 138.670557 
L 481.563293 126.248718 
L 485.870326 108.374291 
L 492.761578 115.027141 
L 498.504288 105.786297 
L 504.534134 105.929184 
L 508.266895 93.450607 
L 514.296741 94.973499 
L 520.613722 89.574295 
L 524.633619 101.672194 
L 527.79211 100.317062 
L 531.237736 100.806715 
L 537.841852 96.266429 
L 541.000343 96.502885 
L 541.574614 107.197586 
L 543.010292 105.766824 
L 552.485763 101.712272 
L 555.644254 93.049972 
L 559.951286 98.394503 
L 563.684048 97.229605 
L 566.268268 99.017793 
L 575.743739 111.569537 
L 579.763636 121.231383 
L 583.496398 126.00309 
L 586.367753 127.438529 
L 590.38765 134.990191 
L 593.833276 152.691481 
L 599.575986 176.461748 
L 603.883019 189.888613 
L 606.754374 197.499059 
L 607.902916 208.98796 
L 611.348542 217.563111 
L 614.794168 227.106717 
L 618.239794 234.27758 
L 623.695369 247.426939 
L 628.863808 262.045601 
L 635.467925 256.29911 
L 641.784906 259.648346 
L 645.517667 270.605481 
L 651.547513 266.981799 
L 653.270326 265.196371 
L 655.280274 265.64514 
L 659.013036 261.06549 
L 664.755746 263.297412 
L 669.924185 256.031789 
L 673.082676 253.338481 
L 674.518353 268.042915 
L 675.37976 271.180358 
L 677.102573 274.443418 
L 682.271012 268.685022 
L 683.993825 267.413462 
L 684.855232 268.63707 
L 688.300858 265.157649 
L 692.033619 260.278202 
L 693.182161 263.44922 
L 693.756432 261.217033 
L 694.904974 250.848169 
L 695.479245 255.660067 
L 701.509091 253.37978 
L 702.370497 251.579567 
L 704.667581 249.426847 
L 707.826072 238.29696 
L 708.687479 240.864903 
L 710.697427 245.668276 
L 712.42024 255.117121 
L 715.291595 253.941051 
L 719.598628 251.763964 
L 722.757118 255.26679 
L 725.915609 262.594661 
L 727.351286 263.043593 
L 727.925557 271.01056 
L 729.64837 276.186767 
L 733.093997 266.76875 
L 735.965352 263.23407 
L 736.539623 274.975178 
L 739.698113 296.054651 
L 743.71801 293.093166 
L 747.163636 288.227043 
L 747.163636 288.227043 
" clip-path="url(#pa7016a08eb)" style="fill: none; stroke: #e3f399; stroke-width: 1.5; stroke-linecap: square"/>
   </g>
   <g id="line2d_29">
    <path d="M 138.436364 159.359905 
L 145.04048 157.857822 
L 149.634648 158.691097 
L 155.95163 154.825737 
L 161.407204 155.530827 
L 165.139966 165.897002 
L 171.744082 174.9807 
L 177.773928 174.059717 
L 183.229503 164.06125 
L 189.259348 162.585524 
L 196.1506 159.949089 
L 201.319039 156.907238 
L 206.487479 153.160365 
L 208.784563 155.296997 
L 216.537221 155.080625 
L 219.408576 157.611384 
L 224.864151 158.853949 
L 230.319726 171.043279 
L 236.923842 174.267548 
L 242.666552 172.235733 
L 246.399314 162.898144 
L 250.132075 169.930529 
L 255.874786 176.647888 
L 257.597599 196.11769 
L 263.627444 205.497029 
L 268.508748 213.639723 
L 274.538593 224.91712 
L 279.707033 236.925097 
L 285.162607 259.154902 
L 291.766724 268.907063 
L 298.083705 273.965162 
L 306.69777 283.510484 
L 312.153345 278.946753 
L 314.163293 281.555591 
L 315.0247 283.671062 
L 319.906003 296.013265 
L 328.520069 302.959684 
L 336.272727 302.840965 
L 342.876844 290.711918 
L 346.32247 299.241176 
L 349.768096 301.118945 
L 353.500858 289.703241 
L 358.095026 282.268058 
L 364.124871 281.170769 
L 373.313208 283.063937 
L 375.323156 289.497962 
L 379.055918 289.441158 
L 387.382847 285.352993 
L 388.244254 289.336718 
L 391.68988 296.895952 
L 398.006861 293.282245 
L 399.442539 288.577861 
L 400.878216 292.898585 
L 402.313894 300.031795 
L 406.620926 294.694938 
L 412.076501 287.560368 
L 420.116295 294.86954 
L 421.551973 304.443002 
L 423.561921 302.101762 
L 427.868954 308.207668 
L 432.750257 300.321574 
L 435.908748 293.982701 
L 439.354374 292.271538 
L 440.502916 288.513741 
L 442.8 281.657228 
L 447.107033 273.091081 
L 451.988336 262.618323 
L 458.879588 243.465795 
L 461.176672 222.033424 
L 465.77084 206.596565 
L 470.652144 197.160441 
L 473.236364 186.260738 
L 475.246312 165.281895 
L 481.563293 153.87605 
L 485.870326 134.521021 
L 492.761578 133.177151 
L 498.504288 128.383973 
L 504.534134 121.782556 
L 507.118353 108.463064 
L 508.266895 95.03842 
L 514.296741 92.828656 
L 520.613722 90.648398 
L 524.633619 101.64453 
L 527.79211 107.389513 
L 531.237736 104.300528 
L 537.841852 101.396626 
L 541.000343 101.577211 
L 541.574614 108.446186 
L 543.010292 101.032264 
L 552.485763 95.986034 
L 555.644254 94.452362 
L 559.951286 95.647529 
L 563.684048 105.740853 
L 566.268268 114.407448 
L 575.743739 130.366265 
L 579.763636 144.697462 
L 583.496398 151.305429 
L 586.367753 153.580885 
L 590.38765 158.787334 
L 593.833276 172.146339 
L 599.575986 187.362181 
L 603.883019 201.157344 
L 606.754374 209.065127 
L 607.902916 216.784317 
L 611.348542 220.817293 
L 614.794168 218.395922 
L 618.239794 225.548961 
L 623.695369 227.87596 
L 628.863808 234.097961 
L 635.467925 230.799403 
L 641.784906 224.662283 
L 645.517667 230.714706 
L 651.547513 230.470999 
L 653.270326 226.534805 
L 655.280274 228.552112 
L 659.013036 230.015531 
L 664.755746 223.202052 
L 669.924185 224.432957 
L 673.082676 224.501855 
L 674.518353 227.836916 
L 675.37976 232.735742 
L 677.102573 224.016643 
L 682.271012 215.236841 
L 683.993825 221.699661 
L 684.855232 227.896844 
L 688.300858 229.835 
L 692.033619 223.188852 
L 693.182161 219.239808 
L 693.756432 220.038563 
L 695.479245 209.45063 
L 701.509091 213.691007 
L 702.370497 210.623228 
L 704.667581 207.665244 
L 707.826072 203.090228 
L 708.687479 200.411868 
L 710.697427 216.908821 
L 712.42024 236.645048 
L 715.291595 232.227724 
L 719.598628 228.346304 
L 722.757118 230.146649 
L 725.915609 244.951551 
L 727.351286 252.486129 
L 727.925557 256.802327 
L 729.64837 259.7345 
L 733.093997 261.472164 
L 735.965352 255.184795 
L 736.539623 260.141215 
L 738.549571 274.269678 
L 739.698113 290.387135 
L 743.71801 292.950587 
L 747.163636 286.606037 
L 747.163636 286.606037 
" clip-path="url(#pa7016a08eb)" style="fill: none; stroke: #fee999; stroke-width: 1.5; stroke-linecap: square"/>
   </g>
   <g id="line2d_30">
    <path d="M 138.436364 164.364664 
L 145.04048 154.611117 
L 149.634648 154.97604 
L 155.95163 145.03764 
L 161.407204 142.313427 
L 165.139966 154.343952 
L 171.744082 158.248685 
L 177.773928 162.462744 
L 183.229503 156.187197 
L 189.259348 151.129997 
L 196.1506 148.017178 
L 201.319039 148.751305 
L 206.487479 141.587843 
L 208.784563 144.226925 
L 214.240137 150.222624 
L 216.537221 155.700859 
L 219.408576 164.989709 
L 224.864151 167.518122 
L 230.319726 182.151246 
L 236.923842 183.923973 
L 242.666552 176.892536 
L 246.399314 167.442315 
L 250.132075 168.675452 
L 255.874786 182.044632 
L 257.597599 201.561903 
L 263.627444 209.022343 
L 268.508748 216.863108 
L 274.538593 226.764154 
L 279.707033 238.362676 
L 285.162607 259.646078 
L 291.766724 261.662204 
L 298.083705 271.753128 
L 306.69777 281.298181 
L 312.153345 282.450793 
L 314.163293 281.623777 
L 315.0247 291.714135 
L 319.906003 312.953051 
L 328.520069 323.574216 
L 336.272727 317.127399 
L 342.876844 308.469595 
L 346.32247 319.872225 
L 349.768096 325.014304 
L 353.500858 320.72252 
L 358.095026 318.820442 
L 364.124871 318.803822 
L 373.313208 323.935524 
L 375.323156 327.333378 
L 379.055918 328.046416 
L 387.382847 320.29464 
L 388.244254 324.170472 
L 391.68988 328.273715 
L 398.006861 326.325914 
L 399.442539 323.169277 
L 400.878216 327.744695 
L 402.313894 331.11726 
L 406.620926 322.02448 
L 412.076501 315.157632 
L 420.116295 319.058212 
L 421.551973 326.459811 
L 423.561921 323.242571 
L 427.868954 321.939594 
L 432.750257 308.994547 
L 435.908748 305.9501 
L 439.354374 303.73168 
L 440.502916 304.891519 
L 442.8 289.404491 
L 447.107033 274.277072 
L 451.988336 263.112421 
L 458.879588 241.710583 
L 461.176672 222.376251 
L 465.77084 202.750865 
L 470.652144 181.057804 
L 473.236364 164.987625 
L 475.246312 138.978385 
L 481.563293 123.777865 
L 485.870326 98.731259 
L 492.761578 101.1495 
L 498.504288 91.669375 
L 504.534134 87.228899 
L 507.118353 76.055641 
L 508.266895 75.252479 
L 514.296741 75.48669 
L 520.613722 66.96 
L 524.633619 78.555767 
L 527.79211 82.292942 
L 531.237736 86.9014 
L 537.841852 89.599822 
L 541.000343 88.94276 
L 541.574614 98.24444 
L 543.010292 91.861932 
L 552.485763 94.637927 
L 555.644254 91.789746 
L 559.951286 84.257073 
L 563.684048 86.546186 
L 566.268268 92.24364 
L 575.743739 106.296751 
L 579.763636 117.443463 
L 583.496398 128.194041 
L 586.367753 129.401277 
L 590.38765 136.662302 
L 593.833276 149.461648 
L 599.575986 167.816466 
L 603.883019 186.890954 
L 606.754374 195.160778 
L 607.902916 203.728377 
L 611.348542 207.685184 
L 614.794168 201.390251 
L 618.239794 214.306339 
L 623.695369 224.954645 
L 628.863808 229.388238 
L 635.467925 220.036281 
L 641.784906 215.304024 
L 645.517667 225.156377 
L 651.547513 221.768636 
L 653.270326 212.300761 
L 655.280274 209.109639 
L 659.013036 210.702631 
L 664.755746 204.629362 
L 669.924185 203.040398 
L 673.082676 201.025198 
L 674.518353 212.271494 
L 675.37976 217.755821 
L 677.102573 214.292655 
L 682.271012 201.304518 
L 683.993825 206.029514 
L 684.855232 207.473102 
L 688.300858 207.349774 
L 692.033619 200.027571 
L 693.182161 194.953948 
L 693.756432 193.367426 
L 694.904974 182.896534 
L 695.479245 179.956338 
L 701.509091 184.058755 
L 702.370497 177.391767 
L 704.667581 176.245057 
L 707.826072 164.811413 
L 708.687479 168.229288 
L 710.697427 175.694935 
L 712.42024 188.335653 
L 715.291595 188.696265 
L 719.598628 190.573053 
L 722.757118 199.62289 
L 725.915609 209.537189 
L 727.351286 221.72394 
L 727.925557 228.840108 
L 729.64837 238.394097 
L 733.093997 231.915659 
L 735.965352 223.629445 
L 736.539623 232.083912 
L 738.549571 246.662759 
L 739.698113 262.395472 
L 743.71801 262.14957 
L 747.163636 260.70963 
L 747.163636 260.70963 
" clip-path="url(#pa7016a08eb)" style="fill: none; stroke: #fca55d; stroke-width: 1.5; stroke-linecap: square"/>
   </g>
   <g id="line2d_31">
    <path d="M 138.436364 173.553638 
L 145.04048 175.590151 
L 149.634648 172.089038 
L 155.95163 155.929822 
L 161.407204 156.328588 
L 165.139966 160.002099 
L 171.744082 163.690906 
L 177.773928 163.923111 
L 183.229503 162.806939 
L 189.259348 165.328478 
L 196.1506 152.892058 
L 201.319039 156.675106 
L 206.487479 150.323309 
L 208.784563 153.771376 
L 214.240137 148.842395 
L 216.537221 150.926756 
L 219.408576 153.315919 
L 224.864151 156.962134 
L 230.319726 169.588359 
L 236.923842 171.750152 
L 242.666552 168.182937 
L 246.399314 160.800353 
L 250.132075 157.513256 
L 255.874786 161.912564 
L 257.597599 173.213423 
L 268.508748 198.16198 
L 274.538593 215.775348 
L 279.707033 225.035753 
L 285.162607 244.960384 
L 291.766724 249.844999 
L 298.083705 255.704171 
L 306.69777 272.237179 
L 312.153345 275.160584 
L 314.163293 270.787158 
L 315.0247 267.186045 
L 319.906003 288.396301 
L 328.520069 305.655405 
L 336.272727 314.657223 
L 342.876844 316.622211 
L 346.32247 326.763081 
L 349.768096 327.240701 
L 353.500858 318.466561 
L 358.095026 319.865449 
L 364.124871 322.196094 
L 373.313208 327.381431 
L 375.323156 339.52875 
L 379.055918 342.128418 
L 387.382847 339.202905 
L 388.244254 351.492426 
L 391.68988 369.36 
L 398.006861 363.761952 
L 399.442539 357.899 
L 400.878216 349.674519 
L 402.313894 346.053533 
L 406.620926 334.206475 
L 412.076501 327.226192 
L 420.116295 334.371254 
L 421.551973 334.524741 
L 423.561921 336.514029 
L 427.868954 336.648353 
L 432.750257 311.329181 
L 435.908748 299.390041 
L 439.354374 293.061225 
L 440.502916 279.614507 
L 442.8 267.578101 
L 447.107033 261.644252 
L 451.988336 252.635811 
L 458.879588 238.871341 
L 461.176672 221.944968 
L 465.77084 208.315683 
L 470.652144 191.745846 
L 473.236364 180.024788 
L 475.246312 163.228133 
L 481.563293 148.062551 
L 485.870326 126.161011 
L 492.761578 129.49105 
L 498.504288 123.913744 
L 504.534134 116.68001 
L 507.118353 114.410237 
L 508.266895 99.378583 
L 514.296741 92.438643 
L 520.613722 82.629593 
L 524.633619 92.547691 
L 527.79211 96.506016 
L 531.237736 95.589929 
L 537.841852 97.071671 
L 541.000343 99.961192 
L 541.574614 106.666005 
L 543.010292 101.90376 
L 552.485763 101.352389 
L 555.644254 101.878034 
L 559.951286 94.660778 
L 563.684048 94.963516 
L 566.268268 91.857133 
L 575.743739 108.784475 
L 579.763636 121.565712 
L 583.496398 128.088548 
L 586.367753 128.158224 
L 590.38765 129.812557 
L 593.833276 142.831041 
L 599.575986 166.417146 
L 603.883019 171.410801 
L 606.754374 180.9254 
L 607.902916 188.255261 
L 611.348542 199.148284 
L 614.794168 200.871388 
L 618.239794 216.261621 
L 623.695369 227.032549 
L 628.863808 241.24201 
L 635.467925 235.921127 
L 641.784906 236.976207 
L 645.517667 243.947833 
L 651.547513 244.525166 
L 653.270326 242.486279 
L 655.280274 248.415291 
L 659.013036 247.135801 
L 664.755746 247.792993 
L 669.924185 251.825006 
L 673.082676 249.3207 
L 674.518353 252.980657 
L 675.37976 263.542029 
L 677.102573 263.362302 
L 682.271012 264.472931 
L 683.993825 270.483335 
L 684.855232 277.726795 
L 688.300858 275.881966 
L 692.033619 269.468083 
L 693.182161 268.090197 
L 693.756432 267.749285 
L 694.904974 254.702983 
L 695.479245 255.498375 
L 701.509091 265.158612 
L 702.370497 257.336331 
L 704.667581 256.097435 
L 707.826072 248.904398 
L 708.687479 243.895869 
L 710.697427 246.139931 
L 712.42024 255.311016 
L 715.291595 249.385522 
L 719.598628 239.26411 
L 722.757118 248.216555 
L 725.915609 260.338467 
L 727.351286 263.711513 
L 727.925557 271.212239 
L 729.64837 280.84141 
L 733.093997 268.893645 
L 735.965352 261.191306 
L 736.539623 267.738372 
L 738.549571 282.013821 
L 739.698113 291.415549 
L 743.71801 288.496815 
L 747.163636 292.756158 
L 747.163636 292.756158 
" clip-path="url(#pa7016a08eb)" style="fill: none; stroke: #e34933; stroke-width: 1.5; stroke-linecap: square"/>
   </g>
   <g id="line2d_32">
    <path d="M 138.436364 116.641739 
L 145.04048 123.653366 
L 149.634648 125.439591 
L 155.95163 118.314131 
L 161.407204 115.70942 
L 165.139966 119.771441 
L 171.744082 120.110269 
L 177.773928 122.323893 
L 183.229503 117.878372 
L 189.259348 113.522312 
L 196.1506 115.942433 
L 201.319039 124.909372 
L 206.487479 125.500397 
L 208.784563 122.05485 
L 214.240137 117.85007 
L 216.537221 116.837036 
L 219.408576 116.49403 
L 224.864151 122.220537 
L 230.319726 143.483022 
L 236.923842 155.512504 
L 242.666552 162.743798 
L 246.399314 159.681373 
L 250.132075 155.763331 
L 255.874786 168.471078 
L 257.597599 179.786841 
L 263.627444 188.763923 
L 268.508748 197.53344 
L 274.538593 217.571342 
L 279.707033 242.132693 
L 285.162607 264.1768 
L 291.766724 266.360535 
L 298.083705 275.485048 
L 306.69777 286.856912 
L 312.153345 282.911457 
L 314.163293 284.003983 
L 315.0247 282.195254 
L 319.906003 297.745424 
L 328.520069 311.675913 
L 342.876844 312.233179 
L 346.32247 321.842926 
L 349.768096 326.778011 
L 353.500858 310.956974 
L 358.095026 302.183187 
L 364.124871 302.095717 
L 373.313208 305.06331 
L 375.323156 304.724217 
L 379.055918 307.361514 
L 387.382847 303.997325 
L 388.244254 308.977625 
L 391.68988 320.760329 
L 398.006861 317.639697 
L 399.442539 314.592511 
L 400.878216 315.782741 
L 402.313894 316.381941 
L 406.620926 308.321433 
L 412.076501 300.271023 
L 420.116295 308.553576 
L 421.551973 317.956166 
L 423.561921 320.653112 
L 427.868954 324.834238 
L 432.750257 316.613378 
L 435.908748 304.575937 
L 439.354374 294.207763 
L 440.502916 287.361579 
L 442.8 276.985081 
L 447.107033 270.678663 
L 451.988336 263.122371 
L 458.879588 243.530655 
L 461.176672 234.733311 
L 465.77084 221.227666 
L 470.652144 211.919341 
L 473.236364 200.643713 
L 475.246312 180.037688 
L 481.563293 171.188483 
L 485.870326 158.192705 
L 492.761578 163.20298 
L 498.504288 160.207402 
L 504.534134 165.50299 
L 507.118353 158.666675 
L 508.266895 154.82426 
L 514.296741 151.069435 
L 520.613722 146.876315 
L 524.633619 161.670291 
L 527.79211 159.438547 
L 531.237736 158.783714 
L 537.841852 158.265654 
L 541.000343 161.292156 
L 541.574614 167.5877 
L 543.010292 161.84494 
L 552.485763 153.798912 
L 555.644254 141.720541 
L 559.951286 139.949214 
L 563.684048 135.600347 
L 566.268268 140.548192 
L 575.743739 149.536115 
L 579.763636 156.060834 
L 583.496398 161.748888 
L 586.367753 164.61493 
L 590.38765 166.829128 
L 593.833276 180.625414 
L 599.575986 197.641565 
L 603.883019 206.196516 
L 606.754374 213.816641 
L 607.902916 225.803233 
L 611.348542 235.059437 
L 614.794168 246.180366 
L 618.239794 255.211364 
L 623.695369 267.476715 
L 628.863808 277.148173 
L 635.467925 272.297292 
L 641.784906 275.522249 
L 645.517667 284.661879 
L 651.547513 281.083589 
L 653.270326 280.808619 
L 655.280274 282.457735 
L 659.013036 282.540015 
L 664.755746 282.499068 
L 669.924185 283.93531 
L 673.082676 278.409522 
L 674.518353 287.423739 
L 675.37976 290.236718 
L 677.102573 288.465854 
L 682.271012 286.998588 
L 683.993825 288.785925 
L 684.855232 298.304872 
L 688.300858 299.330657 
L 692.033619 293.932207 
L 693.182161 297.072432 
L 693.756432 296.272917 
L 694.904974 286.297646 
L 695.479245 284.929969 
L 701.509091 285.250002 
L 702.370497 281.909768 
L 704.667581 281.187007 
L 707.826072 272.749733 
L 708.687479 273.140021 
L 712.42024 290.044224 
L 715.291595 286.854742 
L 719.598628 278.166523 
L 722.757118 283.465762 
L 725.915609 290.17213 
L 727.351286 289.167812 
L 727.925557 296.426042 
L 729.64837 302.436682 
L 733.093997 296.881482 
L 735.965352 294.404683 
L 736.539623 302.787681 
L 738.549571 308.12858 
L 739.698113 316.555972 
L 743.71801 317.46907 
L 747.163636 313.29965 
L 747.163636 313.29965 
" clip-path="url(#pa7016a08eb)" style="fill: none; stroke: #a50026; stroke-width: 1.5; stroke-linecap: square"/>
   </g>
   <g id="patch_3">
    <path d="M 108 384.48 
L 108 51.84 
" style="fill: none; stroke: #000000; stroke-width: 0.8; stroke-linejoin: miter; stroke-linecap: square"/>
   </g>
   <g id="patch_4">
    <path d="M 777.6 384.48 
L 777.6 51.84 
" style="fill: none; stroke: #000000; stroke-width: 0.8; stroke-linejoin: miter; stroke-linecap: square"/>
   </g>
   <g id="patch_5">
    <path d="M 108 384.48 
L 777.6 384.48 
" style="fill: none; stroke: #000000; stroke-width: 0.8; stroke-linejoin: miter; stroke-linecap: square"/>
   </g>
   <g id="patch_6">
    <path d="M 108 51.84 
L 777.6 51.84 
" style="fill: none; stroke: #000000; stroke-width: 0.8; stroke-linejoin: miter; stroke-linecap: square"/>
   </g>
   <g id="text_15">
    <!-- Mood as Happy score per sentence -->
    <g transform="translate(337.231875 45.84) scale(0.12 -0.12)">
     <defs>
      <path id="DejaVuSans-4d" d="M 628 4666 
L 1569 4666 
L 2759 1491 
L 3956 4666 
L 4897 4666 
L 4897 0 
L 4281 0 
L 4281 4097 
L 3078 897 
L 2444 897 
L 1241 4097 
L 1241 0 
L 628 0 
L 628 4666 
z
" transform="scale(0.015625)"/>
      <path id="DejaVuSans-48" d="M 628 4666 
L 1259 4666 
L 1259 2753 
L 3553 2753 
L 3553 4666 
L 4184 4666 
L 4184 0 
L 3553 0 
L 3553 2222 
L 1259 2222 
L 1259 0 
L 628 0 
L 628 4666 
z
" transform="scale(0.015625)"/>
      <path id="DejaVuSans-70" d="M 1159 525 
L 1159 -1331 
L 581 -1331 
L 581 3500 
L 1159 3500 
L 1159 2969 
Q 1341 3281 1617 3432 
Q 1894 3584 2278 3584 
Q 2916 3584 3314 3078 
Q 3713 2572 3713 1747 
Q 3713 922 3314 415 
Q 2916 -91 2278 -91 
Q 1894 -91 1617 61 
Q 1341 213 1159 525 
z
M 3116 1747 
Q 3116 2381 2855 2742 
Q 2594 3103 2138 3103 
Q 1681 3103 1420 2742 
Q 1159 2381 1159 1747 
Q 1159 1113 1420 752 
Q 1681 391 2138 391 
Q 2594 391 2855 752 
Q 3116 1113 3116 1747 
z
" transform="scale(0.015625)"/>
      <path id="DejaVuSans-79" d="M 2059 -325 
Q 1816 -950 1584 -1140 
Q 1353 -1331 966 -1331 
L 506 -1331 
L 506 -850 
L 844 -850 
Q 1081 -850 1212 -737 
Q 1344 -625 1503 -206 
L 1606 56 
L 191 3500 
L 800 3500 
L 1894 763 
L 2988 3500 
L 3597 3500 
L 2059 -325 
z
" transform="scale(0.015625)"/>
     </defs>
     <use xlink:href="#DejaVuSans-4d"/>
     <use xlink:href="#DejaVuSans-6f" transform="translate(86.279297 0)"/>
     <use xlink:href="#DejaVuSans-6f" transform="translate(147.460938 0)"/>
     <use xlink:href="#DejaVuSans-64" transform="translate(208.642578 0)"/>
     <use xlink:href="#DejaVuSans-20" transform="translate(272.119141 0)"/>
     <use xlink:href="#DejaVuSans-61" transform="translate(303.90625 0)"/>
     <use xlink:href="#DejaVuSans-73" transform="translate(365.185547 0)"/>
     <use xlink:href="#DejaVuSans-20" transform="translate(417.285156 0)"/>
     <use xlink:href="#DejaVuSans-48" transform="translate(449.072266 0)"/>
     <use xlink:href="#DejaVuSans-61" transform="translate(524.267578 0)"/>
     <use xlink:href="#DejaVuSans-70" transform="translate(585.546875 0)"/>
     <use xlink:href="#DejaVuSans-70" transform="translate(649.023438 0)"/>
     <use xlink:href="#DejaVuSans-79" transform="translate(712.5 0)"/>
     <use xlink:href="#DejaVuSans-20" transform="translate(771.679688 0)"/>
     <use xlink:href="#DejaVuSans-73" transform="translate(803.466797 0)"/>
     <use xlink:href="#DejaVuSans-63" transform="translate(855.566406 0)"/>
     <use xlink:href="#DejaVuSans-6f" transform="translate(910.546875 0)"/>
     <use xlink:href="#DejaVuSans-72" transform="translate(971.728516 0)"/>
     <use xlink:href="#DejaVuSans-65" transform="translate(1010.591797 0)"/>
     <use xlink:href="#DejaVuSans-20" transform="translate(1072.115234 0)"/>
     <use xlink:href="#DejaVuSans-70" transform="translate(1103.902344 0)"/>
     <use xlink:href="#DejaVuSans-65" transform="translate(1167.378906 0)"/>
     <use xlink:href="#DejaVuSans-72" transform="translate(1228.902344 0)"/>
     <use xlink:href="#DejaVuSans-20" transform="translate(1270.015625 0)"/>
     <use xlink:href="#DejaVuSans-73" transform="translate(1301.802734 0)"/>
     <use xlink:href="#DejaVuSans-65" transform="translate(1353.902344 0)"/>
     <use xlink:href="#DejaVuSans-6e" transform="translate(1415.425781 0)"/>
     <use xlink:href="#DejaVuSans-74" transform="translate(1478.804688 0)"/>
     <use xlink:href="#DejaVuSans-65" transform="translate(1518.013672 0)"/>
     <use xlink:href="#DejaVuSans-6e" transform="translate(1579.537109 0)"/>
     <use xlink:href="#DejaVuSans-63" transform="translate(1642.916016 0)"/>
     <use xlink:href="#DejaVuSans-65" transform="translate(1697.896484 0)"/>
    </g>
   </g>
   <g id="legend_1">
    <g id="patch_7">
     <path d="M 115 379.48 
L 211.917188 379.48 
Q 213.917188 379.48 213.917188 377.48 
L 213.917188 246.376875 
Q 213.917188 244.376875 211.917188 244.376875 
L 115 244.376875 
Q 113 244.376875 113 246.376875 
L 113 377.48 
Q 113 379.48 115 379.48 
z
" style="fill: #ffffff; opacity: 0.8; stroke: #cccccc; stroke-linejoin: miter"/>
    </g>
    <g id="text_16">
     <!-- Temperature Level -->
     <g transform="translate(117 255.975313) scale(0.1 -0.1)">
      <defs>
       <path id="DejaVuSans-75" d="M 544 1381 
L 544 3500 
L 1119 3500 
L 1119 1403 
Q 1119 906 1312 657 
Q 1506 409 1894 409 
Q 2359 409 2629 706 
Q 2900 1003 2900 1516 
L 2900 3500 
L 3475 3500 
L 3475 0 
L 2900 0 
L 2900 538 
Q 2691 219 2414 64 
Q 2138 -91 1772 -91 
Q 1169 -91 856 284 
Q 544 659 544 1381 
z
M 1991 3584 
L 1991 3584 
z
" transform="scale(0.015625)"/>
       <path id="DejaVuSans-4c" d="M 628 4666 
L 1259 4666 
L 1259 531 
L 3531 531 
L 3531 0 
L 628 0 
L 628 4666 
z
" transform="scale(0.015625)"/>
       <path id="DejaVuSans-76" d="M 191 3500 
L 800 3500 
L 1894 563 
L 2988 3500 
L 3597 3500 
L 2284 0 
L 1503 0 
L 191 3500 
z
" transform="scale(0.015625)"/>
      </defs>
      <use xlink:href="#DejaVuSans-54"/>
      <use xlink:href="#DejaVuSans-65" transform="translate(44.083984 0)"/>
      <use xlink:href="#DejaVuSans-6d" transform="translate(105.607422 0)"/>
      <use xlink:href="#DejaVuSans-70" transform="translate(203.019531 0)"/>
      <use xlink:href="#DejaVuSans-65" transform="translate(266.496094 0)"/>
      <use xlink:href="#DejaVuSans-72" transform="translate(328.019531 0)"/>
      <use xlink:href="#DejaVuSans-61" transform="translate(369.132812 0)"/>
      <use xlink:href="#DejaVuSans-74" transform="translate(430.412109 0)"/>
      <use xlink:href="#DejaVuSans-75" transform="translate(469.621094 0)"/>
      <use xlink:href="#DejaVuSans-72" transform="translate(533 0)"/>
      <use xlink:href="#DejaVuSans-65" transform="translate(571.863281 0)"/>
      <use xlink:href="#DejaVuSans-20" transform="translate(633.386719 0)"/>
      <use xlink:href="#DejaVuSans-4c" transform="translate(665.173828 0)"/>
      <use xlink:href="#DejaVuSans-65" transform="translate(719.136719 0)"/>
      <use xlink:href="#DejaVuSans-76" transform="translate(780.660156 0)"/>
      <use xlink:href="#DejaVuSans-65" transform="translate(839.839844 0)"/>
      <use xlink:href="#DejaVuSans-6c" transform="translate(901.363281 0)"/>
     </g>
    </g>
    <g id="line2d_33">
     <path d="M 126.592969 267.153438 
L 136.592969 267.153438 
L 146.592969 267.153438 
" style="fill: none; stroke: #006837; stroke-width: 1.5; stroke-linecap: square"/>
    </g>
    <g id="text_17">
     <!-- Temp 0.0 -->
     <g transform="translate(154.592969 270.653438) scale(0.1 -0.1)">
      <use xlink:href="#DejaVuSans-54"/>
      <use xlink:href="#DejaVuSans-65" transform="translate(44.083984 0)"/>
      <use xlink:href="#DejaVuSans-6d" transform="translate(105.607422 0)"/>
      <use xlink:href="#DejaVuSans-70" transform="translate(203.019531 0)"/>
      <use xlink:href="#DejaVuSans-20" transform="translate(266.496094 0)"/>
      <use xlink:href="#DejaVuSans-30" transform="translate(298.283203 0)"/>
      <use xlink:href="#DejaVuSans-2e" transform="translate(361.90625 0)"/>
      <use xlink:href="#DejaVuSans-30" transform="translate(393.693359 0)"/>
     </g>
    </g>
    <g id="line2d_34">
     <path d="M 126.592969 281.831563 
L 136.592969 281.831563 
L 146.592969 281.831563 
" style="fill: none; stroke: #39a758; stroke-width: 1.5; stroke-linecap: square"/>
    </g>
    <g id="text_18">
     <!-- Temp 0.1 -->
     <g transform="translate(154.592969 285.331563) scale(0.1 -0.1)">
      <use xlink:href="#DejaVuSans-54"/>
      <use xlink:href="#DejaVuSans-65" transform="translate(44.083984 0)"/>
      <use xlink:href="#DejaVuSans-6d" transform="translate(105.607422 0)"/>
      <use xlink:href="#DejaVuSans-70" transform="translate(203.019531 0)"/>
      <use xlink:href="#DejaVuSans-20" transform="translate(266.496094 0)"/>
      <use xlink:href="#DejaVuSans-30" transform="translate(298.283203 0)"/>
      <use xlink:href="#DejaVuSans-2e" transform="translate(361.90625 0)"/>
      <use xlink:href="#DejaVuSans-31" transform="translate(393.693359 0)"/>
     </g>
    </g>
    <g id="line2d_35">
     <path d="M 126.592969 296.509688 
L 136.592969 296.509688 
L 146.592969 296.509688 
" style="fill: none; stroke: #9dd569; stroke-width: 1.5; stroke-linecap: square"/>
    </g>
    <g id="text_19">
     <!-- Temp 0.3 -->
     <g transform="translate(154.592969 300.009688) scale(0.1 -0.1)">
      <defs>
       <path id="DejaVuSans-33" d="M 2597 2516 
Q 3050 2419 3304 2112 
Q 3559 1806 3559 1356 
Q 3559 666 3084 287 
Q 2609 -91 1734 -91 
Q 1441 -91 1130 -33 
Q 819 25 488 141 
L 488 750 
Q 750 597 1062 519 
Q 1375 441 1716 441 
Q 2309 441 2620 675 
Q 2931 909 2931 1356 
Q 2931 1769 2642 2001 
Q 2353 2234 1838 2234 
L 1294 2234 
L 1294 2753 
L 1863 2753 
Q 2328 2753 2575 2939 
Q 2822 3125 2822 3475 
Q 2822 3834 2567 4026 
Q 2313 4219 1838 4219 
Q 1578 4219 1281 4162 
Q 984 4106 628 3988 
L 628 4550 
Q 988 4650 1302 4700 
Q 1616 4750 1894 4750 
Q 2613 4750 3031 4423 
Q 3450 4097 3450 3541 
Q 3450 3153 3228 2886 
Q 3006 2619 2597 2516 
z
" transform="scale(0.015625)"/>
      </defs>
      <use xlink:href="#DejaVuSans-54"/>
      <use xlink:href="#DejaVuSans-65" transform="translate(44.083984 0)"/>
      <use xlink:href="#DejaVuSans-6d" transform="translate(105.607422 0)"/>
      <use xlink:href="#DejaVuSans-70" transform="translate(203.019531 0)"/>
      <use xlink:href="#DejaVuSans-20" transform="translate(266.496094 0)"/>
      <use xlink:href="#DejaVuSans-30" transform="translate(298.283203 0)"/>
      <use xlink:href="#DejaVuSans-2e" transform="translate(361.90625 0)"/>
      <use xlink:href="#DejaVuSans-33" transform="translate(393.693359 0)"/>
     </g>
    </g>
    <g id="line2d_36">
     <path d="M 126.592969 311.187813 
L 136.592969 311.187813 
L 146.592969 311.187813 
" style="fill: none; stroke: #e3f399; stroke-width: 1.5; stroke-linecap: square"/>
    </g>
    <g id="text_20">
     <!-- Temp 0.4 -->
     <g transform="translate(154.592969 314.687813) scale(0.1 -0.1)">
      <use xlink:href="#DejaVuSans-54"/>
      <use xlink:href="#DejaVuSans-65" transform="translate(44.083984 0)"/>
      <use xlink:href="#DejaVuSans-6d" transform="translate(105.607422 0)"/>
      <use xlink:href="#DejaVuSans-70" transform="translate(203.019531 0)"/>
      <use xlink:href="#DejaVuSans-20" transform="translate(266.496094 0)"/>
      <use xlink:href="#DejaVuSans-30" transform="translate(298.283203 0)"/>
      <use xlink:href="#DejaVuSans-2e" transform="translate(361.90625 0)"/>
      <use xlink:href="#DejaVuSans-34" transform="translate(393.693359 0)"/>
     </g>
    </g>
    <g id="line2d_37">
     <path d="M 126.592969 325.865938 
L 136.592969 325.865938 
L 146.592969 325.865938 
" style="fill: none; stroke: #fee999; stroke-width: 1.5; stroke-linecap: square"/>
    </g>
    <g id="text_21">
     <!-- Temp 0.6 -->
     <g transform="translate(154.592969 329.365938) scale(0.1 -0.1)">
      <use xlink:href="#DejaVuSans-54"/>
      <use xlink:href="#DejaVuSans-65" transform="translate(44.083984 0)"/>
      <use xlink:href="#DejaVuSans-6d" transform="translate(105.607422 0)"/>
      <use xlink:href="#DejaVuSans-70" transform="translate(203.019531 0)"/>
      <use xlink:href="#DejaVuSans-20" transform="translate(266.496094 0)"/>
      <use xlink:href="#DejaVuSans-30" transform="translate(298.283203 0)"/>
      <use xlink:href="#DejaVuSans-2e" transform="translate(361.90625 0)"/>
      <use xlink:href="#DejaVuSans-36" transform="translate(393.693359 0)"/>
     </g>
    </g>
    <g id="line2d_38">
     <path d="M 126.592969 340.544063 
L 136.592969 340.544063 
L 146.592969 340.544063 
" style="fill: none; stroke: #fca55d; stroke-width: 1.5; stroke-linecap: square"/>
    </g>
    <g id="text_22">
     <!-- Temp 0.7 -->
     <g transform="translate(154.592969 344.044063) scale(0.1 -0.1)">
      <defs>
       <path id="DejaVuSans-37" d="M 525 4666 
L 3525 4666 
L 3525 4397 
L 1831 0 
L 1172 0 
L 2766 4134 
L 525 4134 
L 525 4666 
z
" transform="scale(0.015625)"/>
      </defs>
      <use xlink:href="#DejaVuSans-54"/>
      <use xlink:href="#DejaVuSans-65" transform="translate(44.083984 0)"/>
      <use xlink:href="#DejaVuSans-6d" transform="translate(105.607422 0)"/>
      <use xlink:href="#DejaVuSans-70" transform="translate(203.019531 0)"/>
      <use xlink:href="#DejaVuSans-20" transform="translate(266.496094 0)"/>
      <use xlink:href="#DejaVuSans-30" transform="translate(298.283203 0)"/>
      <use xlink:href="#DejaVuSans-2e" transform="translate(361.90625 0)"/>
      <use xlink:href="#DejaVuSans-37" transform="translate(393.693359 0)"/>
     </g>
    </g>
    <g id="line2d_39">
     <path d="M 126.592969 355.222188 
L 136.592969 355.222188 
L 146.592969 355.222188 
" style="fill: none; stroke: #e34933; stroke-width: 1.5; stroke-linecap: square"/>
    </g>
    <g id="text_23">
     <!-- Temp 0.9 -->
     <g transform="translate(154.592969 358.722188) scale(0.1 -0.1)">
      <defs>
       <path id="DejaVuSans-39" d="M 703 97 
L 703 672 
Q 941 559 1184 500 
Q 1428 441 1663 441 
Q 2288 441 2617 861 
Q 2947 1281 2994 2138 
Q 2813 1869 2534 1725 
Q 2256 1581 1919 1581 
Q 1219 1581 811 2004 
Q 403 2428 403 3163 
Q 403 3881 828 4315 
Q 1253 4750 1959 4750 
Q 2769 4750 3195 4129 
Q 3622 3509 3622 2328 
Q 3622 1225 3098 567 
Q 2575 -91 1691 -91 
Q 1453 -91 1209 -44 
Q 966 3 703 97 
z
M 1959 2075 
Q 2384 2075 2632 2365 
Q 2881 2656 2881 3163 
Q 2881 3666 2632 3958 
Q 2384 4250 1959 4250 
Q 1534 4250 1286 3958 
Q 1038 3666 1038 3163 
Q 1038 2656 1286 2365 
Q 1534 2075 1959 2075 
z
" transform="scale(0.015625)"/>
      </defs>
      <use xlink:href="#DejaVuSans-54"/>
      <use xlink:href="#DejaVuSans-65" transform="translate(44.083984 0)"/>
      <use xlink:href="#DejaVuSans-6d" transform="translate(105.607422 0)"/>
      <use xlink:href="#DejaVuSans-70" transform="translate(203.019531 0)"/>
      <use xlink:href="#DejaVuSans-20" transform="translate(266.496094 0)"/>
      <use xlink:href="#DejaVuSans-30" transform="translate(298.283203 0)"/>
      <use xlink:href="#DejaVuSans-2e" transform="translate(361.90625 0)"/>
      <use xlink:href="#DejaVuSans-39" transform="translate(393.693359 0)"/>
     </g>
    </g>
    <g id="line2d_40">
     <path d="M 126.592969 369.900313 
L 136.592969 369.900313 
L 146.592969 369.900313 
" style="fill: none; stroke: #a50026; stroke-width: 1.5; stroke-linecap: square"/>
    </g>
    <g id="text_24">
     <!-- Temp 1.0 -->
     <g transform="translate(154.592969 373.400313) scale(0.1 -0.1)">
      <use xlink:href="#DejaVuSans-54"/>
      <use xlink:href="#DejaVuSans-65" transform="translate(44.083984 0)"/>
      <use xlink:href="#DejaVuSans-6d" transform="translate(105.607422 0)"/>
      <use xlink:href="#DejaVuSans-70" transform="translate(203.019531 0)"/>
      <use xlink:href="#DejaVuSans-20" transform="translate(266.496094 0)"/>
      <use xlink:href="#DejaVuSans-31" transform="translate(298.283203 0)"/>
      <use xlink:href="#DejaVuSans-2e" transform="translate(361.90625 0)"/>
      <use xlink:href="#DejaVuSans-30" transform="translate(393.693359 0)"/>
     </g>
    </g>
   </g>
  </g>
 </g>
 <defs>
  <clipPath id="pa7016a08eb">
   <rect x="108" y="51.84" width="669.6" height="332.64"/>
  </clipPath>
 </defs>
</svg>
