<?xml version="1.0" encoding="utf-8" standalone="no"?>
<!DOCTYPE svg PUBLIC "-//W3C//DTD SVG 1.1//EN"
  "http://www.w3.org/Graphics/SVG/1.1/DTD/svg11.dtd">
<svg xmlns:xlink="http://www.w3.org/1999/xlink" width="864pt" height="432pt" viewBox="0 0 864 432" xmlns="http://www.w3.org/2000/svg" version="1.1">
 <metadata>
  <rdf:RDF xmlns:dc="http://purl.org/dc/elements/1.1/" xmlns:cc="http://creativecommons.org/ns#" xmlns:rdf="http://www.w3.org/1999/02/22-rdf-syntax-ns#">
   <cc:Work>
    <dc:type rdf:resource="http://purl.org/dc/dcmitype/StillImage"/>
    <dc:date>2025-01-03T17:57:26.849137</dc:date>
    <dc:format>image/svg+xml</dc:format>
    <dc:creator>
     <cc:Agent>
      <dc:title>Matplotlib v3.10.0, https://matplotlib.org/</dc:title>
     </cc:Agent>
    </dc:creator>
   </cc:Work>
  </rdf:RDF>
 </metadata>
 <defs>
  <style type="text/css">*{stroke-linejoin: round; stroke-linecap: butt}</style>
 </defs>
 <g id="figure_1">
  <g id="patch_1">
   <path d="M 0 432 
L 864 432 
L 864 0 
L 0 0 
z
" style="fill: #ffffff"/>
  </g>
  <g id="axes_1">
   <g id="patch_2">
    <path d="M 108 384.48 
L 777.6 384.48 
L 777.6 51.84 
L 108 51.84 
z
" style="fill: #ffffff"/>
   </g>
   <g id="matplotlib.axis_1">
    <g id="xtick_1">
     <g id="line2d_1">
      <path d="M 138.436364 384.48 
L 138.436364 51.84 
" clip-path="url(#p3ef415e225)" style="fill: none; stroke: #b0b0b0; stroke-width: 0.8; stroke-linecap: square"/>
     </g>
     <g id="line2d_2">
      <defs>
       <path id="m55a11e612b" d="M 0 0 
L 0 3.5 
" style="stroke: #000000; stroke-width: 0.8"/>
      </defs>
      <g>
       <use xlink:href="#m55a11e612b" x="138.436364" y="384.48" style="stroke: #000000; stroke-width: 0.8"/>
      </g>
     </g>
     <g id="text_1">
      <!-- 0 -->
      <g transform="translate(135.255114 399.078438) scale(0.1 -0.1)">
       <defs>
        <path id="DejaVuSans-30" d="M 2034 4250 
Q 1547 4250 1301 3770 
Q 1056 3291 1056 2328 
Q 1056 1369 1301 889 
Q 1547 409 2034 409 
Q 2525 409 2770 889 
Q 3016 1369 3016 2328 
Q 3016 3291 2770 3770 
Q 2525 4250 2034 4250 
z
M 2034 4750 
Q 2819 4750 3233 4129 
Q 3647 3509 3647 2328 
Q 3647 1150 3233 529 
Q 2819 -91 2034 -91 
Q 1250 -91 836 529 
Q 422 1150 422 2328 
Q 422 3509 836 4129 
Q 1250 4750 2034 4750 
z
" transform="scale(0.015625)"/>
       </defs>
       <use xlink:href="#DejaVuSans-30"/>
      </g>
     </g>
    </g>
    <g id="xtick_2">
     <g id="line2d_3">
      <path d="M 282.004117 384.48 
L 282.004117 51.84 
" clip-path="url(#p3ef415e225)" style="fill: none; stroke: #b0b0b0; stroke-width: 0.8; stroke-linecap: square"/>
     </g>
     <g id="line2d_4">
      <g>
       <use xlink:href="#m55a11e612b" x="282.004117" y="384.48" style="stroke: #000000; stroke-width: 0.8"/>
      </g>
     </g>
     <g id="text_2">
      <!-- 500 -->
      <g transform="translate(272.460367 399.078438) scale(0.1 -0.1)">
       <defs>
        <path id="DejaVuSans-35" d="M 691 4666 
L 3169 4666 
L 3169 4134 
L 1269 4134 
L 1269 2991 
Q 1406 3038 1543 3061 
Q 1681 3084 1819 3084 
Q 2600 3084 3056 2656 
Q 3513 2228 3513 1497 
Q 3513 744 3044 326 
Q 2575 -91 1722 -91 
Q 1428 -91 1123 -41 
Q 819 9 494 109 
L 494 744 
Q 775 591 1075 516 
Q 1375 441 1709 441 
Q 2250 441 2565 725 
Q 2881 1009 2881 1497 
Q 2881 1984 2565 2268 
Q 2250 2553 1709 2553 
Q 1456 2553 1204 2497 
Q 953 2441 691 2322 
L 691 4666 
z
" transform="scale(0.015625)"/>
       </defs>
       <use xlink:href="#DejaVuSans-35"/>
       <use xlink:href="#DejaVuSans-30" transform="translate(63.623047 0)"/>
       <use xlink:href="#DejaVuSans-30" transform="translate(127.246094 0)"/>
      </g>
     </g>
    </g>
    <g id="xtick_3">
     <g id="line2d_5">
      <path d="M 425.57187 384.48 
L 425.57187 51.84 
" clip-path="url(#p3ef415e225)" style="fill: none; stroke: #b0b0b0; stroke-width: 0.8; stroke-linecap: square"/>
     </g>
     <g id="line2d_6">
      <g>
       <use xlink:href="#m55a11e612b" x="425.57187" y="384.48" style="stroke: #000000; stroke-width: 0.8"/>
      </g>
     </g>
     <g id="text_3">
      <!-- 1000 -->
      <g transform="translate(412.84687 399.078438) scale(0.1 -0.1)">
       <defs>
        <path id="DejaVuSans-31" d="M 794 531 
L 1825 531 
L 1825 4091 
L 703 3866 
L 703 4441 
L 1819 4666 
L 2450 4666 
L 2450 531 
L 3481 531 
L 3481 0 
L 794 0 
L 794 531 
z
" transform="scale(0.015625)"/>
       </defs>
       <use xlink:href="#DejaVuSans-31"/>
       <use xlink:href="#DejaVuSans-30" transform="translate(63.623047 0)"/>
       <use xlink:href="#DejaVuSans-30" transform="translate(127.246094 0)"/>
       <use xlink:href="#DejaVuSans-30" transform="translate(190.869141 0)"/>
      </g>
     </g>
    </g>
    <g id="xtick_4">
     <g id="line2d_7">
      <path d="M 569.139623 384.48 
L 569.139623 51.84 
" clip-path="url(#p3ef415e225)" style="fill: none; stroke: #b0b0b0; stroke-width: 0.8; stroke-linecap: square"/>
     </g>
     <g id="line2d_8">
      <g>
       <use xlink:href="#m55a11e612b" x="569.139623" y="384.48" style="stroke: #000000; stroke-width: 0.8"/>
      </g>
     </g>
     <g id="text_4">
      <!-- 1500 -->
      <g transform="translate(556.414623 399.078438) scale(0.1 -0.1)">
       <use xlink:href="#DejaVuSans-31"/>
       <use xlink:href="#DejaVuSans-35" transform="translate(63.623047 0)"/>
       <use xlink:href="#DejaVuSans-30" transform="translate(127.246094 0)"/>
       <use xlink:href="#DejaVuSans-30" transform="translate(190.869141 0)"/>
      </g>
     </g>
    </g>
    <g id="xtick_5">
     <g id="line2d_9">
      <path d="M 712.707376 384.48 
L 712.707376 51.84 
" clip-path="url(#p3ef415e225)" style="fill: none; stroke: #b0b0b0; stroke-width: 0.8; stroke-linecap: square"/>
     </g>
     <g id="line2d_10">
      <g>
       <use xlink:href="#m55a11e612b" x="712.707376" y="384.48" style="stroke: #000000; stroke-width: 0.8"/>
      </g>
     </g>
     <g id="text_5">
      <!-- 2000 -->
      <g transform="translate(699.982376 399.078438) scale(0.1 -0.1)">
       <defs>
        <path id="DejaVuSans-32" d="M 1228 531 
L 3431 531 
L 3431 0 
L 469 0 
L 469 531 
Q 828 903 1448 1529 
Q 2069 2156 2228 2338 
Q 2531 2678 2651 2914 
Q 2772 3150 2772 3378 
Q 2772 3750 2511 3984 
Q 2250 4219 1831 4219 
Q 1534 4219 1204 4116 
Q 875 4013 500 3803 
L 500 4441 
Q 881 4594 1212 4672 
Q 1544 4750 1819 4750 
Q 2544 4750 2975 4387 
Q 3406 4025 3406 3419 
Q 3406 3131 3298 2873 
Q 3191 2616 2906 2266 
Q 2828 2175 2409 1742 
Q 1991 1309 1228 531 
z
" transform="scale(0.015625)"/>
       </defs>
       <use xlink:href="#DejaVuSans-32"/>
       <use xlink:href="#DejaVuSans-30" transform="translate(63.623047 0)"/>
       <use xlink:href="#DejaVuSans-30" transform="translate(127.246094 0)"/>
       <use xlink:href="#DejaVuSans-30" transform="translate(190.869141 0)"/>
      </g>
     </g>
    </g>
    <g id="text_6">
     <!-- Position in Text (Words) -->
     <g transform="translate(384.540625 412.756563) scale(0.1 -0.1)">
      <defs>
       <path id="DejaVuSans-50" d="M 1259 4147 
L 1259 2394 
L 2053 2394 
Q 2494 2394 2734 2622 
Q 2975 2850 2975 3272 
Q 2975 3691 2734 3919 
Q 2494 4147 2053 4147 
L 1259 4147 
z
M 628 4666 
L 2053 4666 
Q 2838 4666 3239 4311 
Q 3641 3956 3641 3272 
Q 3641 2581 3239 2228 
Q 2838 1875 2053 1875 
L 1259 1875 
L 1259 0 
L 628 0 
L 628 4666 
z
" transform="scale(0.015625)"/>
       <path id="DejaVuSans-6f" d="M 1959 3097 
Q 1497 3097 1228 2736 
Q 959 2375 959 1747 
Q 959 1119 1226 758 
Q 1494 397 1959 397 
Q 2419 397 2687 759 
Q 2956 1122 2956 1747 
Q 2956 2369 2687 2733 
Q 2419 3097 1959 3097 
z
M 1959 3584 
Q 2709 3584 3137 3096 
Q 3566 2609 3566 1747 
Q 3566 888 3137 398 
Q 2709 -91 1959 -91 
Q 1206 -91 779 398 
Q 353 888 353 1747 
Q 353 2609 779 3096 
Q 1206 3584 1959 3584 
z
" transform="scale(0.015625)"/>
       <path id="DejaVuSans-73" d="M 2834 3397 
L 2834 2853 
Q 2591 2978 2328 3040 
Q 2066 3103 1784 3103 
Q 1356 3103 1142 2972 
Q 928 2841 928 2578 
Q 928 2378 1081 2264 
Q 1234 2150 1697 2047 
L 1894 2003 
Q 2506 1872 2764 1633 
Q 3022 1394 3022 966 
Q 3022 478 2636 193 
Q 2250 -91 1575 -91 
Q 1294 -91 989 -36 
Q 684 19 347 128 
L 347 722 
Q 666 556 975 473 
Q 1284 391 1588 391 
Q 1994 391 2212 530 
Q 2431 669 2431 922 
Q 2431 1156 2273 1281 
Q 2116 1406 1581 1522 
L 1381 1569 
Q 847 1681 609 1914 
Q 372 2147 372 2553 
Q 372 3047 722 3315 
Q 1072 3584 1716 3584 
Q 2034 3584 2315 3537 
Q 2597 3491 2834 3397 
z
" transform="scale(0.015625)"/>
       <path id="DejaVuSans-69" d="M 603 3500 
L 1178 3500 
L 1178 0 
L 603 0 
L 603 3500 
z
M 603 4863 
L 1178 4863 
L 1178 4134 
L 603 4134 
L 603 4863 
z
" transform="scale(0.015625)"/>
       <path id="DejaVuSans-74" d="M 1172 4494 
L 1172 3500 
L 2356 3500 
L 2356 3053 
L 1172 3053 
L 1172 1153 
Q 1172 725 1289 603 
Q 1406 481 1766 481 
L 2356 481 
L 2356 0 
L 1766 0 
Q 1100 0 847 248 
Q 594 497 594 1153 
L 594 3053 
L 172 3053 
L 172 3500 
L 594 3500 
L 594 4494 
L 1172 4494 
z
" transform="scale(0.015625)"/>
       <path id="DejaVuSans-6e" d="M 3513 2113 
L 3513 0 
L 2938 0 
L 2938 2094 
Q 2938 2591 2744 2837 
Q 2550 3084 2163 3084 
Q 1697 3084 1428 2787 
Q 1159 2491 1159 1978 
L 1159 0 
L 581 0 
L 581 3500 
L 1159 3500 
L 1159 2956 
Q 1366 3272 1645 3428 
Q 1925 3584 2291 3584 
Q 2894 3584 3203 3211 
Q 3513 2838 3513 2113 
z
" transform="scale(0.015625)"/>
       <path id="DejaVuSans-20" transform="scale(0.015625)"/>
       <path id="DejaVuSans-54" d="M -19 4666 
L 3928 4666 
L 3928 4134 
L 2272 4134 
L 2272 0 
L 1638 0 
L 1638 4134 
L -19 4134 
L -19 4666 
z
" transform="scale(0.015625)"/>
       <path id="DejaVuSans-65" d="M 3597 1894 
L 3597 1613 
L 953 1613 
Q 991 1019 1311 708 
Q 1631 397 2203 397 
Q 2534 397 2845 478 
Q 3156 559 3463 722 
L 3463 178 
Q 3153 47 2828 -22 
Q 2503 -91 2169 -91 
Q 1331 -91 842 396 
Q 353 884 353 1716 
Q 353 2575 817 3079 
Q 1281 3584 2069 3584 
Q 2775 3584 3186 3129 
Q 3597 2675 3597 1894 
z
M 3022 2063 
Q 3016 2534 2758 2815 
Q 2500 3097 2075 3097 
Q 1594 3097 1305 2825 
Q 1016 2553 972 2059 
L 3022 2063 
z
" transform="scale(0.015625)"/>
       <path id="DejaVuSans-78" d="M 3513 3500 
L 2247 1797 
L 3578 0 
L 2900 0 
L 1881 1375 
L 863 0 
L 184 0 
L 1544 1831 
L 300 3500 
L 978 3500 
L 1906 2253 
L 2834 3500 
L 3513 3500 
z
" transform="scale(0.015625)"/>
       <path id="DejaVuSans-28" d="M 1984 4856 
Q 1566 4138 1362 3434 
Q 1159 2731 1159 2009 
Q 1159 1288 1364 580 
Q 1569 -128 1984 -844 
L 1484 -844 
Q 1016 -109 783 600 
Q 550 1309 550 2009 
Q 550 2706 781 3412 
Q 1013 4119 1484 4856 
L 1984 4856 
z
" transform="scale(0.015625)"/>
       <path id="DejaVuSans-57" d="M 213 4666 
L 850 4666 
L 1831 722 
L 2809 4666 
L 3519 4666 
L 4500 722 
L 5478 4666 
L 6119 4666 
L 4947 0 
L 4153 0 
L 3169 4050 
L 2175 0 
L 1381 0 
L 213 4666 
z
" transform="scale(0.015625)"/>
       <path id="DejaVuSans-72" d="M 2631 2963 
Q 2534 3019 2420 3045 
Q 2306 3072 2169 3072 
Q 1681 3072 1420 2755 
Q 1159 2438 1159 1844 
L 1159 0 
L 581 0 
L 581 3500 
L 1159 3500 
L 1159 2956 
Q 1341 3275 1631 3429 
Q 1922 3584 2338 3584 
Q 2397 3584 2469 3576 
Q 2541 3569 2628 3553 
L 2631 2963 
z
" transform="scale(0.015625)"/>
       <path id="DejaVuSans-64" d="M 2906 2969 
L 2906 4863 
L 3481 4863 
L 3481 0 
L 2906 0 
L 2906 525 
Q 2725 213 2448 61 
Q 2172 -91 1784 -91 
Q 1150 -91 751 415 
Q 353 922 353 1747 
Q 353 2572 751 3078 
Q 1150 3584 1784 3584 
Q 2172 3584 2448 3432 
Q 2725 3281 2906 2969 
z
M 947 1747 
Q 947 1113 1208 752 
Q 1469 391 1925 391 
Q 2381 391 2643 752 
Q 2906 1113 2906 1747 
Q 2906 2381 2643 2742 
Q 2381 3103 1925 3103 
Q 1469 3103 1208 2742 
Q 947 2381 947 1747 
z
" transform="scale(0.015625)"/>
       <path id="DejaVuSans-29" d="M 513 4856 
L 1013 4856 
Q 1481 4119 1714 3412 
Q 1947 2706 1947 2009 
Q 1947 1309 1714 600 
Q 1481 -109 1013 -844 
L 513 -844 
Q 928 -128 1133 580 
Q 1338 1288 1338 2009 
Q 1338 2731 1133 3434 
Q 928 4138 513 4856 
z
" transform="scale(0.015625)"/>
      </defs>
      <use xlink:href="#DejaVuSans-50"/>
      <use xlink:href="#DejaVuSans-6f" transform="translate(56.677734 0)"/>
      <use xlink:href="#DejaVuSans-73" transform="translate(117.859375 0)"/>
      <use xlink:href="#DejaVuSans-69" transform="translate(169.958984 0)"/>
      <use xlink:href="#DejaVuSans-74" transform="translate(197.742188 0)"/>
      <use xlink:href="#DejaVuSans-69" transform="translate(236.951172 0)"/>
      <use xlink:href="#DejaVuSans-6f" transform="translate(264.734375 0)"/>
      <use xlink:href="#DejaVuSans-6e" transform="translate(325.916016 0)"/>
      <use xlink:href="#DejaVuSans-20" transform="translate(389.294922 0)"/>
      <use xlink:href="#DejaVuSans-69" transform="translate(421.082031 0)"/>
      <use xlink:href="#DejaVuSans-6e" transform="translate(448.865234 0)"/>
      <use xlink:href="#DejaVuSans-20" transform="translate(512.244141 0)"/>
      <use xlink:href="#DejaVuSans-54" transform="translate(544.03125 0)"/>
      <use xlink:href="#DejaVuSans-65" transform="translate(588.115234 0)"/>
      <use xlink:href="#DejaVuSans-78" transform="translate(647.888672 0)"/>
      <use xlink:href="#DejaVuSans-74" transform="translate(707.068359 0)"/>
      <use xlink:href="#DejaVuSans-20" transform="translate(746.277344 0)"/>
      <use xlink:href="#DejaVuSans-28" transform="translate(778.064453 0)"/>
      <use xlink:href="#DejaVuSans-57" transform="translate(817.078125 0)"/>
      <use xlink:href="#DejaVuSans-6f" transform="translate(910.080078 0)"/>
      <use xlink:href="#DejaVuSans-72" transform="translate(971.261719 0)"/>
      <use xlink:href="#DejaVuSans-64" transform="translate(1010.625 0)"/>
      <use xlink:href="#DejaVuSans-73" transform="translate(1074.101562 0)"/>
      <use xlink:href="#DejaVuSans-29" transform="translate(1126.201172 0)"/>
     </g>
    </g>
   </g>
   <g id="matplotlib.axis_2">
    <g id="ytick_1">
     <g id="line2d_11">
      <path d="M 108 350.029978 
L 777.6 350.029978 
" clip-path="url(#p3ef415e225)" style="fill: none; stroke: #b0b0b0; stroke-width: 0.8; stroke-linecap: square"/>
     </g>
     <g id="line2d_12">
      <defs>
       <path id="mc69ae83545" d="M 0 0 
L -3.5 0 
" style="stroke: #000000; stroke-width: 0.8"/>
      </defs>
      <g>
       <use xlink:href="#mc69ae83545" x="108" y="350.029978" style="stroke: #000000; stroke-width: 0.8"/>
      </g>
     </g>
     <g id="text_7">
      <!-- −0.4 -->
      <g transform="translate(76.717187 353.829197) scale(0.1 -0.1)">
       <defs>
        <path id="DejaVuSans-2212" d="M 678 2272 
L 4684 2272 
L 4684 1741 
L 678 1741 
L 678 2272 
z
" transform="scale(0.015625)"/>
        <path id="DejaVuSans-2e" d="M 684 794 
L 1344 794 
L 1344 0 
L 684 0 
L 684 794 
z
" transform="scale(0.015625)"/>
        <path id="DejaVuSans-34" d="M 2419 4116 
L 825 1625 
L 2419 1625 
L 2419 4116 
z
M 2253 4666 
L 3047 4666 
L 3047 1625 
L 3713 1625 
L 3713 1100 
L 3047 1100 
L 3047 0 
L 2419 0 
L 2419 1100 
L 313 1100 
L 313 1709 
L 2253 4666 
z
" transform="scale(0.015625)"/>
       </defs>
       <use xlink:href="#DejaVuSans-2212"/>
       <use xlink:href="#DejaVuSans-30" transform="translate(83.789062 0)"/>
       <use xlink:href="#DejaVuSans-2e" transform="translate(147.412109 0)"/>
       <use xlink:href="#DejaVuSans-34" transform="translate(179.199219 0)"/>
      </g>
     </g>
    </g>
    <g id="ytick_2">
     <g id="line2d_13">
      <path d="M 108 290.111095 
L 777.6 290.111095 
" clip-path="url(#p3ef415e225)" style="fill: none; stroke: #b0b0b0; stroke-width: 0.8; stroke-linecap: square"/>
     </g>
     <g id="line2d_14">
      <g>
       <use xlink:href="#mc69ae83545" x="108" y="290.111095" style="stroke: #000000; stroke-width: 0.8"/>
      </g>
     </g>
     <g id="text_8">
      <!-- −0.2 -->
      <g transform="translate(76.717187 293.910313) scale(0.1 -0.1)">
       <use xlink:href="#DejaVuSans-2212"/>
       <use xlink:href="#DejaVuSans-30" transform="translate(83.789062 0)"/>
       <use xlink:href="#DejaVuSans-2e" transform="translate(147.412109 0)"/>
       <use xlink:href="#DejaVuSans-32" transform="translate(179.199219 0)"/>
      </g>
     </g>
    </g>
    <g id="ytick_3">
     <g id="line2d_15">
      <path d="M 108 230.192211 
L 777.6 230.192211 
" clip-path="url(#p3ef415e225)" style="fill: none; stroke: #b0b0b0; stroke-width: 0.8; stroke-linecap: square"/>
     </g>
     <g id="line2d_16">
      <g>
       <use xlink:href="#mc69ae83545" x="108" y="230.192211" style="stroke: #000000; stroke-width: 0.8"/>
      </g>
     </g>
     <g id="text_9">
      <!-- 0.0 -->
      <g transform="translate(85.096875 233.99143) scale(0.1 -0.1)">
       <use xlink:href="#DejaVuSans-30"/>
       <use xlink:href="#DejaVuSans-2e" transform="translate(63.623047 0)"/>
       <use xlink:href="#DejaVuSans-30" transform="translate(95.410156 0)"/>
      </g>
     </g>
    </g>
    <g id="ytick_4">
     <g id="line2d_17">
      <path d="M 108 170.273327 
L 777.6 170.273327 
" clip-path="url(#p3ef415e225)" style="fill: none; stroke: #b0b0b0; stroke-width: 0.8; stroke-linecap: square"/>
     </g>
     <g id="line2d_18">
      <g>
       <use xlink:href="#mc69ae83545" x="108" y="170.273327" style="stroke: #000000; stroke-width: 0.8"/>
      </g>
     </g>
     <g id="text_10">
      <!-- 0.2 -->
      <g transform="translate(85.096875 174.072546) scale(0.1 -0.1)">
       <use xlink:href="#DejaVuSans-30"/>
       <use xlink:href="#DejaVuSans-2e" transform="translate(63.623047 0)"/>
       <use xlink:href="#DejaVuSans-32" transform="translate(95.410156 0)"/>
      </g>
     </g>
    </g>
    <g id="ytick_5">
     <g id="line2d_19">
      <path d="M 108 110.354444 
L 777.6 110.354444 
" clip-path="url(#p3ef415e225)" style="fill: none; stroke: #b0b0b0; stroke-width: 0.8; stroke-linecap: square"/>
     </g>
     <g id="line2d_20">
      <g>
       <use xlink:href="#mc69ae83545" x="108" y="110.354444" style="stroke: #000000; stroke-width: 0.8"/>
      </g>
     </g>
     <g id="text_11">
      <!-- 0.4 -->
      <g transform="translate(85.096875 114.153662) scale(0.1 -0.1)">
       <use xlink:href="#DejaVuSans-30"/>
       <use xlink:href="#DejaVuSans-2e" transform="translate(63.623047 0)"/>
       <use xlink:href="#DejaVuSans-34" transform="translate(95.410156 0)"/>
      </g>
     </g>
    </g>
    <g id="text_12">
     <!-- Alignment with characteristic -->
     <g transform="translate(70.6375 291.5975) rotate(-90) scale(0.1 -0.1)">
      <defs>
       <path id="DejaVuSans-41" d="M 2188 4044 
L 1331 1722 
L 3047 1722 
L 2188 4044 
z
M 1831 4666 
L 2547 4666 
L 4325 0 
L 3669 0 
L 3244 1197 
L 1141 1197 
L 716 0 
L 50 0 
L 1831 4666 
z
" transform="scale(0.015625)"/>
       <path id="DejaVuSans-6c" d="M 603 4863 
L 1178 4863 
L 1178 0 
L 603 0 
L 603 4863 
z
" transform="scale(0.015625)"/>
       <path id="DejaVuSans-67" d="M 2906 1791 
Q 2906 2416 2648 2759 
Q 2391 3103 1925 3103 
Q 1463 3103 1205 2759 
Q 947 2416 947 1791 
Q 947 1169 1205 825 
Q 1463 481 1925 481 
Q 2391 481 2648 825 
Q 2906 1169 2906 1791 
z
M 3481 434 
Q 3481 -459 3084 -895 
Q 2688 -1331 1869 -1331 
Q 1566 -1331 1297 -1286 
Q 1028 -1241 775 -1147 
L 775 -588 
Q 1028 -725 1275 -790 
Q 1522 -856 1778 -856 
Q 2344 -856 2625 -561 
Q 2906 -266 2906 331 
L 2906 616 
Q 2728 306 2450 153 
Q 2172 0 1784 0 
Q 1141 0 747 490 
Q 353 981 353 1791 
Q 353 2603 747 3093 
Q 1141 3584 1784 3584 
Q 2172 3584 2450 3431 
Q 2728 3278 2906 2969 
L 2906 3500 
L 3481 3500 
L 3481 434 
z
" transform="scale(0.015625)"/>
       <path id="DejaVuSans-6d" d="M 3328 2828 
Q 3544 3216 3844 3400 
Q 4144 3584 4550 3584 
Q 5097 3584 5394 3201 
Q 5691 2819 5691 2113 
L 5691 0 
L 5113 0 
L 5113 2094 
Q 5113 2597 4934 2840 
Q 4756 3084 4391 3084 
Q 3944 3084 3684 2787 
Q 3425 2491 3425 1978 
L 3425 0 
L 2847 0 
L 2847 2094 
Q 2847 2600 2669 2842 
Q 2491 3084 2119 3084 
Q 1678 3084 1418 2786 
Q 1159 2488 1159 1978 
L 1159 0 
L 581 0 
L 581 3500 
L 1159 3500 
L 1159 2956 
Q 1356 3278 1631 3431 
Q 1906 3584 2284 3584 
Q 2666 3584 2933 3390 
Q 3200 3197 3328 2828 
z
" transform="scale(0.015625)"/>
       <path id="DejaVuSans-77" d="M 269 3500 
L 844 3500 
L 1563 769 
L 2278 3500 
L 2956 3500 
L 3675 769 
L 4391 3500 
L 4966 3500 
L 4050 0 
L 3372 0 
L 2619 2869 
L 1863 0 
L 1184 0 
L 269 3500 
z
" transform="scale(0.015625)"/>
       <path id="DejaVuSans-68" d="M 3513 2113 
L 3513 0 
L 2938 0 
L 2938 2094 
Q 2938 2591 2744 2837 
Q 2550 3084 2163 3084 
Q 1697 3084 1428 2787 
Q 1159 2491 1159 1978 
L 1159 0 
L 581 0 
L 581 4863 
L 1159 4863 
L 1159 2956 
Q 1366 3272 1645 3428 
Q 1925 3584 2291 3584 
Q 2894 3584 3203 3211 
Q 3513 2838 3513 2113 
z
" transform="scale(0.015625)"/>
       <path id="DejaVuSans-63" d="M 3122 3366 
L 3122 2828 
Q 2878 2963 2633 3030 
Q 2388 3097 2138 3097 
Q 1578 3097 1268 2742 
Q 959 2388 959 1747 
Q 959 1106 1268 751 
Q 1578 397 2138 397 
Q 2388 397 2633 464 
Q 2878 531 3122 666 
L 3122 134 
Q 2881 22 2623 -34 
Q 2366 -91 2075 -91 
Q 1284 -91 818 406 
Q 353 903 353 1747 
Q 353 2603 823 3093 
Q 1294 3584 2113 3584 
Q 2378 3584 2631 3529 
Q 2884 3475 3122 3366 
z
" transform="scale(0.015625)"/>
       <path id="DejaVuSans-61" d="M 2194 1759 
Q 1497 1759 1228 1600 
Q 959 1441 959 1056 
Q 959 750 1161 570 
Q 1363 391 1709 391 
Q 2188 391 2477 730 
Q 2766 1069 2766 1631 
L 2766 1759 
L 2194 1759 
z
M 3341 1997 
L 3341 0 
L 2766 0 
L 2766 531 
Q 2569 213 2275 61 
Q 1981 -91 1556 -91 
Q 1019 -91 701 211 
Q 384 513 384 1019 
Q 384 1609 779 1909 
Q 1175 2209 1959 2209 
L 2766 2209 
L 2766 2266 
Q 2766 2663 2505 2880 
Q 2244 3097 1772 3097 
Q 1472 3097 1187 3025 
Q 903 2953 641 2809 
L 641 3341 
Q 956 3463 1253 3523 
Q 1550 3584 1831 3584 
Q 2591 3584 2966 3190 
Q 3341 2797 3341 1997 
z
" transform="scale(0.015625)"/>
      </defs>
      <use xlink:href="#DejaVuSans-41"/>
      <use xlink:href="#DejaVuSans-6c" transform="translate(68.408203 0)"/>
      <use xlink:href="#DejaVuSans-69" transform="translate(96.191406 0)"/>
      <use xlink:href="#DejaVuSans-67" transform="translate(123.974609 0)"/>
      <use xlink:href="#DejaVuSans-6e" transform="translate(187.451172 0)"/>
      <use xlink:href="#DejaVuSans-6d" transform="translate(250.830078 0)"/>
      <use xlink:href="#DejaVuSans-65" transform="translate(348.242188 0)"/>
      <use xlink:href="#DejaVuSans-6e" transform="translate(409.765625 0)"/>
      <use xlink:href="#DejaVuSans-74" transform="translate(473.144531 0)"/>
      <use xlink:href="#DejaVuSans-20" transform="translate(512.353516 0)"/>
      <use xlink:href="#DejaVuSans-77" transform="translate(544.140625 0)"/>
      <use xlink:href="#DejaVuSans-69" transform="translate(625.927734 0)"/>
      <use xlink:href="#DejaVuSans-74" transform="translate(653.710938 0)"/>
      <use xlink:href="#DejaVuSans-68" transform="translate(692.919922 0)"/>
      <use xlink:href="#DejaVuSans-20" transform="translate(756.298828 0)"/>
      <use xlink:href="#DejaVuSans-63" transform="translate(788.085938 0)"/>
      <use xlink:href="#DejaVuSans-68" transform="translate(843.066406 0)"/>
      <use xlink:href="#DejaVuSans-61" transform="translate(906.445312 0)"/>
      <use xlink:href="#DejaVuSans-72" transform="translate(967.724609 0)"/>
      <use xlink:href="#DejaVuSans-61" transform="translate(1008.837891 0)"/>
      <use xlink:href="#DejaVuSans-63" transform="translate(1070.117188 0)"/>
      <use xlink:href="#DejaVuSans-74" transform="translate(1125.097656 0)"/>
      <use xlink:href="#DejaVuSans-65" transform="translate(1164.306641 0)"/>
      <use xlink:href="#DejaVuSans-72" transform="translate(1225.830078 0)"/>
      <use xlink:href="#DejaVuSans-69" transform="translate(1266.943359 0)"/>
      <use xlink:href="#DejaVuSans-73" transform="translate(1294.726562 0)"/>
      <use xlink:href="#DejaVuSans-74" transform="translate(1346.826172 0)"/>
      <use xlink:href="#DejaVuSans-69" transform="translate(1386.035156 0)"/>
      <use xlink:href="#DejaVuSans-63" transform="translate(1413.818359 0)"/>
     </g>
    </g>
   </g>
   <g id="line2d_21">
    <path d="M 138.436364 132.967565 
L 145.04048 144.422486 
L 149.634648 143.479309 
L 155.95163 127.330489 
L 161.407204 115.241992 
L 165.139966 111.714553 
L 171.744082 110.215819 
L 177.773928 104.1952 
L 183.229503 96.457525 
L 189.259348 91.949257 
L 196.1506 90.741671 
L 201.319039 108.818016 
L 206.487479 108.06886 
L 208.784563 111.60552 
L 214.240137 107.841641 
L 216.537221 101.218963 
L 219.408576 96.374121 
L 224.864151 100.489652 
L 230.319726 124.209101 
L 236.923842 133.011297 
L 242.666552 141.192393 
L 246.399314 137.442824 
L 250.132075 131.211102 
L 255.874786 145.022396 
L 257.597599 151.846738 
L 263.627444 152.833303 
L 268.508748 159.120546 
L 274.538593 175.908342 
L 279.707033 190.742231 
L 285.162607 215.917829 
L 291.766724 224.487189 
L 298.083705 240.969927 
L 306.69777 266.787776 
L 312.153345 275.781171 
L 314.163293 273.93599 
L 315.0247 270.534868 
L 319.906003 294.49119 
L 328.520069 312.993799 
L 336.272727 317.412717 
L 342.876844 327.641842 
L 346.32247 344.610586 
L 349.768096 354.435506 
L 353.500858 347.566417 
L 358.095026 359.007792 
L 364.124871 350.377136 
L 373.313208 343.991151 
L 375.323156 348.046243 
L 379.055918 341.801186 
L 387.382847 328.751178 
L 388.244254 344.307105 
L 391.68988 355.412162 
L 398.006861 354.700056 
L 399.442539 351.011152 
L 400.878216 351.327543 
L 402.313894 337.265804 
L 406.620926 320.823442 
L 412.076501 316.556574 
L 420.116295 329.69229 
L 421.551973 327.20877 
L 423.561921 343.633694 
L 427.868954 347.689827 
L 432.750257 322.920731 
L 435.908748 309.789512 
L 439.354374 301.082332 
L 440.502916 290.850547 
L 442.8 278.106805 
L 447.107033 264.829526 
L 451.988336 256.532376 
L 458.879588 234.821862 
L 461.176672 230.000204 
L 465.77084 222.951321 
L 470.652144 201.749969 
L 473.236364 178.688617 
L 475.246312 157.97092 
L 481.563293 144.449354 
L 485.870326 125.534997 
L 492.761578 143.001205 
L 498.504288 140.062678 
L 504.534134 134.048123 
L 507.118353 129.058775 
L 508.266895 127.526241 
L 514.296741 115.33209 
L 520.613722 101.547245 
L 524.633619 113.846841 
L 527.79211 115.524958 
L 531.237736 109.900156 
L 537.841852 103.939198 
L 541.000343 110.275054 
L 541.574614 115.095089 
L 543.010292 106.742589 
L 552.485763 102.314739 
L 555.644254 83.687545 
L 559.951286 78.753879 
L 563.684048 72.194725 
L 566.268268 73.95774 
L 575.743739 82.978239 
L 579.763636 95.820415 
L 583.496398 105.761113 
L 586.367753 102.163459 
L 590.38765 102.044331 
L 593.833276 121.39615 
L 599.575986 150.911125 
L 603.883019 163.218435 
L 606.754374 175.618721 
L 607.902916 179.010145 
L 611.348542 191.608046 
L 614.794168 200.230726 
L 618.239794 218.323868 
L 623.695369 240.544824 
L 628.863808 242.728945 
L 635.467925 239.027953 
L 641.784906 244.704529 
L 645.517667 265.02053 
L 651.547513 264.2922 
L 653.270326 262.122966 
L 655.280274 261.675291 
L 659.013036 256.70296 
L 664.755746 257.023202 
L 669.924185 255.383991 
L 673.082676 253.0073 
L 675.37976 278.009975 
L 677.102573 271.410717 
L 682.271012 262.440433 
L 684.855232 283.747551 
L 688.300858 282.801271 
L 692.033619 268.312015 
L 693.182161 270.06734 
L 693.756432 270.065453 
L 694.904974 264.500488 
L 695.479245 267.868482 
L 701.509091 275.391591 
L 702.370497 265.810112 
L 704.667581 274.494665 
L 707.826072 259.581253 
L 708.687479 268.245168 
L 710.697427 273.753282 
L 712.42024 286.874639 
L 715.291595 265.447286 
L 719.598628 257.409429 
L 722.757118 265.206051 
L 725.915609 262.131077 
L 727.351286 260.107411 
L 727.925557 260.627208 
L 729.64837 268.691604 
L 733.093997 255.286449 
L 735.965352 239.326389 
L 736.539623 252.713942 
L 738.549571 255.770041 
L 739.698113 261.122695 
L 743.71801 252.285662 
L 747.163636 255.327681 
L 747.163636 255.327681 
" clip-path="url(#p3ef415e225)" style="fill: none; stroke: #006837; stroke-width: 1.5; stroke-linecap: square"/>
   </g>
   <g id="line2d_22">
    <path d="M 138.436364 118.972897 
L 145.04048 129.740823 
L 149.634648 124.835092 
L 155.95163 109.294633 
L 161.407204 101.503662 
L 165.139966 99.713585 
L 171.744082 100.697746 
L 177.773928 99.287018 
L 183.229503 91.884818 
L 189.259348 87.199511 
L 196.1506 82.992587 
L 201.319039 94.987429 
L 206.487479 94.401106 
L 208.784563 98.944563 
L 216.537221 90.999237 
L 219.408576 86.380543 
L 224.864151 92.090077 
L 230.319726 115.574715 
L 236.923842 125.614273 
L 242.666552 132.056536 
L 246.399314 127.97092 
L 250.132075 120.524754 
L 255.874786 135.192627 
L 257.597599 142.325338 
L 263.627444 148.595791 
L 268.508748 158.025269 
L 274.538593 176.304354 
L 279.707033 193.6409 
L 285.162607 219.629892 
L 291.766724 222.715137 
L 298.083705 235.735381 
L 306.69777 259.310249 
L 312.153345 269.453827 
L 314.163293 269.992156 
L 315.0247 269.845478 
L 319.906003 291.237485 
L 328.520069 308.696989 
L 336.272727 313.235983 
L 342.876844 324.042698 
L 346.32247 338.430532 
L 349.768096 345.563449 
L 353.500858 336.982618 
L 358.095026 347.749554 
L 364.124871 339.630542 
L 373.313208 335.635228 
L 375.323156 339.441295 
L 379.055918 332.866828 
L 387.382847 320.110691 
L 388.244254 329.877044 
L 391.68988 341.375046 
L 398.006861 344.737304 
L 399.442539 340.888738 
L 400.878216 338.664437 
L 402.313894 323.276362 
L 406.620926 307.755369 
L 412.076501 304.975785 
L 420.116295 315.484088 
L 421.551973 311.994102 
L 423.561921 329.122648 
L 427.868954 332.710754 
L 432.750257 314.352477 
L 435.908748 303.252226 
L 439.354374 294.819093 
L 440.502916 285.497829 
L 447.107033 257.923731 
L 451.988336 251.555749 
L 458.879588 229.901909 
L 461.176672 226.36768 
L 465.77084 219.893012 
L 470.652144 200.965808 
L 473.236364 183.299307 
L 475.246312 159.714836 
L 481.563293 146.788051 
L 485.870326 137.197663 
L 492.761578 152.223921 
L 498.504288 154.918486 
L 504.534134 153.222719 
L 507.118353 149.590591 
L 508.266895 145.016888 
L 514.296741 134.268337 
L 520.613722 119.447341 
L 524.633619 131.855088 
L 527.79211 136.445866 
L 531.237736 130.596144 
L 537.841852 124.774722 
L 541.000343 130.887404 
L 541.574614 137.285554 
L 543.010292 127.481819 
L 552.485763 115.411184 
L 555.644254 95.783782 
L 559.951286 85.692854 
L 563.684048 79.348091 
L 566.268268 80.068369 
L 575.743739 86.461299 
L 579.763636 99.427004 
L 583.496398 112.135946 
L 586.367753 115.749011 
L 590.38765 114.414651 
L 593.833276 133.009161 
L 599.575986 156.458007 
L 603.883019 164.400834 
L 606.754374 174.994262 
L 607.902916 182.300605 
L 611.348542 195.147264 
L 614.794168 205.94534 
L 618.239794 221.413621 
L 623.695369 239.410912 
L 628.863808 246.116175 
L 635.467925 243.883273 
L 641.784906 251.173664 
L 645.517667 268.354787 
L 651.547513 265.785122 
L 653.270326 262.544188 
L 655.280274 262.994205 
L 659.013036 260.586032 
L 664.755746 260.347802 
L 669.924185 260.613563 
L 673.082676 252.84325 
L 675.37976 276.690605 
L 677.102573 272.669623 
L 682.271012 267.356327 
L 684.855232 282.005834 
L 688.300858 281.406504 
L 692.033619 268.944806 
L 693.182161 273.205077 
L 693.756432 272.616713 
L 694.904974 266.402299 
L 695.479245 268.544027 
L 701.509091 278.003514 
L 702.370497 270.79368 
L 704.667581 279.452803 
L 707.826072 266.101069 
L 708.687479 270.574699 
L 710.697427 274.231676 
L 712.42024 283.15017 
L 715.291595 265.905879 
L 719.598628 260.703542 
L 722.757118 266.072779 
L 725.915609 264.054035 
L 727.351286 258.674439 
L 727.925557 261.733083 
L 729.64837 272.374688 
L 733.093997 259.405276 
L 735.965352 245.247023 
L 736.539623 254.505607 
L 738.549571 255.495201 
L 739.698113 259.898169 
L 743.71801 257.624833 
L 747.163636 260.15361 
L 747.163636 260.15361 
" clip-path="url(#p3ef415e225)" style="fill: none; stroke: #2da155; stroke-width: 1.5; stroke-linecap: square"/>
   </g>
   <g id="line2d_23">
    <path d="M 138.436364 114.857026 
L 145.04048 124.497121 
L 149.634648 119.143943 
L 155.95163 105.755712 
L 161.407204 100.694188 
L 165.139966 102.602319 
L 171.744082 104.331901 
L 177.773928 104.220178 
L 183.229503 96.509941 
L 189.259348 91.94981 
L 196.1506 87.012479 
L 201.319039 98.825354 
L 206.487479 98.348012 
L 208.784563 102.890292 
L 214.240137 97.741693 
L 216.537221 96.421282 
L 219.408576 94.395124 
L 224.864151 100.825948 
L 230.319726 126.215255 
L 236.923842 134.970924 
L 242.666552 138.214217 
L 246.399314 134.275688 
L 250.132075 128.656055 
L 255.874786 145.687568 
L 257.597599 158.151973 
L 263.627444 168.074536 
L 268.508748 178.190545 
L 274.538593 199.080312 
L 279.707033 219.663029 
L 285.162607 246.624618 
L 291.766724 251.627675 
L 298.083705 263.063448 
L 306.69777 286.71923 
L 312.153345 292.867061 
L 314.163293 295.477095 
L 315.0247 297.975439 
L 319.906003 318.479033 
L 328.520069 337.596295 
L 336.272727 339.774836 
L 342.876844 345.42354 
L 346.32247 360.678479 
L 349.768096 369.36 
L 353.500858 356.526584 
L 358.095026 364.696205 
L 364.124871 357.927742 
L 373.313208 355.837026 
L 375.323156 361.010521 
L 379.055918 354.737044 
L 387.382847 343.652171 
L 388.244254 350.948237 
L 391.68988 362.963219 
L 398.006861 367.458381 
L 399.442539 362.513549 
L 400.878216 359.56376 
L 402.313894 349.374656 
L 406.620926 333.003939 
L 412.076501 327.96657 
L 420.116295 338.224256 
L 421.551973 334.695893 
L 423.561921 348.809398 
L 427.868954 351.705801 
L 432.750257 332.503045 
L 435.908748 322.516819 
L 439.354374 312.25128 
L 440.502916 303.307098 
L 442.8 292.115289 
L 447.107033 272.296259 
L 451.988336 264.755119 
L 461.176672 235.086995 
L 465.77084 224.181398 
L 470.652144 205.733232 
L 473.236364 189.18222 
L 475.246312 164.535325 
L 481.563293 150.276549 
L 485.870326 137.779411 
L 492.761578 149.646784 
L 498.504288 147.615112 
L 504.534134 149.51254 
L 507.118353 147.407718 
L 508.266895 144.149448 
L 514.296741 134.9778 
L 520.613722 119.588852 
L 524.633619 134.004954 
L 527.79211 136.260191 
L 531.237736 132.363633 
L 537.841852 128.640889 
L 541.000343 135.295948 
L 541.574614 141.163769 
L 543.010292 131.561103 
L 552.485763 120.527178 
L 555.644254 102.817852 
L 559.951286 96.171368 
L 563.684048 90.873102 
L 566.268268 89.02877 
L 575.743739 95.713126 
L 579.763636 108.522945 
L 583.496398 122.437331 
L 586.367753 127.671531 
L 590.38765 127.550287 
L 593.833276 147.581141 
L 599.575986 170.537802 
L 603.883019 178.370783 
L 606.754374 190.038959 
L 607.902916 199.746817 
L 614.794168 222.130073 
L 618.239794 235.952515 
L 623.695369 252.437193 
L 628.863808 263.478282 
L 635.467925 259.800882 
L 641.784906 266.206698 
L 645.517667 283.395406 
L 651.547513 278.62544 
L 653.270326 276.321527 
L 655.280274 277.726409 
L 659.013036 276.287321 
L 664.755746 276.216169 
L 669.924185 277.447213 
L 673.082676 270.028853 
L 675.37976 293.523328 
L 677.102573 290.046777 
L 682.271012 284.210272 
L 683.993825 291.267982 
L 684.855232 297.797659 
L 688.300858 297.025627 
L 692.033619 284.830608 
L 693.182161 288.424418 
L 693.756432 287.496931 
L 694.904974 278.324431 
L 695.479245 278.475567 
L 701.509091 285.722275 
L 702.370497 280.040702 
L 704.667581 286.644333 
L 707.826072 274.924255 
L 710.697427 285.371244 
L 712.42024 296.941973 
L 715.291595 283.984801 
L 719.598628 278.434546 
L 722.757118 283.811617 
L 725.915609 287.223338 
L 727.351286 285.053863 
L 727.925557 290.854022 
L 729.64837 300.432299 
L 733.093997 289.871543 
L 735.965352 277.324329 
L 736.539623 286.692588 
L 738.549571 289.796527 
L 739.698113 296.426719 
L 743.71801 295.423451 
L 747.163636 294.745986 
L 747.163636 294.745986 
" clip-path="url(#p3ef415e225)" style="fill: none; stroke: #87cb67; stroke-width: 1.5; stroke-linecap: square"/>
   </g>
   <g id="line2d_24">
    <path d="M 138.436364 89.826074 
L 145.04048 98.102086 
L 149.634648 93.79288 
L 155.95163 82.600361 
L 161.407204 77.439192 
L 165.139966 83.671165 
L 171.744082 87.741073 
L 177.773928 88.254693 
L 183.229503 77.325625 
L 189.259348 72.331552 
L 196.1506 66.96 
L 201.319039 78.247724 
L 206.487479 75.596336 
L 208.784563 78.540592 
L 214.240137 75.451696 
L 216.537221 75.595331 
L 219.408576 76.724879 
L 224.864151 83.157493 
L 230.319726 106.7815 
L 236.923842 113.891266 
L 242.666552 115.663494 
L 246.399314 110.278589 
L 250.132075 107.430102 
L 255.874786 127.70302 
L 257.597599 146.500039 
L 263.627444 159.443075 
L 268.508748 171.125437 
L 274.538593 193.548616 
L 279.707033 215.524404 
L 285.162607 244.556577 
L 291.766724 249.898623 
L 298.083705 259.551486 
L 306.69777 280.637149 
L 312.153345 283.71238 
L 314.163293 289.527929 
L 315.0247 295.329918 
L 319.906003 316.129681 
L 328.520069 335.638273 
L 336.272727 334.631887 
L 342.876844 335.17769 
L 346.32247 351.903845 
L 349.768096 362.70684 
L 353.500858 347.362411 
L 358.095026 351.826608 
L 364.124871 347.027566 
L 373.313208 347.371958 
L 375.323156 353.482634 
L 379.055918 350.124113 
L 387.382847 340.648128 
L 388.244254 345.828146 
L 391.68988 357.984109 
L 398.006861 361.128784 
L 399.442539 353.893412 
L 400.878216 351.798591 
L 402.313894 348.216882 
L 406.620926 333.09337 
L 412.076501 322.537345 
L 420.116295 334.257722 
L 421.551973 335.166667 
L 423.561921 343.867803 
L 427.868954 348.025988 
L 432.750257 328.272476 
L 435.908748 318.996718 
L 439.354374 306.870099 
L 440.502916 297.911614 
L 442.8 282.473211 
L 447.107033 263.260284 
L 451.988336 254.533095 
L 458.879588 229.595124 
L 461.176672 216.660815 
L 465.77084 200.048251 
L 470.652144 184.327616 
L 473.236364 166.755282 
L 475.246312 139.418916 
L 481.563293 124.456375 
L 485.870326 106.085474 
L 492.761578 114.643548 
L 498.504288 107.683202 
L 504.534134 114.331791 
L 507.118353 111.798155 
L 508.266895 109.450427 
L 514.296741 105.816081 
L 520.613722 92.956083 
L 524.633619 110.968359 
L 527.79211 112.030975 
L 531.237736 110.337126 
L 537.841852 108.194316 
L 541.000343 115.110198 
L 541.574614 121.274545 
L 543.010292 112.564577 
L 552.485763 103.785101 
L 555.644254 90.328554 
L 559.951286 87.434093 
L 563.684048 81.367546 
L 566.268268 77.952651 
L 575.743739 87.406063 
L 579.763636 95.56704 
L 583.496398 107.890561 
L 586.367753 112.652363 
L 590.38765 112.711087 
L 593.833276 132.896809 
L 599.575986 155.372117 
L 603.883019 164.061785 
L 606.754374 177.86744 
L 607.902916 189.379686 
L 611.348542 202.654963 
L 614.794168 213.175482 
L 618.239794 225.900306 
L 628.863808 259.143385 
L 635.467925 253.986065 
L 641.784906 259.612483 
L 645.517667 275.761832 
L 651.547513 271.267302 
L 653.270326 269.68094 
L 655.280274 272.089282 
L 659.013036 270.188418 
L 664.755746 268.87364 
L 669.924185 268.463403 
L 673.082676 260.982134 
L 674.518353 271.892848 
L 675.37976 279.987369 
L 677.102573 277.45598 
L 682.271012 271.451546 
L 683.993825 275.243607 
L 684.855232 281.520171 
L 688.300858 281.781493 
L 692.033619 271.802047 
L 693.182161 275.445827 
L 693.756432 274.334656 
L 694.904974 262.118626 
L 695.479245 261.459611 
L 701.509091 266.561931 
L 702.370497 262.637459 
L 704.667581 267.109861 
L 707.826072 257.944787 
L 708.687479 259.411003 
L 710.697427 268.299917 
L 712.42024 279.895364 
L 715.291595 273.038447 
L 719.598628 265.564311 
L 722.757118 269.061559 
L 725.915609 278.200109 
L 727.351286 277.551385 
L 727.925557 285.180057 
L 729.64837 293.598259 
L 733.093997 284.965825 
L 735.965352 275.663306 
L 736.539623 285.303322 
L 738.549571 292.096728 
L 739.698113 300.713696 
L 743.71801 302.343743 
L 747.163636 298.693192 
L 747.163636 298.693192 
" clip-path="url(#p3ef415e225)" style="fill: none; stroke: #cbe982; stroke-width: 1.5; stroke-linecap: square"/>
   </g>
   <g id="line2d_25">
    <path d="M 138.436364 95.722516 
L 145.04048 107.646972 
L 149.634648 108.290922 
L 155.95163 95.832595 
L 161.407204 88.545552 
L 165.139966 93.78269 
L 171.744082 98.437694 
L 177.773928 99.294543 
L 183.229503 90.430378 
L 189.259348 88.701568 
L 196.1506 85.200454 
L 201.319039 101.230958 
L 206.487479 100.81327 
L 208.784563 104.341518 
L 214.240137 99.687477 
L 216.537221 99.675158 
L 219.408576 99.020192 
L 224.864151 104.563028 
L 230.319726 127.6379 
L 236.923842 136.638469 
L 242.666552 140.326263 
L 246.399314 135.58576 
L 250.132075 129.628322 
L 255.874786 142.898843 
L 257.597599 154.674987 
L 263.627444 164.789611 
L 268.508748 175.433256 
L 274.538593 197.453741 
L 279.707033 219.412971 
L 285.162607 244.716037 
L 291.766724 245.923216 
L 298.083705 256.095799 
L 306.69777 274.591193 
L 312.153345 275.903367 
L 314.163293 279.96702 
L 315.0247 282.225628 
L 319.906003 299.567984 
L 328.520069 319.450796 
L 336.272727 323.490003 
L 342.876844 327.619302 
L 346.32247 343.560857 
L 349.768096 351.631447 
L 353.500858 336.521961 
L 358.095026 335.107941 
L 364.124871 333.842711 
L 373.313208 336.066938 
L 375.323156 340.419196 
L 379.055918 339.389927 
L 387.382847 333.201158 
L 388.244254 339.215897 
L 391.68988 353.084552 
L 398.006861 354.716972 
L 399.442539 349.505407 
L 400.878216 347.64671 
L 402.313894 342.953806 
L 406.620926 330.217685 
L 412.076501 318.706001 
L 420.116295 329.505413 
L 421.551973 334.238228 
L 423.561921 340.309901 
L 427.868954 344.470749 
L 432.750257 324.449691 
L 435.908748 309.941162 
L 439.354374 295.331068 
L 440.502916 286.77419 
L 442.8 271.415795 
L 447.107033 257.969046 
L 451.988336 249.396975 
L 458.879588 224.27031 
L 461.176672 214.347035 
L 465.77084 195.714758 
L 470.652144 183.647666 
L 473.236364 168.359424 
L 475.246312 144.63 
L 481.563293 133.057061 
L 485.870326 116.640726 
L 492.761578 127.372592 
L 498.504288 123.72199 
L 504.534134 129.690019 
L 507.118353 125.770905 
L 508.266895 123.480526 
L 514.296741 116.513792 
L 520.613722 105.13452 
L 524.633619 124.728781 
L 527.79211 126.756198 
L 531.237736 125.594419 
L 537.841852 121.81629 
L 541.000343 126.663748 
L 541.574614 133.078148 
L 543.010292 126.364629 
L 552.485763 118.306777 
L 555.644254 102.570843 
L 559.951286 100.502514 
L 563.684048 95.622558 
L 566.268268 93.765207 
L 575.743739 104.41528 
L 579.763636 111.102156 
L 583.496398 120.458565 
L 586.367753 121.531064 
L 590.38765 121.303201 
L 593.833276 140.876255 
L 599.575986 164.688226 
L 603.883019 174.178842 
L 606.754374 186.748311 
L 607.902916 198.336849 
L 611.348542 210.006476 
L 618.239794 237.024613 
L 623.695369 254.702379 
L 628.863808 269.583369 
L 635.467925 263.460389 
L 641.784906 273.528042 
L 645.517667 288.387064 
L 651.547513 285.619053 
L 653.270326 283.698145 
L 655.280274 286.356364 
L 659.013036 283.715692 
L 664.755746 282.674604 
L 669.924185 282.026622 
L 673.082676 275.572159 
L 674.518353 285.919203 
L 675.37976 293.160697 
L 677.102573 291.880739 
L 682.271012 283.990384 
L 683.993825 287.780691 
L 684.855232 293.352988 
L 688.300858 291.274879 
L 692.033619 281.894015 
L 693.182161 284.285359 
L 693.756432 281.749313 
L 694.904974 270.559385 
L 695.479245 271.177834 
L 701.509091 274.700484 
L 702.370497 270.667949 
L 704.667581 273.329035 
L 707.826072 265.267797 
L 708.687479 267.224381 
L 710.697427 274.066384 
L 712.42024 284.812536 
L 715.291595 277.200787 
L 719.598628 268.530416 
L 722.757118 272.716802 
L 725.915609 281.070814 
L 727.351286 282.582532 
L 727.925557 290.400449 
L 729.64837 296.955883 
L 733.093997 287.387157 
L 735.965352 280.037056 
L 736.539623 289.174925 
L 738.549571 295.005387 
L 739.698113 303.914679 
L 743.71801 302.988182 
L 747.163636 300.080225 
L 747.163636 300.080225 
" clip-path="url(#p3ef415e225)" style="fill: none; stroke: #fffebe; stroke-width: 1.5; stroke-linecap: square"/>
   </g>
   <g id="line2d_26">
    <path d="M 138.436364 96.843259 
L 145.04048 107.79652 
L 149.634648 107.240274 
L 155.95163 97.063859 
L 161.407204 91.652575 
L 165.139966 98.016019 
L 171.744082 102.66398 
L 177.773928 103.303607 
L 183.229503 93.344506 
L 196.1506 86.437754 
L 201.319039 100.212303 
L 206.487479 100.802855 
L 208.784563 104.327789 
L 214.240137 99.647072 
L 216.537221 99.412152 
L 219.408576 99.303884 
L 224.864151 105.506075 
L 230.319726 129.051044 
L 236.923842 138.238194 
L 242.666552 141.541451 
L 246.399314 136.909585 
L 250.132075 131.751452 
L 255.874786 148.067582 
L 257.597599 163.070352 
L 263.627444 176.182561 
L 268.508748 187.400772 
L 274.538593 208.796701 
L 279.707033 232.002376 
L 285.162607 260.005792 
L 291.766724 262.989408 
L 298.083705 272.042218 
L 306.69777 292.155583 
L 312.153345 292.468447 
L 315.0247 301.028679 
L 319.906003 318.509914 
L 328.520069 337.586718 
L 336.272727 339.112456 
L 342.876844 340.281015 
L 346.32247 354.025069 
L 349.768096 364.760513 
L 353.500858 350.095626 
L 358.095026 349.239678 
L 364.124871 345.032469 
L 373.313208 346.738388 
L 375.323156 350.27571 
L 379.055918 347.810629 
L 387.382847 341.267112 
L 388.244254 346.228966 
L 391.68988 359.415915 
L 398.006861 362.058948 
L 399.442539 357.003001 
L 400.878216 353.532441 
L 402.313894 353.414636 
L 406.620926 341.662005 
L 412.076501 329.073389 
L 420.116295 338.620899 
L 421.551973 342.687029 
L 423.561921 350.137404 
L 427.868954 353.13672 
L 432.750257 335.563134 
L 439.354374 308.382365 
L 440.502916 299.301959 
L 442.8 284.861 
L 447.107033 268.594258 
L 451.988336 259.301276 
L 458.879588 236.061131 
L 461.176672 221.749661 
L 465.77084 201.951806 
L 470.652144 189.447412 
L 473.236364 174.347126 
L 475.246312 150.671891 
L 481.563293 137.564787 
L 485.870326 121.989351 
L 492.761578 129.57477 
L 498.504288 124.053434 
L 504.534134 131.81066 
L 507.118353 128.903734 
L 508.266895 127.034176 
L 514.296741 121.382599 
L 520.613722 110.874373 
L 524.633619 129.843173 
L 527.79211 130.515896 
L 531.237736 129.727589 
L 537.841852 127.082166 
L 541.000343 133.577328 
L 541.574614 139.927117 
L 543.010292 133.055096 
L 552.485763 124.704505 
L 555.644254 110.146845 
L 559.951286 109.814427 
L 563.684048 105.159555 
L 566.268268 101.04033 
L 575.743739 110.683649 
L 579.763636 116.198447 
L 583.496398 126.26636 
L 586.367753 129.955928 
L 590.38765 131.289235 
L 593.833276 150.49414 
L 599.575986 172.95644 
L 603.883019 181.410787 
L 606.754374 192.906068 
L 607.902916 204.675182 
L 611.348542 216.316541 
L 614.794168 230.137201 
L 618.239794 242.196016 
L 623.695369 258.096493 
L 628.863808 274.946876 
L 635.467925 268.824139 
L 641.784906 280.467963 
L 645.517667 294.342543 
L 651.547513 290.582918 
L 653.270326 289.054142 
L 655.280274 293.092901 
L 659.013036 291.101697 
L 664.755746 289.98655 
L 669.924185 290.700385 
L 673.082676 283.661486 
L 674.518353 291.588805 
L 675.37976 299.588814 
L 677.102573 297.191726 
L 682.271012 290.577611 
L 683.993825 294.445808 
L 684.855232 299.656186 
L 688.300858 297.299041 
L 692.033619 288.565694 
L 693.182161 290.617055 
L 693.756432 288.882286 
L 694.904974 276.722918 
L 695.479245 277.216502 
L 701.509091 280.090633 
L 702.370497 276.201893 
L 704.667581 280.265025 
L 707.826072 274.993494 
L 708.687479 275.629025 
L 710.697427 284.332938 
L 712.42024 296.500419 
L 715.291595 290.055367 
L 719.598628 284.022283 
L 722.757118 286.953375 
L 725.915609 298.107288 
L 727.351286 301.297376 
L 727.925557 309.118829 
L 729.64837 315.773536 
L 735.965352 299.640652 
L 736.539623 309.083682 
L 738.549571 313.197211 
L 739.698113 322.446455 
L 743.71801 322.568522 
L 747.163636 319.113769 
L 747.163636 319.113769 
" clip-path="url(#p3ef415e225)" style="fill: none; stroke: #fed27f; stroke-width: 1.5; stroke-linecap: square"/>
   </g>
   <g id="line2d_27">
    <path d="M 138.436364 97.330846 
L 145.04048 108.775154 
L 149.634648 108.208418 
L 155.95163 99.776556 
L 161.407204 95.63434 
L 165.139966 101.228756 
L 171.744082 107.787024 
L 177.773928 108.065833 
L 183.229503 99.914508 
L 189.259348 97.79736 
L 196.1506 95.515274 
L 201.319039 109.306306 
L 206.487479 107.019933 
L 208.784563 107.733058 
L 214.240137 102.499623 
L 216.537221 104.099055 
L 219.408576 103.613379 
L 224.864151 108.350373 
L 230.319726 132.312354 
L 236.923842 140.580075 
L 242.666552 144.863529 
L 246.399314 140.356469 
L 250.132075 138.974574 
L 255.874786 154.047828 
L 257.597599 170.801866 
L 263.627444 182.82559 
L 268.508748 195.591933 
L 274.538593 218.769649 
L 279.707033 242.377475 
L 285.162607 269.907728 
L 291.766724 272.008936 
L 298.083705 279.377667 
L 306.69777 298.356962 
L 312.153345 296.636427 
L 314.163293 303.147773 
L 315.0247 304.277162 
L 319.906003 320.7422 
L 328.520069 338.426583 
L 336.272727 339.678566 
L 342.876844 337.794785 
L 346.32247 352.065834 
L 349.768096 360.035362 
L 353.500858 343.298163 
L 358.095026 338.627992 
L 364.124871 337.360925 
L 373.313208 340.658273 
L 375.323156 348.251139 
L 379.055918 346.552232 
L 387.382847 341.290844 
L 388.244254 344.245159 
L 391.68988 360.955145 
L 398.006861 362.287039 
L 399.442539 355.949114 
L 400.878216 355.206655 
L 402.313894 357.249447 
L 406.620926 347.171418 
L 412.076501 335.793489 
L 420.116295 347.346941 
L 421.551973 354.695898 
L 423.561921 358.231882 
L 427.868954 365.035921 
L 432.750257 346.347226 
L 435.908748 334.779514 
L 439.354374 319.354437 
L 442.8 294.155926 
L 447.107033 278.771196 
L 451.988336 270.553615 
L 458.879588 244.081414 
L 461.176672 227.593831 
L 465.77084 208.405823 
L 470.652144 195.861374 
L 473.236364 179.536357 
L 475.246312 153.660781 
L 481.563293 142.551542 
L 485.870326 122.885298 
L 492.761578 130.143969 
L 498.504288 124.857077 
L 504.534134 133.563013 
L 507.118353 130.994001 
L 508.266895 127.351792 
L 514.296741 124.757457 
L 520.613722 115.753728 
L 524.633619 135.674686 
L 527.79211 137.390136 
L 531.237736 134.537518 
L 537.841852 133.034811 
L 541.000343 139.205912 
L 541.574614 143.581848 
L 543.010292 136.171426 
L 552.485763 126.510872 
L 555.644254 113.455593 
L 559.951286 112.726227 
L 563.684048 108.979077 
L 566.268268 105.562328 
L 575.743739 116.412362 
L 579.763636 125.98473 
L 583.496398 132.670709 
L 586.367753 139.180501 
L 590.38765 138.195663 
L 593.833276 157.500229 
L 599.575986 178.730211 
L 603.883019 186.062514 
L 606.754374 199.759591 
L 607.902916 211.60709 
L 611.348542 225.147993 
L 614.794168 236.953659 
L 618.239794 247.357591 
L 623.695369 261.489596 
L 628.863808 280.235251 
L 635.467925 275.139345 
L 641.784906 276.704906 
L 645.517667 290.625213 
L 651.547513 283.737621 
L 653.270326 285.196664 
L 655.280274 290.598917 
L 659.013036 289.297139 
L 664.755746 289.696996 
L 669.924185 290.302169 
L 673.082676 284.719947 
L 674.518353 291.941596 
L 675.37976 299.409232 
L 677.102573 298.399098 
L 682.271012 293.494481 
L 683.993825 294.742603 
L 684.855232 301.674918 
L 688.300858 302.237418 
L 692.033619 294.238669 
L 693.182161 297.908827 
L 693.756432 295.304989 
L 694.904974 283.264978 
L 695.479245 283.170456 
L 701.509091 284.314898 
L 702.370497 280.925875 
L 704.667581 281.845659 
L 707.826072 275.358783 
L 708.687479 275.917385 
L 710.697427 285.931137 
L 712.42024 298.156199 
L 715.291595 294.008032 
L 719.598628 285.429867 
L 722.757118 290.13723 
L 725.915609 304.209058 
L 727.351286 305.65287 
L 727.925557 314.451333 
L 729.64837 316.040593 
L 733.093997 309.242655 
L 735.965352 303.236243 
L 736.539623 313.689204 
L 738.549571 321.530516 
L 739.698113 332.536261 
L 743.71801 335.085296 
L 747.163636 330.422561 
L 747.163636 330.422561 
" clip-path="url(#p3ef415e225)" style="fill: none; stroke: #f98e52; stroke-width: 1.5; stroke-linecap: square"/>
   </g>
   <g id="line2d_28">
    <path d="M 138.436364 90.676103 
L 145.04048 100.70589 
L 149.634648 99.037499 
L 155.95163 91.094515 
L 161.407204 88.699583 
L 165.139966 95.726392 
L 171.744082 101.958026 
L 177.773928 101.157088 
L 183.229503 92.061121 
L 189.259348 89.206161 
L 196.1506 87.655716 
L 201.319039 99.463795 
L 206.487479 97.050766 
L 208.784563 100.723493 
L 216.537221 98.766335 
L 219.408576 99.652987 
L 224.864151 105.838292 
L 230.319726 129.264708 
L 236.923842 135.601721 
L 242.666552 139.623284 
L 246.399314 134.466987 
L 250.132075 131.000423 
L 255.874786 148.470206 
L 257.597599 164.922268 
L 263.627444 175.958317 
L 268.508748 189.579792 
L 279.707033 235.57051 
L 285.162607 260.575331 
L 291.766724 263.912694 
L 298.083705 272.826996 
L 306.69777 290.060703 
L 312.153345 288.861105 
L 315.0247 298.271309 
L 319.906003 317.559493 
L 328.520069 335.959027 
L 336.272727 334.479287 
L 342.876844 333.687752 
L 346.32247 348.259838 
L 349.768096 357.171739 
L 353.500858 339.440099 
L 358.095026 337.601903 
L 364.124871 335.988243 
L 373.313208 339.207244 
L 375.323156 345.074024 
L 379.055918 343.872299 
L 387.382847 337.332833 
L 388.244254 341.776326 
L 391.68988 356.036652 
L 398.006861 356.812309 
L 399.442539 349.787533 
L 400.878216 349.023748 
L 402.313894 352.027332 
L 406.620926 341.05602 
L 412.076501 328.520403 
L 420.116295 340.815601 
L 421.551973 346.86817 
L 423.561921 351.063859 
L 427.868954 355.75266 
L 435.908748 323.863605 
L 439.354374 308.198158 
L 440.502916 299.527938 
L 442.8 283.167235 
L 447.107033 266.391085 
L 451.988336 258.633338 
L 458.879588 233.386236 
L 461.176672 217.186711 
L 465.77084 196.140766 
L 470.652144 184.183197 
L 473.236364 165.53656 
L 475.246312 139.128802 
L 481.563293 126.523213 
L 485.870326 108.359523 
L 492.761578 115.615167 
L 498.504288 111.425984 
L 504.534134 119.544089 
L 507.118353 114.393794 
L 508.266895 111.266919 
L 514.296741 108.801183 
L 520.613722 101.059682 
L 524.633619 119.344118 
L 527.79211 120.041843 
L 531.237736 119.579123 
L 537.841852 118.910988 
L 541.000343 126.574772 
L 541.574614 132.924599 
L 543.010292 126.075249 
L 552.485763 117.20378 
L 555.644254 104.359889 
L 559.951286 103.948454 
L 563.684048 99.995772 
L 566.268268 98.350278 
L 575.743739 109.527853 
L 579.763636 117.66613 
L 583.496398 124.277619 
L 586.367753 130.363703 
L 590.38765 129.977435 
L 593.833276 149.672049 
L 599.575986 168.845192 
L 603.883019 177.244881 
L 606.754374 190.496199 
L 607.902916 203.912792 
L 611.348542 216.361618 
L 614.794168 226.506923 
L 618.239794 235.415919 
L 623.695369 252.504103 
L 628.863808 270.744004 
L 635.467925 262.965044 
L 641.784906 267.421826 
L 645.517667 283.167882 
L 651.547513 277.901952 
L 653.270326 278.878461 
L 655.280274 284.166517 
L 659.013036 284.081007 
L 664.755746 284.998117 
L 669.924185 285.392463 
L 673.082676 278.075555 
L 674.518353 287.162312 
L 675.37976 294.476333 
L 677.102573 295.731941 
L 682.271012 288.186974 
L 683.993825 290.957144 
L 684.855232 301.305877 
L 688.300858 301.050529 
L 692.033619 291.53491 
L 693.182161 295.05737 
L 693.756432 291.14702 
L 694.904974 277.77694 
L 695.479245 275.841377 
L 701.509091 275.716795 
L 702.370497 271.537483 
L 704.667581 273.305835 
L 707.826072 265.786248 
L 710.697427 280.83464 
L 712.42024 294.199161 
L 715.291595 288.710757 
L 719.598628 277.456289 
L 722.757118 282.073246 
L 725.915609 294.115625 
L 727.351286 295.45412 
L 727.925557 305.541734 
L 729.64837 310.118339 
L 733.093997 304.699036 
L 735.965352 298.966948 
L 736.539623 311.021825 
L 738.549571 318.397859 
L 739.698113 329.489266 
L 743.71801 330.404993 
L 747.163636 323.562907 
L 747.163636 323.562907 
" clip-path="url(#p3ef415e225)" style="fill: none; stroke: #de402e; stroke-width: 1.5; stroke-linecap: square"/>
   </g>
   <g id="line2d_29">
    <path d="M 138.436364 94.752776 
L 145.04048 101.29709 
L 149.634648 97.85134 
L 155.95163 89.116669 
L 161.407204 88.156864 
L 165.139966 96.258175 
L 171.744082 101.972201 
L 177.773928 103.666077 
L 183.229503 93.562467 
L 189.259348 89.291524 
L 196.1506 84.271991 
L 201.319039 94.431021 
L 206.487479 91.752652 
L 208.784563 93.952788 
L 214.240137 91.787074 
L 216.537221 94.554899 
L 219.408576 98.351595 
L 224.864151 102.770109 
L 230.319726 123.956421 
L 236.923842 131.156722 
L 242.666552 132.208495 
L 246.399314 126.395884 
L 250.132075 128.321047 
L 255.874786 147.242741 
L 257.597599 166.822713 
L 263.627444 181.837766 
L 268.508748 192.228135 
L 274.538593 214.924666 
L 279.707033 236.475116 
L 285.162607 264.133767 
L 291.766724 267.455896 
L 298.083705 271.453484 
L 306.69777 291.052374 
L 312.153345 290.743893 
L 314.163293 295.66709 
L 315.0247 301.11215 
L 319.906003 320.419239 
L 328.520069 335.050034 
L 336.272727 332.350275 
L 342.876844 328.904812 
L 346.32247 342.832463 
L 349.768096 351.760219 
L 353.500858 333.015909 
L 358.095026 329.834155 
L 364.124871 326.54206 
L 373.313208 329.145479 
L 375.323156 336.72726 
L 379.055918 333.55093 
L 387.382847 327.22319 
L 391.68988 342.434622 
L 398.006861 343.097771 
L 399.442539 336.622071 
L 400.878216 335.660581 
L 402.313894 337.965428 
L 406.620926 325.951721 
L 412.076501 315.976706 
L 420.116295 328.581959 
L 421.551973 334.193563 
L 423.561921 340.03718 
L 427.868954 346.683879 
L 432.750257 331.05082 
L 435.908748 322.19814 
L 439.354374 311.208711 
L 440.502916 302.821609 
L 442.8 287.539889 
L 447.107033 269.198189 
L 451.988336 260.909884 
L 458.879588 236.635591 
L 461.176672 218.690517 
L 465.77084 200.326032 
L 470.652144 185.393615 
L 473.236364 169.374293 
L 475.246312 142.198196 
L 481.563293 126.895771 
L 485.870326 107.039024 
L 492.761578 111.918263 
L 498.504288 105.014388 
L 504.534134 111.279147 
L 507.118353 107.922778 
L 508.266895 103.607812 
L 514.296741 104.078719 
L 520.613722 94.039818 
L 524.633619 111.088291 
L 527.79211 111.872045 
L 531.237736 109.214028 
L 537.841852 107.939089 
L 541.000343 112.880349 
L 541.574614 119.611811 
L 543.010292 110.378667 
L 552.485763 100.439816 
L 555.644254 90.893787 
L 559.951286 90.677378 
L 563.684048 87.951043 
L 566.268268 87.37494 
L 575.743739 99.558663 
L 579.763636 109.393446 
L 583.496398 119.757331 
L 586.367753 129.031317 
L 590.38765 130.560322 
L 593.833276 149.172877 
L 599.575986 169.708451 
L 603.883019 178.870579 
L 606.754374 192.194995 
L 607.902916 206.280179 
L 611.348542 219.130032 
L 614.794168 225.812304 
L 618.239794 233.53478 
L 623.695369 245.182273 
L 628.863808 260.774101 
L 635.467925 252.351238 
L 641.784906 252.543853 
L 645.517667 264.079008 
L 651.547513 255.278395 
L 653.270326 253.363994 
L 655.280274 255.91106 
L 659.013036 253.850764 
L 664.755746 253.073095 
L 669.924185 252.165685 
L 673.082676 244.47306 
L 674.518353 252.012798 
L 675.37976 258.500897 
L 677.102573 256.29913 
L 682.271012 251.697027 
L 683.993825 253.136596 
L 684.855232 263.42224 
L 688.300858 263.102854 
L 692.033619 255.197539 
L 693.182161 257.407694 
L 693.756432 257.211734 
L 694.904974 244.95999 
L 695.479245 245.055201 
L 701.509091 248.811724 
L 702.370497 245.345849 
L 704.667581 248.105223 
L 707.826072 239.711768 
L 708.687479 240.190423 
L 710.697427 254.08448 
L 712.42024 267.335418 
L 715.291595 264.190689 
L 719.598628 257.2897 
L 722.757118 263.155856 
L 725.915609 277.167669 
L 727.351286 281.052677 
L 727.925557 289.461572 
L 729.64837 297.660069 
L 733.093997 291.512766 
L 735.965352 284.575329 
L 736.539623 296.273119 
L 738.549571 307.16253 
L 739.698113 319.819459 
L 743.71801 325.508876 
L 747.163636 318.210841 
L 747.163636 318.210841 
" clip-path="url(#p3ef415e225)" style="fill: none; stroke: #a50026; stroke-width: 1.5; stroke-linecap: square"/>
   </g>
   <g id="patch_3">
    <path d="M 108 384.48 
L 108 51.84 
" style="fill: none; stroke: #000000; stroke-width: 0.8; stroke-linejoin: miter; stroke-linecap: square"/>
   </g>
   <g id="patch_4">
    <path d="M 777.6 384.48 
L 777.6 51.84 
" style="fill: none; stroke: #000000; stroke-width: 0.8; stroke-linejoin: miter; stroke-linecap: square"/>
   </g>
   <g id="patch_5">
    <path d="M 108 384.48 
L 777.6 384.48 
" style="fill: none; stroke: #000000; stroke-width: 0.8; stroke-linejoin: miter; stroke-linecap: square"/>
   </g>
   <g id="patch_6">
    <path d="M 108 51.84 
L 777.6 51.84 
" style="fill: none; stroke: #000000; stroke-width: 0.8; stroke-linejoin: miter; stroke-linecap: square"/>
   </g>
   <g id="text_13">
    <!-- Mood as Happy score per sentence -->
    <g transform="translate(337.231875 45.84) scale(0.12 -0.12)">
     <defs>
      <path id="DejaVuSans-4d" d="M 628 4666 
L 1569 4666 
L 2759 1491 
L 3956 4666 
L 4897 4666 
L 4897 0 
L 4281 0 
L 4281 4097 
L 3078 897 
L 2444 897 
L 1241 4097 
L 1241 0 
L 628 0 
L 628 4666 
z
" transform="scale(0.015625)"/>
      <path id="DejaVuSans-48" d="M 628 4666 
L 1259 4666 
L 1259 2753 
L 3553 2753 
L 3553 4666 
L 4184 4666 
L 4184 0 
L 3553 0 
L 3553 2222 
L 1259 2222 
L 1259 0 
L 628 0 
L 628 4666 
z
" transform="scale(0.015625)"/>
      <path id="DejaVuSans-70" d="M 1159 525 
L 1159 -1331 
L 581 -1331 
L 581 3500 
L 1159 3500 
L 1159 2969 
Q 1341 3281 1617 3432 
Q 1894 3584 2278 3584 
Q 2916 3584 3314 3078 
Q 3713 2572 3713 1747 
Q 3713 922 3314 415 
Q 2916 -91 2278 -91 
Q 1894 -91 1617 61 
Q 1341 213 1159 525 
z
M 3116 1747 
Q 3116 2381 2855 2742 
Q 2594 3103 2138 3103 
Q 1681 3103 1420 2742 
Q 1159 2381 1159 1747 
Q 1159 1113 1420 752 
Q 1681 391 2138 391 
Q 2594 391 2855 752 
Q 3116 1113 3116 1747 
z
" transform="scale(0.015625)"/>
      <path id="DejaVuSans-79" d="M 2059 -325 
Q 1816 -950 1584 -1140 
Q 1353 -1331 966 -1331 
L 506 -1331 
L 506 -850 
L 844 -850 
Q 1081 -850 1212 -737 
Q 1344 -625 1503 -206 
L 1606 56 
L 191 3500 
L 800 3500 
L 1894 763 
L 2988 3500 
L 3597 3500 
L 2059 -325 
z
" transform="scale(0.015625)"/>
     </defs>
     <use xlink:href="#DejaVuSans-4d"/>
     <use xlink:href="#DejaVuSans-6f" transform="translate(86.279297 0)"/>
     <use xlink:href="#DejaVuSans-6f" transform="translate(147.460938 0)"/>
     <use xlink:href="#DejaVuSans-64" transform="translate(208.642578 0)"/>
     <use xlink:href="#DejaVuSans-20" transform="translate(272.119141 0)"/>
     <use xlink:href="#DejaVuSans-61" transform="translate(303.90625 0)"/>
     <use xlink:href="#DejaVuSans-73" transform="translate(365.185547 0)"/>
     <use xlink:href="#DejaVuSans-20" transform="translate(417.285156 0)"/>
     <use xlink:href="#DejaVuSans-48" transform="translate(449.072266 0)"/>
     <use xlink:href="#DejaVuSans-61" transform="translate(524.267578 0)"/>
     <use xlink:href="#DejaVuSans-70" transform="translate(585.546875 0)"/>
     <use xlink:href="#DejaVuSans-70" transform="translate(649.023438 0)"/>
     <use xlink:href="#DejaVuSans-79" transform="translate(712.5 0)"/>
     <use xlink:href="#DejaVuSans-20" transform="translate(771.679688 0)"/>
     <use xlink:href="#DejaVuSans-73" transform="translate(803.466797 0)"/>
     <use xlink:href="#DejaVuSans-63" transform="translate(855.566406 0)"/>
     <use xlink:href="#DejaVuSans-6f" transform="translate(910.546875 0)"/>
     <use xlink:href="#DejaVuSans-72" transform="translate(971.728516 0)"/>
     <use xlink:href="#DejaVuSans-65" transform="translate(1010.591797 0)"/>
     <use xlink:href="#DejaVuSans-20" transform="translate(1072.115234 0)"/>
     <use xlink:href="#DejaVuSans-70" transform="translate(1103.902344 0)"/>
     <use xlink:href="#DejaVuSans-65" transform="translate(1167.378906 0)"/>
     <use xlink:href="#DejaVuSans-72" transform="translate(1228.902344 0)"/>
     <use xlink:href="#DejaVuSans-20" transform="translate(1270.015625 0)"/>
     <use xlink:href="#DejaVuSans-73" transform="translate(1301.802734 0)"/>
     <use xlink:href="#DejaVuSans-65" transform="translate(1353.902344 0)"/>
     <use xlink:href="#DejaVuSans-6e" transform="translate(1415.425781 0)"/>
     <use xlink:href="#DejaVuSans-74" transform="translate(1478.804688 0)"/>
     <use xlink:href="#DejaVuSans-65" transform="translate(1518.013672 0)"/>
     <use xlink:href="#DejaVuSans-6e" transform="translate(1579.537109 0)"/>
     <use xlink:href="#DejaVuSans-63" transform="translate(1642.916016 0)"/>
     <use xlink:href="#DejaVuSans-65" transform="translate(1697.896484 0)"/>
    </g>
   </g>
   <g id="legend_1">
    <g id="patch_7">
     <path d="M 673.682812 206.62125 
L 770.6 206.62125 
Q 772.6 206.62125 772.6 204.62125 
L 772.6 58.84 
Q 772.6 56.84 770.6 56.84 
L 673.682812 56.84 
Q 671.682812 56.84 671.682812 58.84 
L 671.682812 204.62125 
Q 671.682812 206.62125 673.682812 206.62125 
z
" style="fill: #ffffff; opacity: 0.8; stroke: #cccccc; stroke-linejoin: miter"/>
    </g>
    <g id="text_14">
     <!-- Temperature Level -->
     <g transform="translate(675.682812 68.438437) scale(0.1 -0.1)">
      <defs>
       <path id="DejaVuSans-75" d="M 544 1381 
L 544 3500 
L 1119 3500 
L 1119 1403 
Q 1119 906 1312 657 
Q 1506 409 1894 409 
Q 2359 409 2629 706 
Q 2900 1003 2900 1516 
L 2900 3500 
L 3475 3500 
L 3475 0 
L 2900 0 
L 2900 538 
Q 2691 219 2414 64 
Q 2138 -91 1772 -91 
Q 1169 -91 856 284 
Q 544 659 544 1381 
z
M 1991 3584 
L 1991 3584 
z
" transform="scale(0.015625)"/>
       <path id="DejaVuSans-4c" d="M 628 4666 
L 1259 4666 
L 1259 531 
L 3531 531 
L 3531 0 
L 628 0 
L 628 4666 
z
" transform="scale(0.015625)"/>
       <path id="DejaVuSans-76" d="M 191 3500 
L 800 3500 
L 1894 563 
L 2988 3500 
L 3597 3500 
L 2284 0 
L 1503 0 
L 191 3500 
z
" transform="scale(0.015625)"/>
      </defs>
      <use xlink:href="#DejaVuSans-54"/>
      <use xlink:href="#DejaVuSans-65" transform="translate(44.083984 0)"/>
      <use xlink:href="#DejaVuSans-6d" transform="translate(105.607422 0)"/>
      <use xlink:href="#DejaVuSans-70" transform="translate(203.019531 0)"/>
      <use xlink:href="#DejaVuSans-65" transform="translate(266.496094 0)"/>
      <use xlink:href="#DejaVuSans-72" transform="translate(328.019531 0)"/>
      <use xlink:href="#DejaVuSans-61" transform="translate(369.132812 0)"/>
      <use xlink:href="#DejaVuSans-74" transform="translate(430.412109 0)"/>
      <use xlink:href="#DejaVuSans-75" transform="translate(469.621094 0)"/>
      <use xlink:href="#DejaVuSans-72" transform="translate(533 0)"/>
      <use xlink:href="#DejaVuSans-65" transform="translate(571.863281 0)"/>
      <use xlink:href="#DejaVuSans-20" transform="translate(633.386719 0)"/>
      <use xlink:href="#DejaVuSans-4c" transform="translate(665.173828 0)"/>
      <use xlink:href="#DejaVuSans-65" transform="translate(719.136719 0)"/>
      <use xlink:href="#DejaVuSans-76" transform="translate(780.660156 0)"/>
      <use xlink:href="#DejaVuSans-65" transform="translate(839.839844 0)"/>
      <use xlink:href="#DejaVuSans-6c" transform="translate(901.363281 0)"/>
     </g>
    </g>
    <g id="line2d_30">
     <path d="M 685.275781 79.616562 
L 695.275781 79.616562 
L 705.275781 79.616562 
" style="fill: none; stroke: #006837; stroke-width: 1.5; stroke-linecap: square"/>
    </g>
    <g id="text_15">
     <!-- Temp 0.0 -->
     <g transform="translate(713.275781 83.116562) scale(0.1 -0.1)">
      <use xlink:href="#DejaVuSans-54"/>
      <use xlink:href="#DejaVuSans-65" transform="translate(44.083984 0)"/>
      <use xlink:href="#DejaVuSans-6d" transform="translate(105.607422 0)"/>
      <use xlink:href="#DejaVuSans-70" transform="translate(203.019531 0)"/>
      <use xlink:href="#DejaVuSans-20" transform="translate(266.496094 0)"/>
      <use xlink:href="#DejaVuSans-30" transform="translate(298.283203 0)"/>
      <use xlink:href="#DejaVuSans-2e" transform="translate(361.90625 0)"/>
      <use xlink:href="#DejaVuSans-30" transform="translate(393.693359 0)"/>
     </g>
    </g>
    <g id="line2d_31">
     <path d="M 685.275781 94.294688 
L 695.275781 94.294688 
L 705.275781 94.294688 
" style="fill: none; stroke: #2da155; stroke-width: 1.5; stroke-linecap: square"/>
    </g>
    <g id="text_16">
     <!-- Temp 0.1 -->
     <g transform="translate(713.275781 97.794688) scale(0.1 -0.1)">
      <use xlink:href="#DejaVuSans-54"/>
      <use xlink:href="#DejaVuSans-65" transform="translate(44.083984 0)"/>
      <use xlink:href="#DejaVuSans-6d" transform="translate(105.607422 0)"/>
      <use xlink:href="#DejaVuSans-70" transform="translate(203.019531 0)"/>
      <use xlink:href="#DejaVuSans-20" transform="translate(266.496094 0)"/>
      <use xlink:href="#DejaVuSans-30" transform="translate(298.283203 0)"/>
      <use xlink:href="#DejaVuSans-2e" transform="translate(361.90625 0)"/>
      <use xlink:href="#DejaVuSans-31" transform="translate(393.693359 0)"/>
     </g>
    </g>
    <g id="line2d_32">
     <path d="M 685.275781 108.972812 
L 695.275781 108.972812 
L 705.275781 108.972812 
" style="fill: none; stroke: #87cb67; stroke-width: 1.5; stroke-linecap: square"/>
    </g>
    <g id="text_17">
     <!-- Temp 0.2 -->
     <g transform="translate(713.275781 112.472812) scale(0.1 -0.1)">
      <use xlink:href="#DejaVuSans-54"/>
      <use xlink:href="#DejaVuSans-65" transform="translate(44.083984 0)"/>
      <use xlink:href="#DejaVuSans-6d" transform="translate(105.607422 0)"/>
      <use xlink:href="#DejaVuSans-70" transform="translate(203.019531 0)"/>
      <use xlink:href="#DejaVuSans-20" transform="translate(266.496094 0)"/>
      <use xlink:href="#DejaVuSans-30" transform="translate(298.283203 0)"/>
      <use xlink:href="#DejaVuSans-2e" transform="translate(361.90625 0)"/>
      <use xlink:href="#DejaVuSans-32" transform="translate(393.693359 0)"/>
     </g>
    </g>
    <g id="line2d_33">
     <path d="M 685.275781 123.650937 
L 695.275781 123.650937 
L 705.275781 123.650937 
" style="fill: none; stroke: #cbe982; stroke-width: 1.5; stroke-linecap: square"/>
    </g>
    <g id="text_18">
     <!-- Temp 0.4 -->
     <g transform="translate(713.275781 127.150937) scale(0.1 -0.1)">
      <use xlink:href="#DejaVuSans-54"/>
      <use xlink:href="#DejaVuSans-65" transform="translate(44.083984 0)"/>
      <use xlink:href="#DejaVuSans-6d" transform="translate(105.607422 0)"/>
      <use xlink:href="#DejaVuSans-70" transform="translate(203.019531 0)"/>
      <use xlink:href="#DejaVuSans-20" transform="translate(266.496094 0)"/>
      <use xlink:href="#DejaVuSans-30" transform="translate(298.283203 0)"/>
      <use xlink:href="#DejaVuSans-2e" transform="translate(361.90625 0)"/>
      <use xlink:href="#DejaVuSans-34" transform="translate(393.693359 0)"/>
     </g>
    </g>
    <g id="line2d_34">
     <path d="M 685.275781 138.329062 
L 695.275781 138.329062 
L 705.275781 138.329062 
" style="fill: none; stroke: #fffebe; stroke-width: 1.5; stroke-linecap: square"/>
    </g>
    <g id="text_19">
     <!-- Temp 0.5 -->
     <g transform="translate(713.275781 141.829062) scale(0.1 -0.1)">
      <use xlink:href="#DejaVuSans-54"/>
      <use xlink:href="#DejaVuSans-65" transform="translate(44.083984 0)"/>
      <use xlink:href="#DejaVuSans-6d" transform="translate(105.607422 0)"/>
      <use xlink:href="#DejaVuSans-70" transform="translate(203.019531 0)"/>
      <use xlink:href="#DejaVuSans-20" transform="translate(266.496094 0)"/>
      <use xlink:href="#DejaVuSans-30" transform="translate(298.283203 0)"/>
      <use xlink:href="#DejaVuSans-2e" transform="translate(361.90625 0)"/>
      <use xlink:href="#DejaVuSans-35" transform="translate(393.693359 0)"/>
     </g>
    </g>
    <g id="line2d_35">
     <path d="M 685.275781 153.007187 
L 695.275781 153.007187 
L 705.275781 153.007187 
" style="fill: none; stroke: #fed27f; stroke-width: 1.5; stroke-linecap: square"/>
    </g>
    <g id="text_20">
     <!-- Temp 0.6 -->
     <g transform="translate(713.275781 156.507187) scale(0.1 -0.1)">
      <defs>
       <path id="DejaVuSans-36" d="M 2113 2584 
Q 1688 2584 1439 2293 
Q 1191 2003 1191 1497 
Q 1191 994 1439 701 
Q 1688 409 2113 409 
Q 2538 409 2786 701 
Q 3034 994 3034 1497 
Q 3034 2003 2786 2293 
Q 2538 2584 2113 2584 
z
M 3366 4563 
L 3366 3988 
Q 3128 4100 2886 4159 
Q 2644 4219 2406 4219 
Q 1781 4219 1451 3797 
Q 1122 3375 1075 2522 
Q 1259 2794 1537 2939 
Q 1816 3084 2150 3084 
Q 2853 3084 3261 2657 
Q 3669 2231 3669 1497 
Q 3669 778 3244 343 
Q 2819 -91 2113 -91 
Q 1303 -91 875 529 
Q 447 1150 447 2328 
Q 447 3434 972 4092 
Q 1497 4750 2381 4750 
Q 2619 4750 2861 4703 
Q 3103 4656 3366 4563 
z
" transform="scale(0.015625)"/>
      </defs>
      <use xlink:href="#DejaVuSans-54"/>
      <use xlink:href="#DejaVuSans-65" transform="translate(44.083984 0)"/>
      <use xlink:href="#DejaVuSans-6d" transform="translate(105.607422 0)"/>
      <use xlink:href="#DejaVuSans-70" transform="translate(203.019531 0)"/>
      <use xlink:href="#DejaVuSans-20" transform="translate(266.496094 0)"/>
      <use xlink:href="#DejaVuSans-30" transform="translate(298.283203 0)"/>
      <use xlink:href="#DejaVuSans-2e" transform="translate(361.90625 0)"/>
      <use xlink:href="#DejaVuSans-36" transform="translate(393.693359 0)"/>
     </g>
    </g>
    <g id="line2d_36">
     <path d="M 685.275781 167.685313 
L 695.275781 167.685313 
L 705.275781 167.685313 
" style="fill: none; stroke: #f98e52; stroke-width: 1.5; stroke-linecap: square"/>
    </g>
    <g id="text_21">
     <!-- Temp 0.7 -->
     <g transform="translate(713.275781 171.185313) scale(0.1 -0.1)">
      <defs>
       <path id="DejaVuSans-37" d="M 525 4666 
L 3525 4666 
L 3525 4397 
L 1831 0 
L 1172 0 
L 2766 4134 
L 525 4134 
L 525 4666 
z
" transform="scale(0.015625)"/>
      </defs>
      <use xlink:href="#DejaVuSans-54"/>
      <use xlink:href="#DejaVuSans-65" transform="translate(44.083984 0)"/>
      <use xlink:href="#DejaVuSans-6d" transform="translate(105.607422 0)"/>
      <use xlink:href="#DejaVuSans-70" transform="translate(203.019531 0)"/>
      <use xlink:href="#DejaVuSans-20" transform="translate(266.496094 0)"/>
      <use xlink:href="#DejaVuSans-30" transform="translate(298.283203 0)"/>
      <use xlink:href="#DejaVuSans-2e" transform="translate(361.90625 0)"/>
      <use xlink:href="#DejaVuSans-37" transform="translate(393.693359 0)"/>
     </g>
    </g>
    <g id="line2d_37">
     <path d="M 685.275781 182.363437 
L 695.275781 182.363437 
L 705.275781 182.363437 
" style="fill: none; stroke: #de402e; stroke-width: 1.5; stroke-linecap: square"/>
    </g>
    <g id="text_22">
     <!-- Temp 0.9 -->
     <g transform="translate(713.275781 185.863437) scale(0.1 -0.1)">
      <defs>
       <path id="DejaVuSans-39" d="M 703 97 
L 703 672 
Q 941 559 1184 500 
Q 1428 441 1663 441 
Q 2288 441 2617 861 
Q 2947 1281 2994 2138 
Q 2813 1869 2534 1725 
Q 2256 1581 1919 1581 
Q 1219 1581 811 2004 
Q 403 2428 403 3163 
Q 403 3881 828 4315 
Q 1253 4750 1959 4750 
Q 2769 4750 3195 4129 
Q 3622 3509 3622 2328 
Q 3622 1225 3098 567 
Q 2575 -91 1691 -91 
Q 1453 -91 1209 -44 
Q 966 3 703 97 
z
M 1959 2075 
Q 2384 2075 2632 2365 
Q 2881 2656 2881 3163 
Q 2881 3666 2632 3958 
Q 2384 4250 1959 4250 
Q 1534 4250 1286 3958 
Q 1038 3666 1038 3163 
Q 1038 2656 1286 2365 
Q 1534 2075 1959 2075 
z
" transform="scale(0.015625)"/>
      </defs>
      <use xlink:href="#DejaVuSans-54"/>
      <use xlink:href="#DejaVuSans-65" transform="translate(44.083984 0)"/>
      <use xlink:href="#DejaVuSans-6d" transform="translate(105.607422 0)"/>
      <use xlink:href="#DejaVuSans-70" transform="translate(203.019531 0)"/>
      <use xlink:href="#DejaVuSans-20" transform="translate(266.496094 0)"/>
      <use xlink:href="#DejaVuSans-30" transform="translate(298.283203 0)"/>
      <use xlink:href="#DejaVuSans-2e" transform="translate(361.90625 0)"/>
      <use xlink:href="#DejaVuSans-39" transform="translate(393.693359 0)"/>
     </g>
    </g>
    <g id="line2d_38">
     <path d="M 685.275781 197.041562 
L 695.275781 197.041562 
L 705.275781 197.041562 
" style="fill: none; stroke: #a50026; stroke-width: 1.5; stroke-linecap: square"/>
    </g>
    <g id="text_23">
     <!-- Temp 1.0 -->
     <g transform="translate(713.275781 200.541562) scale(0.1 -0.1)">
      <use xlink:href="#DejaVuSans-54"/>
      <use xlink:href="#DejaVuSans-65" transform="translate(44.083984 0)"/>
      <use xlink:href="#DejaVuSans-6d" transform="translate(105.607422 0)"/>
      <use xlink:href="#DejaVuSans-70" transform="translate(203.019531 0)"/>
      <use xlink:href="#DejaVuSans-20" transform="translate(266.496094 0)"/>
      <use xlink:href="#DejaVuSans-31" transform="translate(298.283203 0)"/>
      <use xlink:href="#DejaVuSans-2e" transform="translate(361.90625 0)"/>
      <use xlink:href="#DejaVuSans-30" transform="translate(393.693359 0)"/>
     </g>
    </g>
   </g>
  </g>
 </g>
 <defs>
  <clipPath id="p3ef415e225">
   <rect x="108" y="51.84" width="669.6" height="332.64"/>
  </clipPath>
 </defs>
</svg>
