<?xml version="1.0" encoding="utf-8" standalone="no"?>
<!DOCTYPE svg PUBLIC "-//W3C//DTD SVG 1.1//EN"
  "http://www.w3.org/Graphics/SVG/1.1/DTD/svg11.dtd">
<svg xmlns:xlink="http://www.w3.org/1999/xlink" width="864pt" height="432pt" viewBox="0 0 864 432" xmlns="http://www.w3.org/2000/svg" version="1.1">
 <metadata>
  <rdf:RDF xmlns:dc="http://purl.org/dc/elements/1.1/" xmlns:cc="http://creativecommons.org/ns#" xmlns:rdf="http://www.w3.org/1999/02/22-rdf-syntax-ns#">
   <cc:Work>
    <dc:type rdf:resource="http://purl.org/dc/dcmitype/StillImage"/>
    <dc:date>2025-01-04T05:40:51.592151</dc:date>
    <dc:format>image/svg+xml</dc:format>
    <dc:creator>
     <cc:Agent>
      <dc:title>Matplotlib v3.10.0, https://matplotlib.org/</dc:title>
     </cc:Agent>
    </dc:creator>
   </cc:Work>
  </rdf:RDF>
 </metadata>
 <defs>
  <style type="text/css">*{stroke-linejoin: round; stroke-linecap: butt}</style>
 </defs>
 <g id="figure_1">
  <g id="patch_1">
   <path d="M 0 432 
L 864 432 
L 864 0 
L 0 0 
z
" style="fill: #ffffff"/>
  </g>
  <g id="axes_1">
   <g id="patch_2">
    <path d="M 108 384.48 
L 777.6 384.48 
L 777.6 51.84 
L 108 51.84 
z
" style="fill: #ffffff"/>
   </g>
   <g id="matplotlib.axis_1">
    <g id="xtick_1">
     <g id="line2d_1">
      <path d="M 138.436364 384.48 
L 138.436364 51.84 
" clip-path="url(#pb986cbe3d1)" style="fill: none; stroke: #b0b0b0; stroke-width: 0.8; stroke-linecap: square"/>
     </g>
     <g id="line2d_2">
      <defs>
       <path id="ma10763b98b" d="M 0 0 
L 0 3.5 
" style="stroke: #000000; stroke-width: 0.8"/>
      </defs>
      <g>
       <use xlink:href="#ma10763b98b" x="138.436364" y="384.48" style="stroke: #000000; stroke-width: 0.8"/>
      </g>
     </g>
     <g id="text_1">
      <!-- 0 -->
      <g transform="translate(135.255114 399.078438) scale(0.1 -0.1)">
       <defs>
        <path id="DejaVuSans-30" d="M 2034 4250 
Q 1547 4250 1301 3770 
Q 1056 3291 1056 2328 
Q 1056 1369 1301 889 
Q 1547 409 2034 409 
Q 2525 409 2770 889 
Q 3016 1369 3016 2328 
Q 3016 3291 2770 3770 
Q 2525 4250 2034 4250 
z
M 2034 4750 
Q 2819 4750 3233 4129 
Q 3647 3509 3647 2328 
Q 3647 1150 3233 529 
Q 2819 -91 2034 -91 
Q 1250 -91 836 529 
Q 422 1150 422 2328 
Q 422 3509 836 4129 
Q 1250 4750 2034 4750 
z
" transform="scale(0.015625)"/>
       </defs>
       <use xlink:href="#DejaVuSans-30"/>
      </g>
     </g>
    </g>
    <g id="xtick_2">
     <g id="line2d_3">
      <path d="M 269.769109 384.48 
L 269.769109 51.84 
" clip-path="url(#pb986cbe3d1)" style="fill: none; stroke: #b0b0b0; stroke-width: 0.8; stroke-linecap: square"/>
     </g>
     <g id="line2d_4">
      <g>
       <use xlink:href="#ma10763b98b" x="269.769109" y="384.48" style="stroke: #000000; stroke-width: 0.8"/>
      </g>
     </g>
     <g id="text_2">
      <!-- 200 -->
      <g transform="translate(260.225359 399.078438) scale(0.1 -0.1)">
       <defs>
        <path id="DejaVuSans-32" d="M 1228 531 
L 3431 531 
L 3431 0 
L 469 0 
L 469 531 
Q 828 903 1448 1529 
Q 2069 2156 2228 2338 
Q 2531 2678 2651 2914 
Q 2772 3150 2772 3378 
Q 2772 3750 2511 3984 
Q 2250 4219 1831 4219 
Q 1534 4219 1204 4116 
Q 875 4013 500 3803 
L 500 4441 
Q 881 4594 1212 4672 
Q 1544 4750 1819 4750 
Q 2544 4750 2975 4387 
Q 3406 4025 3406 3419 
Q 3406 3131 3298 2873 
Q 3191 2616 2906 2266 
Q 2828 2175 2409 1742 
Q 1991 1309 1228 531 
z
" transform="scale(0.015625)"/>
       </defs>
       <use xlink:href="#DejaVuSans-32"/>
       <use xlink:href="#DejaVuSans-30" transform="translate(63.623047 0)"/>
       <use xlink:href="#DejaVuSans-30" transform="translate(127.246094 0)"/>
      </g>
     </g>
    </g>
    <g id="xtick_3">
     <g id="line2d_5">
      <path d="M 401.101853 384.48 
L 401.101853 51.84 
" clip-path="url(#pb986cbe3d1)" style="fill: none; stroke: #b0b0b0; stroke-width: 0.8; stroke-linecap: square"/>
     </g>
     <g id="line2d_6">
      <g>
       <use xlink:href="#ma10763b98b" x="401.101853" y="384.48" style="stroke: #000000; stroke-width: 0.8"/>
      </g>
     </g>
     <g id="text_3">
      <!-- 400 -->
      <g transform="translate(391.558103 399.078438) scale(0.1 -0.1)">
       <defs>
        <path id="DejaVuSans-34" d="M 2419 4116 
L 825 1625 
L 2419 1625 
L 2419 4116 
z
M 2253 4666 
L 3047 4666 
L 3047 1625 
L 3713 1625 
L 3713 1100 
L 3047 1100 
L 3047 0 
L 2419 0 
L 2419 1100 
L 313 1100 
L 313 1709 
L 2253 4666 
z
" transform="scale(0.015625)"/>
       </defs>
       <use xlink:href="#DejaVuSans-34"/>
       <use xlink:href="#DejaVuSans-30" transform="translate(63.623047 0)"/>
       <use xlink:href="#DejaVuSans-30" transform="translate(127.246094 0)"/>
      </g>
     </g>
    </g>
    <g id="xtick_4">
     <g id="line2d_7">
      <path d="M 532.434598 384.48 
L 532.434598 51.84 
" clip-path="url(#pb986cbe3d1)" style="fill: none; stroke: #b0b0b0; stroke-width: 0.8; stroke-linecap: square"/>
     </g>
     <g id="line2d_8">
      <g>
       <use xlink:href="#ma10763b98b" x="532.434598" y="384.48" style="stroke: #000000; stroke-width: 0.8"/>
      </g>
     </g>
     <g id="text_4">
      <!-- 600 -->
      <g transform="translate(522.890848 399.078438) scale(0.1 -0.1)">
       <defs>
        <path id="DejaVuSans-36" d="M 2113 2584 
Q 1688 2584 1439 2293 
Q 1191 2003 1191 1497 
Q 1191 994 1439 701 
Q 1688 409 2113 409 
Q 2538 409 2786 701 
Q 3034 994 3034 1497 
Q 3034 2003 2786 2293 
Q 2538 2584 2113 2584 
z
M 3366 4563 
L 3366 3988 
Q 3128 4100 2886 4159 
Q 2644 4219 2406 4219 
Q 1781 4219 1451 3797 
Q 1122 3375 1075 2522 
Q 1259 2794 1537 2939 
Q 1816 3084 2150 3084 
Q 2853 3084 3261 2657 
Q 3669 2231 3669 1497 
Q 3669 778 3244 343 
Q 2819 -91 2113 -91 
Q 1303 -91 875 529 
Q 447 1150 447 2328 
Q 447 3434 972 4092 
Q 1497 4750 2381 4750 
Q 2619 4750 2861 4703 
Q 3103 4656 3366 4563 
z
" transform="scale(0.015625)"/>
       </defs>
       <use xlink:href="#DejaVuSans-36"/>
       <use xlink:href="#DejaVuSans-30" transform="translate(63.623047 0)"/>
       <use xlink:href="#DejaVuSans-30" transform="translate(127.246094 0)"/>
      </g>
     </g>
    </g>
    <g id="xtick_5">
     <g id="line2d_9">
      <path d="M 663.767343 384.48 
L 663.767343 51.84 
" clip-path="url(#pb986cbe3d1)" style="fill: none; stroke: #b0b0b0; stroke-width: 0.8; stroke-linecap: square"/>
     </g>
     <g id="line2d_10">
      <g>
       <use xlink:href="#ma10763b98b" x="663.767343" y="384.48" style="stroke: #000000; stroke-width: 0.8"/>
      </g>
     </g>
     <g id="text_5">
      <!-- 800 -->
      <g transform="translate(654.223593 399.078438) scale(0.1 -0.1)">
       <defs>
        <path id="DejaVuSans-38" d="M 2034 2216 
Q 1584 2216 1326 1975 
Q 1069 1734 1069 1313 
Q 1069 891 1326 650 
Q 1584 409 2034 409 
Q 2484 409 2743 651 
Q 3003 894 3003 1313 
Q 3003 1734 2745 1975 
Q 2488 2216 2034 2216 
z
M 1403 2484 
Q 997 2584 770 2862 
Q 544 3141 544 3541 
Q 544 4100 942 4425 
Q 1341 4750 2034 4750 
Q 2731 4750 3128 4425 
Q 3525 4100 3525 3541 
Q 3525 3141 3298 2862 
Q 3072 2584 2669 2484 
Q 3125 2378 3379 2068 
Q 3634 1759 3634 1313 
Q 3634 634 3220 271 
Q 2806 -91 2034 -91 
Q 1263 -91 848 271 
Q 434 634 434 1313 
Q 434 1759 690 2068 
Q 947 2378 1403 2484 
z
M 1172 3481 
Q 1172 3119 1398 2916 
Q 1625 2713 2034 2713 
Q 2441 2713 2670 2916 
Q 2900 3119 2900 3481 
Q 2900 3844 2670 4047 
Q 2441 4250 2034 4250 
Q 1625 4250 1398 4047 
Q 1172 3844 1172 3481 
z
" transform="scale(0.015625)"/>
       </defs>
       <use xlink:href="#DejaVuSans-38"/>
       <use xlink:href="#DejaVuSans-30" transform="translate(63.623047 0)"/>
       <use xlink:href="#DejaVuSans-30" transform="translate(127.246094 0)"/>
      </g>
     </g>
    </g>
    <g id="text_6">
     <!-- Position in Text (Words) -->
     <g transform="translate(384.540625 412.756563) scale(0.1 -0.1)">
      <defs>
       <path id="DejaVuSans-50" d="M 1259 4147 
L 1259 2394 
L 2053 2394 
Q 2494 2394 2734 2622 
Q 2975 2850 2975 3272 
Q 2975 3691 2734 3919 
Q 2494 4147 2053 4147 
L 1259 4147 
z
M 628 4666 
L 2053 4666 
Q 2838 4666 3239 4311 
Q 3641 3956 3641 3272 
Q 3641 2581 3239 2228 
Q 2838 1875 2053 1875 
L 1259 1875 
L 1259 0 
L 628 0 
L 628 4666 
z
" transform="scale(0.015625)"/>
       <path id="DejaVuSans-6f" d="M 1959 3097 
Q 1497 3097 1228 2736 
Q 959 2375 959 1747 
Q 959 1119 1226 758 
Q 1494 397 1959 397 
Q 2419 397 2687 759 
Q 2956 1122 2956 1747 
Q 2956 2369 2687 2733 
Q 2419 3097 1959 3097 
z
M 1959 3584 
Q 2709 3584 3137 3096 
Q 3566 2609 3566 1747 
Q 3566 888 3137 398 
Q 2709 -91 1959 -91 
Q 1206 -91 779 398 
Q 353 888 353 1747 
Q 353 2609 779 3096 
Q 1206 3584 1959 3584 
z
" transform="scale(0.015625)"/>
       <path id="DejaVuSans-73" d="M 2834 3397 
L 2834 2853 
Q 2591 2978 2328 3040 
Q 2066 3103 1784 3103 
Q 1356 3103 1142 2972 
Q 928 2841 928 2578 
Q 928 2378 1081 2264 
Q 1234 2150 1697 2047 
L 1894 2003 
Q 2506 1872 2764 1633 
Q 3022 1394 3022 966 
Q 3022 478 2636 193 
Q 2250 -91 1575 -91 
Q 1294 -91 989 -36 
Q 684 19 347 128 
L 347 722 
Q 666 556 975 473 
Q 1284 391 1588 391 
Q 1994 391 2212 530 
Q 2431 669 2431 922 
Q 2431 1156 2273 1281 
Q 2116 1406 1581 1522 
L 1381 1569 
Q 847 1681 609 1914 
Q 372 2147 372 2553 
Q 372 3047 722 3315 
Q 1072 3584 1716 3584 
Q 2034 3584 2315 3537 
Q 2597 3491 2834 3397 
z
" transform="scale(0.015625)"/>
       <path id="DejaVuSans-69" d="M 603 3500 
L 1178 3500 
L 1178 0 
L 603 0 
L 603 3500 
z
M 603 4863 
L 1178 4863 
L 1178 4134 
L 603 4134 
L 603 4863 
z
" transform="scale(0.015625)"/>
       <path id="DejaVuSans-74" d="M 1172 4494 
L 1172 3500 
L 2356 3500 
L 2356 3053 
L 1172 3053 
L 1172 1153 
Q 1172 725 1289 603 
Q 1406 481 1766 481 
L 2356 481 
L 2356 0 
L 1766 0 
Q 1100 0 847 248 
Q 594 497 594 1153 
L 594 3053 
L 172 3053 
L 172 3500 
L 594 3500 
L 594 4494 
L 1172 4494 
z
" transform="scale(0.015625)"/>
       <path id="DejaVuSans-6e" d="M 3513 2113 
L 3513 0 
L 2938 0 
L 2938 2094 
Q 2938 2591 2744 2837 
Q 2550 3084 2163 3084 
Q 1697 3084 1428 2787 
Q 1159 2491 1159 1978 
L 1159 0 
L 581 0 
L 581 3500 
L 1159 3500 
L 1159 2956 
Q 1366 3272 1645 3428 
Q 1925 3584 2291 3584 
Q 2894 3584 3203 3211 
Q 3513 2838 3513 2113 
z
" transform="scale(0.015625)"/>
       <path id="DejaVuSans-20" transform="scale(0.015625)"/>
       <path id="DejaVuSans-54" d="M -19 4666 
L 3928 4666 
L 3928 4134 
L 2272 4134 
L 2272 0 
L 1638 0 
L 1638 4134 
L -19 4134 
L -19 4666 
z
" transform="scale(0.015625)"/>
       <path id="DejaVuSans-65" d="M 3597 1894 
L 3597 1613 
L 953 1613 
Q 991 1019 1311 708 
Q 1631 397 2203 397 
Q 2534 397 2845 478 
Q 3156 559 3463 722 
L 3463 178 
Q 3153 47 2828 -22 
Q 2503 -91 2169 -91 
Q 1331 -91 842 396 
Q 353 884 353 1716 
Q 353 2575 817 3079 
Q 1281 3584 2069 3584 
Q 2775 3584 3186 3129 
Q 3597 2675 3597 1894 
z
M 3022 2063 
Q 3016 2534 2758 2815 
Q 2500 3097 2075 3097 
Q 1594 3097 1305 2825 
Q 1016 2553 972 2059 
L 3022 2063 
z
" transform="scale(0.015625)"/>
       <path id="DejaVuSans-78" d="M 3513 3500 
L 2247 1797 
L 3578 0 
L 2900 0 
L 1881 1375 
L 863 0 
L 184 0 
L 1544 1831 
L 300 3500 
L 978 3500 
L 1906 2253 
L 2834 3500 
L 3513 3500 
z
" transform="scale(0.015625)"/>
       <path id="DejaVuSans-28" d="M 1984 4856 
Q 1566 4138 1362 3434 
Q 1159 2731 1159 2009 
Q 1159 1288 1364 580 
Q 1569 -128 1984 -844 
L 1484 -844 
Q 1016 -109 783 600 
Q 550 1309 550 2009 
Q 550 2706 781 3412 
Q 1013 4119 1484 4856 
L 1984 4856 
z
" transform="scale(0.015625)"/>
       <path id="DejaVuSans-57" d="M 213 4666 
L 850 4666 
L 1831 722 
L 2809 4666 
L 3519 4666 
L 4500 722 
L 5478 4666 
L 6119 4666 
L 4947 0 
L 4153 0 
L 3169 4050 
L 2175 0 
L 1381 0 
L 213 4666 
z
" transform="scale(0.015625)"/>
       <path id="DejaVuSans-72" d="M 2631 2963 
Q 2534 3019 2420 3045 
Q 2306 3072 2169 3072 
Q 1681 3072 1420 2755 
Q 1159 2438 1159 1844 
L 1159 0 
L 581 0 
L 581 3500 
L 1159 3500 
L 1159 2956 
Q 1341 3275 1631 3429 
Q 1922 3584 2338 3584 
Q 2397 3584 2469 3576 
Q 2541 3569 2628 3553 
L 2631 2963 
z
" transform="scale(0.015625)"/>
       <path id="DejaVuSans-64" d="M 2906 2969 
L 2906 4863 
L 3481 4863 
L 3481 0 
L 2906 0 
L 2906 525 
Q 2725 213 2448 61 
Q 2172 -91 1784 -91 
Q 1150 -91 751 415 
Q 353 922 353 1747 
Q 353 2572 751 3078 
Q 1150 3584 1784 3584 
Q 2172 3584 2448 3432 
Q 2725 3281 2906 2969 
z
M 947 1747 
Q 947 1113 1208 752 
Q 1469 391 1925 391 
Q 2381 391 2643 752 
Q 2906 1113 2906 1747 
Q 2906 2381 2643 2742 
Q 2381 3103 1925 3103 
Q 1469 3103 1208 2742 
Q 947 2381 947 1747 
z
" transform="scale(0.015625)"/>
       <path id="DejaVuSans-29" d="M 513 4856 
L 1013 4856 
Q 1481 4119 1714 3412 
Q 1947 2706 1947 2009 
Q 1947 1309 1714 600 
Q 1481 -109 1013 -844 
L 513 -844 
Q 928 -128 1133 580 
Q 1338 1288 1338 2009 
Q 1338 2731 1133 3434 
Q 928 4138 513 4856 
z
" transform="scale(0.015625)"/>
      </defs>
      <use xlink:href="#DejaVuSans-50"/>
      <use xlink:href="#DejaVuSans-6f" transform="translate(56.677734 0)"/>
      <use xlink:href="#DejaVuSans-73" transform="translate(117.859375 0)"/>
      <use xlink:href="#DejaVuSans-69" transform="translate(169.958984 0)"/>
      <use xlink:href="#DejaVuSans-74" transform="translate(197.742188 0)"/>
      <use xlink:href="#DejaVuSans-69" transform="translate(236.951172 0)"/>
      <use xlink:href="#DejaVuSans-6f" transform="translate(264.734375 0)"/>
      <use xlink:href="#DejaVuSans-6e" transform="translate(325.916016 0)"/>
      <use xlink:href="#DejaVuSans-20" transform="translate(389.294922 0)"/>
      <use xlink:href="#DejaVuSans-69" transform="translate(421.082031 0)"/>
      <use xlink:href="#DejaVuSans-6e" transform="translate(448.865234 0)"/>
      <use xlink:href="#DejaVuSans-20" transform="translate(512.244141 0)"/>
      <use xlink:href="#DejaVuSans-54" transform="translate(544.03125 0)"/>
      <use xlink:href="#DejaVuSans-65" transform="translate(588.115234 0)"/>
      <use xlink:href="#DejaVuSans-78" transform="translate(647.888672 0)"/>
      <use xlink:href="#DejaVuSans-74" transform="translate(707.068359 0)"/>
      <use xlink:href="#DejaVuSans-20" transform="translate(746.277344 0)"/>
      <use xlink:href="#DejaVuSans-28" transform="translate(778.064453 0)"/>
      <use xlink:href="#DejaVuSans-57" transform="translate(817.078125 0)"/>
      <use xlink:href="#DejaVuSans-6f" transform="translate(910.080078 0)"/>
      <use xlink:href="#DejaVuSans-72" transform="translate(971.261719 0)"/>
      <use xlink:href="#DejaVuSans-64" transform="translate(1010.625 0)"/>
      <use xlink:href="#DejaVuSans-73" transform="translate(1074.101562 0)"/>
      <use xlink:href="#DejaVuSans-29" transform="translate(1126.201172 0)"/>
     </g>
    </g>
   </g>
   <g id="matplotlib.axis_2">
    <g id="ytick_1">
     <g id="line2d_11">
      <path d="M 108 384.16414 
L 777.6 384.16414 
" clip-path="url(#pb986cbe3d1)" style="fill: none; stroke: #b0b0b0; stroke-width: 0.8; stroke-linecap: square"/>
     </g>
     <g id="line2d_12">
      <defs>
       <path id="m09a444107f" d="M 0 0 
L -3.5 0 
" style="stroke: #000000; stroke-width: 0.8"/>
      </defs>
      <g>
       <use xlink:href="#m09a444107f" x="108" y="384.16414" style="stroke: #000000; stroke-width: 0.8"/>
      </g>
     </g>
     <g id="text_7">
      <!-- −0.6 -->
      <g transform="translate(76.717187 387.963359) scale(0.1 -0.1)">
       <defs>
        <path id="DejaVuSans-2212" d="M 678 2272 
L 4684 2272 
L 4684 1741 
L 678 1741 
L 678 2272 
z
" transform="scale(0.015625)"/>
        <path id="DejaVuSans-2e" d="M 684 794 
L 1344 794 
L 1344 0 
L 684 0 
L 684 794 
z
" transform="scale(0.015625)"/>
       </defs>
       <use xlink:href="#DejaVuSans-2212"/>
       <use xlink:href="#DejaVuSans-30" transform="translate(83.789062 0)"/>
       <use xlink:href="#DejaVuSans-2e" transform="translate(147.412109 0)"/>
       <use xlink:href="#DejaVuSans-36" transform="translate(179.199219 0)"/>
      </g>
     </g>
    </g>
    <g id="ytick_2">
     <g id="line2d_13">
      <path d="M 108 330.667487 
L 777.6 330.667487 
" clip-path="url(#pb986cbe3d1)" style="fill: none; stroke: #b0b0b0; stroke-width: 0.8; stroke-linecap: square"/>
     </g>
     <g id="line2d_14">
      <g>
       <use xlink:href="#m09a444107f" x="108" y="330.667487" style="stroke: #000000; stroke-width: 0.8"/>
      </g>
     </g>
     <g id="text_8">
      <!-- −0.4 -->
      <g transform="translate(76.717187 334.466705) scale(0.1 -0.1)">
       <use xlink:href="#DejaVuSans-2212"/>
       <use xlink:href="#DejaVuSans-30" transform="translate(83.789062 0)"/>
       <use xlink:href="#DejaVuSans-2e" transform="translate(147.412109 0)"/>
       <use xlink:href="#DejaVuSans-34" transform="translate(179.199219 0)"/>
      </g>
     </g>
    </g>
    <g id="ytick_3">
     <g id="line2d_15">
      <path d="M 108 277.170833 
L 777.6 277.170833 
" clip-path="url(#pb986cbe3d1)" style="fill: none; stroke: #b0b0b0; stroke-width: 0.8; stroke-linecap: square"/>
     </g>
     <g id="line2d_16">
      <g>
       <use xlink:href="#m09a444107f" x="108" y="277.170833" style="stroke: #000000; stroke-width: 0.8"/>
      </g>
     </g>
     <g id="text_9">
      <!-- −0.2 -->
      <g transform="translate(76.717187 280.970052) scale(0.1 -0.1)">
       <use xlink:href="#DejaVuSans-2212"/>
       <use xlink:href="#DejaVuSans-30" transform="translate(83.789062 0)"/>
       <use xlink:href="#DejaVuSans-2e" transform="translate(147.412109 0)"/>
       <use xlink:href="#DejaVuSans-32" transform="translate(179.199219 0)"/>
      </g>
     </g>
    </g>
    <g id="ytick_4">
     <g id="line2d_17">
      <path d="M 108 223.674179 
L 777.6 223.674179 
" clip-path="url(#pb986cbe3d1)" style="fill: none; stroke: #b0b0b0; stroke-width: 0.8; stroke-linecap: square"/>
     </g>
     <g id="line2d_18">
      <g>
       <use xlink:href="#m09a444107f" x="108" y="223.674179" style="stroke: #000000; stroke-width: 0.8"/>
      </g>
     </g>
     <g id="text_10">
      <!-- 0.0 -->
      <g transform="translate(85.096875 227.473398) scale(0.1 -0.1)">
       <use xlink:href="#DejaVuSans-30"/>
       <use xlink:href="#DejaVuSans-2e" transform="translate(63.623047 0)"/>
       <use xlink:href="#DejaVuSans-30" transform="translate(95.410156 0)"/>
      </g>
     </g>
    </g>
    <g id="ytick_5">
     <g id="line2d_19">
      <path d="M 108 170.177525 
L 777.6 170.177525 
" clip-path="url(#pb986cbe3d1)" style="fill: none; stroke: #b0b0b0; stroke-width: 0.8; stroke-linecap: square"/>
     </g>
     <g id="line2d_20">
      <g>
       <use xlink:href="#m09a444107f" x="108" y="170.177525" style="stroke: #000000; stroke-width: 0.8"/>
      </g>
     </g>
     <g id="text_11">
      <!-- 0.2 -->
      <g transform="translate(85.096875 173.976744) scale(0.1 -0.1)">
       <use xlink:href="#DejaVuSans-30"/>
       <use xlink:href="#DejaVuSans-2e" transform="translate(63.623047 0)"/>
       <use xlink:href="#DejaVuSans-32" transform="translate(95.410156 0)"/>
      </g>
     </g>
    </g>
    <g id="ytick_6">
     <g id="line2d_21">
      <path d="M 108 116.680871 
L 777.6 116.680871 
" clip-path="url(#pb986cbe3d1)" style="fill: none; stroke: #b0b0b0; stroke-width: 0.8; stroke-linecap: square"/>
     </g>
     <g id="line2d_22">
      <g>
       <use xlink:href="#m09a444107f" x="108" y="116.680871" style="stroke: #000000; stroke-width: 0.8"/>
      </g>
     </g>
     <g id="text_12">
      <!-- 0.4 -->
      <g transform="translate(85.096875 120.48009) scale(0.1 -0.1)">
       <use xlink:href="#DejaVuSans-30"/>
       <use xlink:href="#DejaVuSans-2e" transform="translate(63.623047 0)"/>
       <use xlink:href="#DejaVuSans-34" transform="translate(95.410156 0)"/>
      </g>
     </g>
    </g>
    <g id="ytick_7">
     <g id="line2d_23">
      <path d="M 108 63.184218 
L 777.6 63.184218 
" clip-path="url(#pb986cbe3d1)" style="fill: none; stroke: #b0b0b0; stroke-width: 0.8; stroke-linecap: square"/>
     </g>
     <g id="line2d_24">
      <g>
       <use xlink:href="#m09a444107f" x="108" y="63.184218" style="stroke: #000000; stroke-width: 0.8"/>
      </g>
     </g>
     <g id="text_13">
      <!-- 0.6 -->
      <g transform="translate(85.096875 66.983436) scale(0.1 -0.1)">
       <use xlink:href="#DejaVuSans-30"/>
       <use xlink:href="#DejaVuSans-2e" transform="translate(63.623047 0)"/>
       <use xlink:href="#DejaVuSans-36" transform="translate(95.410156 0)"/>
      </g>
     </g>
    </g>
    <g id="text_14">
     <!-- Alignment with characteristic -->
     <g transform="translate(70.6375 291.5975) rotate(-90) scale(0.1 -0.1)">
      <defs>
       <path id="DejaVuSans-41" d="M 2188 4044 
L 1331 1722 
L 3047 1722 
L 2188 4044 
z
M 1831 4666 
L 2547 4666 
L 4325 0 
L 3669 0 
L 3244 1197 
L 1141 1197 
L 716 0 
L 50 0 
L 1831 4666 
z
" transform="scale(0.015625)"/>
       <path id="DejaVuSans-6c" d="M 603 4863 
L 1178 4863 
L 1178 0 
L 603 0 
L 603 4863 
z
" transform="scale(0.015625)"/>
       <path id="DejaVuSans-67" d="M 2906 1791 
Q 2906 2416 2648 2759 
Q 2391 3103 1925 3103 
Q 1463 3103 1205 2759 
Q 947 2416 947 1791 
Q 947 1169 1205 825 
Q 1463 481 1925 481 
Q 2391 481 2648 825 
Q 2906 1169 2906 1791 
z
M 3481 434 
Q 3481 -459 3084 -895 
Q 2688 -1331 1869 -1331 
Q 1566 -1331 1297 -1286 
Q 1028 -1241 775 -1147 
L 775 -588 
Q 1028 -725 1275 -790 
Q 1522 -856 1778 -856 
Q 2344 -856 2625 -561 
Q 2906 -266 2906 331 
L 2906 616 
Q 2728 306 2450 153 
Q 2172 0 1784 0 
Q 1141 0 747 490 
Q 353 981 353 1791 
Q 353 2603 747 3093 
Q 1141 3584 1784 3584 
Q 2172 3584 2450 3431 
Q 2728 3278 2906 2969 
L 2906 3500 
L 3481 3500 
L 3481 434 
z
" transform="scale(0.015625)"/>
       <path id="DejaVuSans-6d" d="M 3328 2828 
Q 3544 3216 3844 3400 
Q 4144 3584 4550 3584 
Q 5097 3584 5394 3201 
Q 5691 2819 5691 2113 
L 5691 0 
L 5113 0 
L 5113 2094 
Q 5113 2597 4934 2840 
Q 4756 3084 4391 3084 
Q 3944 3084 3684 2787 
Q 3425 2491 3425 1978 
L 3425 0 
L 2847 0 
L 2847 2094 
Q 2847 2600 2669 2842 
Q 2491 3084 2119 3084 
Q 1678 3084 1418 2786 
Q 1159 2488 1159 1978 
L 1159 0 
L 581 0 
L 581 3500 
L 1159 3500 
L 1159 2956 
Q 1356 3278 1631 3431 
Q 1906 3584 2284 3584 
Q 2666 3584 2933 3390 
Q 3200 3197 3328 2828 
z
" transform="scale(0.015625)"/>
       <path id="DejaVuSans-77" d="M 269 3500 
L 844 3500 
L 1563 769 
L 2278 3500 
L 2956 3500 
L 3675 769 
L 4391 3500 
L 4966 3500 
L 4050 0 
L 3372 0 
L 2619 2869 
L 1863 0 
L 1184 0 
L 269 3500 
z
" transform="scale(0.015625)"/>
       <path id="DejaVuSans-68" d="M 3513 2113 
L 3513 0 
L 2938 0 
L 2938 2094 
Q 2938 2591 2744 2837 
Q 2550 3084 2163 3084 
Q 1697 3084 1428 2787 
Q 1159 2491 1159 1978 
L 1159 0 
L 581 0 
L 581 4863 
L 1159 4863 
L 1159 2956 
Q 1366 3272 1645 3428 
Q 1925 3584 2291 3584 
Q 2894 3584 3203 3211 
Q 3513 2838 3513 2113 
z
" transform="scale(0.015625)"/>
       <path id="DejaVuSans-63" d="M 3122 3366 
L 3122 2828 
Q 2878 2963 2633 3030 
Q 2388 3097 2138 3097 
Q 1578 3097 1268 2742 
Q 959 2388 959 1747 
Q 959 1106 1268 751 
Q 1578 397 2138 397 
Q 2388 397 2633 464 
Q 2878 531 3122 666 
L 3122 134 
Q 2881 22 2623 -34 
Q 2366 -91 2075 -91 
Q 1284 -91 818 406 
Q 353 903 353 1747 
Q 353 2603 823 3093 
Q 1294 3584 2113 3584 
Q 2378 3584 2631 3529 
Q 2884 3475 3122 3366 
z
" transform="scale(0.015625)"/>
       <path id="DejaVuSans-61" d="M 2194 1759 
Q 1497 1759 1228 1600 
Q 959 1441 959 1056 
Q 959 750 1161 570 
Q 1363 391 1709 391 
Q 2188 391 2477 730 
Q 2766 1069 2766 1631 
L 2766 1759 
L 2194 1759 
z
M 3341 1997 
L 3341 0 
L 2766 0 
L 2766 531 
Q 2569 213 2275 61 
Q 1981 -91 1556 -91 
Q 1019 -91 701 211 
Q 384 513 384 1019 
Q 384 1609 779 1909 
Q 1175 2209 1959 2209 
L 2766 2209 
L 2766 2266 
Q 2766 2663 2505 2880 
Q 2244 3097 1772 3097 
Q 1472 3097 1187 3025 
Q 903 2953 641 2809 
L 641 3341 
Q 956 3463 1253 3523 
Q 1550 3584 1831 3584 
Q 2591 3584 2966 3190 
Q 3341 2797 3341 1997 
z
" transform="scale(0.015625)"/>
      </defs>
      <use xlink:href="#DejaVuSans-41"/>
      <use xlink:href="#DejaVuSans-6c" transform="translate(68.408203 0)"/>
      <use xlink:href="#DejaVuSans-69" transform="translate(96.191406 0)"/>
      <use xlink:href="#DejaVuSans-67" transform="translate(123.974609 0)"/>
      <use xlink:href="#DejaVuSans-6e" transform="translate(187.451172 0)"/>
      <use xlink:href="#DejaVuSans-6d" transform="translate(250.830078 0)"/>
      <use xlink:href="#DejaVuSans-65" transform="translate(348.242188 0)"/>
      <use xlink:href="#DejaVuSans-6e" transform="translate(409.765625 0)"/>
      <use xlink:href="#DejaVuSans-74" transform="translate(473.144531 0)"/>
      <use xlink:href="#DejaVuSans-20" transform="translate(512.353516 0)"/>
      <use xlink:href="#DejaVuSans-77" transform="translate(544.140625 0)"/>
      <use xlink:href="#DejaVuSans-69" transform="translate(625.927734 0)"/>
      <use xlink:href="#DejaVuSans-74" transform="translate(653.710938 0)"/>
      <use xlink:href="#DejaVuSans-68" transform="translate(692.919922 0)"/>
      <use xlink:href="#DejaVuSans-20" transform="translate(756.298828 0)"/>
      <use xlink:href="#DejaVuSans-63" transform="translate(788.085938 0)"/>
      <use xlink:href="#DejaVuSans-68" transform="translate(843.066406 0)"/>
      <use xlink:href="#DejaVuSans-61" transform="translate(906.445312 0)"/>
      <use xlink:href="#DejaVuSans-72" transform="translate(967.724609 0)"/>
      <use xlink:href="#DejaVuSans-61" transform="translate(1008.837891 0)"/>
      <use xlink:href="#DejaVuSans-63" transform="translate(1070.117188 0)"/>
      <use xlink:href="#DejaVuSans-74" transform="translate(1125.097656 0)"/>
      <use xlink:href="#DejaVuSans-65" transform="translate(1164.306641 0)"/>
      <use xlink:href="#DejaVuSans-72" transform="translate(1225.830078 0)"/>
      <use xlink:href="#DejaVuSans-69" transform="translate(1266.943359 0)"/>
      <use xlink:href="#DejaVuSans-73" transform="translate(1294.726562 0)"/>
      <use xlink:href="#DejaVuSans-74" transform="translate(1346.826172 0)"/>
      <use xlink:href="#DejaVuSans-69" transform="translate(1386.035156 0)"/>
      <use xlink:href="#DejaVuSans-63" transform="translate(1413.818359 0)"/>
     </g>
    </g>
   </g>
   <g id="line2d_25">
    <path d="M 138.436364 119.900929 
L 152.226302 123.577071 
L 162.732921 138.674245 
L 183.746161 153.556233 
L 200.162754 129.681275 
L 223.802648 122.945193 
L 241.532568 108.809756 
L 254.009179 107.526913 
L 272.395763 78.613242 
L 284.872374 111.86322 
L 296.692321 114.4031 
L 308.512268 139.614796 
L 315.078906 130.022949 
L 324.272198 152.320568 
L 338.7188 119.638358 
L 349.225419 112.875591 
L 361.045366 66.96 
L 379.431951 76.326081 
L 392.565225 111.441792 
L 403.728508 149.972099 
L 415.548455 190.789443 
L 435.905031 249.549162 
L 448.381642 288.67972 
L 456.91827 286.627731 
L 473.991527 307.246533 
L 487.124801 309.948897 
L 507.481377 328.549668 
L 517.987996 285.463687 
L 533.091262 282.748084 
L 549.507855 281.219616 
L 564.611121 278.956236 
L 573.147749 272.186362 
L 581.684378 317.393943 
L 588.907679 291.920108 
L 597.444307 293.369737 
L 609.920918 336.618853 
L 621.084201 320.31187 
L 633.560812 285.314589 
L 644.724095 314.303453 
L 657.200706 296.619621 
L 669.677317 262.873442 
L 675.58729 294.187287 
L 692.003883 322.098141 
L 705.137158 315.38068 
L 720.897087 326.298788 
L 734.687026 312.03339 
L 747.163636 309.153145 
" clip-path="url(#pb986cbe3d1)" style="fill: none; stroke: #006837; stroke-width: 1.5; stroke-linecap: square"/>
   </g>
   <g id="line2d_26">
    <path d="M 138.436364 153.640098 
L 152.226302 157.576493 
L 162.732921 167.815313 
L 183.746161 180.190585 
L 200.162754 167.400554 
L 223.802648 160.333079 
L 241.532568 146.893481 
L 254.009179 150.942518 
L 272.395763 127.967268 
L 284.872374 148.125642 
L 296.692321 153.05176 
L 308.512268 169.155241 
L 315.078906 161.650274 
L 324.272198 180.844203 
L 338.7188 147.58734 
L 349.225419 136.25593 
L 361.045366 91.065763 
L 379.431951 95.481477 
L 392.565225 127.209193 
L 403.728508 168.988998 
L 415.548455 205.468378 
L 435.905031 266.87442 
L 448.381642 303.753622 
L 456.91827 302.866171 
L 473.991527 315.273395 
L 487.124801 325.537663 
L 507.481377 345.459699 
L 517.987996 306.432567 
L 533.091262 297.088725 
L 549.507855 300.614852 
L 564.611121 292.830784 
L 573.147749 283.662764 
L 581.684378 323.373679 
L 588.907679 309.117715 
L 597.444307 304.843081 
L 609.920918 344.216437 
L 621.084201 341.957366 
L 633.560812 312.134998 
L 644.724095 334.33035 
L 657.200706 330.660139 
L 669.677317 297.394254 
L 675.58729 314.834658 
L 692.003883 344.560579 
L 705.137158 335.544371 
L 720.897087 341.352955 
L 734.687026 330.898638 
L 747.163636 331.051669 
" clip-path="url(#pb986cbe3d1)" style="fill: none; stroke: #66bd63; stroke-width: 1.5; stroke-linecap: square"/>
   </g>
   <g id="line2d_27">
    <path d="M 138.436364 156.452669 
L 152.226302 162.065041 
L 162.732921 172.615225 
L 183.746161 182.63352 
L 200.162754 176.148809 
L 223.802648 168.10292 
L 241.532568 151.922019 
L 254.009179 153.422223 
L 272.395763 134.351274 
L 284.872374 149.409591 
L 296.692321 154.334636 
L 308.512268 168.022034 
L 315.078906 165.212221 
L 324.272198 181.044407 
L 338.7188 148.674475 
L 349.225419 137.747405 
L 361.045366 94.577565 
L 379.431951 97.199501 
L 392.565225 129.145226 
L 403.728508 169.450668 
L 415.548455 206.391088 
L 435.905031 266.321407 
L 448.381642 305.830773 
L 456.91827 304.822799 
L 473.991527 314.832992 
L 487.124801 321.97398 
L 507.481377 345.176351 
L 517.987996 304.463885 
L 533.091262 289.818508 
L 549.507855 299.751548 
L 564.611121 293.722205 
L 573.147749 275.493451 
L 581.684378 310.675671 
L 588.907679 302.510059 
L 597.444307 297.742771 
L 609.920918 338.133302 
L 621.084201 349.341988 
L 633.560812 318.32376 
L 644.724095 339.762418 
L 657.200706 337.965699 
L 669.677317 304.840472 
L 675.58729 312.083167 
L 692.003883 346.665264 
L 705.137158 339.339381 
L 720.897087 336.647842 
L 734.687026 323.863447 
L 747.163636 329.671537 
" clip-path="url(#pb986cbe3d1)" style="fill: none; stroke: #d9ef8b; stroke-width: 1.5; stroke-linecap: square"/>
   </g>
   <g id="line2d_28">
    <path d="M 138.436364 169.512412 
L 152.226302 173.744328 
L 162.732921 187.249973 
L 183.746161 200.311516 
L 200.162754 189.211089 
L 223.802648 182.560484 
L 241.532568 168.944133 
L 254.009179 165.930233 
L 272.395763 145.57244 
L 284.872374 163.014418 
L 296.692321 160.843886 
L 308.512268 170.021135 
L 315.078906 165.225758 
L 324.272198 181.359664 
L 338.7188 149.407291 
L 349.225419 139.222819 
L 361.045366 95.096407 
L 379.431951 105.403103 
L 392.565225 138.930593 
L 403.728508 181.525364 
L 415.548455 224.863766 
L 435.905031 289.952239 
L 448.381642 328.406212 
L 456.91827 326.823294 
L 473.991527 337.28532 
L 487.124801 340.978875 
L 507.481377 362.708053 
L 517.987996 319.629836 
L 533.091262 304.345439 
L 549.507855 315.797803 
L 564.611121 314.708863 
L 573.147749 300.090703 
L 581.684378 334.872541 
L 588.907679 327.716752 
L 597.444307 318.924412 
L 609.920918 352.05809 
L 621.084201 359.944287 
L 633.560812 329.790443 
L 644.724095 350.652961 
L 657.200706 351.744363 
L 669.677317 321.905146 
L 675.58729 332.294336 
L 692.003883 364.560948 
L 705.137158 356.541772 
L 720.897087 349.876307 
L 734.687026 336.221269 
L 747.163636 337.195793 
" clip-path="url(#pb986cbe3d1)" style="fill: none; stroke: #fee08b; stroke-width: 1.5; stroke-linecap: square"/>
   </g>
   <g id="line2d_29">
    <path d="M 138.436364 173.701482 
L 152.226302 176.038424 
L 162.732921 192.941487 
L 183.746161 201.991505 
L 200.162754 184.525504 
L 223.802648 180.6539 
L 241.532568 168.829469 
L 254.009179 167.046342 
L 272.395763 147.738259 
L 284.872374 166.819603 
L 296.692321 164.396909 
L 308.512268 170.813895 
L 315.078906 159.742774 
L 324.272198 180.605477 
L 338.7188 152.819198 
L 349.225419 142.744932 
L 361.045366 100.536438 
L 379.431951 113.068169 
L 392.565225 143.435001 
L 403.728508 185.682375 
L 415.548455 229.573768 
L 435.905031 294.053964 
L 448.381642 329.91514 
L 456.91827 326.643864 
L 473.991527 334.023459 
L 487.124801 336.163283 
L 507.481377 357.450776 
L 517.987996 318.401478 
L 533.091262 302.621776 
L 549.507855 314.875461 
L 564.611121 313.750312 
L 573.147749 302.695678 
L 581.684378 334.320268 
L 588.907679 330.331372 
L 597.444307 322.809834 
L 609.920918 354.925901 
L 621.084201 363.830353 
L 633.560812 337.721209 
L 644.724095 360.876759 
L 657.200706 360.322922 
L 669.677317 330.532117 
L 675.58729 336.494417 
L 692.003883 369.36 
L 705.137158 357.977141 
L 720.897087 353.390544 
L 734.687026 341.858126 
L 747.163636 342.209785 
" clip-path="url(#pb986cbe3d1)" style="fill: none; stroke: #f46d43; stroke-width: 1.5; stroke-linecap: square"/>
   </g>
   <g id="line2d_30">
    <path d="M 138.436364 143.361237 
L 152.226302 145.505062 
L 162.732921 159.186413 
L 183.746161 166.447553 
L 200.162754 155.787823 
L 223.802648 151.162055 
L 241.532568 140.98927 
L 254.009179 138.868302 
L 272.395763 121.296338 
L 284.872374 137.208172 
L 296.692321 139.380152 
L 308.512268 147.108887 
L 315.078906 144.387148 
L 324.272198 161.122127 
L 338.7188 134.458472 
L 349.225419 124.406173 
L 361.045366 85.348442 
L 379.431951 90.235953 
L 392.565225 118.787226 
L 403.728508 158.800417 
L 415.548455 193.049316 
L 435.905031 251.114163 
L 448.381642 286.272576 
L 456.91827 287.167352 
L 473.991527 296.450575 
L 487.124801 303.612769 
L 507.481377 320.803293 
L 517.987996 285.208935 
L 533.091262 267.684832 
L 549.507855 275.462515 
L 564.611121 273.732325 
L 573.147749 264.163826 
L 581.684378 297.835874 
L 588.907679 293.607986 
L 597.444307 290.188159 
L 609.920918 329.082868 
L 621.084201 340.176272 
L 633.560812 311.699647 
L 644.724095 333.201055 
L 657.200706 333.360593 
L 669.677317 299.14961 
L 675.58729 306.675454 
L 692.003883 341.924534 
L 705.137158 333.558429 
L 720.897087 331.844004 
L 734.687026 320.415479 
L 747.163636 317.910113 
" clip-path="url(#pb986cbe3d1)" style="fill: none; stroke: #a50026; stroke-width: 1.5; stroke-linecap: square"/>
   </g>
   <g id="patch_3">
    <path d="M 108 384.48 
L 108 51.84 
" style="fill: none; stroke: #000000; stroke-width: 0.8; stroke-linejoin: miter; stroke-linecap: square"/>
   </g>
   <g id="patch_4">
    <path d="M 777.6 384.48 
L 777.6 51.84 
" style="fill: none; stroke: #000000; stroke-width: 0.8; stroke-linejoin: miter; stroke-linecap: square"/>
   </g>
   <g id="patch_5">
    <path d="M 108 384.48 
L 777.6 384.48 
" style="fill: none; stroke: #000000; stroke-width: 0.8; stroke-linejoin: miter; stroke-linecap: square"/>
   </g>
   <g id="patch_6">
    <path d="M 108 51.84 
L 777.6 51.84 
" style="fill: none; stroke: #000000; stroke-width: 0.8; stroke-linejoin: miter; stroke-linecap: square"/>
   </g>
   <g id="text_15">
    <!-- Mood as Optimistic score per sentence -->
    <g transform="translate(326.084063 45.84) scale(0.12 -0.12)">
     <defs>
      <path id="DejaVuSans-4d" d="M 628 4666 
L 1569 4666 
L 2759 1491 
L 3956 4666 
L 4897 4666 
L 4897 0 
L 4281 0 
L 4281 4097 
L 3078 897 
L 2444 897 
L 1241 4097 
L 1241 0 
L 628 0 
L 628 4666 
z
" transform="scale(0.015625)"/>
      <path id="DejaVuSans-4f" d="M 2522 4238 
Q 1834 4238 1429 3725 
Q 1025 3213 1025 2328 
Q 1025 1447 1429 934 
Q 1834 422 2522 422 
Q 3209 422 3611 934 
Q 4013 1447 4013 2328 
Q 4013 3213 3611 3725 
Q 3209 4238 2522 4238 
z
M 2522 4750 
Q 3503 4750 4090 4092 
Q 4678 3434 4678 2328 
Q 4678 1225 4090 567 
Q 3503 -91 2522 -91 
Q 1538 -91 948 565 
Q 359 1222 359 2328 
Q 359 3434 948 4092 
Q 1538 4750 2522 4750 
z
" transform="scale(0.015625)"/>
      <path id="DejaVuSans-70" d="M 1159 525 
L 1159 -1331 
L 581 -1331 
L 581 3500 
L 1159 3500 
L 1159 2969 
Q 1341 3281 1617 3432 
Q 1894 3584 2278 3584 
Q 2916 3584 3314 3078 
Q 3713 2572 3713 1747 
Q 3713 922 3314 415 
Q 2916 -91 2278 -91 
Q 1894 -91 1617 61 
Q 1341 213 1159 525 
z
M 3116 1747 
Q 3116 2381 2855 2742 
Q 2594 3103 2138 3103 
Q 1681 3103 1420 2742 
Q 1159 2381 1159 1747 
Q 1159 1113 1420 752 
Q 1681 391 2138 391 
Q 2594 391 2855 752 
Q 3116 1113 3116 1747 
z
" transform="scale(0.015625)"/>
     </defs>
     <use xlink:href="#DejaVuSans-4d"/>
     <use xlink:href="#DejaVuSans-6f" transform="translate(86.279297 0)"/>
     <use xlink:href="#DejaVuSans-6f" transform="translate(147.460938 0)"/>
     <use xlink:href="#DejaVuSans-64" transform="translate(208.642578 0)"/>
     <use xlink:href="#DejaVuSans-20" transform="translate(272.119141 0)"/>
     <use xlink:href="#DejaVuSans-61" transform="translate(303.90625 0)"/>
     <use xlink:href="#DejaVuSans-73" transform="translate(365.185547 0)"/>
     <use xlink:href="#DejaVuSans-20" transform="translate(417.285156 0)"/>
     <use xlink:href="#DejaVuSans-4f" transform="translate(449.072266 0)"/>
     <use xlink:href="#DejaVuSans-70" transform="translate(527.783203 0)"/>
     <use xlink:href="#DejaVuSans-74" transform="translate(591.259766 0)"/>
     <use xlink:href="#DejaVuSans-69" transform="translate(630.46875 0)"/>
     <use xlink:href="#DejaVuSans-6d" transform="translate(658.251953 0)"/>
     <use xlink:href="#DejaVuSans-69" transform="translate(755.664062 0)"/>
     <use xlink:href="#DejaVuSans-73" transform="translate(783.447266 0)"/>
     <use xlink:href="#DejaVuSans-74" transform="translate(835.546875 0)"/>
     <use xlink:href="#DejaVuSans-69" transform="translate(874.755859 0)"/>
     <use xlink:href="#DejaVuSans-63" transform="translate(902.539062 0)"/>
     <use xlink:href="#DejaVuSans-20" transform="translate(957.519531 0)"/>
     <use xlink:href="#DejaVuSans-73" transform="translate(989.306641 0)"/>
     <use xlink:href="#DejaVuSans-63" transform="translate(1041.40625 0)"/>
     <use xlink:href="#DejaVuSans-6f" transform="translate(1096.386719 0)"/>
     <use xlink:href="#DejaVuSans-72" transform="translate(1157.568359 0)"/>
     <use xlink:href="#DejaVuSans-65" transform="translate(1196.431641 0)"/>
     <use xlink:href="#DejaVuSans-20" transform="translate(1257.955078 0)"/>
     <use xlink:href="#DejaVuSans-70" transform="translate(1289.742188 0)"/>
     <use xlink:href="#DejaVuSans-65" transform="translate(1353.21875 0)"/>
     <use xlink:href="#DejaVuSans-72" transform="translate(1414.742188 0)"/>
     <use xlink:href="#DejaVuSans-20" transform="translate(1455.855469 0)"/>
     <use xlink:href="#DejaVuSans-73" transform="translate(1487.642578 0)"/>
     <use xlink:href="#DejaVuSans-65" transform="translate(1539.742188 0)"/>
     <use xlink:href="#DejaVuSans-6e" transform="translate(1601.265625 0)"/>
     <use xlink:href="#DejaVuSans-74" transform="translate(1664.644531 0)"/>
     <use xlink:href="#DejaVuSans-65" transform="translate(1703.853516 0)"/>
     <use xlink:href="#DejaVuSans-6e" transform="translate(1765.376953 0)"/>
     <use xlink:href="#DejaVuSans-63" transform="translate(1828.755859 0)"/>
     <use xlink:href="#DejaVuSans-65" transform="translate(1883.736328 0)"/>
    </g>
   </g>
   <g id="legend_1">
    <g id="patch_7">
     <path d="M 673.682812 162.586875 
L 770.6 162.586875 
Q 772.6 162.586875 772.6 160.586875 
L 772.6 58.84 
Q 772.6 56.84 770.6 56.84 
L 673.682812 56.84 
Q 671.682812 56.84 671.682812 58.84 
L 671.682812 160.586875 
Q 671.682812 162.586875 673.682812 162.586875 
z
" style="fill: #ffffff; opacity: 0.8; stroke: #cccccc; stroke-linejoin: miter"/>
    </g>
    <g id="text_16">
     <!-- Temperature Level -->
     <g transform="translate(675.682812 68.438437) scale(0.1 -0.1)">
      <defs>
       <path id="DejaVuSans-75" d="M 544 1381 
L 544 3500 
L 1119 3500 
L 1119 1403 
Q 1119 906 1312 657 
Q 1506 409 1894 409 
Q 2359 409 2629 706 
Q 2900 1003 2900 1516 
L 2900 3500 
L 3475 3500 
L 3475 0 
L 2900 0 
L 2900 538 
Q 2691 219 2414 64 
Q 2138 -91 1772 -91 
Q 1169 -91 856 284 
Q 544 659 544 1381 
z
M 1991 3584 
L 1991 3584 
z
" transform="scale(0.015625)"/>
       <path id="DejaVuSans-4c" d="M 628 4666 
L 1259 4666 
L 1259 531 
L 3531 531 
L 3531 0 
L 628 0 
L 628 4666 
z
" transform="scale(0.015625)"/>
       <path id="DejaVuSans-76" d="M 191 3500 
L 800 3500 
L 1894 563 
L 2988 3500 
L 3597 3500 
L 2284 0 
L 1503 0 
L 191 3500 
z
" transform="scale(0.015625)"/>
      </defs>
      <use xlink:href="#DejaVuSans-54"/>
      <use xlink:href="#DejaVuSans-65" transform="translate(44.083984 0)"/>
      <use xlink:href="#DejaVuSans-6d" transform="translate(105.607422 0)"/>
      <use xlink:href="#DejaVuSans-70" transform="translate(203.019531 0)"/>
      <use xlink:href="#DejaVuSans-65" transform="translate(266.496094 0)"/>
      <use xlink:href="#DejaVuSans-72" transform="translate(328.019531 0)"/>
      <use xlink:href="#DejaVuSans-61" transform="translate(369.132812 0)"/>
      <use xlink:href="#DejaVuSans-74" transform="translate(430.412109 0)"/>
      <use xlink:href="#DejaVuSans-75" transform="translate(469.621094 0)"/>
      <use xlink:href="#DejaVuSans-72" transform="translate(533 0)"/>
      <use xlink:href="#DejaVuSans-65" transform="translate(571.863281 0)"/>
      <use xlink:href="#DejaVuSans-20" transform="translate(633.386719 0)"/>
      <use xlink:href="#DejaVuSans-4c" transform="translate(665.173828 0)"/>
      <use xlink:href="#DejaVuSans-65" transform="translate(719.136719 0)"/>
      <use xlink:href="#DejaVuSans-76" transform="translate(780.660156 0)"/>
      <use xlink:href="#DejaVuSans-65" transform="translate(839.839844 0)"/>
      <use xlink:href="#DejaVuSans-6c" transform="translate(901.363281 0)"/>
     </g>
    </g>
    <g id="line2d_31">
     <path d="M 685.275781 79.616562 
L 695.275781 79.616562 
L 705.275781 79.616562 
" style="fill: none; stroke: #006837; stroke-width: 1.5; stroke-linecap: square"/>
    </g>
    <g id="text_17">
     <!-- Temp 0.0 -->
     <g transform="translate(713.275781 83.116562) scale(0.1 -0.1)">
      <use xlink:href="#DejaVuSans-54"/>
      <use xlink:href="#DejaVuSans-65" transform="translate(44.083984 0)"/>
      <use xlink:href="#DejaVuSans-6d" transform="translate(105.607422 0)"/>
      <use xlink:href="#DejaVuSans-70" transform="translate(203.019531 0)"/>
      <use xlink:href="#DejaVuSans-20" transform="translate(266.496094 0)"/>
      <use xlink:href="#DejaVuSans-30" transform="translate(298.283203 0)"/>
      <use xlink:href="#DejaVuSans-2e" transform="translate(361.90625 0)"/>
      <use xlink:href="#DejaVuSans-30" transform="translate(393.693359 0)"/>
     </g>
    </g>
    <g id="line2d_32">
     <path d="M 685.275781 94.294688 
L 695.275781 94.294688 
L 705.275781 94.294688 
" style="fill: none; stroke: #66bd63; stroke-width: 1.5; stroke-linecap: square"/>
    </g>
    <g id="text_18">
     <!-- Temp 0.2 -->
     <g transform="translate(713.275781 97.794688) scale(0.1 -0.1)">
      <use xlink:href="#DejaVuSans-54"/>
      <use xlink:href="#DejaVuSans-65" transform="translate(44.083984 0)"/>
      <use xlink:href="#DejaVuSans-6d" transform="translate(105.607422 0)"/>
      <use xlink:href="#DejaVuSans-70" transform="translate(203.019531 0)"/>
      <use xlink:href="#DejaVuSans-20" transform="translate(266.496094 0)"/>
      <use xlink:href="#DejaVuSans-30" transform="translate(298.283203 0)"/>
      <use xlink:href="#DejaVuSans-2e" transform="translate(361.90625 0)"/>
      <use xlink:href="#DejaVuSans-32" transform="translate(393.693359 0)"/>
     </g>
    </g>
    <g id="line2d_33">
     <path d="M 685.275781 108.972812 
L 695.275781 108.972812 
L 705.275781 108.972812 
" style="fill: none; stroke: #d9ef8b; stroke-width: 1.5; stroke-linecap: square"/>
    </g>
    <g id="text_19">
     <!-- Temp 0.4 -->
     <g transform="translate(713.275781 112.472812) scale(0.1 -0.1)">
      <use xlink:href="#DejaVuSans-54"/>
      <use xlink:href="#DejaVuSans-65" transform="translate(44.083984 0)"/>
      <use xlink:href="#DejaVuSans-6d" transform="translate(105.607422 0)"/>
      <use xlink:href="#DejaVuSans-70" transform="translate(203.019531 0)"/>
      <use xlink:href="#DejaVuSans-20" transform="translate(266.496094 0)"/>
      <use xlink:href="#DejaVuSans-30" transform="translate(298.283203 0)"/>
      <use xlink:href="#DejaVuSans-2e" transform="translate(361.90625 0)"/>
      <use xlink:href="#DejaVuSans-34" transform="translate(393.693359 0)"/>
     </g>
    </g>
    <g id="line2d_34">
     <path d="M 685.275781 123.650937 
L 695.275781 123.650937 
L 705.275781 123.650937 
" style="fill: none; stroke: #fee08b; stroke-width: 1.5; stroke-linecap: square"/>
    </g>
    <g id="text_20">
     <!-- Temp 0.6 -->
     <g transform="translate(713.275781 127.150937) scale(0.1 -0.1)">
      <use xlink:href="#DejaVuSans-54"/>
      <use xlink:href="#DejaVuSans-65" transform="translate(44.083984 0)"/>
      <use xlink:href="#DejaVuSans-6d" transform="translate(105.607422 0)"/>
      <use xlink:href="#DejaVuSans-70" transform="translate(203.019531 0)"/>
      <use xlink:href="#DejaVuSans-20" transform="translate(266.496094 0)"/>
      <use xlink:href="#DejaVuSans-30" transform="translate(298.283203 0)"/>
      <use xlink:href="#DejaVuSans-2e" transform="translate(361.90625 0)"/>
      <use xlink:href="#DejaVuSans-36" transform="translate(393.693359 0)"/>
     </g>
    </g>
    <g id="line2d_35">
     <path d="M 685.275781 138.329062 
L 695.275781 138.329062 
L 705.275781 138.329062 
" style="fill: none; stroke: #f46d43; stroke-width: 1.5; stroke-linecap: square"/>
    </g>
    <g id="text_21">
     <!-- Temp 0.8 -->
     <g transform="translate(713.275781 141.829062) scale(0.1 -0.1)">
      <use xlink:href="#DejaVuSans-54"/>
      <use xlink:href="#DejaVuSans-65" transform="translate(44.083984 0)"/>
      <use xlink:href="#DejaVuSans-6d" transform="translate(105.607422 0)"/>
      <use xlink:href="#DejaVuSans-70" transform="translate(203.019531 0)"/>
      <use xlink:href="#DejaVuSans-20" transform="translate(266.496094 0)"/>
      <use xlink:href="#DejaVuSans-30" transform="translate(298.283203 0)"/>
      <use xlink:href="#DejaVuSans-2e" transform="translate(361.90625 0)"/>
      <use xlink:href="#DejaVuSans-38" transform="translate(393.693359 0)"/>
     </g>
    </g>
    <g id="line2d_36">
     <path d="M 685.275781 153.007187 
L 695.275781 153.007187 
L 705.275781 153.007187 
" style="fill: none; stroke: #a50026; stroke-width: 1.5; stroke-linecap: square"/>
    </g>
    <g id="text_22">
     <!-- Temp 1.0 -->
     <g transform="translate(713.275781 156.507187) scale(0.1 -0.1)">
      <defs>
       <path id="DejaVuSans-31" d="M 794 531 
L 1825 531 
L 1825 4091 
L 703 3866 
L 703 4441 
L 1819 4666 
L 2450 4666 
L 2450 531 
L 3481 531 
L 3481 0 
L 794 0 
L 794 531 
z
" transform="scale(0.015625)"/>
      </defs>
      <use xlink:href="#DejaVuSans-54"/>
      <use xlink:href="#DejaVuSans-65" transform="translate(44.083984 0)"/>
      <use xlink:href="#DejaVuSans-6d" transform="translate(105.607422 0)"/>
      <use xlink:href="#DejaVuSans-70" transform="translate(203.019531 0)"/>
      <use xlink:href="#DejaVuSans-20" transform="translate(266.496094 0)"/>
      <use xlink:href="#DejaVuSans-31" transform="translate(298.283203 0)"/>
      <use xlink:href="#DejaVuSans-2e" transform="translate(361.90625 0)"/>
      <use xlink:href="#DejaVuSans-30" transform="translate(393.693359 0)"/>
     </g>
    </g>
   </g>
  </g>
 </g>
 <defs>
  <clipPath id="pb986cbe3d1">
   <rect x="108" y="51.84" width="669.6" height="332.64"/>
  </clipPath>
 </defs>
</svg>
