<?xml version="1.0" encoding="utf-8" standalone="no"?>
<!DOCTYPE svg PUBLIC "-//W3C//DTD SVG 1.1//EN"
  "http://www.w3.org/Graphics/SVG/1.1/DTD/svg11.dtd">
<svg xmlns:xlink="http://www.w3.org/1999/xlink" width="864pt" height="432pt" viewBox="0 0 864 432" xmlns="http://www.w3.org/2000/svg" version="1.1">
 <metadata>
  <rdf:RDF xmlns:dc="http://purl.org/dc/elements/1.1/" xmlns:cc="http://creativecommons.org/ns#" xmlns:rdf="http://www.w3.org/1999/02/22-rdf-syntax-ns#">
   <cc:Work>
    <dc:type rdf:resource="http://purl.org/dc/dcmitype/StillImage"/>
    <dc:date>2025-01-03T05:13:07.831684</dc:date>
    <dc:format>image/svg+xml</dc:format>
    <dc:creator>
     <cc:Agent>
      <dc:title>Matplotlib v3.10.0, https://matplotlib.org/</dc:title>
     </cc:Agent>
    </dc:creator>
   </cc:Work>
  </rdf:RDF>
 </metadata>
 <defs>
  <style type="text/css">*{stroke-linejoin: round; stroke-linecap: butt}</style>
 </defs>
 <g id="figure_1">
  <g id="patch_1">
   <path d="M 0 432 
L 864 432 
L 864 0 
L 0 0 
z
" style="fill: #ffffff"/>
  </g>
  <g id="axes_1">
   <g id="patch_2">
    <path d="M 108 384.48 
L 777.6 384.48 
L 777.6 51.84 
L 108 51.84 
z
" style="fill: #ffffff"/>
   </g>
   <g id="matplotlib.axis_1">
    <g id="xtick_1">
     <g id="line2d_1">
      <path d="M 138.436364 384.48 
L 138.436364 51.84 
" clip-path="url(#pe53dbd270c)" style="fill: none; stroke: #b0b0b0; stroke-width: 0.8; stroke-linecap: square"/>
     </g>
     <g id="line2d_2">
      <defs>
       <path id="m466015e110" d="M 0 0 
L 0 3.5 
" style="stroke: #000000; stroke-width: 0.8"/>
      </defs>
      <g>
       <use xlink:href="#m466015e110" x="138.436364" y="384.48" style="stroke: #000000; stroke-width: 0.8"/>
      </g>
     </g>
     <g id="text_1">
      <!-- 0 -->
      <g transform="translate(135.255114 399.078438) scale(0.1 -0.1)">
       <defs>
        <path id="DejaVuSans-30" d="M 2034 4250 
Q 1547 4250 1301 3770 
Q 1056 3291 1056 2328 
Q 1056 1369 1301 889 
Q 1547 409 2034 409 
Q 2525 409 2770 889 
Q 3016 1369 3016 2328 
Q 3016 3291 2770 3770 
Q 2525 4250 2034 4250 
z
M 2034 4750 
Q 2819 4750 3233 4129 
Q 3647 3509 3647 2328 
Q 3647 1150 3233 529 
Q 2819 -91 2034 -91 
Q 1250 -91 836 529 
Q 422 1150 422 2328 
Q 422 3509 836 4129 
Q 1250 4750 2034 4750 
z
" transform="scale(0.015625)"/>
       </defs>
       <use xlink:href="#DejaVuSans-30"/>
      </g>
     </g>
    </g>
    <g id="xtick_2">
     <g id="line2d_3">
      <path d="M 215.393035 384.48 
L 215.393035 51.84 
" clip-path="url(#pe53dbd270c)" style="fill: none; stroke: #b0b0b0; stroke-width: 0.8; stroke-linecap: square"/>
     </g>
     <g id="line2d_4">
      <g>
       <use xlink:href="#m466015e110" x="215.393035" y="384.48" style="stroke: #000000; stroke-width: 0.8"/>
      </g>
     </g>
     <g id="text_2">
      <!-- 500 -->
      <g transform="translate(205.849285 399.078438) scale(0.1 -0.1)">
       <defs>
        <path id="DejaVuSans-35" d="M 691 4666 
L 3169 4666 
L 3169 4134 
L 1269 4134 
L 1269 2991 
Q 1406 3038 1543 3061 
Q 1681 3084 1819 3084 
Q 2600 3084 3056 2656 
Q 3513 2228 3513 1497 
Q 3513 744 3044 326 
Q 2575 -91 1722 -91 
Q 1428 -91 1123 -41 
Q 819 9 494 109 
L 494 744 
Q 775 591 1075 516 
Q 1375 441 1709 441 
Q 2250 441 2565 725 
Q 2881 1009 2881 1497 
Q 2881 1984 2565 2268 
Q 2250 2553 1709 2553 
Q 1456 2553 1204 2497 
Q 953 2441 691 2322 
L 691 4666 
z
" transform="scale(0.015625)"/>
       </defs>
       <use xlink:href="#DejaVuSans-35"/>
       <use xlink:href="#DejaVuSans-30" transform="translate(63.623047 0)"/>
       <use xlink:href="#DejaVuSans-30" transform="translate(127.246094 0)"/>
      </g>
     </g>
    </g>
    <g id="xtick_3">
     <g id="line2d_5">
      <path d="M 292.349707 384.48 
L 292.349707 51.84 
" clip-path="url(#pe53dbd270c)" style="fill: none; stroke: #b0b0b0; stroke-width: 0.8; stroke-linecap: square"/>
     </g>
     <g id="line2d_6">
      <g>
       <use xlink:href="#m466015e110" x="292.349707" y="384.48" style="stroke: #000000; stroke-width: 0.8"/>
      </g>
     </g>
     <g id="text_3">
      <!-- 1000 -->
      <g transform="translate(279.624707 399.078438) scale(0.1 -0.1)">
       <defs>
        <path id="DejaVuSans-31" d="M 794 531 
L 1825 531 
L 1825 4091 
L 703 3866 
L 703 4441 
L 1819 4666 
L 2450 4666 
L 2450 531 
L 3481 531 
L 3481 0 
L 794 0 
L 794 531 
z
" transform="scale(0.015625)"/>
       </defs>
       <use xlink:href="#DejaVuSans-31"/>
       <use xlink:href="#DejaVuSans-30" transform="translate(63.623047 0)"/>
       <use xlink:href="#DejaVuSans-30" transform="translate(127.246094 0)"/>
       <use xlink:href="#DejaVuSans-30" transform="translate(190.869141 0)"/>
      </g>
     </g>
    </g>
    <g id="xtick_4">
     <g id="line2d_7">
      <path d="M 369.306379 384.48 
L 369.306379 51.84 
" clip-path="url(#pe53dbd270c)" style="fill: none; stroke: #b0b0b0; stroke-width: 0.8; stroke-linecap: square"/>
     </g>
     <g id="line2d_8">
      <g>
       <use xlink:href="#m466015e110" x="369.306379" y="384.48" style="stroke: #000000; stroke-width: 0.8"/>
      </g>
     </g>
     <g id="text_4">
      <!-- 1500 -->
      <g transform="translate(356.581379 399.078438) scale(0.1 -0.1)">
       <use xlink:href="#DejaVuSans-31"/>
       <use xlink:href="#DejaVuSans-35" transform="translate(63.623047 0)"/>
       <use xlink:href="#DejaVuSans-30" transform="translate(127.246094 0)"/>
       <use xlink:href="#DejaVuSans-30" transform="translate(190.869141 0)"/>
      </g>
     </g>
    </g>
    <g id="xtick_5">
     <g id="line2d_9">
      <path d="M 446.26305 384.48 
L 446.26305 51.84 
" clip-path="url(#pe53dbd270c)" style="fill: none; stroke: #b0b0b0; stroke-width: 0.8; stroke-linecap: square"/>
     </g>
     <g id="line2d_10">
      <g>
       <use xlink:href="#m466015e110" x="446.26305" y="384.48" style="stroke: #000000; stroke-width: 0.8"/>
      </g>
     </g>
     <g id="text_5">
      <!-- 2000 -->
      <g transform="translate(433.53805 399.078438) scale(0.1 -0.1)">
       <defs>
        <path id="DejaVuSans-32" d="M 1228 531 
L 3431 531 
L 3431 0 
L 469 0 
L 469 531 
Q 828 903 1448 1529 
Q 2069 2156 2228 2338 
Q 2531 2678 2651 2914 
Q 2772 3150 2772 3378 
Q 2772 3750 2511 3984 
Q 2250 4219 1831 4219 
Q 1534 4219 1204 4116 
Q 875 4013 500 3803 
L 500 4441 
Q 881 4594 1212 4672 
Q 1544 4750 1819 4750 
Q 2544 4750 2975 4387 
Q 3406 4025 3406 3419 
Q 3406 3131 3298 2873 
Q 3191 2616 2906 2266 
Q 2828 2175 2409 1742 
Q 1991 1309 1228 531 
z
" transform="scale(0.015625)"/>
       </defs>
       <use xlink:href="#DejaVuSans-32"/>
       <use xlink:href="#DejaVuSans-30" transform="translate(63.623047 0)"/>
       <use xlink:href="#DejaVuSans-30" transform="translate(127.246094 0)"/>
       <use xlink:href="#DejaVuSans-30" transform="translate(190.869141 0)"/>
      </g>
     </g>
    </g>
    <g id="xtick_6">
     <g id="line2d_11">
      <path d="M 523.219722 384.48 
L 523.219722 51.84 
" clip-path="url(#pe53dbd270c)" style="fill: none; stroke: #b0b0b0; stroke-width: 0.8; stroke-linecap: square"/>
     </g>
     <g id="line2d_12">
      <g>
       <use xlink:href="#m466015e110" x="523.219722" y="384.48" style="stroke: #000000; stroke-width: 0.8"/>
      </g>
     </g>
     <g id="text_6">
      <!-- 2500 -->
      <g transform="translate(510.494722 399.078438) scale(0.1 -0.1)">
       <use xlink:href="#DejaVuSans-32"/>
       <use xlink:href="#DejaVuSans-35" transform="translate(63.623047 0)"/>
       <use xlink:href="#DejaVuSans-30" transform="translate(127.246094 0)"/>
       <use xlink:href="#DejaVuSans-30" transform="translate(190.869141 0)"/>
      </g>
     </g>
    </g>
    <g id="xtick_7">
     <g id="line2d_13">
      <path d="M 600.176394 384.48 
L 600.176394 51.84 
" clip-path="url(#pe53dbd270c)" style="fill: none; stroke: #b0b0b0; stroke-width: 0.8; stroke-linecap: square"/>
     </g>
     <g id="line2d_14">
      <g>
       <use xlink:href="#m466015e110" x="600.176394" y="384.48" style="stroke: #000000; stroke-width: 0.8"/>
      </g>
     </g>
     <g id="text_7">
      <!-- 3000 -->
      <g transform="translate(587.451394 399.078438) scale(0.1 -0.1)">
       <defs>
        <path id="DejaVuSans-33" d="M 2597 2516 
Q 3050 2419 3304 2112 
Q 3559 1806 3559 1356 
Q 3559 666 3084 287 
Q 2609 -91 1734 -91 
Q 1441 -91 1130 -33 
Q 819 25 488 141 
L 488 750 
Q 750 597 1062 519 
Q 1375 441 1716 441 
Q 2309 441 2620 675 
Q 2931 909 2931 1356 
Q 2931 1769 2642 2001 
Q 2353 2234 1838 2234 
L 1294 2234 
L 1294 2753 
L 1863 2753 
Q 2328 2753 2575 2939 
Q 2822 3125 2822 3475 
Q 2822 3834 2567 4026 
Q 2313 4219 1838 4219 
Q 1578 4219 1281 4162 
Q 984 4106 628 3988 
L 628 4550 
Q 988 4650 1302 4700 
Q 1616 4750 1894 4750 
Q 2613 4750 3031 4423 
Q 3450 4097 3450 3541 
Q 3450 3153 3228 2886 
Q 3006 2619 2597 2516 
z
" transform="scale(0.015625)"/>
       </defs>
       <use xlink:href="#DejaVuSans-33"/>
       <use xlink:href="#DejaVuSans-30" transform="translate(63.623047 0)"/>
       <use xlink:href="#DejaVuSans-30" transform="translate(127.246094 0)"/>
       <use xlink:href="#DejaVuSans-30" transform="translate(190.869141 0)"/>
      </g>
     </g>
    </g>
    <g id="xtick_8">
     <g id="line2d_15">
      <path d="M 677.133065 384.48 
L 677.133065 51.84 
" clip-path="url(#pe53dbd270c)" style="fill: none; stroke: #b0b0b0; stroke-width: 0.8; stroke-linecap: square"/>
     </g>
     <g id="line2d_16">
      <g>
       <use xlink:href="#m466015e110" x="677.133065" y="384.48" style="stroke: #000000; stroke-width: 0.8"/>
      </g>
     </g>
     <g id="text_8">
      <!-- 3500 -->
      <g transform="translate(664.408065 399.078438) scale(0.1 -0.1)">
       <use xlink:href="#DejaVuSans-33"/>
       <use xlink:href="#DejaVuSans-35" transform="translate(63.623047 0)"/>
       <use xlink:href="#DejaVuSans-30" transform="translate(127.246094 0)"/>
       <use xlink:href="#DejaVuSans-30" transform="translate(190.869141 0)"/>
      </g>
     </g>
    </g>
    <g id="xtick_9">
     <g id="line2d_17">
      <path d="M 754.089737 384.48 
L 754.089737 51.84 
" clip-path="url(#pe53dbd270c)" style="fill: none; stroke: #b0b0b0; stroke-width: 0.8; stroke-linecap: square"/>
     </g>
     <g id="line2d_18">
      <g>
       <use xlink:href="#m466015e110" x="754.089737" y="384.48" style="stroke: #000000; stroke-width: 0.8"/>
      </g>
     </g>
     <g id="text_9">
      <!-- 4000 -->
      <g transform="translate(741.364737 399.078438) scale(0.1 -0.1)">
       <defs>
        <path id="DejaVuSans-34" d="M 2419 4116 
L 825 1625 
L 2419 1625 
L 2419 4116 
z
M 2253 4666 
L 3047 4666 
L 3047 1625 
L 3713 1625 
L 3713 1100 
L 3047 1100 
L 3047 0 
L 2419 0 
L 2419 1100 
L 313 1100 
L 313 1709 
L 2253 4666 
z
" transform="scale(0.015625)"/>
       </defs>
       <use xlink:href="#DejaVuSans-34"/>
       <use xlink:href="#DejaVuSans-30" transform="translate(63.623047 0)"/>
       <use xlink:href="#DejaVuSans-30" transform="translate(127.246094 0)"/>
       <use xlink:href="#DejaVuSans-30" transform="translate(190.869141 0)"/>
      </g>
     </g>
    </g>
    <g id="text_10">
     <!-- Position in Text (Words) -->
     <g transform="translate(384.540625 412.756563) scale(0.1 -0.1)">
      <defs>
       <path id="DejaVuSans-50" d="M 1259 4147 
L 1259 2394 
L 2053 2394 
Q 2494 2394 2734 2622 
Q 2975 2850 2975 3272 
Q 2975 3691 2734 3919 
Q 2494 4147 2053 4147 
L 1259 4147 
z
M 628 4666 
L 2053 4666 
Q 2838 4666 3239 4311 
Q 3641 3956 3641 3272 
Q 3641 2581 3239 2228 
Q 2838 1875 2053 1875 
L 1259 1875 
L 1259 0 
L 628 0 
L 628 4666 
z
" transform="scale(0.015625)"/>
       <path id="DejaVuSans-6f" d="M 1959 3097 
Q 1497 3097 1228 2736 
Q 959 2375 959 1747 
Q 959 1119 1226 758 
Q 1494 397 1959 397 
Q 2419 397 2687 759 
Q 2956 1122 2956 1747 
Q 2956 2369 2687 2733 
Q 2419 3097 1959 3097 
z
M 1959 3584 
Q 2709 3584 3137 3096 
Q 3566 2609 3566 1747 
Q 3566 888 3137 398 
Q 2709 -91 1959 -91 
Q 1206 -91 779 398 
Q 353 888 353 1747 
Q 353 2609 779 3096 
Q 1206 3584 1959 3584 
z
" transform="scale(0.015625)"/>
       <path id="DejaVuSans-73" d="M 2834 3397 
L 2834 2853 
Q 2591 2978 2328 3040 
Q 2066 3103 1784 3103 
Q 1356 3103 1142 2972 
Q 928 2841 928 2578 
Q 928 2378 1081 2264 
Q 1234 2150 1697 2047 
L 1894 2003 
Q 2506 1872 2764 1633 
Q 3022 1394 3022 966 
Q 3022 478 2636 193 
Q 2250 -91 1575 -91 
Q 1294 -91 989 -36 
Q 684 19 347 128 
L 347 722 
Q 666 556 975 473 
Q 1284 391 1588 391 
Q 1994 391 2212 530 
Q 2431 669 2431 922 
Q 2431 1156 2273 1281 
Q 2116 1406 1581 1522 
L 1381 1569 
Q 847 1681 609 1914 
Q 372 2147 372 2553 
Q 372 3047 722 3315 
Q 1072 3584 1716 3584 
Q 2034 3584 2315 3537 
Q 2597 3491 2834 3397 
z
" transform="scale(0.015625)"/>
       <path id="DejaVuSans-69" d="M 603 3500 
L 1178 3500 
L 1178 0 
L 603 0 
L 603 3500 
z
M 603 4863 
L 1178 4863 
L 1178 4134 
L 603 4134 
L 603 4863 
z
" transform="scale(0.015625)"/>
       <path id="DejaVuSans-74" d="M 1172 4494 
L 1172 3500 
L 2356 3500 
L 2356 3053 
L 1172 3053 
L 1172 1153 
Q 1172 725 1289 603 
Q 1406 481 1766 481 
L 2356 481 
L 2356 0 
L 1766 0 
Q 1100 0 847 248 
Q 594 497 594 1153 
L 594 3053 
L 172 3053 
L 172 3500 
L 594 3500 
L 594 4494 
L 1172 4494 
z
" transform="scale(0.015625)"/>
       <path id="DejaVuSans-6e" d="M 3513 2113 
L 3513 0 
L 2938 0 
L 2938 2094 
Q 2938 2591 2744 2837 
Q 2550 3084 2163 3084 
Q 1697 3084 1428 2787 
Q 1159 2491 1159 1978 
L 1159 0 
L 581 0 
L 581 3500 
L 1159 3500 
L 1159 2956 
Q 1366 3272 1645 3428 
Q 1925 3584 2291 3584 
Q 2894 3584 3203 3211 
Q 3513 2838 3513 2113 
z
" transform="scale(0.015625)"/>
       <path id="DejaVuSans-20" transform="scale(0.015625)"/>
       <path id="DejaVuSans-54" d="M -19 4666 
L 3928 4666 
L 3928 4134 
L 2272 4134 
L 2272 0 
L 1638 0 
L 1638 4134 
L -19 4134 
L -19 4666 
z
" transform="scale(0.015625)"/>
       <path id="DejaVuSans-65" d="M 3597 1894 
L 3597 1613 
L 953 1613 
Q 991 1019 1311 708 
Q 1631 397 2203 397 
Q 2534 397 2845 478 
Q 3156 559 3463 722 
L 3463 178 
Q 3153 47 2828 -22 
Q 2503 -91 2169 -91 
Q 1331 -91 842 396 
Q 353 884 353 1716 
Q 353 2575 817 3079 
Q 1281 3584 2069 3584 
Q 2775 3584 3186 3129 
Q 3597 2675 3597 1894 
z
M 3022 2063 
Q 3016 2534 2758 2815 
Q 2500 3097 2075 3097 
Q 1594 3097 1305 2825 
Q 1016 2553 972 2059 
L 3022 2063 
z
" transform="scale(0.015625)"/>
       <path id="DejaVuSans-78" d="M 3513 3500 
L 2247 1797 
L 3578 0 
L 2900 0 
L 1881 1375 
L 863 0 
L 184 0 
L 1544 1831 
L 300 3500 
L 978 3500 
L 1906 2253 
L 2834 3500 
L 3513 3500 
z
" transform="scale(0.015625)"/>
       <path id="DejaVuSans-28" d="M 1984 4856 
Q 1566 4138 1362 3434 
Q 1159 2731 1159 2009 
Q 1159 1288 1364 580 
Q 1569 -128 1984 -844 
L 1484 -844 
Q 1016 -109 783 600 
Q 550 1309 550 2009 
Q 550 2706 781 3412 
Q 1013 4119 1484 4856 
L 1984 4856 
z
" transform="scale(0.015625)"/>
       <path id="DejaVuSans-57" d="M 213 4666 
L 850 4666 
L 1831 722 
L 2809 4666 
L 3519 4666 
L 4500 722 
L 5478 4666 
L 6119 4666 
L 4947 0 
L 4153 0 
L 3169 4050 
L 2175 0 
L 1381 0 
L 213 4666 
z
" transform="scale(0.015625)"/>
       <path id="DejaVuSans-72" d="M 2631 2963 
Q 2534 3019 2420 3045 
Q 2306 3072 2169 3072 
Q 1681 3072 1420 2755 
Q 1159 2438 1159 1844 
L 1159 0 
L 581 0 
L 581 3500 
L 1159 3500 
L 1159 2956 
Q 1341 3275 1631 3429 
Q 1922 3584 2338 3584 
Q 2397 3584 2469 3576 
Q 2541 3569 2628 3553 
L 2631 2963 
z
" transform="scale(0.015625)"/>
       <path id="DejaVuSans-64" d="M 2906 2969 
L 2906 4863 
L 3481 4863 
L 3481 0 
L 2906 0 
L 2906 525 
Q 2725 213 2448 61 
Q 2172 -91 1784 -91 
Q 1150 -91 751 415 
Q 353 922 353 1747 
Q 353 2572 751 3078 
Q 1150 3584 1784 3584 
Q 2172 3584 2448 3432 
Q 2725 3281 2906 2969 
z
M 947 1747 
Q 947 1113 1208 752 
Q 1469 391 1925 391 
Q 2381 391 2643 752 
Q 2906 1113 2906 1747 
Q 2906 2381 2643 2742 
Q 2381 3103 1925 3103 
Q 1469 3103 1208 2742 
Q 947 2381 947 1747 
z
" transform="scale(0.015625)"/>
       <path id="DejaVuSans-29" d="M 513 4856 
L 1013 4856 
Q 1481 4119 1714 3412 
Q 1947 2706 1947 2009 
Q 1947 1309 1714 600 
Q 1481 -109 1013 -844 
L 513 -844 
Q 928 -128 1133 580 
Q 1338 1288 1338 2009 
Q 1338 2731 1133 3434 
Q 928 4138 513 4856 
z
" transform="scale(0.015625)"/>
      </defs>
      <use xlink:href="#DejaVuSans-50"/>
      <use xlink:href="#DejaVuSans-6f" transform="translate(56.677734 0)"/>
      <use xlink:href="#DejaVuSans-73" transform="translate(117.859375 0)"/>
      <use xlink:href="#DejaVuSans-69" transform="translate(169.958984 0)"/>
      <use xlink:href="#DejaVuSans-74" transform="translate(197.742188 0)"/>
      <use xlink:href="#DejaVuSans-69" transform="translate(236.951172 0)"/>
      <use xlink:href="#DejaVuSans-6f" transform="translate(264.734375 0)"/>
      <use xlink:href="#DejaVuSans-6e" transform="translate(325.916016 0)"/>
      <use xlink:href="#DejaVuSans-20" transform="translate(389.294922 0)"/>
      <use xlink:href="#DejaVuSans-69" transform="translate(421.082031 0)"/>
      <use xlink:href="#DejaVuSans-6e" transform="translate(448.865234 0)"/>
      <use xlink:href="#DejaVuSans-20" transform="translate(512.244141 0)"/>
      <use xlink:href="#DejaVuSans-54" transform="translate(544.03125 0)"/>
      <use xlink:href="#DejaVuSans-65" transform="translate(588.115234 0)"/>
      <use xlink:href="#DejaVuSans-78" transform="translate(647.888672 0)"/>
      <use xlink:href="#DejaVuSans-74" transform="translate(707.068359 0)"/>
      <use xlink:href="#DejaVuSans-20" transform="translate(746.277344 0)"/>
      <use xlink:href="#DejaVuSans-28" transform="translate(778.064453 0)"/>
      <use xlink:href="#DejaVuSans-57" transform="translate(817.078125 0)"/>
      <use xlink:href="#DejaVuSans-6f" transform="translate(910.080078 0)"/>
      <use xlink:href="#DejaVuSans-72" transform="translate(971.261719 0)"/>
      <use xlink:href="#DejaVuSans-64" transform="translate(1010.625 0)"/>
      <use xlink:href="#DejaVuSans-73" transform="translate(1074.101562 0)"/>
      <use xlink:href="#DejaVuSans-29" transform="translate(1126.201172 0)"/>
     </g>
    </g>
   </g>
   <g id="matplotlib.axis_2">
    <g id="ytick_1">
     <g id="line2d_19">
      <path d="M 108 352.354817 
L 777.6 352.354817 
" clip-path="url(#pe53dbd270c)" style="fill: none; stroke: #b0b0b0; stroke-width: 0.8; stroke-linecap: square"/>
     </g>
     <g id="line2d_20">
      <defs>
       <path id="m770389df28" d="M 0 0 
L -3.5 0 
" style="stroke: #000000; stroke-width: 0.8"/>
      </defs>
      <g>
       <use xlink:href="#m770389df28" x="108" y="352.354817" style="stroke: #000000; stroke-width: 0.8"/>
      </g>
     </g>
     <g id="text_11">
      <!-- −0.3 -->
      <g transform="translate(76.717187 356.154035) scale(0.1 -0.1)">
       <defs>
        <path id="DejaVuSans-2212" d="M 678 2272 
L 4684 2272 
L 4684 1741 
L 678 1741 
L 678 2272 
z
" transform="scale(0.015625)"/>
        <path id="DejaVuSans-2e" d="M 684 794 
L 1344 794 
L 1344 0 
L 684 0 
L 684 794 
z
" transform="scale(0.015625)"/>
       </defs>
       <use xlink:href="#DejaVuSans-2212"/>
       <use xlink:href="#DejaVuSans-30" transform="translate(83.789062 0)"/>
       <use xlink:href="#DejaVuSans-2e" transform="translate(147.412109 0)"/>
       <use xlink:href="#DejaVuSans-33" transform="translate(179.199219 0)"/>
      </g>
     </g>
    </g>
    <g id="ytick_2">
     <g id="line2d_21">
      <path d="M 108 292.691636 
L 777.6 292.691636 
" clip-path="url(#pe53dbd270c)" style="fill: none; stroke: #b0b0b0; stroke-width: 0.8; stroke-linecap: square"/>
     </g>
     <g id="line2d_22">
      <g>
       <use xlink:href="#m770389df28" x="108" y="292.691636" style="stroke: #000000; stroke-width: 0.8"/>
      </g>
     </g>
     <g id="text_12">
      <!-- −0.2 -->
      <g transform="translate(76.717187 296.490855) scale(0.1 -0.1)">
       <use xlink:href="#DejaVuSans-2212"/>
       <use xlink:href="#DejaVuSans-30" transform="translate(83.789062 0)"/>
       <use xlink:href="#DejaVuSans-2e" transform="translate(147.412109 0)"/>
       <use xlink:href="#DejaVuSans-32" transform="translate(179.199219 0)"/>
      </g>
     </g>
    </g>
    <g id="ytick_3">
     <g id="line2d_23">
      <path d="M 108 233.028456 
L 777.6 233.028456 
" clip-path="url(#pe53dbd270c)" style="fill: none; stroke: #b0b0b0; stroke-width: 0.8; stroke-linecap: square"/>
     </g>
     <g id="line2d_24">
      <g>
       <use xlink:href="#m770389df28" x="108" y="233.028456" style="stroke: #000000; stroke-width: 0.8"/>
      </g>
     </g>
     <g id="text_13">
      <!-- −0.1 -->
      <g transform="translate(76.717187 236.827675) scale(0.1 -0.1)">
       <use xlink:href="#DejaVuSans-2212"/>
       <use xlink:href="#DejaVuSans-30" transform="translate(83.789062 0)"/>
       <use xlink:href="#DejaVuSans-2e" transform="translate(147.412109 0)"/>
       <use xlink:href="#DejaVuSans-31" transform="translate(179.199219 0)"/>
      </g>
     </g>
    </g>
    <g id="ytick_4">
     <g id="line2d_25">
      <path d="M 108 173.365276 
L 777.6 173.365276 
" clip-path="url(#pe53dbd270c)" style="fill: none; stroke: #b0b0b0; stroke-width: 0.8; stroke-linecap: square"/>
     </g>
     <g id="line2d_26">
      <g>
       <use xlink:href="#m770389df28" x="108" y="173.365276" style="stroke: #000000; stroke-width: 0.8"/>
      </g>
     </g>
     <g id="text_14">
      <!-- 0.0 -->
      <g transform="translate(85.096875 177.164495) scale(0.1 -0.1)">
       <use xlink:href="#DejaVuSans-30"/>
       <use xlink:href="#DejaVuSans-2e" transform="translate(63.623047 0)"/>
       <use xlink:href="#DejaVuSans-30" transform="translate(95.410156 0)"/>
      </g>
     </g>
    </g>
    <g id="ytick_5">
     <g id="line2d_27">
      <path d="M 108 113.702096 
L 777.6 113.702096 
" clip-path="url(#pe53dbd270c)" style="fill: none; stroke: #b0b0b0; stroke-width: 0.8; stroke-linecap: square"/>
     </g>
     <g id="line2d_28">
      <g>
       <use xlink:href="#m770389df28" x="108" y="113.702096" style="stroke: #000000; stroke-width: 0.8"/>
      </g>
     </g>
     <g id="text_15">
      <!-- 0.1 -->
      <g transform="translate(85.096875 117.501315) scale(0.1 -0.1)">
       <use xlink:href="#DejaVuSans-30"/>
       <use xlink:href="#DejaVuSans-2e" transform="translate(63.623047 0)"/>
       <use xlink:href="#DejaVuSans-31" transform="translate(95.410156 0)"/>
      </g>
     </g>
    </g>
    <g id="ytick_6">
     <g id="line2d_29">
      <path d="M 108 54.038916 
L 777.6 54.038916 
" clip-path="url(#pe53dbd270c)" style="fill: none; stroke: #b0b0b0; stroke-width: 0.8; stroke-linecap: square"/>
     </g>
     <g id="line2d_30">
      <g>
       <use xlink:href="#m770389df28" x="108" y="54.038916" style="stroke: #000000; stroke-width: 0.8"/>
      </g>
     </g>
     <g id="text_16">
      <!-- 0.2 -->
      <g transform="translate(85.096875 57.838135) scale(0.1 -0.1)">
       <use xlink:href="#DejaVuSans-30"/>
       <use xlink:href="#DejaVuSans-2e" transform="translate(63.623047 0)"/>
       <use xlink:href="#DejaVuSans-32" transform="translate(95.410156 0)"/>
      </g>
     </g>
    </g>
    <g id="text_17">
     <!-- Alignment with characteristic -->
     <g transform="translate(70.6375 291.5975) rotate(-90) scale(0.1 -0.1)">
      <defs>
       <path id="DejaVuSans-41" d="M 2188 4044 
L 1331 1722 
L 3047 1722 
L 2188 4044 
z
M 1831 4666 
L 2547 4666 
L 4325 0 
L 3669 0 
L 3244 1197 
L 1141 1197 
L 716 0 
L 50 0 
L 1831 4666 
z
" transform="scale(0.015625)"/>
       <path id="DejaVuSans-6c" d="M 603 4863 
L 1178 4863 
L 1178 0 
L 603 0 
L 603 4863 
z
" transform="scale(0.015625)"/>
       <path id="DejaVuSans-67" d="M 2906 1791 
Q 2906 2416 2648 2759 
Q 2391 3103 1925 3103 
Q 1463 3103 1205 2759 
Q 947 2416 947 1791 
Q 947 1169 1205 825 
Q 1463 481 1925 481 
Q 2391 481 2648 825 
Q 2906 1169 2906 1791 
z
M 3481 434 
Q 3481 -459 3084 -895 
Q 2688 -1331 1869 -1331 
Q 1566 -1331 1297 -1286 
Q 1028 -1241 775 -1147 
L 775 -588 
Q 1028 -725 1275 -790 
Q 1522 -856 1778 -856 
Q 2344 -856 2625 -561 
Q 2906 -266 2906 331 
L 2906 616 
Q 2728 306 2450 153 
Q 2172 0 1784 0 
Q 1141 0 747 490 
Q 353 981 353 1791 
Q 353 2603 747 3093 
Q 1141 3584 1784 3584 
Q 2172 3584 2450 3431 
Q 2728 3278 2906 2969 
L 2906 3500 
L 3481 3500 
L 3481 434 
z
" transform="scale(0.015625)"/>
       <path id="DejaVuSans-6d" d="M 3328 2828 
Q 3544 3216 3844 3400 
Q 4144 3584 4550 3584 
Q 5097 3584 5394 3201 
Q 5691 2819 5691 2113 
L 5691 0 
L 5113 0 
L 5113 2094 
Q 5113 2597 4934 2840 
Q 4756 3084 4391 3084 
Q 3944 3084 3684 2787 
Q 3425 2491 3425 1978 
L 3425 0 
L 2847 0 
L 2847 2094 
Q 2847 2600 2669 2842 
Q 2491 3084 2119 3084 
Q 1678 3084 1418 2786 
Q 1159 2488 1159 1978 
L 1159 0 
L 581 0 
L 581 3500 
L 1159 3500 
L 1159 2956 
Q 1356 3278 1631 3431 
Q 1906 3584 2284 3584 
Q 2666 3584 2933 3390 
Q 3200 3197 3328 2828 
z
" transform="scale(0.015625)"/>
       <path id="DejaVuSans-77" d="M 269 3500 
L 844 3500 
L 1563 769 
L 2278 3500 
L 2956 3500 
L 3675 769 
L 4391 3500 
L 4966 3500 
L 4050 0 
L 3372 0 
L 2619 2869 
L 1863 0 
L 1184 0 
L 269 3500 
z
" transform="scale(0.015625)"/>
       <path id="DejaVuSans-68" d="M 3513 2113 
L 3513 0 
L 2938 0 
L 2938 2094 
Q 2938 2591 2744 2837 
Q 2550 3084 2163 3084 
Q 1697 3084 1428 2787 
Q 1159 2491 1159 1978 
L 1159 0 
L 581 0 
L 581 4863 
L 1159 4863 
L 1159 2956 
Q 1366 3272 1645 3428 
Q 1925 3584 2291 3584 
Q 2894 3584 3203 3211 
Q 3513 2838 3513 2113 
z
" transform="scale(0.015625)"/>
       <path id="DejaVuSans-63" d="M 3122 3366 
L 3122 2828 
Q 2878 2963 2633 3030 
Q 2388 3097 2138 3097 
Q 1578 3097 1268 2742 
Q 959 2388 959 1747 
Q 959 1106 1268 751 
Q 1578 397 2138 397 
Q 2388 397 2633 464 
Q 2878 531 3122 666 
L 3122 134 
Q 2881 22 2623 -34 
Q 2366 -91 2075 -91 
Q 1284 -91 818 406 
Q 353 903 353 1747 
Q 353 2603 823 3093 
Q 1294 3584 2113 3584 
Q 2378 3584 2631 3529 
Q 2884 3475 3122 3366 
z
" transform="scale(0.015625)"/>
       <path id="DejaVuSans-61" d="M 2194 1759 
Q 1497 1759 1228 1600 
Q 959 1441 959 1056 
Q 959 750 1161 570 
Q 1363 391 1709 391 
Q 2188 391 2477 730 
Q 2766 1069 2766 1631 
L 2766 1759 
L 2194 1759 
z
M 3341 1997 
L 3341 0 
L 2766 0 
L 2766 531 
Q 2569 213 2275 61 
Q 1981 -91 1556 -91 
Q 1019 -91 701 211 
Q 384 513 384 1019 
Q 384 1609 779 1909 
Q 1175 2209 1959 2209 
L 2766 2209 
L 2766 2266 
Q 2766 2663 2505 2880 
Q 2244 3097 1772 3097 
Q 1472 3097 1187 3025 
Q 903 2953 641 2809 
L 641 3341 
Q 956 3463 1253 3523 
Q 1550 3584 1831 3584 
Q 2591 3584 2966 3190 
Q 3341 2797 3341 1997 
z
" transform="scale(0.015625)"/>
      </defs>
      <use xlink:href="#DejaVuSans-41"/>
      <use xlink:href="#DejaVuSans-6c" transform="translate(68.408203 0)"/>
      <use xlink:href="#DejaVuSans-69" transform="translate(96.191406 0)"/>
      <use xlink:href="#DejaVuSans-67" transform="translate(123.974609 0)"/>
      <use xlink:href="#DejaVuSans-6e" transform="translate(187.451172 0)"/>
      <use xlink:href="#DejaVuSans-6d" transform="translate(250.830078 0)"/>
      <use xlink:href="#DejaVuSans-65" transform="translate(348.242188 0)"/>
      <use xlink:href="#DejaVuSans-6e" transform="translate(409.765625 0)"/>
      <use xlink:href="#DejaVuSans-74" transform="translate(473.144531 0)"/>
      <use xlink:href="#DejaVuSans-20" transform="translate(512.353516 0)"/>
      <use xlink:href="#DejaVuSans-77" transform="translate(544.140625 0)"/>
      <use xlink:href="#DejaVuSans-69" transform="translate(625.927734 0)"/>
      <use xlink:href="#DejaVuSans-74" transform="translate(653.710938 0)"/>
      <use xlink:href="#DejaVuSans-68" transform="translate(692.919922 0)"/>
      <use xlink:href="#DejaVuSans-20" transform="translate(756.298828 0)"/>
      <use xlink:href="#DejaVuSans-63" transform="translate(788.085938 0)"/>
      <use xlink:href="#DejaVuSans-68" transform="translate(843.066406 0)"/>
      <use xlink:href="#DejaVuSans-61" transform="translate(906.445312 0)"/>
      <use xlink:href="#DejaVuSans-72" transform="translate(967.724609 0)"/>
      <use xlink:href="#DejaVuSans-61" transform="translate(1008.837891 0)"/>
      <use xlink:href="#DejaVuSans-63" transform="translate(1070.117188 0)"/>
      <use xlink:href="#DejaVuSans-74" transform="translate(1125.097656 0)"/>
      <use xlink:href="#DejaVuSans-65" transform="translate(1164.306641 0)"/>
      <use xlink:href="#DejaVuSans-72" transform="translate(1225.830078 0)"/>
      <use xlink:href="#DejaVuSans-69" transform="translate(1266.943359 0)"/>
      <use xlink:href="#DejaVuSans-73" transform="translate(1294.726562 0)"/>
      <use xlink:href="#DejaVuSans-74" transform="translate(1346.826172 0)"/>
      <use xlink:href="#DejaVuSans-69" transform="translate(1386.035156 0)"/>
      <use xlink:href="#DejaVuSans-63" transform="translate(1413.818359 0)"/>
     </g>
    </g>
   </g>
   <g id="line2d_31">
    <path d="M 138.436364 350.150323 
L 141.976371 345.67524 
L 156.290311 342.126504 
L 159.060752 329.165869 
L 159.830318 341.166959 
L 160.138145 327.878604 
L 160.599885 317.223724 
L 162.446845 323.596728 
L 164.447719 304.536929 
L 165.063372 279.56738 
L 167.218159 265.65269 
L 167.987726 275.974005 
L 169.988599 266.202449 
L 173.066866 264.708391 
L 173.990346 264.598225 
L 177.684266 254.321032 
L 179.531226 254.320234 
L 182.763407 243.50121 
L 183.532973 270.423903 
L 186.303413 269.467499 
L 188.4582 296.032908 
L 189.535594 299.477307 
L 191.536467 308.113037 
L 194.922561 361.077503 
L 196.461694 345.770189 
L 198.462568 353.444966 
L 199.232134 358.434126 
L 200.617354 369.36 
L 201.540834 352.877569 
L 210.467808 350.750619 
L 211.391288 353.432652 
L 212.468682 359.77214 
L 214.161729 347.341328 
L 216.008689 349.241767 
L 218.933042 342.587781 
L 220.780002 345.472069 
L 222.626962 332.422791 
L 226.936536 294.665042 
L 227.706103 300.589906 
L 228.475669 302.69645 
L 229.091323 298.546533 
L 229.86089 286.509392 
L 234.324377 286.370368 
L 235.093943 298.424529 
L 236.78699 289.119352 
L 242.020044 282.018545 
L 243.867004 284.641018 
L 247.560924 285.000676 
L 252.024411 275.302187 
L 254.794851 274.07343 
L 257.257465 274.038525 
L 257.411378 275.612485 
L 258.488771 281.679564 
L 263.260085 259.327028 
L 266.030525 248.890287 
L 267.261832 238.422473 
L 269.262705 225.949798 
L 270.494012 216.630455 
L 272.648799 224.782537 
L 274.187932 224.224353 
L 275.265326 213.951932 
L 277.881853 208.541499 
L 279.574899 211.023909 
L 280.806206 208.300518 
L 283.576646 209.206141 
L 285.57752 206.770525 
L 289.27144 201.123561 
L 291.887967 178.575494 
L 293.88884 184.188017 
L 297.736674 138.895867 
L 299.583634 160.070486 
L 301.122767 126.103578 
L 303.739294 106.203723 
L 305.124514 93.131849 
L 306.509735 83.880342 
L 307.894955 66.96 
L 308.818435 95.055632 
L 310.819308 94.068727 
L 311.588875 90.39392 
L 313.435835 98.402382 
L 314.667142 87.397621 
L 316.975842 91.510099 
L 319.284542 135.249861 
L 320.669762 147.146205 
L 322.516722 189.767035 
L 326.364556 206.783822 
L 328.673256 241.211489 
L 333.598483 262.188726 
L 336.67675 272.04381 
L 338.677623 288.613239 
L 340.37067 308.976189 
L 342.371544 275.57594 
L 343.448937 272.416535 
L 345.757637 259.306617 
L 348.528077 256.514477 
L 351.452431 265.723223 
L 355.300264 269.924403 
L 356.377658 249.328078 
L 357.916791 249.946569 
L 358.686358 262.677295 
L 362.380278 245.256462 
L 364.688978 251.790693 
L 365.458545 250.941322 
L 367.459418 249.122657 
L 373.154212 240.674103 
L 374.693346 229.632407 
L 375.770739 244.879206 
L 377.617699 245.782271 
L 379.464659 267.75352 
L 383.312493 254.755191 
L 384.5438 254.540077 
L 385.46728 259.009916 
L 386.544673 255.792598 
L 390.392507 231.782399 
L 392.39338 232.800063 
L 397.164694 228.334841 
L 399.627307 224.799053 
L 401.782094 218.519702 
L 402.551661 211.553518 
L 403.321227 207.380999 
L 410.401241 229.087396 
L 412.863855 220.510328 
L 414.095161 227.067736 
L 416.249948 173.54358 
L 419.020388 177.858752 
L 425.792576 188.864358 
L 427.947362 143.794942 
L 428.101276 170.093557 
L 429.486496 179.132175 
L 430.717803 157.441345 
L 431.949109 150.624236 
L 434.873463 150.660614 
L 437.643903 165.736506 
L 439.79869 200.276183 
L 441.337823 207.454644 
L 442.876957 196.640646 
L 444.723917 214.77197 
L 449.187404 212.013339 
L 452.419584 248.592797 
L 453.804804 256.334174 
L 455.343937 241.637768 
L 456.729158 277.822003 
L 458.730031 281.492824 
L 460.115251 287.989744 
L 463.501345 302.443676 
L 465.348305 319.352904 
L 467.810918 324.684897 
L 470.427445 317.849759 
L 471.504839 280.92648 
L 471.966579 277.776602 
L 474.890932 279.384939 
L 476.891806 279.692844 
L 478.738766 276.154014 
L 481.355292 289.727627 
L 483.510079 281.535346 
L 485.357039 291.062919 
L 489.820526 301.131332 
L 493.20662 282.524488 
L 494.745753 281.611775 
L 499.055327 268.86671 
L 501.97968 248.243197 
L 507.674474 244.719263 
L 510.598828 248.262644 
L 511.368394 265.860159 
L 516.293621 269.51976 
L 519.525802 272.338462 
L 525.682335 275.16303 
L 530.453649 273.746149 
L 531.069302 281.761855 
L 534.917136 287.944025 
L 536.918009 278.997625 
L 537.379749 283.483171 
L 537.995403 279.411148 
L 541.227583 286.399187 
L 542.151063 313.19431 
L 546.460637 333.457539 
L 547.691943 343.790384 
L 549.692817 332.077775 
L 550.616297 337.909026 
L 553.07891 324.93296 
L 555.079784 323.220344 
L 555.695437 337.867435 
L 558.004137 347.03667 
L 558.927618 336.541905 
L 561.698058 336.123119 
L 562.775451 331.370177 
L 564.468498 329.299148 
L 565.853718 331.096995 
L 567.238938 337.934685 
L 571.856338 331.833076 
L 575.088519 324.226209 
L 577.858959 312.965244 
L 578.782439 325.134869 
L 583.707666 336.28649 
L 586.016366 338.686688 
L 587.401586 347.211521 
L 590.941593 317.296813 
L 594.173773 314.828574 
L 596.174647 295.548896 
L 598.329433 297.570281 
L 601.253787 284.48336 
L 603.408574 290.473499 
L 606.794667 281.553959 
L 609.719021 270.288795 
L 616.491208 270.256683 
L 620.800782 263.451847 
L 622.339915 250.747427 
L 624.494702 240.092461 
L 626.495575 241.699745 
L 628.958189 220.967389 
L 632.498196 218.633001 
L 636.192116 220.347672 
L 639.424296 235.840428 
L 641.271256 229.570692 
L 644.19561 225.211733 
L 645.273003 228.136463 
L 646.196483 223.739768 
L 648.35127 205.330143 
L 650.65997 195.304243 
L 652.814757 168.689402 
L 658.663464 163.458051 
L 659.740857 170.674058 
L 663.434778 180.123892 
L 665.435651 174.48526 
L 667.436525 197.371919 
L 668.206091 233.713986 
L 669.437398 238.682833 
L 675.440018 227.495875 
L 675.901758 232.117605 
L 678.364372 253.94386 
L 683.597426 263.367967 
L 686.829606 271.769792 
L 687.906999 289.14578 
L 692.062659 298.707896 
L 693.90962 302.17973 
L 697.449626 296.740008 
L 698.834847 287.812247 
L 702.374853 270.263547 
L 704.99138 275.027086 
L 708.377474 247.683233 
L 714.226181 206.114909 
L 714.841834 198.919514 
L 714.995748 189.694463 
L 715.149661 192.794293 
L 716.227054 178.319842 
L 716.534881 185.410852 
L 717.766188 186.154263 
L 718.381841 197.378275 
L 718.535755 193.097154 
L 718.689668 193.80058 
L 719.459235 202.079346 
L 720.074888 200.116669 
L 720.536628 204.625651 
L 720.690541 210.010322 
L 720.844455 205.289881 
L 721.614021 203.769591 
L 722.075761 195.005182 
L 723.460981 213.160834 
L 724.384462 219.811609 
L 724.538375 213.818288 
L 725.307942 200.21346 
L 726.231422 202.801622 
L 728.540122 194.549018 
L 728.694035 206.609708 
L 729.155775 204.447518 
L 729.463602 228.428674 
L 730.387082 230.559353 
L 731.002735 234.904463 
L 731.464475 242.286182 
L 731.618389 255.341559 
L 731.772302 287.830208 
L 733.927089 278.641003 
L 734.081002 284.893772 
L 734.850569 299.076321 
L 735.620136 291.408278 
L 735.774049 282.73071 
L 736.235789 267.149082 
L 736.389702 280.165963 
L 738.082749 271.124217 
L 738.544489 269.461483 
L 739.621883 267.282098 
L 741.776669 259.482627 
L 742.238409 268.906104 
L 742.546236 260.817179 
L 743.623629 236.926283 
L 743.777543 227.130246 
L 744.854936 229.921797 
L 745.316676 221.565962 
L 745.778416 219.467024 
L 745.93233 219.673808 
L 746.086243 234.908277 
L 746.701896 233.835764 
L 747.163636 233.579125 
L 747.163636 233.579125 
" clip-path="url(#pe53dbd270c)" style="fill: none; stroke: #5c3e99; stroke-width: 1.5; stroke-linecap: square"/>
    <defs>
     <path id="m3db6a3fd01" d="M 0 3 
C 0.795609 3 1.55874 2.683901 2.12132 2.12132 
C 2.683901 1.55874 3 0.795609 3 0 
C 3 -0.795609 2.683901 -1.55874 2.12132 -2.12132 
C 1.55874 -2.683901 0.795609 -3 0 -3 
C -0.795609 -3 -1.55874 -2.683901 -2.12132 -2.12132 
C -2.683901 -1.55874 -3 -0.795609 -3 0 
C -3 0.795609 -2.683901 1.55874 -2.12132 2.12132 
C -1.55874 2.683901 -0.795609 3 0 3 
z
" style="stroke: #5c3e99"/>
    </defs>
    <g clip-path="url(#pe53dbd270c)">
     <use xlink:href="#m3db6a3fd01" x="138.436364" y="350.150323" style="fill: #5c3e99; stroke: #5c3e99"/>
     <use xlink:href="#m3db6a3fd01" x="141.976371" y="345.67524" style="fill: #5c3e99; stroke: #5c3e99"/>
     <use xlink:href="#m3db6a3fd01" x="156.290311" y="342.126504" style="fill: #5c3e99; stroke: #5c3e99"/>
     <use xlink:href="#m3db6a3fd01" x="159.060752" y="329.165869" style="fill: #5c3e99; stroke: #5c3e99"/>
     <use xlink:href="#m3db6a3fd01" x="159.830318" y="341.166959" style="fill: #5c3e99; stroke: #5c3e99"/>
     <use xlink:href="#m3db6a3fd01" x="160.138145" y="327.878604" style="fill: #5c3e99; stroke: #5c3e99"/>
     <use xlink:href="#m3db6a3fd01" x="160.599885" y="317.223724" style="fill: #5c3e99; stroke: #5c3e99"/>
     <use xlink:href="#m3db6a3fd01" x="162.446845" y="323.596728" style="fill: #5c3e99; stroke: #5c3e99"/>
     <use xlink:href="#m3db6a3fd01" x="164.447719" y="304.536929" style="fill: #5c3e99; stroke: #5c3e99"/>
     <use xlink:href="#m3db6a3fd01" x="165.063372" y="279.56738" style="fill: #5c3e99; stroke: #5c3e99"/>
     <use xlink:href="#m3db6a3fd01" x="167.218159" y="265.65269" style="fill: #5c3e99; stroke: #5c3e99"/>
     <use xlink:href="#m3db6a3fd01" x="167.987726" y="275.974005" style="fill: #5c3e99; stroke: #5c3e99"/>
     <use xlink:href="#m3db6a3fd01" x="169.988599" y="266.202449" style="fill: #5c3e99; stroke: #5c3e99"/>
     <use xlink:href="#m3db6a3fd01" x="173.066866" y="264.708391" style="fill: #5c3e99; stroke: #5c3e99"/>
     <use xlink:href="#m3db6a3fd01" x="173.990346" y="264.598225" style="fill: #5c3e99; stroke: #5c3e99"/>
     <use xlink:href="#m3db6a3fd01" x="177.684266" y="254.321032" style="fill: #5c3e99; stroke: #5c3e99"/>
     <use xlink:href="#m3db6a3fd01" x="179.531226" y="254.320234" style="fill: #5c3e99; stroke: #5c3e99"/>
     <use xlink:href="#m3db6a3fd01" x="182.763407" y="243.50121" style="fill: #5c3e99; stroke: #5c3e99"/>
     <use xlink:href="#m3db6a3fd01" x="183.532973" y="270.423903" style="fill: #5c3e99; stroke: #5c3e99"/>
     <use xlink:href="#m3db6a3fd01" x="186.303413" y="269.467499" style="fill: #5c3e99; stroke: #5c3e99"/>
     <use xlink:href="#m3db6a3fd01" x="188.4582" y="296.032908" style="fill: #5c3e99; stroke: #5c3e99"/>
     <use xlink:href="#m3db6a3fd01" x="189.535594" y="299.477307" style="fill: #5c3e99; stroke: #5c3e99"/>
     <use xlink:href="#m3db6a3fd01" x="191.536467" y="308.113037" style="fill: #5c3e99; stroke: #5c3e99"/>
     <use xlink:href="#m3db6a3fd01" x="193.691254" y="341.800743" style="fill: #5c3e99; stroke: #5c3e99"/>
     <use xlink:href="#m3db6a3fd01" x="194.922561" y="361.077503" style="fill: #5c3e99; stroke: #5c3e99"/>
     <use xlink:href="#m3db6a3fd01" x="196.461694" y="345.770189" style="fill: #5c3e99; stroke: #5c3e99"/>
     <use xlink:href="#m3db6a3fd01" x="198.462568" y="353.444966" style="fill: #5c3e99; stroke: #5c3e99"/>
     <use xlink:href="#m3db6a3fd01" x="199.232134" y="358.434126" style="fill: #5c3e99; stroke: #5c3e99"/>
     <use xlink:href="#m3db6a3fd01" x="200.617354" y="369.36" style="fill: #5c3e99; stroke: #5c3e99"/>
     <use xlink:href="#m3db6a3fd01" x="201.540834" y="352.877569" style="fill: #5c3e99; stroke: #5c3e99"/>
     <use xlink:href="#m3db6a3fd01" x="210.467808" y="350.750619" style="fill: #5c3e99; stroke: #5c3e99"/>
     <use xlink:href="#m3db6a3fd01" x="211.391288" y="353.432652" style="fill: #5c3e99; stroke: #5c3e99"/>
     <use xlink:href="#m3db6a3fd01" x="212.468682" y="359.77214" style="fill: #5c3e99; stroke: #5c3e99"/>
     <use xlink:href="#m3db6a3fd01" x="214.161729" y="347.341328" style="fill: #5c3e99; stroke: #5c3e99"/>
     <use xlink:href="#m3db6a3fd01" x="216.008689" y="349.241767" style="fill: #5c3e99; stroke: #5c3e99"/>
     <use xlink:href="#m3db6a3fd01" x="218.933042" y="342.587781" style="fill: #5c3e99; stroke: #5c3e99"/>
     <use xlink:href="#m3db6a3fd01" x="220.780002" y="345.472069" style="fill: #5c3e99; stroke: #5c3e99"/>
     <use xlink:href="#m3db6a3fd01" x="222.626962" y="332.422791" style="fill: #5c3e99; stroke: #5c3e99"/>
     <use xlink:href="#m3db6a3fd01" x="226.936536" y="294.665042" style="fill: #5c3e99; stroke: #5c3e99"/>
     <use xlink:href="#m3db6a3fd01" x="227.706103" y="300.589906" style="fill: #5c3e99; stroke: #5c3e99"/>
     <use xlink:href="#m3db6a3fd01" x="228.475669" y="302.69645" style="fill: #5c3e99; stroke: #5c3e99"/>
     <use xlink:href="#m3db6a3fd01" x="229.091323" y="298.546533" style="fill: #5c3e99; stroke: #5c3e99"/>
     <use xlink:href="#m3db6a3fd01" x="229.86089" y="286.509392" style="fill: #5c3e99; stroke: #5c3e99"/>
     <use xlink:href="#m3db6a3fd01" x="234.324377" y="286.370368" style="fill: #5c3e99; stroke: #5c3e99"/>
     <use xlink:href="#m3db6a3fd01" x="235.093943" y="298.424529" style="fill: #5c3e99; stroke: #5c3e99"/>
     <use xlink:href="#m3db6a3fd01" x="236.78699" y="289.119352" style="fill: #5c3e99; stroke: #5c3e99"/>
     <use xlink:href="#m3db6a3fd01" x="242.020044" y="282.018545" style="fill: #5c3e99; stroke: #5c3e99"/>
     <use xlink:href="#m3db6a3fd01" x="243.867004" y="284.641018" style="fill: #5c3e99; stroke: #5c3e99"/>
     <use xlink:href="#m3db6a3fd01" x="247.560924" y="285.000676" style="fill: #5c3e99; stroke: #5c3e99"/>
     <use xlink:href="#m3db6a3fd01" x="252.024411" y="275.302187" style="fill: #5c3e99; stroke: #5c3e99"/>
     <use xlink:href="#m3db6a3fd01" x="254.794851" y="274.07343" style="fill: #5c3e99; stroke: #5c3e99"/>
     <use xlink:href="#m3db6a3fd01" x="257.257465" y="274.038525" style="fill: #5c3e99; stroke: #5c3e99"/>
     <use xlink:href="#m3db6a3fd01" x="257.411378" y="275.612485" style="fill: #5c3e99; stroke: #5c3e99"/>
     <use xlink:href="#m3db6a3fd01" x="258.488771" y="281.679564" style="fill: #5c3e99; stroke: #5c3e99"/>
     <use xlink:href="#m3db6a3fd01" x="260.951385" y="270.189717" style="fill: #5c3e99; stroke: #5c3e99"/>
     <use xlink:href="#m3db6a3fd01" x="263.260085" y="259.327028" style="fill: #5c3e99; stroke: #5c3e99"/>
     <use xlink:href="#m3db6a3fd01" x="266.030525" y="248.890287" style="fill: #5c3e99; stroke: #5c3e99"/>
     <use xlink:href="#m3db6a3fd01" x="267.261832" y="238.422473" style="fill: #5c3e99; stroke: #5c3e99"/>
     <use xlink:href="#m3db6a3fd01" x="269.262705" y="225.949798" style="fill: #5c3e99; stroke: #5c3e99"/>
     <use xlink:href="#m3db6a3fd01" x="270.494012" y="216.630455" style="fill: #5c3e99; stroke: #5c3e99"/>
     <use xlink:href="#m3db6a3fd01" x="272.648799" y="224.782537" style="fill: #5c3e99; stroke: #5c3e99"/>
     <use xlink:href="#m3db6a3fd01" x="274.187932" y="224.224353" style="fill: #5c3e99; stroke: #5c3e99"/>
     <use xlink:href="#m3db6a3fd01" x="275.265326" y="213.951932" style="fill: #5c3e99; stroke: #5c3e99"/>
     <use xlink:href="#m3db6a3fd01" x="277.881853" y="208.541499" style="fill: #5c3e99; stroke: #5c3e99"/>
     <use xlink:href="#m3db6a3fd01" x="279.574899" y="211.023909" style="fill: #5c3e99; stroke: #5c3e99"/>
     <use xlink:href="#m3db6a3fd01" x="280.806206" y="208.300518" style="fill: #5c3e99; stroke: #5c3e99"/>
     <use xlink:href="#m3db6a3fd01" x="283.576646" y="209.206141" style="fill: #5c3e99; stroke: #5c3e99"/>
     <use xlink:href="#m3db6a3fd01" x="285.57752" y="206.770525" style="fill: #5c3e99; stroke: #5c3e99"/>
     <use xlink:href="#m3db6a3fd01" x="289.27144" y="201.123561" style="fill: #5c3e99; stroke: #5c3e99"/>
     <use xlink:href="#m3db6a3fd01" x="291.887967" y="178.575494" style="fill: #5c3e99; stroke: #5c3e99"/>
     <use xlink:href="#m3db6a3fd01" x="293.88884" y="184.188017" style="fill: #5c3e99; stroke: #5c3e99"/>
     <use xlink:href="#m3db6a3fd01" x="297.736674" y="138.895867" style="fill: #5c3e99; stroke: #5c3e99"/>
     <use xlink:href="#m3db6a3fd01" x="299.583634" y="160.070486" style="fill: #5c3e99; stroke: #5c3e99"/>
     <use xlink:href="#m3db6a3fd01" x="301.122767" y="126.103578" style="fill: #5c3e99; stroke: #5c3e99"/>
     <use xlink:href="#m3db6a3fd01" x="303.739294" y="106.203723" style="fill: #5c3e99; stroke: #5c3e99"/>
     <use xlink:href="#m3db6a3fd01" x="305.124514" y="93.131849" style="fill: #5c3e99; stroke: #5c3e99"/>
     <use xlink:href="#m3db6a3fd01" x="306.509735" y="83.880342" style="fill: #5c3e99; stroke: #5c3e99"/>
     <use xlink:href="#m3db6a3fd01" x="307.894955" y="66.96" style="fill: #5c3e99; stroke: #5c3e99"/>
     <use xlink:href="#m3db6a3fd01" x="308.818435" y="95.055632" style="fill: #5c3e99; stroke: #5c3e99"/>
     <use xlink:href="#m3db6a3fd01" x="310.819308" y="94.068727" style="fill: #5c3e99; stroke: #5c3e99"/>
     <use xlink:href="#m3db6a3fd01" x="311.588875" y="90.39392" style="fill: #5c3e99; stroke: #5c3e99"/>
     <use xlink:href="#m3db6a3fd01" x="313.435835" y="98.402382" style="fill: #5c3e99; stroke: #5c3e99"/>
     <use xlink:href="#m3db6a3fd01" x="314.667142" y="87.397621" style="fill: #5c3e99; stroke: #5c3e99"/>
     <use xlink:href="#m3db6a3fd01" x="316.975842" y="91.510099" style="fill: #5c3e99; stroke: #5c3e99"/>
     <use xlink:href="#m3db6a3fd01" x="319.284542" y="135.249861" style="fill: #5c3e99; stroke: #5c3e99"/>
     <use xlink:href="#m3db6a3fd01" x="320.669762" y="147.146205" style="fill: #5c3e99; stroke: #5c3e99"/>
     <use xlink:href="#m3db6a3fd01" x="322.516722" y="189.767035" style="fill: #5c3e99; stroke: #5c3e99"/>
     <use xlink:href="#m3db6a3fd01" x="326.364556" y="206.783822" style="fill: #5c3e99; stroke: #5c3e99"/>
     <use xlink:href="#m3db6a3fd01" x="328.673256" y="241.211489" style="fill: #5c3e99; stroke: #5c3e99"/>
     <use xlink:href="#m3db6a3fd01" x="333.598483" y="262.188726" style="fill: #5c3e99; stroke: #5c3e99"/>
     <use xlink:href="#m3db6a3fd01" x="336.67675" y="272.04381" style="fill: #5c3e99; stroke: #5c3e99"/>
     <use xlink:href="#m3db6a3fd01" x="338.677623" y="288.613239" style="fill: #5c3e99; stroke: #5c3e99"/>
     <use xlink:href="#m3db6a3fd01" x="340.37067" y="308.976189" style="fill: #5c3e99; stroke: #5c3e99"/>
     <use xlink:href="#m3db6a3fd01" x="342.371544" y="275.57594" style="fill: #5c3e99; stroke: #5c3e99"/>
     <use xlink:href="#m3db6a3fd01" x="343.448937" y="272.416535" style="fill: #5c3e99; stroke: #5c3e99"/>
     <use xlink:href="#m3db6a3fd01" x="345.757637" y="259.306617" style="fill: #5c3e99; stroke: #5c3e99"/>
     <use xlink:href="#m3db6a3fd01" x="348.528077" y="256.514477" style="fill: #5c3e99; stroke: #5c3e99"/>
     <use xlink:href="#m3db6a3fd01" x="351.452431" y="265.723223" style="fill: #5c3e99; stroke: #5c3e99"/>
     <use xlink:href="#m3db6a3fd01" x="355.300264" y="269.924403" style="fill: #5c3e99; stroke: #5c3e99"/>
     <use xlink:href="#m3db6a3fd01" x="356.377658" y="249.328078" style="fill: #5c3e99; stroke: #5c3e99"/>
     <use xlink:href="#m3db6a3fd01" x="357.916791" y="249.946569" style="fill: #5c3e99; stroke: #5c3e99"/>
     <use xlink:href="#m3db6a3fd01" x="358.686358" y="262.677295" style="fill: #5c3e99; stroke: #5c3e99"/>
     <use xlink:href="#m3db6a3fd01" x="362.380278" y="245.256462" style="fill: #5c3e99; stroke: #5c3e99"/>
     <use xlink:href="#m3db6a3fd01" x="364.688978" y="251.790693" style="fill: #5c3e99; stroke: #5c3e99"/>
     <use xlink:href="#m3db6a3fd01" x="365.458545" y="250.941322" style="fill: #5c3e99; stroke: #5c3e99"/>
     <use xlink:href="#m3db6a3fd01" x="367.459418" y="249.122657" style="fill: #5c3e99; stroke: #5c3e99"/>
     <use xlink:href="#m3db6a3fd01" x="373.154212" y="240.674103" style="fill: #5c3e99; stroke: #5c3e99"/>
     <use xlink:href="#m3db6a3fd01" x="374.693346" y="229.632407" style="fill: #5c3e99; stroke: #5c3e99"/>
     <use xlink:href="#m3db6a3fd01" x="375.770739" y="244.879206" style="fill: #5c3e99; stroke: #5c3e99"/>
     <use xlink:href="#m3db6a3fd01" x="377.617699" y="245.782271" style="fill: #5c3e99; stroke: #5c3e99"/>
     <use xlink:href="#m3db6a3fd01" x="379.464659" y="267.75352" style="fill: #5c3e99; stroke: #5c3e99"/>
     <use xlink:href="#m3db6a3fd01" x="383.312493" y="254.755191" style="fill: #5c3e99; stroke: #5c3e99"/>
     <use xlink:href="#m3db6a3fd01" x="384.5438" y="254.540077" style="fill: #5c3e99; stroke: #5c3e99"/>
     <use xlink:href="#m3db6a3fd01" x="385.46728" y="259.009916" style="fill: #5c3e99; stroke: #5c3e99"/>
     <use xlink:href="#m3db6a3fd01" x="386.544673" y="255.792598" style="fill: #5c3e99; stroke: #5c3e99"/>
     <use xlink:href="#m3db6a3fd01" x="390.392507" y="231.782399" style="fill: #5c3e99; stroke: #5c3e99"/>
     <use xlink:href="#m3db6a3fd01" x="392.39338" y="232.800063" style="fill: #5c3e99; stroke: #5c3e99"/>
     <use xlink:href="#m3db6a3fd01" x="397.164694" y="228.334841" style="fill: #5c3e99; stroke: #5c3e99"/>
     <use xlink:href="#m3db6a3fd01" x="399.627307" y="224.799053" style="fill: #5c3e99; stroke: #5c3e99"/>
     <use xlink:href="#m3db6a3fd01" x="401.782094" y="218.519702" style="fill: #5c3e99; stroke: #5c3e99"/>
     <use xlink:href="#m3db6a3fd01" x="402.551661" y="211.553518" style="fill: #5c3e99; stroke: #5c3e99"/>
     <use xlink:href="#m3db6a3fd01" x="403.321227" y="207.380999" style="fill: #5c3e99; stroke: #5c3e99"/>
     <use xlink:href="#m3db6a3fd01" x="410.401241" y="229.087396" style="fill: #5c3e99; stroke: #5c3e99"/>
     <use xlink:href="#m3db6a3fd01" x="412.863855" y="220.510328" style="fill: #5c3e99; stroke: #5c3e99"/>
     <use xlink:href="#m3db6a3fd01" x="414.095161" y="227.067736" style="fill: #5c3e99; stroke: #5c3e99"/>
     <use xlink:href="#m3db6a3fd01" x="416.249948" y="173.54358" style="fill: #5c3e99; stroke: #5c3e99"/>
     <use xlink:href="#m3db6a3fd01" x="419.020388" y="177.858752" style="fill: #5c3e99; stroke: #5c3e99"/>
     <use xlink:href="#m3db6a3fd01" x="425.792576" y="188.864358" style="fill: #5c3e99; stroke: #5c3e99"/>
     <use xlink:href="#m3db6a3fd01" x="427.947362" y="143.794942" style="fill: #5c3e99; stroke: #5c3e99"/>
     <use xlink:href="#m3db6a3fd01" x="428.101276" y="170.093557" style="fill: #5c3e99; stroke: #5c3e99"/>
     <use xlink:href="#m3db6a3fd01" x="429.486496" y="179.132175" style="fill: #5c3e99; stroke: #5c3e99"/>
     <use xlink:href="#m3db6a3fd01" x="430.717803" y="157.441345" style="fill: #5c3e99; stroke: #5c3e99"/>
     <use xlink:href="#m3db6a3fd01" x="431.949109" y="150.624236" style="fill: #5c3e99; stroke: #5c3e99"/>
     <use xlink:href="#m3db6a3fd01" x="434.873463" y="150.660614" style="fill: #5c3e99; stroke: #5c3e99"/>
     <use xlink:href="#m3db6a3fd01" x="437.643903" y="165.736506" style="fill: #5c3e99; stroke: #5c3e99"/>
     <use xlink:href="#m3db6a3fd01" x="439.79869" y="200.276183" style="fill: #5c3e99; stroke: #5c3e99"/>
     <use xlink:href="#m3db6a3fd01" x="441.337823" y="207.454644" style="fill: #5c3e99; stroke: #5c3e99"/>
     <use xlink:href="#m3db6a3fd01" x="442.876957" y="196.640646" style="fill: #5c3e99; stroke: #5c3e99"/>
     <use xlink:href="#m3db6a3fd01" x="444.723917" y="214.77197" style="fill: #5c3e99; stroke: #5c3e99"/>
     <use xlink:href="#m3db6a3fd01" x="449.187404" y="212.013339" style="fill: #5c3e99; stroke: #5c3e99"/>
     <use xlink:href="#m3db6a3fd01" x="452.419584" y="248.592797" style="fill: #5c3e99; stroke: #5c3e99"/>
     <use xlink:href="#m3db6a3fd01" x="453.804804" y="256.334174" style="fill: #5c3e99; stroke: #5c3e99"/>
     <use xlink:href="#m3db6a3fd01" x="455.343937" y="241.637768" style="fill: #5c3e99; stroke: #5c3e99"/>
     <use xlink:href="#m3db6a3fd01" x="456.729158" y="277.822003" style="fill: #5c3e99; stroke: #5c3e99"/>
     <use xlink:href="#m3db6a3fd01" x="458.730031" y="281.492824" style="fill: #5c3e99; stroke: #5c3e99"/>
     <use xlink:href="#m3db6a3fd01" x="460.115251" y="287.989744" style="fill: #5c3e99; stroke: #5c3e99"/>
     <use xlink:href="#m3db6a3fd01" x="463.501345" y="302.443676" style="fill: #5c3e99; stroke: #5c3e99"/>
     <use xlink:href="#m3db6a3fd01" x="465.348305" y="319.352904" style="fill: #5c3e99; stroke: #5c3e99"/>
     <use xlink:href="#m3db6a3fd01" x="467.810918" y="324.684897" style="fill: #5c3e99; stroke: #5c3e99"/>
     <use xlink:href="#m3db6a3fd01" x="470.427445" y="317.849759" style="fill: #5c3e99; stroke: #5c3e99"/>
     <use xlink:href="#m3db6a3fd01" x="471.504839" y="280.92648" style="fill: #5c3e99; stroke: #5c3e99"/>
     <use xlink:href="#m3db6a3fd01" x="471.966579" y="277.776602" style="fill: #5c3e99; stroke: #5c3e99"/>
     <use xlink:href="#m3db6a3fd01" x="474.890932" y="279.384939" style="fill: #5c3e99; stroke: #5c3e99"/>
     <use xlink:href="#m3db6a3fd01" x="476.891806" y="279.692844" style="fill: #5c3e99; stroke: #5c3e99"/>
     <use xlink:href="#m3db6a3fd01" x="478.738766" y="276.154014" style="fill: #5c3e99; stroke: #5c3e99"/>
     <use xlink:href="#m3db6a3fd01" x="481.355292" y="289.727627" style="fill: #5c3e99; stroke: #5c3e99"/>
     <use xlink:href="#m3db6a3fd01" x="483.510079" y="281.535346" style="fill: #5c3e99; stroke: #5c3e99"/>
     <use xlink:href="#m3db6a3fd01" x="485.357039" y="291.062919" style="fill: #5c3e99; stroke: #5c3e99"/>
     <use xlink:href="#m3db6a3fd01" x="489.820526" y="301.131332" style="fill: #5c3e99; stroke: #5c3e99"/>
     <use xlink:href="#m3db6a3fd01" x="493.20662" y="282.524488" style="fill: #5c3e99; stroke: #5c3e99"/>
     <use xlink:href="#m3db6a3fd01" x="494.745753" y="281.611775" style="fill: #5c3e99; stroke: #5c3e99"/>
     <use xlink:href="#m3db6a3fd01" x="499.055327" y="268.86671" style="fill: #5c3e99; stroke: #5c3e99"/>
     <use xlink:href="#m3db6a3fd01" x="501.97968" y="248.243197" style="fill: #5c3e99; stroke: #5c3e99"/>
     <use xlink:href="#m3db6a3fd01" x="507.674474" y="244.719263" style="fill: #5c3e99; stroke: #5c3e99"/>
     <use xlink:href="#m3db6a3fd01" x="510.598828" y="248.262644" style="fill: #5c3e99; stroke: #5c3e99"/>
     <use xlink:href="#m3db6a3fd01" x="511.368394" y="265.860159" style="fill: #5c3e99; stroke: #5c3e99"/>
     <use xlink:href="#m3db6a3fd01" x="516.293621" y="269.51976" style="fill: #5c3e99; stroke: #5c3e99"/>
     <use xlink:href="#m3db6a3fd01" x="519.525802" y="272.338462" style="fill: #5c3e99; stroke: #5c3e99"/>
     <use xlink:href="#m3db6a3fd01" x="523.527549" y="274.108844" style="fill: #5c3e99; stroke: #5c3e99"/>
     <use xlink:href="#m3db6a3fd01" x="525.682335" y="275.16303" style="fill: #5c3e99; stroke: #5c3e99"/>
     <use xlink:href="#m3db6a3fd01" x="530.453649" y="273.746149" style="fill: #5c3e99; stroke: #5c3e99"/>
     <use xlink:href="#m3db6a3fd01" x="531.069302" y="281.761855" style="fill: #5c3e99; stroke: #5c3e99"/>
     <use xlink:href="#m3db6a3fd01" x="534.917136" y="287.944025" style="fill: #5c3e99; stroke: #5c3e99"/>
     <use xlink:href="#m3db6a3fd01" x="536.918009" y="278.997625" style="fill: #5c3e99; stroke: #5c3e99"/>
     <use xlink:href="#m3db6a3fd01" x="537.379749" y="283.483171" style="fill: #5c3e99; stroke: #5c3e99"/>
     <use xlink:href="#m3db6a3fd01" x="537.995403" y="279.411148" style="fill: #5c3e99; stroke: #5c3e99"/>
     <use xlink:href="#m3db6a3fd01" x="541.227583" y="286.399187" style="fill: #5c3e99; stroke: #5c3e99"/>
     <use xlink:href="#m3db6a3fd01" x="542.151063" y="313.19431" style="fill: #5c3e99; stroke: #5c3e99"/>
     <use xlink:href="#m3db6a3fd01" x="546.460637" y="333.457539" style="fill: #5c3e99; stroke: #5c3e99"/>
     <use xlink:href="#m3db6a3fd01" x="547.691943" y="343.790384" style="fill: #5c3e99; stroke: #5c3e99"/>
     <use xlink:href="#m3db6a3fd01" x="549.692817" y="332.077775" style="fill: #5c3e99; stroke: #5c3e99"/>
     <use xlink:href="#m3db6a3fd01" x="550.616297" y="337.909026" style="fill: #5c3e99; stroke: #5c3e99"/>
     <use xlink:href="#m3db6a3fd01" x="553.07891" y="324.93296" style="fill: #5c3e99; stroke: #5c3e99"/>
     <use xlink:href="#m3db6a3fd01" x="555.079784" y="323.220344" style="fill: #5c3e99; stroke: #5c3e99"/>
     <use xlink:href="#m3db6a3fd01" x="555.695437" y="337.867435" style="fill: #5c3e99; stroke: #5c3e99"/>
     <use xlink:href="#m3db6a3fd01" x="558.004137" y="347.03667" style="fill: #5c3e99; stroke: #5c3e99"/>
     <use xlink:href="#m3db6a3fd01" x="558.927618" y="336.541905" style="fill: #5c3e99; stroke: #5c3e99"/>
     <use xlink:href="#m3db6a3fd01" x="561.698058" y="336.123119" style="fill: #5c3e99; stroke: #5c3e99"/>
     <use xlink:href="#m3db6a3fd01" x="562.775451" y="331.370177" style="fill: #5c3e99; stroke: #5c3e99"/>
     <use xlink:href="#m3db6a3fd01" x="564.468498" y="329.299148" style="fill: #5c3e99; stroke: #5c3e99"/>
     <use xlink:href="#m3db6a3fd01" x="565.853718" y="331.096995" style="fill: #5c3e99; stroke: #5c3e99"/>
     <use xlink:href="#m3db6a3fd01" x="567.238938" y="337.934685" style="fill: #5c3e99; stroke: #5c3e99"/>
     <use xlink:href="#m3db6a3fd01" x="571.856338" y="331.833076" style="fill: #5c3e99; stroke: #5c3e99"/>
     <use xlink:href="#m3db6a3fd01" x="575.088519" y="324.226209" style="fill: #5c3e99; stroke: #5c3e99"/>
     <use xlink:href="#m3db6a3fd01" x="577.858959" y="312.965244" style="fill: #5c3e99; stroke: #5c3e99"/>
     <use xlink:href="#m3db6a3fd01" x="578.782439" y="325.134869" style="fill: #5c3e99; stroke: #5c3e99"/>
     <use xlink:href="#m3db6a3fd01" x="583.707666" y="336.28649" style="fill: #5c3e99; stroke: #5c3e99"/>
     <use xlink:href="#m3db6a3fd01" x="586.016366" y="338.686688" style="fill: #5c3e99; stroke: #5c3e99"/>
     <use xlink:href="#m3db6a3fd01" x="587.401586" y="347.211521" style="fill: #5c3e99; stroke: #5c3e99"/>
     <use xlink:href="#m3db6a3fd01" x="588.940719" y="334.429257" style="fill: #5c3e99; stroke: #5c3e99"/>
     <use xlink:href="#m3db6a3fd01" x="590.941593" y="317.296813" style="fill: #5c3e99; stroke: #5c3e99"/>
     <use xlink:href="#m3db6a3fd01" x="594.173773" y="314.828574" style="fill: #5c3e99; stroke: #5c3e99"/>
     <use xlink:href="#m3db6a3fd01" x="596.174647" y="295.548896" style="fill: #5c3e99; stroke: #5c3e99"/>
     <use xlink:href="#m3db6a3fd01" x="598.329433" y="297.570281" style="fill: #5c3e99; stroke: #5c3e99"/>
     <use xlink:href="#m3db6a3fd01" x="601.253787" y="284.48336" style="fill: #5c3e99; stroke: #5c3e99"/>
     <use xlink:href="#m3db6a3fd01" x="603.408574" y="290.473499" style="fill: #5c3e99; stroke: #5c3e99"/>
     <use xlink:href="#m3db6a3fd01" x="606.794667" y="281.553959" style="fill: #5c3e99; stroke: #5c3e99"/>
     <use xlink:href="#m3db6a3fd01" x="609.719021" y="270.288795" style="fill: #5c3e99; stroke: #5c3e99"/>
     <use xlink:href="#m3db6a3fd01" x="616.491208" y="270.256683" style="fill: #5c3e99; stroke: #5c3e99"/>
     <use xlink:href="#m3db6a3fd01" x="620.800782" y="263.451847" style="fill: #5c3e99; stroke: #5c3e99"/>
     <use xlink:href="#m3db6a3fd01" x="622.339915" y="250.747427" style="fill: #5c3e99; stroke: #5c3e99"/>
     <use xlink:href="#m3db6a3fd01" x="624.494702" y="240.092461" style="fill: #5c3e99; stroke: #5c3e99"/>
     <use xlink:href="#m3db6a3fd01" x="626.495575" y="241.699745" style="fill: #5c3e99; stroke: #5c3e99"/>
     <use xlink:href="#m3db6a3fd01" x="628.958189" y="220.967389" style="fill: #5c3e99; stroke: #5c3e99"/>
     <use xlink:href="#m3db6a3fd01" x="632.498196" y="218.633001" style="fill: #5c3e99; stroke: #5c3e99"/>
     <use xlink:href="#m3db6a3fd01" x="636.192116" y="220.347672" style="fill: #5c3e99; stroke: #5c3e99"/>
     <use xlink:href="#m3db6a3fd01" x="639.424296" y="235.840428" style="fill: #5c3e99; stroke: #5c3e99"/>
     <use xlink:href="#m3db6a3fd01" x="641.271256" y="229.570692" style="fill: #5c3e99; stroke: #5c3e99"/>
     <use xlink:href="#m3db6a3fd01" x="644.19561" y="225.211733" style="fill: #5c3e99; stroke: #5c3e99"/>
     <use xlink:href="#m3db6a3fd01" x="645.273003" y="228.136463" style="fill: #5c3e99; stroke: #5c3e99"/>
     <use xlink:href="#m3db6a3fd01" x="646.196483" y="223.739768" style="fill: #5c3e99; stroke: #5c3e99"/>
     <use xlink:href="#m3db6a3fd01" x="648.35127" y="205.330143" style="fill: #5c3e99; stroke: #5c3e99"/>
     <use xlink:href="#m3db6a3fd01" x="650.65997" y="195.304243" style="fill: #5c3e99; stroke: #5c3e99"/>
     <use xlink:href="#m3db6a3fd01" x="652.814757" y="168.689402" style="fill: #5c3e99; stroke: #5c3e99"/>
     <use xlink:href="#m3db6a3fd01" x="658.663464" y="163.458051" style="fill: #5c3e99; stroke: #5c3e99"/>
     <use xlink:href="#m3db6a3fd01" x="659.740857" y="170.674058" style="fill: #5c3e99; stroke: #5c3e99"/>
     <use xlink:href="#m3db6a3fd01" x="663.434778" y="180.123892" style="fill: #5c3e99; stroke: #5c3e99"/>
     <use xlink:href="#m3db6a3fd01" x="665.435651" y="174.48526" style="fill: #5c3e99; stroke: #5c3e99"/>
     <use xlink:href="#m3db6a3fd01" x="667.436525" y="197.371919" style="fill: #5c3e99; stroke: #5c3e99"/>
     <use xlink:href="#m3db6a3fd01" x="668.206091" y="233.713986" style="fill: #5c3e99; stroke: #5c3e99"/>
     <use xlink:href="#m3db6a3fd01" x="669.437398" y="238.682833" style="fill: #5c3e99; stroke: #5c3e99"/>
     <use xlink:href="#m3db6a3fd01" x="675.440018" y="227.495875" style="fill: #5c3e99; stroke: #5c3e99"/>
     <use xlink:href="#m3db6a3fd01" x="675.901758" y="232.117605" style="fill: #5c3e99; stroke: #5c3e99"/>
     <use xlink:href="#m3db6a3fd01" x="678.364372" y="253.94386" style="fill: #5c3e99; stroke: #5c3e99"/>
     <use xlink:href="#m3db6a3fd01" x="683.597426" y="263.367967" style="fill: #5c3e99; stroke: #5c3e99"/>
     <use xlink:href="#m3db6a3fd01" x="686.829606" y="271.769792" style="fill: #5c3e99; stroke: #5c3e99"/>
     <use xlink:href="#m3db6a3fd01" x="687.906999" y="289.14578" style="fill: #5c3e99; stroke: #5c3e99"/>
     <use xlink:href="#m3db6a3fd01" x="692.062659" y="298.707896" style="fill: #5c3e99; stroke: #5c3e99"/>
     <use xlink:href="#m3db6a3fd01" x="693.90962" y="302.17973" style="fill: #5c3e99; stroke: #5c3e99"/>
     <use xlink:href="#m3db6a3fd01" x="697.449626" y="296.740008" style="fill: #5c3e99; stroke: #5c3e99"/>
     <use xlink:href="#m3db6a3fd01" x="698.834847" y="287.812247" style="fill: #5c3e99; stroke: #5c3e99"/>
     <use xlink:href="#m3db6a3fd01" x="702.374853" y="270.263547" style="fill: #5c3e99; stroke: #5c3e99"/>
     <use xlink:href="#m3db6a3fd01" x="704.99138" y="275.027086" style="fill: #5c3e99; stroke: #5c3e99"/>
     <use xlink:href="#m3db6a3fd01" x="708.377474" y="247.683233" style="fill: #5c3e99; stroke: #5c3e99"/>
     <use xlink:href="#m3db6a3fd01" x="714.226181" y="206.114909" style="fill: #5c3e99; stroke: #5c3e99"/>
     <use xlink:href="#m3db6a3fd01" x="714.841834" y="198.919514" style="fill: #5c3e99; stroke: #5c3e99"/>
     <use xlink:href="#m3db6a3fd01" x="714.995748" y="189.694463" style="fill: #5c3e99; stroke: #5c3e99"/>
     <use xlink:href="#m3db6a3fd01" x="715.149661" y="192.794293" style="fill: #5c3e99; stroke: #5c3e99"/>
     <use xlink:href="#m3db6a3fd01" x="716.227054" y="178.319842" style="fill: #5c3e99; stroke: #5c3e99"/>
     <use xlink:href="#m3db6a3fd01" x="716.534881" y="185.410852" style="fill: #5c3e99; stroke: #5c3e99"/>
     <use xlink:href="#m3db6a3fd01" x="717.766188" y="186.154263" style="fill: #5c3e99; stroke: #5c3e99"/>
     <use xlink:href="#m3db6a3fd01" x="718.381841" y="197.378275" style="fill: #5c3e99; stroke: #5c3e99"/>
     <use xlink:href="#m3db6a3fd01" x="718.535755" y="193.097154" style="fill: #5c3e99; stroke: #5c3e99"/>
     <use xlink:href="#m3db6a3fd01" x="718.689668" y="193.80058" style="fill: #5c3e99; stroke: #5c3e99"/>
     <use xlink:href="#m3db6a3fd01" x="719.459235" y="202.079346" style="fill: #5c3e99; stroke: #5c3e99"/>
     <use xlink:href="#m3db6a3fd01" x="720.074888" y="200.116669" style="fill: #5c3e99; stroke: #5c3e99"/>
     <use xlink:href="#m3db6a3fd01" x="720.536628" y="204.625651" style="fill: #5c3e99; stroke: #5c3e99"/>
     <use xlink:href="#m3db6a3fd01" x="720.690541" y="210.010322" style="fill: #5c3e99; stroke: #5c3e99"/>
     <use xlink:href="#m3db6a3fd01" x="720.844455" y="205.289881" style="fill: #5c3e99; stroke: #5c3e99"/>
     <use xlink:href="#m3db6a3fd01" x="721.614021" y="203.769591" style="fill: #5c3e99; stroke: #5c3e99"/>
     <use xlink:href="#m3db6a3fd01" x="722.075761" y="195.005182" style="fill: #5c3e99; stroke: #5c3e99"/>
     <use xlink:href="#m3db6a3fd01" x="723.460981" y="213.160834" style="fill: #5c3e99; stroke: #5c3e99"/>
     <use xlink:href="#m3db6a3fd01" x="724.384462" y="219.811609" style="fill: #5c3e99; stroke: #5c3e99"/>
     <use xlink:href="#m3db6a3fd01" x="724.538375" y="213.818288" style="fill: #5c3e99; stroke: #5c3e99"/>
     <use xlink:href="#m3db6a3fd01" x="725.307942" y="200.21346" style="fill: #5c3e99; stroke: #5c3e99"/>
     <use xlink:href="#m3db6a3fd01" x="726.231422" y="202.801622" style="fill: #5c3e99; stroke: #5c3e99"/>
     <use xlink:href="#m3db6a3fd01" x="728.540122" y="194.549018" style="fill: #5c3e99; stroke: #5c3e99"/>
     <use xlink:href="#m3db6a3fd01" x="728.694035" y="206.609708" style="fill: #5c3e99; stroke: #5c3e99"/>
     <use xlink:href="#m3db6a3fd01" x="729.155775" y="204.447518" style="fill: #5c3e99; stroke: #5c3e99"/>
     <use xlink:href="#m3db6a3fd01" x="729.309689" y="217.574512" style="fill: #5c3e99; stroke: #5c3e99"/>
     <use xlink:href="#m3db6a3fd01" x="729.463602" y="228.428674" style="fill: #5c3e99; stroke: #5c3e99"/>
     <use xlink:href="#m3db6a3fd01" x="730.387082" y="230.559353" style="fill: #5c3e99; stroke: #5c3e99"/>
     <use xlink:href="#m3db6a3fd01" x="731.002735" y="234.904463" style="fill: #5c3e99; stroke: #5c3e99"/>
     <use xlink:href="#m3db6a3fd01" x="731.464475" y="242.286182" style="fill: #5c3e99; stroke: #5c3e99"/>
     <use xlink:href="#m3db6a3fd01" x="731.618389" y="255.341559" style="fill: #5c3e99; stroke: #5c3e99"/>
     <use xlink:href="#m3db6a3fd01" x="731.772302" y="287.830208" style="fill: #5c3e99; stroke: #5c3e99"/>
     <use xlink:href="#m3db6a3fd01" x="733.003609" y="282.561665" style="fill: #5c3e99; stroke: #5c3e99"/>
     <use xlink:href="#m3db6a3fd01" x="733.927089" y="278.641003" style="fill: #5c3e99; stroke: #5c3e99"/>
     <use xlink:href="#m3db6a3fd01" x="734.081002" y="284.893772" style="fill: #5c3e99; stroke: #5c3e99"/>
     <use xlink:href="#m3db6a3fd01" x="734.850569" y="299.076321" style="fill: #5c3e99; stroke: #5c3e99"/>
     <use xlink:href="#m3db6a3fd01" x="735.620136" y="291.408278" style="fill: #5c3e99; stroke: #5c3e99"/>
     <use xlink:href="#m3db6a3fd01" x="735.774049" y="282.73071" style="fill: #5c3e99; stroke: #5c3e99"/>
     <use xlink:href="#m3db6a3fd01" x="736.235789" y="267.149082" style="fill: #5c3e99; stroke: #5c3e99"/>
     <use xlink:href="#m3db6a3fd01" x="736.389702" y="280.165963" style="fill: #5c3e99; stroke: #5c3e99"/>
     <use xlink:href="#m3db6a3fd01" x="738.082749" y="271.124217" style="fill: #5c3e99; stroke: #5c3e99"/>
     <use xlink:href="#m3db6a3fd01" x="738.544489" y="269.461483" style="fill: #5c3e99; stroke: #5c3e99"/>
     <use xlink:href="#m3db6a3fd01" x="739.621883" y="267.282098" style="fill: #5c3e99; stroke: #5c3e99"/>
     <use xlink:href="#m3db6a3fd01" x="741.776669" y="259.482627" style="fill: #5c3e99; stroke: #5c3e99"/>
     <use xlink:href="#m3db6a3fd01" x="742.238409" y="268.906104" style="fill: #5c3e99; stroke: #5c3e99"/>
     <use xlink:href="#m3db6a3fd01" x="742.546236" y="260.817179" style="fill: #5c3e99; stroke: #5c3e99"/>
     <use xlink:href="#m3db6a3fd01" x="743.623629" y="236.926283" style="fill: #5c3e99; stroke: #5c3e99"/>
     <use xlink:href="#m3db6a3fd01" x="743.777543" y="227.130246" style="fill: #5c3e99; stroke: #5c3e99"/>
     <use xlink:href="#m3db6a3fd01" x="744.701023" y="229.498882" style="fill: #5c3e99; stroke: #5c3e99"/>
     <use xlink:href="#m3db6a3fd01" x="744.854936" y="229.921797" style="fill: #5c3e99; stroke: #5c3e99"/>
     <use xlink:href="#m3db6a3fd01" x="745.316676" y="221.565962" style="fill: #5c3e99; stroke: #5c3e99"/>
     <use xlink:href="#m3db6a3fd01" x="745.778416" y="219.467024" style="fill: #5c3e99; stroke: #5c3e99"/>
     <use xlink:href="#m3db6a3fd01" x="745.93233" y="219.673808" style="fill: #5c3e99; stroke: #5c3e99"/>
     <use xlink:href="#m3db6a3fd01" x="746.086243" y="234.908277" style="fill: #5c3e99; stroke: #5c3e99"/>
     <use xlink:href="#m3db6a3fd01" x="746.701896" y="233.835764" style="fill: #5c3e99; stroke: #5c3e99"/>
     <use xlink:href="#m3db6a3fd01" x="747.163636" y="233.579125" style="fill: #5c3e99; stroke: #5c3e99"/>
    </g>
   </g>
   <g id="patch_3">
    <path d="M 108 384.48 
L 108 51.84 
" style="fill: none; stroke: #000000; stroke-width: 0.8; stroke-linejoin: miter; stroke-linecap: square"/>
   </g>
   <g id="patch_4">
    <path d="M 777.6 384.48 
L 777.6 51.84 
" style="fill: none; stroke: #000000; stroke-width: 0.8; stroke-linejoin: miter; stroke-linecap: square"/>
   </g>
   <g id="patch_5">
    <path d="M 108 384.48 
L 777.6 384.48 
" style="fill: none; stroke: #000000; stroke-width: 0.8; stroke-linejoin: miter; stroke-linecap: square"/>
   </g>
   <g id="patch_6">
    <path d="M 108 51.84 
L 777.6 51.84 
" style="fill: none; stroke: #000000; stroke-width: 0.8; stroke-linejoin: miter; stroke-linecap: square"/>
   </g>
   <g id="text_18">
    <!-- Mood as Optimistic score per sentence -->
    <g transform="translate(326.084063 45.84) scale(0.12 -0.12)">
     <defs>
      <path id="DejaVuSans-4d" d="M 628 4666 
L 1569 4666 
L 2759 1491 
L 3956 4666 
L 4897 4666 
L 4897 0 
L 4281 0 
L 4281 4097 
L 3078 897 
L 2444 897 
L 1241 4097 
L 1241 0 
L 628 0 
L 628 4666 
z
" transform="scale(0.015625)"/>
      <path id="DejaVuSans-4f" d="M 2522 4238 
Q 1834 4238 1429 3725 
Q 1025 3213 1025 2328 
Q 1025 1447 1429 934 
Q 1834 422 2522 422 
Q 3209 422 3611 934 
Q 4013 1447 4013 2328 
Q 4013 3213 3611 3725 
Q 3209 4238 2522 4238 
z
M 2522 4750 
Q 3503 4750 4090 4092 
Q 4678 3434 4678 2328 
Q 4678 1225 4090 567 
Q 3503 -91 2522 -91 
Q 1538 -91 948 565 
Q 359 1222 359 2328 
Q 359 3434 948 4092 
Q 1538 4750 2522 4750 
z
" transform="scale(0.015625)"/>
      <path id="DejaVuSans-70" d="M 1159 525 
L 1159 -1331 
L 581 -1331 
L 581 3500 
L 1159 3500 
L 1159 2969 
Q 1341 3281 1617 3432 
Q 1894 3584 2278 3584 
Q 2916 3584 3314 3078 
Q 3713 2572 3713 1747 
Q 3713 922 3314 415 
Q 2916 -91 2278 -91 
Q 1894 -91 1617 61 
Q 1341 213 1159 525 
z
M 3116 1747 
Q 3116 2381 2855 2742 
Q 2594 3103 2138 3103 
Q 1681 3103 1420 2742 
Q 1159 2381 1159 1747 
Q 1159 1113 1420 752 
Q 1681 391 2138 391 
Q 2594 391 2855 752 
Q 3116 1113 3116 1747 
z
" transform="scale(0.015625)"/>
     </defs>
     <use xlink:href="#DejaVuSans-4d"/>
     <use xlink:href="#DejaVuSans-6f" transform="translate(86.279297 0)"/>
     <use xlink:href="#DejaVuSans-6f" transform="translate(147.460938 0)"/>
     <use xlink:href="#DejaVuSans-64" transform="translate(208.642578 0)"/>
     <use xlink:href="#DejaVuSans-20" transform="translate(272.119141 0)"/>
     <use xlink:href="#DejaVuSans-61" transform="translate(303.90625 0)"/>
     <use xlink:href="#DejaVuSans-73" transform="translate(365.185547 0)"/>
     <use xlink:href="#DejaVuSans-20" transform="translate(417.285156 0)"/>
     <use xlink:href="#DejaVuSans-4f" transform="translate(449.072266 0)"/>
     <use xlink:href="#DejaVuSans-70" transform="translate(527.783203 0)"/>
     <use xlink:href="#DejaVuSans-74" transform="translate(591.259766 0)"/>
     <use xlink:href="#DejaVuSans-69" transform="translate(630.46875 0)"/>
     <use xlink:href="#DejaVuSans-6d" transform="translate(658.251953 0)"/>
     <use xlink:href="#DejaVuSans-69" transform="translate(755.664062 0)"/>
     <use xlink:href="#DejaVuSans-73" transform="translate(783.447266 0)"/>
     <use xlink:href="#DejaVuSans-74" transform="translate(835.546875 0)"/>
     <use xlink:href="#DejaVuSans-69" transform="translate(874.755859 0)"/>
     <use xlink:href="#DejaVuSans-63" transform="translate(902.539062 0)"/>
     <use xlink:href="#DejaVuSans-20" transform="translate(957.519531 0)"/>
     <use xlink:href="#DejaVuSans-73" transform="translate(989.306641 0)"/>
     <use xlink:href="#DejaVuSans-63" transform="translate(1041.40625 0)"/>
     <use xlink:href="#DejaVuSans-6f" transform="translate(1096.386719 0)"/>
     <use xlink:href="#DejaVuSans-72" transform="translate(1157.568359 0)"/>
     <use xlink:href="#DejaVuSans-65" transform="translate(1196.431641 0)"/>
     <use xlink:href="#DejaVuSans-20" transform="translate(1257.955078 0)"/>
     <use xlink:href="#DejaVuSans-70" transform="translate(1289.742188 0)"/>
     <use xlink:href="#DejaVuSans-65" transform="translate(1353.21875 0)"/>
     <use xlink:href="#DejaVuSans-72" transform="translate(1414.742188 0)"/>
     <use xlink:href="#DejaVuSans-20" transform="translate(1455.855469 0)"/>
     <use xlink:href="#DejaVuSans-73" transform="translate(1487.642578 0)"/>
     <use xlink:href="#DejaVuSans-65" transform="translate(1539.742188 0)"/>
     <use xlink:href="#DejaVuSans-6e" transform="translate(1601.265625 0)"/>
     <use xlink:href="#DejaVuSans-74" transform="translate(1664.644531 0)"/>
     <use xlink:href="#DejaVuSans-65" transform="translate(1703.853516 0)"/>
     <use xlink:href="#DejaVuSans-6e" transform="translate(1765.376953 0)"/>
     <use xlink:href="#DejaVuSans-63" transform="translate(1828.755859 0)"/>
     <use xlink:href="#DejaVuSans-65" transform="translate(1883.736328 0)"/>
    </g>
   </g>
  </g>
 </g>
 <defs>
  <clipPath id="pe53dbd270c">
   <rect x="108" y="51.84" width="669.6" height="332.64"/>
  </clipPath>
 </defs>
</svg>
