<?xml version="1.0" encoding="utf-8" standalone="no"?>
<!DOCTYPE svg PUBLIC "-//W3C//DTD SVG 1.1//EN"
  "http://www.w3.org/Graphics/SVG/1.1/DTD/svg11.dtd">
<svg xmlns:xlink="http://www.w3.org/1999/xlink" width="864pt" height="432pt" viewBox="0 0 864 432" xmlns="http://www.w3.org/2000/svg" version="1.1">
 <metadata>
  <rdf:RDF xmlns:dc="http://purl.org/dc/elements/1.1/" xmlns:cc="http://creativecommons.org/ns#" xmlns:rdf="http://www.w3.org/1999/02/22-rdf-syntax-ns#">
   <cc:Work>
    <dc:type rdf:resource="http://purl.org/dc/dcmitype/StillImage"/>
    <dc:date>2025-01-04T09:23:51.501736</dc:date>
    <dc:format>image/svg+xml</dc:format>
    <dc:creator>
     <cc:Agent>
      <dc:title>Matplotlib v3.10.0, https://matplotlib.org/</dc:title>
     </cc:Agent>
    </dc:creator>
   </cc:Work>
  </rdf:RDF>
 </metadata>
 <defs>
  <style type="text/css">*{stroke-linejoin: round; stroke-linecap: butt}</style>
 </defs>
 <g id="figure_1">
  <g id="patch_1">
   <path d="M 0 432 
L 864 432 
L 864 0 
L 0 0 
z
" style="fill: #ffffff"/>
  </g>
  <g id="axes_1">
   <g id="patch_2">
    <path d="M 108 384.48 
L 777.6 384.48 
L 777.6 51.84 
L 108 51.84 
z
" style="fill: #ffffff"/>
   </g>
   <g id="matplotlib.axis_1">
    <g id="xtick_1">
     <g id="line2d_1">
      <path d="M 138.436364 384.48 
L 138.436364 51.84 
" clip-path="url(#pfd6246ff1a)" style="fill: none; stroke: #b0b0b0; stroke-width: 0.8; stroke-linecap: square"/>
     </g>
     <g id="line2d_2">
      <defs>
       <path id="mc05beb93ea" d="M 0 0 
L 0 3.5 
" style="stroke: #000000; stroke-width: 0.8"/>
      </defs>
      <g>
       <use xlink:href="#mc05beb93ea" x="138.436364" y="384.48" style="stroke: #000000; stroke-width: 0.8"/>
      </g>
     </g>
     <g id="text_1">
      <!-- 0 -->
      <g transform="translate(135.255114 399.078438) scale(0.1 -0.1)">
       <defs>
        <path id="DejaVuSans-30" d="M 2034 4250 
Q 1547 4250 1301 3770 
Q 1056 3291 1056 2328 
Q 1056 1369 1301 889 
Q 1547 409 2034 409 
Q 2525 409 2770 889 
Q 3016 1369 3016 2328 
Q 3016 3291 2770 3770 
Q 2525 4250 2034 4250 
z
M 2034 4750 
Q 2819 4750 3233 4129 
Q 3647 3509 3647 2328 
Q 3647 1150 3233 529 
Q 2819 -91 2034 -91 
Q 1250 -91 836 529 
Q 422 1150 422 2328 
Q 422 3509 836 4129 
Q 1250 4750 2034 4750 
z
" transform="scale(0.015625)"/>
       </defs>
       <use xlink:href="#DejaVuSans-30"/>
      </g>
     </g>
    </g>
    <g id="xtick_2">
     <g id="line2d_3">
      <path d="M 282.004117 384.48 
L 282.004117 51.84 
" clip-path="url(#pfd6246ff1a)" style="fill: none; stroke: #b0b0b0; stroke-width: 0.8; stroke-linecap: square"/>
     </g>
     <g id="line2d_4">
      <g>
       <use xlink:href="#mc05beb93ea" x="282.004117" y="384.48" style="stroke: #000000; stroke-width: 0.8"/>
      </g>
     </g>
     <g id="text_2">
      <!-- 500 -->
      <g transform="translate(272.460367 399.078438) scale(0.1 -0.1)">
       <defs>
        <path id="DejaVuSans-35" d="M 691 4666 
L 3169 4666 
L 3169 4134 
L 1269 4134 
L 1269 2991 
Q 1406 3038 1543 3061 
Q 1681 3084 1819 3084 
Q 2600 3084 3056 2656 
Q 3513 2228 3513 1497 
Q 3513 744 3044 326 
Q 2575 -91 1722 -91 
Q 1428 -91 1123 -41 
Q 819 9 494 109 
L 494 744 
Q 775 591 1075 516 
Q 1375 441 1709 441 
Q 2250 441 2565 725 
Q 2881 1009 2881 1497 
Q 2881 1984 2565 2268 
Q 2250 2553 1709 2553 
Q 1456 2553 1204 2497 
Q 953 2441 691 2322 
L 691 4666 
z
" transform="scale(0.015625)"/>
       </defs>
       <use xlink:href="#DejaVuSans-35"/>
       <use xlink:href="#DejaVuSans-30" transform="translate(63.623047 0)"/>
       <use xlink:href="#DejaVuSans-30" transform="translate(127.246094 0)"/>
      </g>
     </g>
    </g>
    <g id="xtick_3">
     <g id="line2d_5">
      <path d="M 425.57187 384.48 
L 425.57187 51.84 
" clip-path="url(#pfd6246ff1a)" style="fill: none; stroke: #b0b0b0; stroke-width: 0.8; stroke-linecap: square"/>
     </g>
     <g id="line2d_6">
      <g>
       <use xlink:href="#mc05beb93ea" x="425.57187" y="384.48" style="stroke: #000000; stroke-width: 0.8"/>
      </g>
     </g>
     <g id="text_3">
      <!-- 1000 -->
      <g transform="translate(412.84687 399.078438) scale(0.1 -0.1)">
       <defs>
        <path id="DejaVuSans-31" d="M 794 531 
L 1825 531 
L 1825 4091 
L 703 3866 
L 703 4441 
L 1819 4666 
L 2450 4666 
L 2450 531 
L 3481 531 
L 3481 0 
L 794 0 
L 794 531 
z
" transform="scale(0.015625)"/>
       </defs>
       <use xlink:href="#DejaVuSans-31"/>
       <use xlink:href="#DejaVuSans-30" transform="translate(63.623047 0)"/>
       <use xlink:href="#DejaVuSans-30" transform="translate(127.246094 0)"/>
       <use xlink:href="#DejaVuSans-30" transform="translate(190.869141 0)"/>
      </g>
     </g>
    </g>
    <g id="xtick_4">
     <g id="line2d_7">
      <path d="M 569.139623 384.48 
L 569.139623 51.84 
" clip-path="url(#pfd6246ff1a)" style="fill: none; stroke: #b0b0b0; stroke-width: 0.8; stroke-linecap: square"/>
     </g>
     <g id="line2d_8">
      <g>
       <use xlink:href="#mc05beb93ea" x="569.139623" y="384.48" style="stroke: #000000; stroke-width: 0.8"/>
      </g>
     </g>
     <g id="text_4">
      <!-- 1500 -->
      <g transform="translate(556.414623 399.078438) scale(0.1 -0.1)">
       <use xlink:href="#DejaVuSans-31"/>
       <use xlink:href="#DejaVuSans-35" transform="translate(63.623047 0)"/>
       <use xlink:href="#DejaVuSans-30" transform="translate(127.246094 0)"/>
       <use xlink:href="#DejaVuSans-30" transform="translate(190.869141 0)"/>
      </g>
     </g>
    </g>
    <g id="xtick_5">
     <g id="line2d_9">
      <path d="M 712.707376 384.48 
L 712.707376 51.84 
" clip-path="url(#pfd6246ff1a)" style="fill: none; stroke: #b0b0b0; stroke-width: 0.8; stroke-linecap: square"/>
     </g>
     <g id="line2d_10">
      <g>
       <use xlink:href="#mc05beb93ea" x="712.707376" y="384.48" style="stroke: #000000; stroke-width: 0.8"/>
      </g>
     </g>
     <g id="text_5">
      <!-- 2000 -->
      <g transform="translate(699.982376 399.078438) scale(0.1 -0.1)">
       <defs>
        <path id="DejaVuSans-32" d="M 1228 531 
L 3431 531 
L 3431 0 
L 469 0 
L 469 531 
Q 828 903 1448 1529 
Q 2069 2156 2228 2338 
Q 2531 2678 2651 2914 
Q 2772 3150 2772 3378 
Q 2772 3750 2511 3984 
Q 2250 4219 1831 4219 
Q 1534 4219 1204 4116 
Q 875 4013 500 3803 
L 500 4441 
Q 881 4594 1212 4672 
Q 1544 4750 1819 4750 
Q 2544 4750 2975 4387 
Q 3406 4025 3406 3419 
Q 3406 3131 3298 2873 
Q 3191 2616 2906 2266 
Q 2828 2175 2409 1742 
Q 1991 1309 1228 531 
z
" transform="scale(0.015625)"/>
       </defs>
       <use xlink:href="#DejaVuSans-32"/>
       <use xlink:href="#DejaVuSans-30" transform="translate(63.623047 0)"/>
       <use xlink:href="#DejaVuSans-30" transform="translate(127.246094 0)"/>
       <use xlink:href="#DejaVuSans-30" transform="translate(190.869141 0)"/>
      </g>
     </g>
    </g>
    <g id="text_6">
     <!-- Position in Text (Words) -->
     <g transform="translate(384.540625 412.756563) scale(0.1 -0.1)">
      <defs>
       <path id="DejaVuSans-50" d="M 1259 4147 
L 1259 2394 
L 2053 2394 
Q 2494 2394 2734 2622 
Q 2975 2850 2975 3272 
Q 2975 3691 2734 3919 
Q 2494 4147 2053 4147 
L 1259 4147 
z
M 628 4666 
L 2053 4666 
Q 2838 4666 3239 4311 
Q 3641 3956 3641 3272 
Q 3641 2581 3239 2228 
Q 2838 1875 2053 1875 
L 1259 1875 
L 1259 0 
L 628 0 
L 628 4666 
z
" transform="scale(0.015625)"/>
       <path id="DejaVuSans-6f" d="M 1959 3097 
Q 1497 3097 1228 2736 
Q 959 2375 959 1747 
Q 959 1119 1226 758 
Q 1494 397 1959 397 
Q 2419 397 2687 759 
Q 2956 1122 2956 1747 
Q 2956 2369 2687 2733 
Q 2419 3097 1959 3097 
z
M 1959 3584 
Q 2709 3584 3137 3096 
Q 3566 2609 3566 1747 
Q 3566 888 3137 398 
Q 2709 -91 1959 -91 
Q 1206 -91 779 398 
Q 353 888 353 1747 
Q 353 2609 779 3096 
Q 1206 3584 1959 3584 
z
" transform="scale(0.015625)"/>
       <path id="DejaVuSans-73" d="M 2834 3397 
L 2834 2853 
Q 2591 2978 2328 3040 
Q 2066 3103 1784 3103 
Q 1356 3103 1142 2972 
Q 928 2841 928 2578 
Q 928 2378 1081 2264 
Q 1234 2150 1697 2047 
L 1894 2003 
Q 2506 1872 2764 1633 
Q 3022 1394 3022 966 
Q 3022 478 2636 193 
Q 2250 -91 1575 -91 
Q 1294 -91 989 -36 
Q 684 19 347 128 
L 347 722 
Q 666 556 975 473 
Q 1284 391 1588 391 
Q 1994 391 2212 530 
Q 2431 669 2431 922 
Q 2431 1156 2273 1281 
Q 2116 1406 1581 1522 
L 1381 1569 
Q 847 1681 609 1914 
Q 372 2147 372 2553 
Q 372 3047 722 3315 
Q 1072 3584 1716 3584 
Q 2034 3584 2315 3537 
Q 2597 3491 2834 3397 
z
" transform="scale(0.015625)"/>
       <path id="DejaVuSans-69" d="M 603 3500 
L 1178 3500 
L 1178 0 
L 603 0 
L 603 3500 
z
M 603 4863 
L 1178 4863 
L 1178 4134 
L 603 4134 
L 603 4863 
z
" transform="scale(0.015625)"/>
       <path id="DejaVuSans-74" d="M 1172 4494 
L 1172 3500 
L 2356 3500 
L 2356 3053 
L 1172 3053 
L 1172 1153 
Q 1172 725 1289 603 
Q 1406 481 1766 481 
L 2356 481 
L 2356 0 
L 1766 0 
Q 1100 0 847 248 
Q 594 497 594 1153 
L 594 3053 
L 172 3053 
L 172 3500 
L 594 3500 
L 594 4494 
L 1172 4494 
z
" transform="scale(0.015625)"/>
       <path id="DejaVuSans-6e" d="M 3513 2113 
L 3513 0 
L 2938 0 
L 2938 2094 
Q 2938 2591 2744 2837 
Q 2550 3084 2163 3084 
Q 1697 3084 1428 2787 
Q 1159 2491 1159 1978 
L 1159 0 
L 581 0 
L 581 3500 
L 1159 3500 
L 1159 2956 
Q 1366 3272 1645 3428 
Q 1925 3584 2291 3584 
Q 2894 3584 3203 3211 
Q 3513 2838 3513 2113 
z
" transform="scale(0.015625)"/>
       <path id="DejaVuSans-20" transform="scale(0.015625)"/>
       <path id="DejaVuSans-54" d="M -19 4666 
L 3928 4666 
L 3928 4134 
L 2272 4134 
L 2272 0 
L 1638 0 
L 1638 4134 
L -19 4134 
L -19 4666 
z
" transform="scale(0.015625)"/>
       <path id="DejaVuSans-65" d="M 3597 1894 
L 3597 1613 
L 953 1613 
Q 991 1019 1311 708 
Q 1631 397 2203 397 
Q 2534 397 2845 478 
Q 3156 559 3463 722 
L 3463 178 
Q 3153 47 2828 -22 
Q 2503 -91 2169 -91 
Q 1331 -91 842 396 
Q 353 884 353 1716 
Q 353 2575 817 3079 
Q 1281 3584 2069 3584 
Q 2775 3584 3186 3129 
Q 3597 2675 3597 1894 
z
M 3022 2063 
Q 3016 2534 2758 2815 
Q 2500 3097 2075 3097 
Q 1594 3097 1305 2825 
Q 1016 2553 972 2059 
L 3022 2063 
z
" transform="scale(0.015625)"/>
       <path id="DejaVuSans-78" d="M 3513 3500 
L 2247 1797 
L 3578 0 
L 2900 0 
L 1881 1375 
L 863 0 
L 184 0 
L 1544 1831 
L 300 3500 
L 978 3500 
L 1906 2253 
L 2834 3500 
L 3513 3500 
z
" transform="scale(0.015625)"/>
       <path id="DejaVuSans-28" d="M 1984 4856 
Q 1566 4138 1362 3434 
Q 1159 2731 1159 2009 
Q 1159 1288 1364 580 
Q 1569 -128 1984 -844 
L 1484 -844 
Q 1016 -109 783 600 
Q 550 1309 550 2009 
Q 550 2706 781 3412 
Q 1013 4119 1484 4856 
L 1984 4856 
z
" transform="scale(0.015625)"/>
       <path id="DejaVuSans-57" d="M 213 4666 
L 850 4666 
L 1831 722 
L 2809 4666 
L 3519 4666 
L 4500 722 
L 5478 4666 
L 6119 4666 
L 4947 0 
L 4153 0 
L 3169 4050 
L 2175 0 
L 1381 0 
L 213 4666 
z
" transform="scale(0.015625)"/>
       <path id="DejaVuSans-72" d="M 2631 2963 
Q 2534 3019 2420 3045 
Q 2306 3072 2169 3072 
Q 1681 3072 1420 2755 
Q 1159 2438 1159 1844 
L 1159 0 
L 581 0 
L 581 3500 
L 1159 3500 
L 1159 2956 
Q 1341 3275 1631 3429 
Q 1922 3584 2338 3584 
Q 2397 3584 2469 3576 
Q 2541 3569 2628 3553 
L 2631 2963 
z
" transform="scale(0.015625)"/>
       <path id="DejaVuSans-64" d="M 2906 2969 
L 2906 4863 
L 3481 4863 
L 3481 0 
L 2906 0 
L 2906 525 
Q 2725 213 2448 61 
Q 2172 -91 1784 -91 
Q 1150 -91 751 415 
Q 353 922 353 1747 
Q 353 2572 751 3078 
Q 1150 3584 1784 3584 
Q 2172 3584 2448 3432 
Q 2725 3281 2906 2969 
z
M 947 1747 
Q 947 1113 1208 752 
Q 1469 391 1925 391 
Q 2381 391 2643 752 
Q 2906 1113 2906 1747 
Q 2906 2381 2643 2742 
Q 2381 3103 1925 3103 
Q 1469 3103 1208 2742 
Q 947 2381 947 1747 
z
" transform="scale(0.015625)"/>
       <path id="DejaVuSans-29" d="M 513 4856 
L 1013 4856 
Q 1481 4119 1714 3412 
Q 1947 2706 1947 2009 
Q 1947 1309 1714 600 
Q 1481 -109 1013 -844 
L 513 -844 
Q 928 -128 1133 580 
Q 1338 1288 1338 2009 
Q 1338 2731 1133 3434 
Q 928 4138 513 4856 
z
" transform="scale(0.015625)"/>
      </defs>
      <use xlink:href="#DejaVuSans-50"/>
      <use xlink:href="#DejaVuSans-6f" transform="translate(56.677734 0)"/>
      <use xlink:href="#DejaVuSans-73" transform="translate(117.859375 0)"/>
      <use xlink:href="#DejaVuSans-69" transform="translate(169.958984 0)"/>
      <use xlink:href="#DejaVuSans-74" transform="translate(197.742188 0)"/>
      <use xlink:href="#DejaVuSans-69" transform="translate(236.951172 0)"/>
      <use xlink:href="#DejaVuSans-6f" transform="translate(264.734375 0)"/>
      <use xlink:href="#DejaVuSans-6e" transform="translate(325.916016 0)"/>
      <use xlink:href="#DejaVuSans-20" transform="translate(389.294922 0)"/>
      <use xlink:href="#DejaVuSans-69" transform="translate(421.082031 0)"/>
      <use xlink:href="#DejaVuSans-6e" transform="translate(448.865234 0)"/>
      <use xlink:href="#DejaVuSans-20" transform="translate(512.244141 0)"/>
      <use xlink:href="#DejaVuSans-54" transform="translate(544.03125 0)"/>
      <use xlink:href="#DejaVuSans-65" transform="translate(588.115234 0)"/>
      <use xlink:href="#DejaVuSans-78" transform="translate(647.888672 0)"/>
      <use xlink:href="#DejaVuSans-74" transform="translate(707.068359 0)"/>
      <use xlink:href="#DejaVuSans-20" transform="translate(746.277344 0)"/>
      <use xlink:href="#DejaVuSans-28" transform="translate(778.064453 0)"/>
      <use xlink:href="#DejaVuSans-57" transform="translate(817.078125 0)"/>
      <use xlink:href="#DejaVuSans-6f" transform="translate(910.080078 0)"/>
      <use xlink:href="#DejaVuSans-72" transform="translate(971.261719 0)"/>
      <use xlink:href="#DejaVuSans-64" transform="translate(1010.625 0)"/>
      <use xlink:href="#DejaVuSans-73" transform="translate(1074.101562 0)"/>
      <use xlink:href="#DejaVuSans-29" transform="translate(1126.201172 0)"/>
     </g>
    </g>
   </g>
   <g id="matplotlib.axis_2">
    <g id="ytick_1">
     <g id="line2d_11">
      <path d="M 108 356.135076 
L 777.6 356.135076 
" clip-path="url(#pfd6246ff1a)" style="fill: none; stroke: #b0b0b0; stroke-width: 0.8; stroke-linecap: square"/>
     </g>
     <g id="line2d_12">
      <defs>
       <path id="m7072284646" d="M 0 0 
L -3.5 0 
" style="stroke: #000000; stroke-width: 0.8"/>
      </defs>
      <g>
       <use xlink:href="#m7072284646" x="108" y="356.135076" style="stroke: #000000; stroke-width: 0.8"/>
      </g>
     </g>
     <g id="text_7">
      <!-- −0.4 -->
      <g transform="translate(76.717187 359.934295) scale(0.1 -0.1)">
       <defs>
        <path id="DejaVuSans-2212" d="M 678 2272 
L 4684 2272 
L 4684 1741 
L 678 1741 
L 678 2272 
z
" transform="scale(0.015625)"/>
        <path id="DejaVuSans-2e" d="M 684 794 
L 1344 794 
L 1344 0 
L 684 0 
L 684 794 
z
" transform="scale(0.015625)"/>
        <path id="DejaVuSans-34" d="M 2419 4116 
L 825 1625 
L 2419 1625 
L 2419 4116 
z
M 2253 4666 
L 3047 4666 
L 3047 1625 
L 3713 1625 
L 3713 1100 
L 3047 1100 
L 3047 0 
L 2419 0 
L 2419 1100 
L 313 1100 
L 313 1709 
L 2253 4666 
z
" transform="scale(0.015625)"/>
       </defs>
       <use xlink:href="#DejaVuSans-2212"/>
       <use xlink:href="#DejaVuSans-30" transform="translate(83.789062 0)"/>
       <use xlink:href="#DejaVuSans-2e" transform="translate(147.412109 0)"/>
       <use xlink:href="#DejaVuSans-34" transform="translate(179.199219 0)"/>
      </g>
     </g>
    </g>
    <g id="ytick_2">
     <g id="line2d_13">
      <path d="M 108 303.602102 
L 777.6 303.602102 
" clip-path="url(#pfd6246ff1a)" style="fill: none; stroke: #b0b0b0; stroke-width: 0.8; stroke-linecap: square"/>
     </g>
     <g id="line2d_14">
      <g>
       <use xlink:href="#m7072284646" x="108" y="303.602102" style="stroke: #000000; stroke-width: 0.8"/>
      </g>
     </g>
     <g id="text_8">
      <!-- −0.2 -->
      <g transform="translate(76.717187 307.40132) scale(0.1 -0.1)">
       <use xlink:href="#DejaVuSans-2212"/>
       <use xlink:href="#DejaVuSans-30" transform="translate(83.789062 0)"/>
       <use xlink:href="#DejaVuSans-2e" transform="translate(147.412109 0)"/>
       <use xlink:href="#DejaVuSans-32" transform="translate(179.199219 0)"/>
      </g>
     </g>
    </g>
    <g id="ytick_3">
     <g id="line2d_15">
      <path d="M 108 251.069127 
L 777.6 251.069127 
" clip-path="url(#pfd6246ff1a)" style="fill: none; stroke: #b0b0b0; stroke-width: 0.8; stroke-linecap: square"/>
     </g>
     <g id="line2d_16">
      <g>
       <use xlink:href="#m7072284646" x="108" y="251.069127" style="stroke: #000000; stroke-width: 0.8"/>
      </g>
     </g>
     <g id="text_9">
      <!-- 0.0 -->
      <g transform="translate(85.096875 254.868345) scale(0.1 -0.1)">
       <use xlink:href="#DejaVuSans-30"/>
       <use xlink:href="#DejaVuSans-2e" transform="translate(63.623047 0)"/>
       <use xlink:href="#DejaVuSans-30" transform="translate(95.410156 0)"/>
      </g>
     </g>
    </g>
    <g id="ytick_4">
     <g id="line2d_17">
      <path d="M 108 198.536152 
L 777.6 198.536152 
" clip-path="url(#pfd6246ff1a)" style="fill: none; stroke: #b0b0b0; stroke-width: 0.8; stroke-linecap: square"/>
     </g>
     <g id="line2d_18">
      <g>
       <use xlink:href="#m7072284646" x="108" y="198.536152" style="stroke: #000000; stroke-width: 0.8"/>
      </g>
     </g>
     <g id="text_10">
      <!-- 0.2 -->
      <g transform="translate(85.096875 202.33537) scale(0.1 -0.1)">
       <use xlink:href="#DejaVuSans-30"/>
       <use xlink:href="#DejaVuSans-2e" transform="translate(63.623047 0)"/>
       <use xlink:href="#DejaVuSans-32" transform="translate(95.410156 0)"/>
      </g>
     </g>
    </g>
    <g id="ytick_5">
     <g id="line2d_19">
      <path d="M 108 146.003177 
L 777.6 146.003177 
" clip-path="url(#pfd6246ff1a)" style="fill: none; stroke: #b0b0b0; stroke-width: 0.8; stroke-linecap: square"/>
     </g>
     <g id="line2d_20">
      <g>
       <use xlink:href="#m7072284646" x="108" y="146.003177" style="stroke: #000000; stroke-width: 0.8"/>
      </g>
     </g>
     <g id="text_11">
      <!-- 0.4 -->
      <g transform="translate(85.096875 149.802396) scale(0.1 -0.1)">
       <use xlink:href="#DejaVuSans-30"/>
       <use xlink:href="#DejaVuSans-2e" transform="translate(63.623047 0)"/>
       <use xlink:href="#DejaVuSans-34" transform="translate(95.410156 0)"/>
      </g>
     </g>
    </g>
    <g id="ytick_6">
     <g id="line2d_21">
      <path d="M 108 93.470202 
L 777.6 93.470202 
" clip-path="url(#pfd6246ff1a)" style="fill: none; stroke: #b0b0b0; stroke-width: 0.8; stroke-linecap: square"/>
     </g>
     <g id="line2d_22">
      <g>
       <use xlink:href="#m7072284646" x="108" y="93.470202" style="stroke: #000000; stroke-width: 0.8"/>
      </g>
     </g>
     <g id="text_12">
      <!-- 0.6 -->
      <g transform="translate(85.096875 97.269421) scale(0.1 -0.1)">
       <defs>
        <path id="DejaVuSans-36" d="M 2113 2584 
Q 1688 2584 1439 2293 
Q 1191 2003 1191 1497 
Q 1191 994 1439 701 
Q 1688 409 2113 409 
Q 2538 409 2786 701 
Q 3034 994 3034 1497 
Q 3034 2003 2786 2293 
Q 2538 2584 2113 2584 
z
M 3366 4563 
L 3366 3988 
Q 3128 4100 2886 4159 
Q 2644 4219 2406 4219 
Q 1781 4219 1451 3797 
Q 1122 3375 1075 2522 
Q 1259 2794 1537 2939 
Q 1816 3084 2150 3084 
Q 2853 3084 3261 2657 
Q 3669 2231 3669 1497 
Q 3669 778 3244 343 
Q 2819 -91 2113 -91 
Q 1303 -91 875 529 
Q 447 1150 447 2328 
Q 447 3434 972 4092 
Q 1497 4750 2381 4750 
Q 2619 4750 2861 4703 
Q 3103 4656 3366 4563 
z
" transform="scale(0.015625)"/>
       </defs>
       <use xlink:href="#DejaVuSans-30"/>
       <use xlink:href="#DejaVuSans-2e" transform="translate(63.623047 0)"/>
       <use xlink:href="#DejaVuSans-36" transform="translate(95.410156 0)"/>
      </g>
     </g>
    </g>
    <g id="text_13">
     <!-- Alignment with characteristic -->
     <g transform="translate(70.6375 291.5975) rotate(-90) scale(0.1 -0.1)">
      <defs>
       <path id="DejaVuSans-41" d="M 2188 4044 
L 1331 1722 
L 3047 1722 
L 2188 4044 
z
M 1831 4666 
L 2547 4666 
L 4325 0 
L 3669 0 
L 3244 1197 
L 1141 1197 
L 716 0 
L 50 0 
L 1831 4666 
z
" transform="scale(0.015625)"/>
       <path id="DejaVuSans-6c" d="M 603 4863 
L 1178 4863 
L 1178 0 
L 603 0 
L 603 4863 
z
" transform="scale(0.015625)"/>
       <path id="DejaVuSans-67" d="M 2906 1791 
Q 2906 2416 2648 2759 
Q 2391 3103 1925 3103 
Q 1463 3103 1205 2759 
Q 947 2416 947 1791 
Q 947 1169 1205 825 
Q 1463 481 1925 481 
Q 2391 481 2648 825 
Q 2906 1169 2906 1791 
z
M 3481 434 
Q 3481 -459 3084 -895 
Q 2688 -1331 1869 -1331 
Q 1566 -1331 1297 -1286 
Q 1028 -1241 775 -1147 
L 775 -588 
Q 1028 -725 1275 -790 
Q 1522 -856 1778 -856 
Q 2344 -856 2625 -561 
Q 2906 -266 2906 331 
L 2906 616 
Q 2728 306 2450 153 
Q 2172 0 1784 0 
Q 1141 0 747 490 
Q 353 981 353 1791 
Q 353 2603 747 3093 
Q 1141 3584 1784 3584 
Q 2172 3584 2450 3431 
Q 2728 3278 2906 2969 
L 2906 3500 
L 3481 3500 
L 3481 434 
z
" transform="scale(0.015625)"/>
       <path id="DejaVuSans-6d" d="M 3328 2828 
Q 3544 3216 3844 3400 
Q 4144 3584 4550 3584 
Q 5097 3584 5394 3201 
Q 5691 2819 5691 2113 
L 5691 0 
L 5113 0 
L 5113 2094 
Q 5113 2597 4934 2840 
Q 4756 3084 4391 3084 
Q 3944 3084 3684 2787 
Q 3425 2491 3425 1978 
L 3425 0 
L 2847 0 
L 2847 2094 
Q 2847 2600 2669 2842 
Q 2491 3084 2119 3084 
Q 1678 3084 1418 2786 
Q 1159 2488 1159 1978 
L 1159 0 
L 581 0 
L 581 3500 
L 1159 3500 
L 1159 2956 
Q 1356 3278 1631 3431 
Q 1906 3584 2284 3584 
Q 2666 3584 2933 3390 
Q 3200 3197 3328 2828 
z
" transform="scale(0.015625)"/>
       <path id="DejaVuSans-77" d="M 269 3500 
L 844 3500 
L 1563 769 
L 2278 3500 
L 2956 3500 
L 3675 769 
L 4391 3500 
L 4966 3500 
L 4050 0 
L 3372 0 
L 2619 2869 
L 1863 0 
L 1184 0 
L 269 3500 
z
" transform="scale(0.015625)"/>
       <path id="DejaVuSans-68" d="M 3513 2113 
L 3513 0 
L 2938 0 
L 2938 2094 
Q 2938 2591 2744 2837 
Q 2550 3084 2163 3084 
Q 1697 3084 1428 2787 
Q 1159 2491 1159 1978 
L 1159 0 
L 581 0 
L 581 4863 
L 1159 4863 
L 1159 2956 
Q 1366 3272 1645 3428 
Q 1925 3584 2291 3584 
Q 2894 3584 3203 3211 
Q 3513 2838 3513 2113 
z
" transform="scale(0.015625)"/>
       <path id="DejaVuSans-63" d="M 3122 3366 
L 3122 2828 
Q 2878 2963 2633 3030 
Q 2388 3097 2138 3097 
Q 1578 3097 1268 2742 
Q 959 2388 959 1747 
Q 959 1106 1268 751 
Q 1578 397 2138 397 
Q 2388 397 2633 464 
Q 2878 531 3122 666 
L 3122 134 
Q 2881 22 2623 -34 
Q 2366 -91 2075 -91 
Q 1284 -91 818 406 
Q 353 903 353 1747 
Q 353 2603 823 3093 
Q 1294 3584 2113 3584 
Q 2378 3584 2631 3529 
Q 2884 3475 3122 3366 
z
" transform="scale(0.015625)"/>
       <path id="DejaVuSans-61" d="M 2194 1759 
Q 1497 1759 1228 1600 
Q 959 1441 959 1056 
Q 959 750 1161 570 
Q 1363 391 1709 391 
Q 2188 391 2477 730 
Q 2766 1069 2766 1631 
L 2766 1759 
L 2194 1759 
z
M 3341 1997 
L 3341 0 
L 2766 0 
L 2766 531 
Q 2569 213 2275 61 
Q 1981 -91 1556 -91 
Q 1019 -91 701 211 
Q 384 513 384 1019 
Q 384 1609 779 1909 
Q 1175 2209 1959 2209 
L 2766 2209 
L 2766 2266 
Q 2766 2663 2505 2880 
Q 2244 3097 1772 3097 
Q 1472 3097 1187 3025 
Q 903 2953 641 2809 
L 641 3341 
Q 956 3463 1253 3523 
Q 1550 3584 1831 3584 
Q 2591 3584 2966 3190 
Q 3341 2797 3341 1997 
z
" transform="scale(0.015625)"/>
      </defs>
      <use xlink:href="#DejaVuSans-41"/>
      <use xlink:href="#DejaVuSans-6c" transform="translate(68.408203 0)"/>
      <use xlink:href="#DejaVuSans-69" transform="translate(96.191406 0)"/>
      <use xlink:href="#DejaVuSans-67" transform="translate(123.974609 0)"/>
      <use xlink:href="#DejaVuSans-6e" transform="translate(187.451172 0)"/>
      <use xlink:href="#DejaVuSans-6d" transform="translate(250.830078 0)"/>
      <use xlink:href="#DejaVuSans-65" transform="translate(348.242188 0)"/>
      <use xlink:href="#DejaVuSans-6e" transform="translate(409.765625 0)"/>
      <use xlink:href="#DejaVuSans-74" transform="translate(473.144531 0)"/>
      <use xlink:href="#DejaVuSans-20" transform="translate(512.353516 0)"/>
      <use xlink:href="#DejaVuSans-77" transform="translate(544.140625 0)"/>
      <use xlink:href="#DejaVuSans-69" transform="translate(625.927734 0)"/>
      <use xlink:href="#DejaVuSans-74" transform="translate(653.710938 0)"/>
      <use xlink:href="#DejaVuSans-68" transform="translate(692.919922 0)"/>
      <use xlink:href="#DejaVuSans-20" transform="translate(756.298828 0)"/>
      <use xlink:href="#DejaVuSans-63" transform="translate(788.085938 0)"/>
      <use xlink:href="#DejaVuSans-68" transform="translate(843.066406 0)"/>
      <use xlink:href="#DejaVuSans-61" transform="translate(906.445312 0)"/>
      <use xlink:href="#DejaVuSans-72" transform="translate(967.724609 0)"/>
      <use xlink:href="#DejaVuSans-61" transform="translate(1008.837891 0)"/>
      <use xlink:href="#DejaVuSans-63" transform="translate(1070.117188 0)"/>
      <use xlink:href="#DejaVuSans-74" transform="translate(1125.097656 0)"/>
      <use xlink:href="#DejaVuSans-65" transform="translate(1164.306641 0)"/>
      <use xlink:href="#DejaVuSans-72" transform="translate(1225.830078 0)"/>
      <use xlink:href="#DejaVuSans-69" transform="translate(1266.943359 0)"/>
      <use xlink:href="#DejaVuSans-73" transform="translate(1294.726562 0)"/>
      <use xlink:href="#DejaVuSans-74" transform="translate(1346.826172 0)"/>
      <use xlink:href="#DejaVuSans-69" transform="translate(1386.035156 0)"/>
      <use xlink:href="#DejaVuSans-63" transform="translate(1413.818359 0)"/>
     </g>
    </g>
   </g>
   <g id="line2d_23">
    <path d="M 138.436364 132.33992 
L 145.04048 140.733997 
L 149.634648 138.654025 
L 155.95163 127.749263 
L 161.407204 123.721306 
L 165.139966 129.52151 
L 171.744082 134.014346 
L 177.773928 134.264944 
L 183.229503 125.340956 
L 189.259348 119.661864 
L 196.1506 114.113121 
L 201.319039 124.824835 
L 206.487479 121.665376 
L 208.784563 124.883201 
L 214.240137 121.092626 
L 216.537221 122.503682 
L 219.408576 122.76828 
L 224.864151 128.832933 
L 230.319726 149.417227 
L 236.923842 156.386375 
L 242.666552 158.663577 
L 246.399314 154.083195 
L 250.132075 152.256281 
L 255.874786 167.172663 
L 257.597599 182.533182 
L 263.627444 194.216657 
L 268.508748 205.926451 
L 274.538593 227.549656 
L 279.707033 246.88843 
L 285.162607 272.202431 
L 291.766724 274.373123 
L 298.083705 282.729592 
L 306.69777 299.763218 
L 312.153345 302.784762 
L 314.163293 306.771048 
L 315.0247 311.124858 
L 319.906003 329.712929 
L 328.520069 345.029561 
L 336.272727 346.519162 
L 342.876844 348.337317 
L 346.32247 361.633901 
L 349.768096 369.36 
L 353.500858 355.419574 
L 358.095026 355.567511 
L 364.124871 351.412483 
L 373.313208 352.560421 
L 375.323156 356.746367 
L 379.055918 354.590461 
L 387.382847 346.793337 
L 388.244254 352.303666 
L 391.68988 363.926493 
L 398.006861 363.759108 
L 399.442539 359.14128 
L 400.878216 356.467153 
L 402.313894 352.382284 
L 406.620926 339.344971 
L 412.076501 329.721885 
L 420.116295 339.273751 
L 421.551973 342.926191 
L 423.561921 350.740407 
L 427.868954 355.611943 
L 435.908748 329.293308 
L 439.354374 317.435589 
L 440.502916 309.068699 
L 442.8 295.912253 
L 447.107033 282.160335 
L 451.988336 273.362262 
L 458.879588 251.345979 
L 461.176672 240.656196 
L 465.77084 226.984713 
L 470.652144 214.404436 
L 473.236364 200.194571 
L 475.246312 176.847863 
L 481.563293 164.423917 
L 485.870326 147.53922 
L 492.761578 154.544697 
L 498.504288 150.264994 
L 504.534134 156.074214 
L 507.118353 153.980799 
L 508.266895 150.813431 
L 514.296741 145.585334 
L 520.613722 136.158889 
L 524.633619 153.285682 
L 527.79211 155.121114 
L 531.237736 152.32026 
L 537.841852 149.559507 
L 541.000343 154.071365 
L 541.574614 159.650115 
L 543.010292 151.931345 
L 552.485763 144.440387 
L 555.644254 132.725127 
L 559.951286 130.912636 
L 563.684048 126.76478 
L 566.268268 124.638369 
L 575.743739 134.135524 
L 579.763636 141.756494 
L 583.496398 150.707472 
L 586.367753 155.150711 
L 590.38765 154.901702 
L 593.833276 172.818567 
L 599.575986 193.104339 
L 603.883019 201.700845 
L 606.754374 213.938518 
L 607.902916 224.950382 
L 611.348542 235.443607 
L 614.794168 244.077936 
L 618.239794 255.712988 
L 623.695369 269.940903 
L 628.863808 282.605638 
L 635.467925 276.027511 
L 641.784906 282.476681 
L 645.517667 295.417984 
L 651.547513 291.26839 
L 653.270326 289.223787 
L 655.280274 290.995739 
L 659.013036 288.37537 
L 664.755746 287.231581 
L 669.924185 287.100329 
L 673.082676 280.61904 
L 674.518353 289.66602 
L 675.37976 298.301603 
L 677.102573 295.135161 
L 682.271012 289.539276 
L 683.993825 293.679678 
L 684.855232 300.162143 
L 688.300858 300.133503 
L 692.033619 291.897575 
L 693.182161 293.974746 
L 693.756432 293.086865 
L 694.904974 283.083975 
L 695.479245 283.836313 
L 701.509091 287.401717 
L 702.370497 283.553571 
L 704.667581 287.924277 
L 707.826072 280.718842 
L 708.687479 282.078425 
L 710.697427 291.299485 
L 712.42024 301.246653 
L 715.291595 293.865423 
L 719.598628 287.478232 
L 722.757118 292.063853 
L 725.915609 300.699231 
L 727.351286 302.290642 
L 727.925557 307.914183 
L 729.64837 314.512298 
L 733.093997 307.071473 
L 735.965352 299.020834 
L 736.539623 307.961297 
L 738.549571 312.76112 
L 739.698113 322.034489 
L 743.71801 322.526193 
L 747.163636 319.360786 
L 747.163636 319.360786 
" clip-path="url(#pfd6246ff1a)" style="fill: none; stroke: #5c3e99; stroke-width: 1.5; stroke-linecap: square"/>
    <defs>
     <path id="mb031a3e389" d="M 0 3 
C 0.795609 3 1.55874 2.683901 2.12132 2.12132 
C 2.683901 1.55874 3 0.795609 3 0 
C 3 -0.795609 2.683901 -1.55874 2.12132 -2.12132 
C 1.55874 -2.683901 0.795609 -3 0 -3 
C -0.795609 -3 -1.55874 -2.683901 -2.12132 -2.12132 
C -2.683901 -1.55874 -3 -0.795609 -3 0 
C -3 0.795609 -2.683901 1.55874 -2.12132 2.12132 
C -1.55874 2.683901 -0.795609 3 0 3 
z
" style="stroke: #5c3e99"/>
    </defs>
    <g clip-path="url(#pfd6246ff1a)">
     <use xlink:href="#mb031a3e389" x="138.436364" y="132.33992" style="fill: #5c3e99; stroke: #5c3e99"/>
     <use xlink:href="#mb031a3e389" x="145.04048" y="140.733997" style="fill: #5c3e99; stroke: #5c3e99"/>
     <use xlink:href="#mb031a3e389" x="149.634648" y="138.654025" style="fill: #5c3e99; stroke: #5c3e99"/>
     <use xlink:href="#mb031a3e389" x="155.95163" y="127.749263" style="fill: #5c3e99; stroke: #5c3e99"/>
     <use xlink:href="#mb031a3e389" x="161.407204" y="123.721306" style="fill: #5c3e99; stroke: #5c3e99"/>
     <use xlink:href="#mb031a3e389" x="165.139966" y="129.52151" style="fill: #5c3e99; stroke: #5c3e99"/>
     <use xlink:href="#mb031a3e389" x="171.744082" y="134.014346" style="fill: #5c3e99; stroke: #5c3e99"/>
     <use xlink:href="#mb031a3e389" x="177.773928" y="134.264944" style="fill: #5c3e99; stroke: #5c3e99"/>
     <use xlink:href="#mb031a3e389" x="183.229503" y="125.340956" style="fill: #5c3e99; stroke: #5c3e99"/>
     <use xlink:href="#mb031a3e389" x="189.259348" y="119.661864" style="fill: #5c3e99; stroke: #5c3e99"/>
     <use xlink:href="#mb031a3e389" x="196.1506" y="114.113121" style="fill: #5c3e99; stroke: #5c3e99"/>
     <use xlink:href="#mb031a3e389" x="201.319039" y="124.824835" style="fill: #5c3e99; stroke: #5c3e99"/>
     <use xlink:href="#mb031a3e389" x="206.487479" y="121.665376" style="fill: #5c3e99; stroke: #5c3e99"/>
     <use xlink:href="#mb031a3e389" x="208.784563" y="124.883201" style="fill: #5c3e99; stroke: #5c3e99"/>
     <use xlink:href="#mb031a3e389" x="214.240137" y="121.092626" style="fill: #5c3e99; stroke: #5c3e99"/>
     <use xlink:href="#mb031a3e389" x="216.537221" y="122.503682" style="fill: #5c3e99; stroke: #5c3e99"/>
     <use xlink:href="#mb031a3e389" x="219.408576" y="122.76828" style="fill: #5c3e99; stroke: #5c3e99"/>
     <use xlink:href="#mb031a3e389" x="224.864151" y="128.832933" style="fill: #5c3e99; stroke: #5c3e99"/>
     <use xlink:href="#mb031a3e389" x="230.319726" y="149.417227" style="fill: #5c3e99; stroke: #5c3e99"/>
     <use xlink:href="#mb031a3e389" x="236.923842" y="156.386375" style="fill: #5c3e99; stroke: #5c3e99"/>
     <use xlink:href="#mb031a3e389" x="242.666552" y="158.663577" style="fill: #5c3e99; stroke: #5c3e99"/>
     <use xlink:href="#mb031a3e389" x="246.399314" y="154.083195" style="fill: #5c3e99; stroke: #5c3e99"/>
     <use xlink:href="#mb031a3e389" x="250.132075" y="152.256281" style="fill: #5c3e99; stroke: #5c3e99"/>
     <use xlink:href="#mb031a3e389" x="255.874786" y="167.172663" style="fill: #5c3e99; stroke: #5c3e99"/>
     <use xlink:href="#mb031a3e389" x="257.597599" y="182.533182" style="fill: #5c3e99; stroke: #5c3e99"/>
     <use xlink:href="#mb031a3e389" x="263.627444" y="194.216657" style="fill: #5c3e99; stroke: #5c3e99"/>
     <use xlink:href="#mb031a3e389" x="268.508748" y="205.926451" style="fill: #5c3e99; stroke: #5c3e99"/>
     <use xlink:href="#mb031a3e389" x="274.538593" y="227.549656" style="fill: #5c3e99; stroke: #5c3e99"/>
     <use xlink:href="#mb031a3e389" x="279.707033" y="246.88843" style="fill: #5c3e99; stroke: #5c3e99"/>
     <use xlink:href="#mb031a3e389" x="285.162607" y="272.202431" style="fill: #5c3e99; stroke: #5c3e99"/>
     <use xlink:href="#mb031a3e389" x="291.766724" y="274.373123" style="fill: #5c3e99; stroke: #5c3e99"/>
     <use xlink:href="#mb031a3e389" x="298.083705" y="282.729592" style="fill: #5c3e99; stroke: #5c3e99"/>
     <use xlink:href="#mb031a3e389" x="306.69777" y="299.763218" style="fill: #5c3e99; stroke: #5c3e99"/>
     <use xlink:href="#mb031a3e389" x="312.153345" y="302.784762" style="fill: #5c3e99; stroke: #5c3e99"/>
     <use xlink:href="#mb031a3e389" x="314.163293" y="306.771048" style="fill: #5c3e99; stroke: #5c3e99"/>
     <use xlink:href="#mb031a3e389" x="315.0247" y="311.124858" style="fill: #5c3e99; stroke: #5c3e99"/>
     <use xlink:href="#mb031a3e389" x="319.906003" y="329.712929" style="fill: #5c3e99; stroke: #5c3e99"/>
     <use xlink:href="#mb031a3e389" x="328.520069" y="345.029561" style="fill: #5c3e99; stroke: #5c3e99"/>
     <use xlink:href="#mb031a3e389" x="336.272727" y="346.519162" style="fill: #5c3e99; stroke: #5c3e99"/>
     <use xlink:href="#mb031a3e389" x="342.876844" y="348.337317" style="fill: #5c3e99; stroke: #5c3e99"/>
     <use xlink:href="#mb031a3e389" x="346.32247" y="361.633901" style="fill: #5c3e99; stroke: #5c3e99"/>
     <use xlink:href="#mb031a3e389" x="349.768096" y="369.36" style="fill: #5c3e99; stroke: #5c3e99"/>
     <use xlink:href="#mb031a3e389" x="353.500858" y="355.419574" style="fill: #5c3e99; stroke: #5c3e99"/>
     <use xlink:href="#mb031a3e389" x="358.095026" y="355.567511" style="fill: #5c3e99; stroke: #5c3e99"/>
     <use xlink:href="#mb031a3e389" x="364.124871" y="351.412483" style="fill: #5c3e99; stroke: #5c3e99"/>
     <use xlink:href="#mb031a3e389" x="373.313208" y="352.560421" style="fill: #5c3e99; stroke: #5c3e99"/>
     <use xlink:href="#mb031a3e389" x="375.323156" y="356.746367" style="fill: #5c3e99; stroke: #5c3e99"/>
     <use xlink:href="#mb031a3e389" x="379.055918" y="354.590461" style="fill: #5c3e99; stroke: #5c3e99"/>
     <use xlink:href="#mb031a3e389" x="387.382847" y="346.793337" style="fill: #5c3e99; stroke: #5c3e99"/>
     <use xlink:href="#mb031a3e389" x="388.244254" y="352.303666" style="fill: #5c3e99; stroke: #5c3e99"/>
     <use xlink:href="#mb031a3e389" x="391.68988" y="363.926493" style="fill: #5c3e99; stroke: #5c3e99"/>
     <use xlink:href="#mb031a3e389" x="398.006861" y="363.759108" style="fill: #5c3e99; stroke: #5c3e99"/>
     <use xlink:href="#mb031a3e389" x="399.442539" y="359.14128" style="fill: #5c3e99; stroke: #5c3e99"/>
     <use xlink:href="#mb031a3e389" x="400.878216" y="356.467153" style="fill: #5c3e99; stroke: #5c3e99"/>
     <use xlink:href="#mb031a3e389" x="402.313894" y="352.382284" style="fill: #5c3e99; stroke: #5c3e99"/>
     <use xlink:href="#mb031a3e389" x="406.620926" y="339.344971" style="fill: #5c3e99; stroke: #5c3e99"/>
     <use xlink:href="#mb031a3e389" x="412.076501" y="329.721885" style="fill: #5c3e99; stroke: #5c3e99"/>
     <use xlink:href="#mb031a3e389" x="420.116295" y="339.273751" style="fill: #5c3e99; stroke: #5c3e99"/>
     <use xlink:href="#mb031a3e389" x="421.551973" y="342.926191" style="fill: #5c3e99; stroke: #5c3e99"/>
     <use xlink:href="#mb031a3e389" x="423.561921" y="350.740407" style="fill: #5c3e99; stroke: #5c3e99"/>
     <use xlink:href="#mb031a3e389" x="427.868954" y="355.611943" style="fill: #5c3e99; stroke: #5c3e99"/>
     <use xlink:href="#mb031a3e389" x="432.750257" y="339.6431" style="fill: #5c3e99; stroke: #5c3e99"/>
     <use xlink:href="#mb031a3e389" x="435.908748" y="329.293308" style="fill: #5c3e99; stroke: #5c3e99"/>
     <use xlink:href="#mb031a3e389" x="439.354374" y="317.435589" style="fill: #5c3e99; stroke: #5c3e99"/>
     <use xlink:href="#mb031a3e389" x="440.502916" y="309.068699" style="fill: #5c3e99; stroke: #5c3e99"/>
     <use xlink:href="#mb031a3e389" x="442.8" y="295.912253" style="fill: #5c3e99; stroke: #5c3e99"/>
     <use xlink:href="#mb031a3e389" x="447.107033" y="282.160335" style="fill: #5c3e99; stroke: #5c3e99"/>
     <use xlink:href="#mb031a3e389" x="451.988336" y="273.362262" style="fill: #5c3e99; stroke: #5c3e99"/>
     <use xlink:href="#mb031a3e389" x="458.879588" y="251.345979" style="fill: #5c3e99; stroke: #5c3e99"/>
     <use xlink:href="#mb031a3e389" x="461.176672" y="240.656196" style="fill: #5c3e99; stroke: #5c3e99"/>
     <use xlink:href="#mb031a3e389" x="465.77084" y="226.984713" style="fill: #5c3e99; stroke: #5c3e99"/>
     <use xlink:href="#mb031a3e389" x="470.652144" y="214.404436" style="fill: #5c3e99; stroke: #5c3e99"/>
     <use xlink:href="#mb031a3e389" x="473.236364" y="200.194571" style="fill: #5c3e99; stroke: #5c3e99"/>
     <use xlink:href="#mb031a3e389" x="475.246312" y="176.847863" style="fill: #5c3e99; stroke: #5c3e99"/>
     <use xlink:href="#mb031a3e389" x="481.563293" y="164.423917" style="fill: #5c3e99; stroke: #5c3e99"/>
     <use xlink:href="#mb031a3e389" x="485.870326" y="147.53922" style="fill: #5c3e99; stroke: #5c3e99"/>
     <use xlink:href="#mb031a3e389" x="492.761578" y="154.544697" style="fill: #5c3e99; stroke: #5c3e99"/>
     <use xlink:href="#mb031a3e389" x="498.504288" y="150.264994" style="fill: #5c3e99; stroke: #5c3e99"/>
     <use xlink:href="#mb031a3e389" x="504.534134" y="156.074214" style="fill: #5c3e99; stroke: #5c3e99"/>
     <use xlink:href="#mb031a3e389" x="507.118353" y="153.980799" style="fill: #5c3e99; stroke: #5c3e99"/>
     <use xlink:href="#mb031a3e389" x="508.266895" y="150.813431" style="fill: #5c3e99; stroke: #5c3e99"/>
     <use xlink:href="#mb031a3e389" x="514.296741" y="145.585334" style="fill: #5c3e99; stroke: #5c3e99"/>
     <use xlink:href="#mb031a3e389" x="520.613722" y="136.158889" style="fill: #5c3e99; stroke: #5c3e99"/>
     <use xlink:href="#mb031a3e389" x="524.633619" y="153.285682" style="fill: #5c3e99; stroke: #5c3e99"/>
     <use xlink:href="#mb031a3e389" x="527.79211" y="155.121114" style="fill: #5c3e99; stroke: #5c3e99"/>
     <use xlink:href="#mb031a3e389" x="531.237736" y="152.32026" style="fill: #5c3e99; stroke: #5c3e99"/>
     <use xlink:href="#mb031a3e389" x="537.841852" y="149.559507" style="fill: #5c3e99; stroke: #5c3e99"/>
     <use xlink:href="#mb031a3e389" x="541.000343" y="154.071365" style="fill: #5c3e99; stroke: #5c3e99"/>
     <use xlink:href="#mb031a3e389" x="541.574614" y="159.650115" style="fill: #5c3e99; stroke: #5c3e99"/>
     <use xlink:href="#mb031a3e389" x="543.010292" y="151.931345" style="fill: #5c3e99; stroke: #5c3e99"/>
     <use xlink:href="#mb031a3e389" x="552.485763" y="144.440387" style="fill: #5c3e99; stroke: #5c3e99"/>
     <use xlink:href="#mb031a3e389" x="555.644254" y="132.725127" style="fill: #5c3e99; stroke: #5c3e99"/>
     <use xlink:href="#mb031a3e389" x="559.951286" y="130.912636" style="fill: #5c3e99; stroke: #5c3e99"/>
     <use xlink:href="#mb031a3e389" x="563.684048" y="126.76478" style="fill: #5c3e99; stroke: #5c3e99"/>
     <use xlink:href="#mb031a3e389" x="566.268268" y="124.638369" style="fill: #5c3e99; stroke: #5c3e99"/>
     <use xlink:href="#mb031a3e389" x="575.743739" y="134.135524" style="fill: #5c3e99; stroke: #5c3e99"/>
     <use xlink:href="#mb031a3e389" x="579.763636" y="141.756494" style="fill: #5c3e99; stroke: #5c3e99"/>
     <use xlink:href="#mb031a3e389" x="583.496398" y="150.707472" style="fill: #5c3e99; stroke: #5c3e99"/>
     <use xlink:href="#mb031a3e389" x="586.367753" y="155.150711" style="fill: #5c3e99; stroke: #5c3e99"/>
     <use xlink:href="#mb031a3e389" x="590.38765" y="154.901702" style="fill: #5c3e99; stroke: #5c3e99"/>
     <use xlink:href="#mb031a3e389" x="593.833276" y="172.818567" style="fill: #5c3e99; stroke: #5c3e99"/>
     <use xlink:href="#mb031a3e389" x="599.575986" y="193.104339" style="fill: #5c3e99; stroke: #5c3e99"/>
     <use xlink:href="#mb031a3e389" x="603.883019" y="201.700845" style="fill: #5c3e99; stroke: #5c3e99"/>
     <use xlink:href="#mb031a3e389" x="606.754374" y="213.938518" style="fill: #5c3e99; stroke: #5c3e99"/>
     <use xlink:href="#mb031a3e389" x="607.902916" y="224.950382" style="fill: #5c3e99; stroke: #5c3e99"/>
     <use xlink:href="#mb031a3e389" x="611.348542" y="235.443607" style="fill: #5c3e99; stroke: #5c3e99"/>
     <use xlink:href="#mb031a3e389" x="614.794168" y="244.077936" style="fill: #5c3e99; stroke: #5c3e99"/>
     <use xlink:href="#mb031a3e389" x="618.239794" y="255.712988" style="fill: #5c3e99; stroke: #5c3e99"/>
     <use xlink:href="#mb031a3e389" x="623.695369" y="269.940903" style="fill: #5c3e99; stroke: #5c3e99"/>
     <use xlink:href="#mb031a3e389" x="628.863808" y="282.605638" style="fill: #5c3e99; stroke: #5c3e99"/>
     <use xlink:href="#mb031a3e389" x="635.467925" y="276.027511" style="fill: #5c3e99; stroke: #5c3e99"/>
     <use xlink:href="#mb031a3e389" x="641.784906" y="282.476681" style="fill: #5c3e99; stroke: #5c3e99"/>
     <use xlink:href="#mb031a3e389" x="645.517667" y="295.417984" style="fill: #5c3e99; stroke: #5c3e99"/>
     <use xlink:href="#mb031a3e389" x="651.547513" y="291.26839" style="fill: #5c3e99; stroke: #5c3e99"/>
     <use xlink:href="#mb031a3e389" x="653.270326" y="289.223787" style="fill: #5c3e99; stroke: #5c3e99"/>
     <use xlink:href="#mb031a3e389" x="655.280274" y="290.995739" style="fill: #5c3e99; stroke: #5c3e99"/>
     <use xlink:href="#mb031a3e389" x="659.013036" y="288.37537" style="fill: #5c3e99; stroke: #5c3e99"/>
     <use xlink:href="#mb031a3e389" x="664.755746" y="287.231581" style="fill: #5c3e99; stroke: #5c3e99"/>
     <use xlink:href="#mb031a3e389" x="669.924185" y="287.100329" style="fill: #5c3e99; stroke: #5c3e99"/>
     <use xlink:href="#mb031a3e389" x="673.082676" y="280.61904" style="fill: #5c3e99; stroke: #5c3e99"/>
     <use xlink:href="#mb031a3e389" x="674.518353" y="289.66602" style="fill: #5c3e99; stroke: #5c3e99"/>
     <use xlink:href="#mb031a3e389" x="675.37976" y="298.301603" style="fill: #5c3e99; stroke: #5c3e99"/>
     <use xlink:href="#mb031a3e389" x="677.102573" y="295.135161" style="fill: #5c3e99; stroke: #5c3e99"/>
     <use xlink:href="#mb031a3e389" x="682.271012" y="289.539276" style="fill: #5c3e99; stroke: #5c3e99"/>
     <use xlink:href="#mb031a3e389" x="683.993825" y="293.679678" style="fill: #5c3e99; stroke: #5c3e99"/>
     <use xlink:href="#mb031a3e389" x="684.855232" y="300.162143" style="fill: #5c3e99; stroke: #5c3e99"/>
     <use xlink:href="#mb031a3e389" x="688.300858" y="300.133503" style="fill: #5c3e99; stroke: #5c3e99"/>
     <use xlink:href="#mb031a3e389" x="692.033619" y="291.897575" style="fill: #5c3e99; stroke: #5c3e99"/>
     <use xlink:href="#mb031a3e389" x="693.182161" y="293.974746" style="fill: #5c3e99; stroke: #5c3e99"/>
     <use xlink:href="#mb031a3e389" x="693.756432" y="293.086865" style="fill: #5c3e99; stroke: #5c3e99"/>
     <use xlink:href="#mb031a3e389" x="694.904974" y="283.083975" style="fill: #5c3e99; stroke: #5c3e99"/>
     <use xlink:href="#mb031a3e389" x="695.479245" y="283.836313" style="fill: #5c3e99; stroke: #5c3e99"/>
     <use xlink:href="#mb031a3e389" x="701.509091" y="287.401717" style="fill: #5c3e99; stroke: #5c3e99"/>
     <use xlink:href="#mb031a3e389" x="702.370497" y="283.553571" style="fill: #5c3e99; stroke: #5c3e99"/>
     <use xlink:href="#mb031a3e389" x="704.667581" y="287.924277" style="fill: #5c3e99; stroke: #5c3e99"/>
     <use xlink:href="#mb031a3e389" x="707.826072" y="280.718842" style="fill: #5c3e99; stroke: #5c3e99"/>
     <use xlink:href="#mb031a3e389" x="708.687479" y="282.078425" style="fill: #5c3e99; stroke: #5c3e99"/>
     <use xlink:href="#mb031a3e389" x="710.697427" y="291.299485" style="fill: #5c3e99; stroke: #5c3e99"/>
     <use xlink:href="#mb031a3e389" x="712.42024" y="301.246653" style="fill: #5c3e99; stroke: #5c3e99"/>
     <use xlink:href="#mb031a3e389" x="715.291595" y="293.865423" style="fill: #5c3e99; stroke: #5c3e99"/>
     <use xlink:href="#mb031a3e389" x="719.598628" y="287.478232" style="fill: #5c3e99; stroke: #5c3e99"/>
     <use xlink:href="#mb031a3e389" x="722.757118" y="292.063853" style="fill: #5c3e99; stroke: #5c3e99"/>
     <use xlink:href="#mb031a3e389" x="725.915609" y="300.699231" style="fill: #5c3e99; stroke: #5c3e99"/>
     <use xlink:href="#mb031a3e389" x="727.351286" y="302.290642" style="fill: #5c3e99; stroke: #5c3e99"/>
     <use xlink:href="#mb031a3e389" x="727.925557" y="307.914183" style="fill: #5c3e99; stroke: #5c3e99"/>
     <use xlink:href="#mb031a3e389" x="729.64837" y="314.512298" style="fill: #5c3e99; stroke: #5c3e99"/>
     <use xlink:href="#mb031a3e389" x="733.093997" y="307.071473" style="fill: #5c3e99; stroke: #5c3e99"/>
     <use xlink:href="#mb031a3e389" x="735.965352" y="299.020834" style="fill: #5c3e99; stroke: #5c3e99"/>
     <use xlink:href="#mb031a3e389" x="736.539623" y="307.961297" style="fill: #5c3e99; stroke: #5c3e99"/>
     <use xlink:href="#mb031a3e389" x="738.549571" y="312.76112" style="fill: #5c3e99; stroke: #5c3e99"/>
     <use xlink:href="#mb031a3e389" x="739.698113" y="322.034489" style="fill: #5c3e99; stroke: #5c3e99"/>
     <use xlink:href="#mb031a3e389" x="743.71801" y="322.526193" style="fill: #5c3e99; stroke: #5c3e99"/>
     <use xlink:href="#mb031a3e389" x="747.163636" y="319.360786" style="fill: #5c3e99; stroke: #5c3e99"/>
    </g>
   </g>
   <g id="line2d_24">
    <path d="M 138.436364 163.276691 
L 145.04048 165.412693 
L 149.634648 167.719903 
L 155.95163 160.706139 
L 161.407204 155.842468 
L 165.139966 160.869978 
L 171.744082 161.571481 
L 177.773928 164.456438 
L 183.229503 172.349914 
L 189.259348 170.275256 
L 196.1506 167.610833 
L 201.319039 171.813341 
L 206.487479 167.231824 
L 208.784563 168.189561 
L 214.240137 167.623865 
L 216.537221 166.762604 
L 219.408576 171.555265 
L 224.864151 167.685745 
L 230.319726 181.446248 
L 236.923842 185.415662 
L 242.666552 182.999316 
L 246.399314 177.719056 
L 250.132075 168.594821 
L 255.874786 170.044532 
L 257.597599 183.493173 
L 263.627444 191.523889 
L 268.508748 200.65574 
L 274.538593 215.207701 
L 279.707033 229.401734 
L 285.162607 246.96679 
L 291.766724 247.016805 
L 298.083705 255.934563 
L 306.69777 268.551814 
L 312.153345 267.878422 
L 314.163293 268.318298 
L 319.906003 288.930274 
L 328.520069 310.90509 
L 336.272727 311.73393 
L 342.876844 312.5768 
L 346.32247 325.999671 
L 349.768096 327.478369 
L 353.500858 321.071458 
L 358.095026 319.643584 
L 364.124871 322.679783 
L 375.323156 333.624116 
L 379.055918 335.91665 
L 387.382847 336.641065 
L 388.244254 339.647796 
L 391.68988 353.154591 
L 398.006861 351.648688 
L 399.442539 345.86789 
L 400.878216 349.203048 
L 402.313894 351.029745 
L 406.620926 339.642826 
L 412.076501 337.570833 
L 420.116295 341.646389 
L 421.551973 346.485008 
L 423.561921 344.456887 
L 427.868954 342.543592 
L 432.750257 323.477561 
L 435.908748 317.056423 
L 439.354374 306.334085 
L 440.502916 305.656316 
L 442.8 290.867133 
L 447.107033 276.927834 
L 451.988336 263.691972 
L 458.879588 242.700973 
L 461.176672 222.064537 
L 465.77084 198.950488 
L 470.652144 177.038547 
L 473.236364 158.448018 
L 475.246312 136.144731 
L 481.563293 124.491949 
L 485.870326 101.597245 
L 492.761578 106.656685 
L 498.504288 95.666207 
L 504.534134 91.845756 
L 507.118353 83.509615 
L 508.266895 77.337766 
L 514.296741 73.33138 
L 520.613722 66.96 
L 524.633619 80.533357 
L 527.79211 84.030579 
L 531.237736 93.142869 
L 537.841852 91.79626 
L 541.000343 90.590954 
L 541.574614 96.851085 
L 543.010292 94.87857 
L 552.485763 99.196468 
L 555.644254 100.032956 
L 559.951286 101.62368 
L 563.684048 103.536259 
L 566.268268 105.229065 
L 575.743739 117.583922 
L 579.763636 131.540854 
L 583.496398 136.749768 
L 586.367753 136.666417 
L 590.38765 143.987243 
L 603.883019 196.431697 
L 606.754374 205.317817 
L 607.902916 206.889201 
L 611.348542 213.117752 
L 614.794168 212.787311 
L 618.239794 223.625978 
L 623.695369 235.922003 
L 628.863808 246.412581 
L 635.467925 242.940494 
L 641.784906 240.53858 
L 645.517667 253.131848 
L 651.547513 249.441946 
L 653.270326 245.142416 
L 655.280274 242.997474 
L 659.013036 243.708319 
L 664.755746 244.136541 
L 669.924185 241.820922 
L 673.082676 248.166488 
L 674.518353 261.23197 
L 675.37976 265.227351 
L 677.102573 266.073011 
L 682.271012 258.853121 
L 683.993825 260.862763 
L 684.855232 259.867822 
L 688.300858 255.010274 
L 692.033619 247.133085 
L 693.182161 245.35691 
L 693.756432 245.068338 
L 694.904974 235.101983 
L 695.479245 232.975015 
L 701.509091 234.176286 
L 702.370497 233.456163 
L 704.667581 232.088147 
L 707.826072 221.990893 
L 708.687479 225.957526 
L 710.697427 230.951744 
L 712.42024 239.541945 
L 715.291595 241.829937 
L 719.598628 242.95259 
L 722.757118 256.993243 
L 725.915609 268.178372 
L 727.351286 276.783142 
L 727.925557 278.453041 
L 729.64837 283.85424 
L 733.093997 278.500347 
L 735.965352 266.576206 
L 736.539623 275.732871 
L 738.549571 286.508444 
L 739.698113 294.293481 
L 743.71801 289.405937 
L 747.163636 284.015264 
L 747.163636 284.015264 
" clip-path="url(#pfd6246ff1a)" style="fill: none; stroke: #41a876; stroke-width: 1.5; stroke-linecap: square"/>
    <defs>
     <path id="mc4e6b484df" d="M 0 3 
C 0.795609 3 1.55874 2.683901 2.12132 2.12132 
C 2.683901 1.55874 3 0.795609 3 0 
C 3 -0.795609 2.683901 -1.55874 2.12132 -2.12132 
C 1.55874 -2.683901 0.795609 -3 0 -3 
C -0.795609 -3 -1.55874 -2.683901 -2.12132 -2.12132 
C -2.683901 -1.55874 -3 -0.795609 -3 0 
C -3 0.795609 -2.683901 1.55874 -2.12132 2.12132 
C -1.55874 2.683901 -0.795609 3 0 3 
z
" style="stroke: #41a876"/>
    </defs>
    <g clip-path="url(#pfd6246ff1a)">
     <use xlink:href="#mc4e6b484df" x="138.436364" y="163.276691" style="fill: #41a876; stroke: #41a876"/>
     <use xlink:href="#mc4e6b484df" x="145.04048" y="165.412693" style="fill: #41a876; stroke: #41a876"/>
     <use xlink:href="#mc4e6b484df" x="149.634648" y="167.719903" style="fill: #41a876; stroke: #41a876"/>
     <use xlink:href="#mc4e6b484df" x="155.95163" y="160.706139" style="fill: #41a876; stroke: #41a876"/>
     <use xlink:href="#mc4e6b484df" x="161.407204" y="155.842468" style="fill: #41a876; stroke: #41a876"/>
     <use xlink:href="#mc4e6b484df" x="165.139966" y="160.869978" style="fill: #41a876; stroke: #41a876"/>
     <use xlink:href="#mc4e6b484df" x="171.744082" y="161.571481" style="fill: #41a876; stroke: #41a876"/>
     <use xlink:href="#mc4e6b484df" x="177.773928" y="164.456438" style="fill: #41a876; stroke: #41a876"/>
     <use xlink:href="#mc4e6b484df" x="183.229503" y="172.349914" style="fill: #41a876; stroke: #41a876"/>
     <use xlink:href="#mc4e6b484df" x="189.259348" y="170.275256" style="fill: #41a876; stroke: #41a876"/>
     <use xlink:href="#mc4e6b484df" x="196.1506" y="167.610833" style="fill: #41a876; stroke: #41a876"/>
     <use xlink:href="#mc4e6b484df" x="201.319039" y="171.813341" style="fill: #41a876; stroke: #41a876"/>
     <use xlink:href="#mc4e6b484df" x="206.487479" y="167.231824" style="fill: #41a876; stroke: #41a876"/>
     <use xlink:href="#mc4e6b484df" x="208.784563" y="168.189561" style="fill: #41a876; stroke: #41a876"/>
     <use xlink:href="#mc4e6b484df" x="214.240137" y="167.623865" style="fill: #41a876; stroke: #41a876"/>
     <use xlink:href="#mc4e6b484df" x="216.537221" y="166.762604" style="fill: #41a876; stroke: #41a876"/>
     <use xlink:href="#mc4e6b484df" x="219.408576" y="171.555265" style="fill: #41a876; stroke: #41a876"/>
     <use xlink:href="#mc4e6b484df" x="224.864151" y="167.685745" style="fill: #41a876; stroke: #41a876"/>
     <use xlink:href="#mc4e6b484df" x="230.319726" y="181.446248" style="fill: #41a876; stroke: #41a876"/>
     <use xlink:href="#mc4e6b484df" x="236.923842" y="185.415662" style="fill: #41a876; stroke: #41a876"/>
     <use xlink:href="#mc4e6b484df" x="242.666552" y="182.999316" style="fill: #41a876; stroke: #41a876"/>
     <use xlink:href="#mc4e6b484df" x="246.399314" y="177.719056" style="fill: #41a876; stroke: #41a876"/>
     <use xlink:href="#mc4e6b484df" x="250.132075" y="168.594821" style="fill: #41a876; stroke: #41a876"/>
     <use xlink:href="#mc4e6b484df" x="255.874786" y="170.044532" style="fill: #41a876; stroke: #41a876"/>
     <use xlink:href="#mc4e6b484df" x="257.597599" y="183.493173" style="fill: #41a876; stroke: #41a876"/>
     <use xlink:href="#mc4e6b484df" x="263.627444" y="191.523889" style="fill: #41a876; stroke: #41a876"/>
     <use xlink:href="#mc4e6b484df" x="268.508748" y="200.65574" style="fill: #41a876; stroke: #41a876"/>
     <use xlink:href="#mc4e6b484df" x="274.538593" y="215.207701" style="fill: #41a876; stroke: #41a876"/>
     <use xlink:href="#mc4e6b484df" x="279.707033" y="229.401734" style="fill: #41a876; stroke: #41a876"/>
     <use xlink:href="#mc4e6b484df" x="285.162607" y="246.96679" style="fill: #41a876; stroke: #41a876"/>
     <use xlink:href="#mc4e6b484df" x="291.766724" y="247.016805" style="fill: #41a876; stroke: #41a876"/>
     <use xlink:href="#mc4e6b484df" x="298.083705" y="255.934563" style="fill: #41a876; stroke: #41a876"/>
     <use xlink:href="#mc4e6b484df" x="306.69777" y="268.551814" style="fill: #41a876; stroke: #41a876"/>
     <use xlink:href="#mc4e6b484df" x="312.153345" y="267.878422" style="fill: #41a876; stroke: #41a876"/>
     <use xlink:href="#mc4e6b484df" x="314.163293" y="268.318298" style="fill: #41a876; stroke: #41a876"/>
     <use xlink:href="#mc4e6b484df" x="315.0247" y="271.441401" style="fill: #41a876; stroke: #41a876"/>
     <use xlink:href="#mc4e6b484df" x="319.906003" y="288.930274" style="fill: #41a876; stroke: #41a876"/>
     <use xlink:href="#mc4e6b484df" x="328.520069" y="310.90509" style="fill: #41a876; stroke: #41a876"/>
     <use xlink:href="#mc4e6b484df" x="336.272727" y="311.73393" style="fill: #41a876; stroke: #41a876"/>
     <use xlink:href="#mc4e6b484df" x="342.876844" y="312.5768" style="fill: #41a876; stroke: #41a876"/>
     <use xlink:href="#mc4e6b484df" x="346.32247" y="325.999671" style="fill: #41a876; stroke: #41a876"/>
     <use xlink:href="#mc4e6b484df" x="349.768096" y="327.478369" style="fill: #41a876; stroke: #41a876"/>
     <use xlink:href="#mc4e6b484df" x="353.500858" y="321.071458" style="fill: #41a876; stroke: #41a876"/>
     <use xlink:href="#mc4e6b484df" x="358.095026" y="319.643584" style="fill: #41a876; stroke: #41a876"/>
     <use xlink:href="#mc4e6b484df" x="364.124871" y="322.679783" style="fill: #41a876; stroke: #41a876"/>
     <use xlink:href="#mc4e6b484df" x="373.313208" y="331.625235" style="fill: #41a876; stroke: #41a876"/>
     <use xlink:href="#mc4e6b484df" x="375.323156" y="333.624116" style="fill: #41a876; stroke: #41a876"/>
     <use xlink:href="#mc4e6b484df" x="379.055918" y="335.91665" style="fill: #41a876; stroke: #41a876"/>
     <use xlink:href="#mc4e6b484df" x="387.382847" y="336.641065" style="fill: #41a876; stroke: #41a876"/>
     <use xlink:href="#mc4e6b484df" x="388.244254" y="339.647796" style="fill: #41a876; stroke: #41a876"/>
     <use xlink:href="#mc4e6b484df" x="391.68988" y="353.154591" style="fill: #41a876; stroke: #41a876"/>
     <use xlink:href="#mc4e6b484df" x="398.006861" y="351.648688" style="fill: #41a876; stroke: #41a876"/>
     <use xlink:href="#mc4e6b484df" x="399.442539" y="345.86789" style="fill: #41a876; stroke: #41a876"/>
     <use xlink:href="#mc4e6b484df" x="400.878216" y="349.203048" style="fill: #41a876; stroke: #41a876"/>
     <use xlink:href="#mc4e6b484df" x="402.313894" y="351.029745" style="fill: #41a876; stroke: #41a876"/>
     <use xlink:href="#mc4e6b484df" x="406.620926" y="339.642826" style="fill: #41a876; stroke: #41a876"/>
     <use xlink:href="#mc4e6b484df" x="412.076501" y="337.570833" style="fill: #41a876; stroke: #41a876"/>
     <use xlink:href="#mc4e6b484df" x="420.116295" y="341.646389" style="fill: #41a876; stroke: #41a876"/>
     <use xlink:href="#mc4e6b484df" x="421.551973" y="346.485008" style="fill: #41a876; stroke: #41a876"/>
     <use xlink:href="#mc4e6b484df" x="423.561921" y="344.456887" style="fill: #41a876; stroke: #41a876"/>
     <use xlink:href="#mc4e6b484df" x="427.868954" y="342.543592" style="fill: #41a876; stroke: #41a876"/>
     <use xlink:href="#mc4e6b484df" x="432.750257" y="323.477561" style="fill: #41a876; stroke: #41a876"/>
     <use xlink:href="#mc4e6b484df" x="435.908748" y="317.056423" style="fill: #41a876; stroke: #41a876"/>
     <use xlink:href="#mc4e6b484df" x="439.354374" y="306.334085" style="fill: #41a876; stroke: #41a876"/>
     <use xlink:href="#mc4e6b484df" x="440.502916" y="305.656316" style="fill: #41a876; stroke: #41a876"/>
     <use xlink:href="#mc4e6b484df" x="442.8" y="290.867133" style="fill: #41a876; stroke: #41a876"/>
     <use xlink:href="#mc4e6b484df" x="447.107033" y="276.927834" style="fill: #41a876; stroke: #41a876"/>
     <use xlink:href="#mc4e6b484df" x="451.988336" y="263.691972" style="fill: #41a876; stroke: #41a876"/>
     <use xlink:href="#mc4e6b484df" x="458.879588" y="242.700973" style="fill: #41a876; stroke: #41a876"/>
     <use xlink:href="#mc4e6b484df" x="461.176672" y="222.064537" style="fill: #41a876; stroke: #41a876"/>
     <use xlink:href="#mc4e6b484df" x="465.77084" y="198.950488" style="fill: #41a876; stroke: #41a876"/>
     <use xlink:href="#mc4e6b484df" x="470.652144" y="177.038547" style="fill: #41a876; stroke: #41a876"/>
     <use xlink:href="#mc4e6b484df" x="473.236364" y="158.448018" style="fill: #41a876; stroke: #41a876"/>
     <use xlink:href="#mc4e6b484df" x="475.246312" y="136.144731" style="fill: #41a876; stroke: #41a876"/>
     <use xlink:href="#mc4e6b484df" x="481.563293" y="124.491949" style="fill: #41a876; stroke: #41a876"/>
     <use xlink:href="#mc4e6b484df" x="485.870326" y="101.597245" style="fill: #41a876; stroke: #41a876"/>
     <use xlink:href="#mc4e6b484df" x="492.761578" y="106.656685" style="fill: #41a876; stroke: #41a876"/>
     <use xlink:href="#mc4e6b484df" x="498.504288" y="95.666207" style="fill: #41a876; stroke: #41a876"/>
     <use xlink:href="#mc4e6b484df" x="504.534134" y="91.845756" style="fill: #41a876; stroke: #41a876"/>
     <use xlink:href="#mc4e6b484df" x="507.118353" y="83.509615" style="fill: #41a876; stroke: #41a876"/>
     <use xlink:href="#mc4e6b484df" x="508.266895" y="77.337766" style="fill: #41a876; stroke: #41a876"/>
     <use xlink:href="#mc4e6b484df" x="514.296741" y="73.33138" style="fill: #41a876; stroke: #41a876"/>
     <use xlink:href="#mc4e6b484df" x="520.613722" y="66.96" style="fill: #41a876; stroke: #41a876"/>
     <use xlink:href="#mc4e6b484df" x="524.633619" y="80.533357" style="fill: #41a876; stroke: #41a876"/>
     <use xlink:href="#mc4e6b484df" x="527.79211" y="84.030579" style="fill: #41a876; stroke: #41a876"/>
     <use xlink:href="#mc4e6b484df" x="531.237736" y="93.142869" style="fill: #41a876; stroke: #41a876"/>
     <use xlink:href="#mc4e6b484df" x="537.841852" y="91.79626" style="fill: #41a876; stroke: #41a876"/>
     <use xlink:href="#mc4e6b484df" x="541.000343" y="90.590954" style="fill: #41a876; stroke: #41a876"/>
     <use xlink:href="#mc4e6b484df" x="541.574614" y="96.851085" style="fill: #41a876; stroke: #41a876"/>
     <use xlink:href="#mc4e6b484df" x="543.010292" y="94.87857" style="fill: #41a876; stroke: #41a876"/>
     <use xlink:href="#mc4e6b484df" x="552.485763" y="99.196468" style="fill: #41a876; stroke: #41a876"/>
     <use xlink:href="#mc4e6b484df" x="555.644254" y="100.032956" style="fill: #41a876; stroke: #41a876"/>
     <use xlink:href="#mc4e6b484df" x="559.951286" y="101.62368" style="fill: #41a876; stroke: #41a876"/>
     <use xlink:href="#mc4e6b484df" x="563.684048" y="103.536259" style="fill: #41a876; stroke: #41a876"/>
     <use xlink:href="#mc4e6b484df" x="566.268268" y="105.229065" style="fill: #41a876; stroke: #41a876"/>
     <use xlink:href="#mc4e6b484df" x="575.743739" y="117.583922" style="fill: #41a876; stroke: #41a876"/>
     <use xlink:href="#mc4e6b484df" x="579.763636" y="131.540854" style="fill: #41a876; stroke: #41a876"/>
     <use xlink:href="#mc4e6b484df" x="583.496398" y="136.749768" style="fill: #41a876; stroke: #41a876"/>
     <use xlink:href="#mc4e6b484df" x="586.367753" y="136.666417" style="fill: #41a876; stroke: #41a876"/>
     <use xlink:href="#mc4e6b484df" x="590.38765" y="143.987243" style="fill: #41a876; stroke: #41a876"/>
     <use xlink:href="#mc4e6b484df" x="593.833276" y="157.415068" style="fill: #41a876; stroke: #41a876"/>
     <use xlink:href="#mc4e6b484df" x="599.575986" y="180.058848" style="fill: #41a876; stroke: #41a876"/>
     <use xlink:href="#mc4e6b484df" x="603.883019" y="196.431697" style="fill: #41a876; stroke: #41a876"/>
     <use xlink:href="#mc4e6b484df" x="606.754374" y="205.317817" style="fill: #41a876; stroke: #41a876"/>
     <use xlink:href="#mc4e6b484df" x="607.902916" y="206.889201" style="fill: #41a876; stroke: #41a876"/>
     <use xlink:href="#mc4e6b484df" x="611.348542" y="213.117752" style="fill: #41a876; stroke: #41a876"/>
     <use xlink:href="#mc4e6b484df" x="614.794168" y="212.787311" style="fill: #41a876; stroke: #41a876"/>
     <use xlink:href="#mc4e6b484df" x="618.239794" y="223.625978" style="fill: #41a876; stroke: #41a876"/>
     <use xlink:href="#mc4e6b484df" x="623.695369" y="235.922003" style="fill: #41a876; stroke: #41a876"/>
     <use xlink:href="#mc4e6b484df" x="628.863808" y="246.412581" style="fill: #41a876; stroke: #41a876"/>
     <use xlink:href="#mc4e6b484df" x="635.467925" y="242.940494" style="fill: #41a876; stroke: #41a876"/>
     <use xlink:href="#mc4e6b484df" x="641.784906" y="240.53858" style="fill: #41a876; stroke: #41a876"/>
     <use xlink:href="#mc4e6b484df" x="645.517667" y="253.131848" style="fill: #41a876; stroke: #41a876"/>
     <use xlink:href="#mc4e6b484df" x="651.547513" y="249.441946" style="fill: #41a876; stroke: #41a876"/>
     <use xlink:href="#mc4e6b484df" x="653.270326" y="245.142416" style="fill: #41a876; stroke: #41a876"/>
     <use xlink:href="#mc4e6b484df" x="655.280274" y="242.997474" style="fill: #41a876; stroke: #41a876"/>
     <use xlink:href="#mc4e6b484df" x="659.013036" y="243.708319" style="fill: #41a876; stroke: #41a876"/>
     <use xlink:href="#mc4e6b484df" x="664.755746" y="244.136541" style="fill: #41a876; stroke: #41a876"/>
     <use xlink:href="#mc4e6b484df" x="669.924185" y="241.820922" style="fill: #41a876; stroke: #41a876"/>
     <use xlink:href="#mc4e6b484df" x="673.082676" y="248.166488" style="fill: #41a876; stroke: #41a876"/>
     <use xlink:href="#mc4e6b484df" x="674.518353" y="261.23197" style="fill: #41a876; stroke: #41a876"/>
     <use xlink:href="#mc4e6b484df" x="675.37976" y="265.227351" style="fill: #41a876; stroke: #41a876"/>
     <use xlink:href="#mc4e6b484df" x="677.102573" y="266.073011" style="fill: #41a876; stroke: #41a876"/>
     <use xlink:href="#mc4e6b484df" x="682.271012" y="258.853121" style="fill: #41a876; stroke: #41a876"/>
     <use xlink:href="#mc4e6b484df" x="683.993825" y="260.862763" style="fill: #41a876; stroke: #41a876"/>
     <use xlink:href="#mc4e6b484df" x="684.855232" y="259.867822" style="fill: #41a876; stroke: #41a876"/>
     <use xlink:href="#mc4e6b484df" x="688.300858" y="255.010274" style="fill: #41a876; stroke: #41a876"/>
     <use xlink:href="#mc4e6b484df" x="692.033619" y="247.133085" style="fill: #41a876; stroke: #41a876"/>
     <use xlink:href="#mc4e6b484df" x="693.182161" y="245.35691" style="fill: #41a876; stroke: #41a876"/>
     <use xlink:href="#mc4e6b484df" x="693.756432" y="245.068338" style="fill: #41a876; stroke: #41a876"/>
     <use xlink:href="#mc4e6b484df" x="694.904974" y="235.101983" style="fill: #41a876; stroke: #41a876"/>
     <use xlink:href="#mc4e6b484df" x="695.479245" y="232.975015" style="fill: #41a876; stroke: #41a876"/>
     <use xlink:href="#mc4e6b484df" x="701.509091" y="234.176286" style="fill: #41a876; stroke: #41a876"/>
     <use xlink:href="#mc4e6b484df" x="702.370497" y="233.456163" style="fill: #41a876; stroke: #41a876"/>
     <use xlink:href="#mc4e6b484df" x="704.667581" y="232.088147" style="fill: #41a876; stroke: #41a876"/>
     <use xlink:href="#mc4e6b484df" x="707.826072" y="221.990893" style="fill: #41a876; stroke: #41a876"/>
     <use xlink:href="#mc4e6b484df" x="708.687479" y="225.957526" style="fill: #41a876; stroke: #41a876"/>
     <use xlink:href="#mc4e6b484df" x="710.697427" y="230.951744" style="fill: #41a876; stroke: #41a876"/>
     <use xlink:href="#mc4e6b484df" x="712.42024" y="239.541945" style="fill: #41a876; stroke: #41a876"/>
     <use xlink:href="#mc4e6b484df" x="715.291595" y="241.829937" style="fill: #41a876; stroke: #41a876"/>
     <use xlink:href="#mc4e6b484df" x="719.598628" y="242.95259" style="fill: #41a876; stroke: #41a876"/>
     <use xlink:href="#mc4e6b484df" x="722.757118" y="256.993243" style="fill: #41a876; stroke: #41a876"/>
     <use xlink:href="#mc4e6b484df" x="725.915609" y="268.178372" style="fill: #41a876; stroke: #41a876"/>
     <use xlink:href="#mc4e6b484df" x="727.351286" y="276.783142" style="fill: #41a876; stroke: #41a876"/>
     <use xlink:href="#mc4e6b484df" x="727.925557" y="278.453041" style="fill: #41a876; stroke: #41a876"/>
     <use xlink:href="#mc4e6b484df" x="729.64837" y="283.85424" style="fill: #41a876; stroke: #41a876"/>
     <use xlink:href="#mc4e6b484df" x="733.093997" y="278.500347" style="fill: #41a876; stroke: #41a876"/>
     <use xlink:href="#mc4e6b484df" x="735.965352" y="266.576206" style="fill: #41a876; stroke: #41a876"/>
     <use xlink:href="#mc4e6b484df" x="736.539623" y="275.732871" style="fill: #41a876; stroke: #41a876"/>
     <use xlink:href="#mc4e6b484df" x="738.549571" y="286.508444" style="fill: #41a876; stroke: #41a876"/>
     <use xlink:href="#mc4e6b484df" x="739.698113" y="294.293481" style="fill: #41a876; stroke: #41a876"/>
     <use xlink:href="#mc4e6b484df" x="743.71801" y="289.405937" style="fill: #41a876; stroke: #41a876"/>
     <use xlink:href="#mc4e6b484df" x="747.163636" y="284.015264" style="fill: #41a876; stroke: #41a876"/>
    </g>
   </g>
   <g id="patch_3">
    <path d="M 108 384.48 
L 108 51.84 
" style="fill: none; stroke: #000000; stroke-width: 0.8; stroke-linejoin: miter; stroke-linecap: square"/>
   </g>
   <g id="patch_4">
    <path d="M 777.6 384.48 
L 777.6 51.84 
" style="fill: none; stroke: #000000; stroke-width: 0.8; stroke-linejoin: miter; stroke-linecap: square"/>
   </g>
   <g id="patch_5">
    <path d="M 108 384.48 
L 777.6 384.48 
" style="fill: none; stroke: #000000; stroke-width: 0.8; stroke-linejoin: miter; stroke-linecap: square"/>
   </g>
   <g id="patch_6">
    <path d="M 108 51.84 
L 777.6 51.84 
" style="fill: none; stroke: #000000; stroke-width: 0.8; stroke-linejoin: miter; stroke-linecap: square"/>
   </g>
   <g id="text_14">
    <!-- Mood as Happy score per sentence -->
    <g transform="translate(337.231875 45.84) scale(0.12 -0.12)">
     <defs>
      <path id="DejaVuSans-4d" d="M 628 4666 
L 1569 4666 
L 2759 1491 
L 3956 4666 
L 4897 4666 
L 4897 0 
L 4281 0 
L 4281 4097 
L 3078 897 
L 2444 897 
L 1241 4097 
L 1241 0 
L 628 0 
L 628 4666 
z
" transform="scale(0.015625)"/>
      <path id="DejaVuSans-48" d="M 628 4666 
L 1259 4666 
L 1259 2753 
L 3553 2753 
L 3553 4666 
L 4184 4666 
L 4184 0 
L 3553 0 
L 3553 2222 
L 1259 2222 
L 1259 0 
L 628 0 
L 628 4666 
z
" transform="scale(0.015625)"/>
      <path id="DejaVuSans-70" d="M 1159 525 
L 1159 -1331 
L 581 -1331 
L 581 3500 
L 1159 3500 
L 1159 2969 
Q 1341 3281 1617 3432 
Q 1894 3584 2278 3584 
Q 2916 3584 3314 3078 
Q 3713 2572 3713 1747 
Q 3713 922 3314 415 
Q 2916 -91 2278 -91 
Q 1894 -91 1617 61 
Q 1341 213 1159 525 
z
M 3116 1747 
Q 3116 2381 2855 2742 
Q 2594 3103 2138 3103 
Q 1681 3103 1420 2742 
Q 1159 2381 1159 1747 
Q 1159 1113 1420 752 
Q 1681 391 2138 391 
Q 2594 391 2855 752 
Q 3116 1113 3116 1747 
z
" transform="scale(0.015625)"/>
      <path id="DejaVuSans-79" d="M 2059 -325 
Q 1816 -950 1584 -1140 
Q 1353 -1331 966 -1331 
L 506 -1331 
L 506 -850 
L 844 -850 
Q 1081 -850 1212 -737 
Q 1344 -625 1503 -206 
L 1606 56 
L 191 3500 
L 800 3500 
L 1894 763 
L 2988 3500 
L 3597 3500 
L 2059 -325 
z
" transform="scale(0.015625)"/>
     </defs>
     <use xlink:href="#DejaVuSans-4d"/>
     <use xlink:href="#DejaVuSans-6f" transform="translate(86.279297 0)"/>
     <use xlink:href="#DejaVuSans-6f" transform="translate(147.460938 0)"/>
     <use xlink:href="#DejaVuSans-64" transform="translate(208.642578 0)"/>
     <use xlink:href="#DejaVuSans-20" transform="translate(272.119141 0)"/>
     <use xlink:href="#DejaVuSans-61" transform="translate(303.90625 0)"/>
     <use xlink:href="#DejaVuSans-73" transform="translate(365.185547 0)"/>
     <use xlink:href="#DejaVuSans-20" transform="translate(417.285156 0)"/>
     <use xlink:href="#DejaVuSans-48" transform="translate(449.072266 0)"/>
     <use xlink:href="#DejaVuSans-61" transform="translate(524.267578 0)"/>
     <use xlink:href="#DejaVuSans-70" transform="translate(585.546875 0)"/>
     <use xlink:href="#DejaVuSans-70" transform="translate(649.023438 0)"/>
     <use xlink:href="#DejaVuSans-79" transform="translate(712.5 0)"/>
     <use xlink:href="#DejaVuSans-20" transform="translate(771.679688 0)"/>
     <use xlink:href="#DejaVuSans-73" transform="translate(803.466797 0)"/>
     <use xlink:href="#DejaVuSans-63" transform="translate(855.566406 0)"/>
     <use xlink:href="#DejaVuSans-6f" transform="translate(910.546875 0)"/>
     <use xlink:href="#DejaVuSans-72" transform="translate(971.728516 0)"/>
     <use xlink:href="#DejaVuSans-65" transform="translate(1010.591797 0)"/>
     <use xlink:href="#DejaVuSans-20" transform="translate(1072.115234 0)"/>
     <use xlink:href="#DejaVuSans-70" transform="translate(1103.902344 0)"/>
     <use xlink:href="#DejaVuSans-65" transform="translate(1167.378906 0)"/>
     <use xlink:href="#DejaVuSans-72" transform="translate(1228.902344 0)"/>
     <use xlink:href="#DejaVuSans-20" transform="translate(1270.015625 0)"/>
     <use xlink:href="#DejaVuSans-73" transform="translate(1301.802734 0)"/>
     <use xlink:href="#DejaVuSans-65" transform="translate(1353.902344 0)"/>
     <use xlink:href="#DejaVuSans-6e" transform="translate(1415.425781 0)"/>
     <use xlink:href="#DejaVuSans-74" transform="translate(1478.804688 0)"/>
     <use xlink:href="#DejaVuSans-65" transform="translate(1518.013672 0)"/>
     <use xlink:href="#DejaVuSans-6e" transform="translate(1579.537109 0)"/>
     <use xlink:href="#DejaVuSans-63" transform="translate(1642.916016 0)"/>
     <use xlink:href="#DejaVuSans-65" transform="translate(1697.896484 0)"/>
    </g>
   </g>
   <g id="legend_1">
    <g id="patch_7">
     <path d="M 684.179688 89.19625 
L 770.6 89.19625 
Q 772.6 89.19625 772.6 87.19625 
L 772.6 58.84 
Q 772.6 56.84 770.6 56.84 
L 684.179688 56.84 
Q 682.179688 56.84 682.179688 58.84 
L 682.179688 87.19625 
Q 682.179688 89.19625 684.179688 89.19625 
z
" style="fill: #ffffff; opacity: 0.8; stroke: #cccccc; stroke-linejoin: miter"/>
    </g>
    <g id="line2d_25">
     <path d="M 686.179688 64.938437 
L 696.179688 64.938437 
L 706.179688 64.938437 
" style="fill: none; stroke: #5c3e99; stroke-width: 1.5; stroke-linecap: square"/>
     <g>
      <use xlink:href="#mb031a3e389" x="696.179688" y="64.938437" style="fill: #5c3e99; stroke: #5c3e99"/>
     </g>
    </g>
    <g id="text_15">
     <!-- Standard -->
     <g transform="translate(714.179688 68.438437) scale(0.1 -0.1)">
      <defs>
       <path id="DejaVuSans-53" d="M 3425 4513 
L 3425 3897 
Q 3066 4069 2747 4153 
Q 2428 4238 2131 4238 
Q 1616 4238 1336 4038 
Q 1056 3838 1056 3469 
Q 1056 3159 1242 3001 
Q 1428 2844 1947 2747 
L 2328 2669 
Q 3034 2534 3370 2195 
Q 3706 1856 3706 1288 
Q 3706 609 3251 259 
Q 2797 -91 1919 -91 
Q 1588 -91 1214 -16 
Q 841 59 441 206 
L 441 856 
Q 825 641 1194 531 
Q 1563 422 1919 422 
Q 2459 422 2753 634 
Q 3047 847 3047 1241 
Q 3047 1584 2836 1778 
Q 2625 1972 2144 2069 
L 1759 2144 
Q 1053 2284 737 2584 
Q 422 2884 422 3419 
Q 422 4038 858 4394 
Q 1294 4750 2059 4750 
Q 2388 4750 2728 4690 
Q 3069 4631 3425 4513 
z
" transform="scale(0.015625)"/>
      </defs>
      <use xlink:href="#DejaVuSans-53"/>
      <use xlink:href="#DejaVuSans-74" transform="translate(63.476562 0)"/>
      <use xlink:href="#DejaVuSans-61" transform="translate(102.685547 0)"/>
      <use xlink:href="#DejaVuSans-6e" transform="translate(163.964844 0)"/>
      <use xlink:href="#DejaVuSans-64" transform="translate(227.34375 0)"/>
      <use xlink:href="#DejaVuSans-61" transform="translate(290.820312 0)"/>
      <use xlink:href="#DejaVuSans-72" transform="translate(352.099609 0)"/>
      <use xlink:href="#DejaVuSans-64" transform="translate(391.462891 0)"/>
     </g>
    </g>
    <g id="line2d_26">
     <path d="M 686.179688 79.616562 
L 696.179688 79.616562 
L 706.179688 79.616562 
" style="fill: none; stroke: #41a876; stroke-width: 1.5; stroke-linecap: square"/>
     <g>
      <use xlink:href="#mc4e6b484df" x="696.179688" y="79.616562" style="fill: #41a876; stroke: #41a876"/>
     </g>
    </g>
    <g id="text_16">
     <!-- Contextual -->
     <g transform="translate(714.179688 83.116562) scale(0.1 -0.1)">
      <defs>
       <path id="DejaVuSans-43" d="M 4122 4306 
L 4122 3641 
Q 3803 3938 3442 4084 
Q 3081 4231 2675 4231 
Q 1875 4231 1450 3742 
Q 1025 3253 1025 2328 
Q 1025 1406 1450 917 
Q 1875 428 2675 428 
Q 3081 428 3442 575 
Q 3803 722 4122 1019 
L 4122 359 
Q 3791 134 3420 21 
Q 3050 -91 2638 -91 
Q 1578 -91 968 557 
Q 359 1206 359 2328 
Q 359 3453 968 4101 
Q 1578 4750 2638 4750 
Q 3056 4750 3426 4639 
Q 3797 4528 4122 4306 
z
" transform="scale(0.015625)"/>
       <path id="DejaVuSans-75" d="M 544 1381 
L 544 3500 
L 1119 3500 
L 1119 1403 
Q 1119 906 1312 657 
Q 1506 409 1894 409 
Q 2359 409 2629 706 
Q 2900 1003 2900 1516 
L 2900 3500 
L 3475 3500 
L 3475 0 
L 2900 0 
L 2900 538 
Q 2691 219 2414 64 
Q 2138 -91 1772 -91 
Q 1169 -91 856 284 
Q 544 659 544 1381 
z
M 1991 3584 
L 1991 3584 
z
" transform="scale(0.015625)"/>
      </defs>
      <use xlink:href="#DejaVuSans-43"/>
      <use xlink:href="#DejaVuSans-6f" transform="translate(69.824219 0)"/>
      <use xlink:href="#DejaVuSans-6e" transform="translate(131.005859 0)"/>
      <use xlink:href="#DejaVuSans-74" transform="translate(194.384766 0)"/>
      <use xlink:href="#DejaVuSans-65" transform="translate(233.59375 0)"/>
      <use xlink:href="#DejaVuSans-78" transform="translate(293.367188 0)"/>
      <use xlink:href="#DejaVuSans-74" transform="translate(352.546875 0)"/>
      <use xlink:href="#DejaVuSans-75" transform="translate(391.755859 0)"/>
      <use xlink:href="#DejaVuSans-61" transform="translate(455.134766 0)"/>
      <use xlink:href="#DejaVuSans-6c" transform="translate(516.414062 0)"/>
     </g>
    </g>
   </g>
  </g>
 </g>
 <defs>
  <clipPath id="pfd6246ff1a">
   <rect x="108" y="51.84" width="669.6" height="332.64"/>
  </clipPath>
 </defs>
</svg>
