<?xml version="1.0" encoding="utf-8" standalone="no"?>
<!DOCTYPE svg PUBLIC "-//W3C//DTD SVG 1.1//EN"
  "http://www.w3.org/Graphics/SVG/1.1/DTD/svg11.dtd">
<svg xmlns:xlink="http://www.w3.org/1999/xlink" width="864pt" height="432pt" viewBox="0 0 864 432" xmlns="http://www.w3.org/2000/svg" version="1.1">
 <metadata>
  <rdf:RDF xmlns:dc="http://purl.org/dc/elements/1.1/" xmlns:cc="http://creativecommons.org/ns#" xmlns:rdf="http://www.w3.org/1999/02/22-rdf-syntax-ns#">
   <cc:Work>
    <dc:type rdf:resource="http://purl.org/dc/dcmitype/StillImage"/>
    <dc:date>2025-01-03T08:32:42.433656</dc:date>
    <dc:format>image/svg+xml</dc:format>
    <dc:creator>
     <cc:Agent>
      <dc:title>Matplotlib v3.10.0, https://matplotlib.org/</dc:title>
     </cc:Agent>
    </dc:creator>
   </cc:Work>
  </rdf:RDF>
 </metadata>
 <defs>
  <style type="text/css">*{stroke-linejoin: round; stroke-linecap: butt}</style>
 </defs>
 <g id="figure_1">
  <g id="patch_1">
   <path d="M 0 432 
L 864 432 
L 864 0 
L 0 0 
z
" style="fill: #ffffff"/>
  </g>
  <g id="axes_1">
   <g id="patch_2">
    <path d="M 108 384.48 
L 777.6 384.48 
L 777.6 51.84 
L 108 51.84 
z
" style="fill: #ffffff"/>
   </g>
   <g id="matplotlib.axis_1">
    <g id="xtick_1">
     <g id="line2d_1">
      <path d="M 138.436364 384.48 
L 138.436364 51.84 
" clip-path="url(#p6290492de6)" style="fill: none; stroke: #b0b0b0; stroke-width: 0.8; stroke-linecap: square"/>
     </g>
     <g id="line2d_2">
      <defs>
       <path id="m3a7c05d24f" d="M 0 0 
L 0 3.5 
" style="stroke: #000000; stroke-width: 0.8"/>
      </defs>
      <g>
       <use xlink:href="#m3a7c05d24f" x="138.436364" y="384.48" style="stroke: #000000; stroke-width: 0.8"/>
      </g>
     </g>
     <g id="text_1">
      <!-- 0 -->
      <g transform="translate(135.255114 399.078438) scale(0.1 -0.1)">
       <defs>
        <path id="DejaVuSans-30" d="M 2034 4250 
Q 1547 4250 1301 3770 
Q 1056 3291 1056 2328 
Q 1056 1369 1301 889 
Q 1547 409 2034 409 
Q 2525 409 2770 889 
Q 3016 1369 3016 2328 
Q 3016 3291 2770 3770 
Q 2525 4250 2034 4250 
z
M 2034 4750 
Q 2819 4750 3233 4129 
Q 3647 3509 3647 2328 
Q 3647 1150 3233 529 
Q 2819 -91 2034 -91 
Q 1250 -91 836 529 
Q 422 1150 422 2328 
Q 422 3509 836 4129 
Q 1250 4750 2034 4750 
z
" transform="scale(0.015625)"/>
       </defs>
       <use xlink:href="#DejaVuSans-30"/>
      </g>
     </g>
    </g>
    <g id="xtick_2">
     <g id="line2d_3">
      <path d="M 282.004117 384.48 
L 282.004117 51.84 
" clip-path="url(#p6290492de6)" style="fill: none; stroke: #b0b0b0; stroke-width: 0.8; stroke-linecap: square"/>
     </g>
     <g id="line2d_4">
      <g>
       <use xlink:href="#m3a7c05d24f" x="282.004117" y="384.48" style="stroke: #000000; stroke-width: 0.8"/>
      </g>
     </g>
     <g id="text_2">
      <!-- 500 -->
      <g transform="translate(272.460367 399.078438) scale(0.1 -0.1)">
       <defs>
        <path id="DejaVuSans-35" d="M 691 4666 
L 3169 4666 
L 3169 4134 
L 1269 4134 
L 1269 2991 
Q 1406 3038 1543 3061 
Q 1681 3084 1819 3084 
Q 2600 3084 3056 2656 
Q 3513 2228 3513 1497 
Q 3513 744 3044 326 
Q 2575 -91 1722 -91 
Q 1428 -91 1123 -41 
Q 819 9 494 109 
L 494 744 
Q 775 591 1075 516 
Q 1375 441 1709 441 
Q 2250 441 2565 725 
Q 2881 1009 2881 1497 
Q 2881 1984 2565 2268 
Q 2250 2553 1709 2553 
Q 1456 2553 1204 2497 
Q 953 2441 691 2322 
L 691 4666 
z
" transform="scale(0.015625)"/>
       </defs>
       <use xlink:href="#DejaVuSans-35"/>
       <use xlink:href="#DejaVuSans-30" transform="translate(63.623047 0)"/>
       <use xlink:href="#DejaVuSans-30" transform="translate(127.246094 0)"/>
      </g>
     </g>
    </g>
    <g id="xtick_3">
     <g id="line2d_5">
      <path d="M 425.57187 384.48 
L 425.57187 51.84 
" clip-path="url(#p6290492de6)" style="fill: none; stroke: #b0b0b0; stroke-width: 0.8; stroke-linecap: square"/>
     </g>
     <g id="line2d_6">
      <g>
       <use xlink:href="#m3a7c05d24f" x="425.57187" y="384.48" style="stroke: #000000; stroke-width: 0.8"/>
      </g>
     </g>
     <g id="text_3">
      <!-- 1000 -->
      <g transform="translate(412.84687 399.078438) scale(0.1 -0.1)">
       <defs>
        <path id="DejaVuSans-31" d="M 794 531 
L 1825 531 
L 1825 4091 
L 703 3866 
L 703 4441 
L 1819 4666 
L 2450 4666 
L 2450 531 
L 3481 531 
L 3481 0 
L 794 0 
L 794 531 
z
" transform="scale(0.015625)"/>
       </defs>
       <use xlink:href="#DejaVuSans-31"/>
       <use xlink:href="#DejaVuSans-30" transform="translate(63.623047 0)"/>
       <use xlink:href="#DejaVuSans-30" transform="translate(127.246094 0)"/>
       <use xlink:href="#DejaVuSans-30" transform="translate(190.869141 0)"/>
      </g>
     </g>
    </g>
    <g id="xtick_4">
     <g id="line2d_7">
      <path d="M 569.139623 384.48 
L 569.139623 51.84 
" clip-path="url(#p6290492de6)" style="fill: none; stroke: #b0b0b0; stroke-width: 0.8; stroke-linecap: square"/>
     </g>
     <g id="line2d_8">
      <g>
       <use xlink:href="#m3a7c05d24f" x="569.139623" y="384.48" style="stroke: #000000; stroke-width: 0.8"/>
      </g>
     </g>
     <g id="text_4">
      <!-- 1500 -->
      <g transform="translate(556.414623 399.078438) scale(0.1 -0.1)">
       <use xlink:href="#DejaVuSans-31"/>
       <use xlink:href="#DejaVuSans-35" transform="translate(63.623047 0)"/>
       <use xlink:href="#DejaVuSans-30" transform="translate(127.246094 0)"/>
       <use xlink:href="#DejaVuSans-30" transform="translate(190.869141 0)"/>
      </g>
     </g>
    </g>
    <g id="xtick_5">
     <g id="line2d_9">
      <path d="M 712.707376 384.48 
L 712.707376 51.84 
" clip-path="url(#p6290492de6)" style="fill: none; stroke: #b0b0b0; stroke-width: 0.8; stroke-linecap: square"/>
     </g>
     <g id="line2d_10">
      <g>
       <use xlink:href="#m3a7c05d24f" x="712.707376" y="384.48" style="stroke: #000000; stroke-width: 0.8"/>
      </g>
     </g>
     <g id="text_5">
      <!-- 2000 -->
      <g transform="translate(699.982376 399.078438) scale(0.1 -0.1)">
       <defs>
        <path id="DejaVuSans-32" d="M 1228 531 
L 3431 531 
L 3431 0 
L 469 0 
L 469 531 
Q 828 903 1448 1529 
Q 2069 2156 2228 2338 
Q 2531 2678 2651 2914 
Q 2772 3150 2772 3378 
Q 2772 3750 2511 3984 
Q 2250 4219 1831 4219 
Q 1534 4219 1204 4116 
Q 875 4013 500 3803 
L 500 4441 
Q 881 4594 1212 4672 
Q 1544 4750 1819 4750 
Q 2544 4750 2975 4387 
Q 3406 4025 3406 3419 
Q 3406 3131 3298 2873 
Q 3191 2616 2906 2266 
Q 2828 2175 2409 1742 
Q 1991 1309 1228 531 
z
" transform="scale(0.015625)"/>
       </defs>
       <use xlink:href="#DejaVuSans-32"/>
       <use xlink:href="#DejaVuSans-30" transform="translate(63.623047 0)"/>
       <use xlink:href="#DejaVuSans-30" transform="translate(127.246094 0)"/>
       <use xlink:href="#DejaVuSans-30" transform="translate(190.869141 0)"/>
      </g>
     </g>
    </g>
    <g id="text_6">
     <!-- Position in Text (Words) -->
     <g transform="translate(384.540625 412.756563) scale(0.1 -0.1)">
      <defs>
       <path id="DejaVuSans-50" d="M 1259 4147 
L 1259 2394 
L 2053 2394 
Q 2494 2394 2734 2622 
Q 2975 2850 2975 3272 
Q 2975 3691 2734 3919 
Q 2494 4147 2053 4147 
L 1259 4147 
z
M 628 4666 
L 2053 4666 
Q 2838 4666 3239 4311 
Q 3641 3956 3641 3272 
Q 3641 2581 3239 2228 
Q 2838 1875 2053 1875 
L 1259 1875 
L 1259 0 
L 628 0 
L 628 4666 
z
" transform="scale(0.015625)"/>
       <path id="DejaVuSans-6f" d="M 1959 3097 
Q 1497 3097 1228 2736 
Q 959 2375 959 1747 
Q 959 1119 1226 758 
Q 1494 397 1959 397 
Q 2419 397 2687 759 
Q 2956 1122 2956 1747 
Q 2956 2369 2687 2733 
Q 2419 3097 1959 3097 
z
M 1959 3584 
Q 2709 3584 3137 3096 
Q 3566 2609 3566 1747 
Q 3566 888 3137 398 
Q 2709 -91 1959 -91 
Q 1206 -91 779 398 
Q 353 888 353 1747 
Q 353 2609 779 3096 
Q 1206 3584 1959 3584 
z
" transform="scale(0.015625)"/>
       <path id="DejaVuSans-73" d="M 2834 3397 
L 2834 2853 
Q 2591 2978 2328 3040 
Q 2066 3103 1784 3103 
Q 1356 3103 1142 2972 
Q 928 2841 928 2578 
Q 928 2378 1081 2264 
Q 1234 2150 1697 2047 
L 1894 2003 
Q 2506 1872 2764 1633 
Q 3022 1394 3022 966 
Q 3022 478 2636 193 
Q 2250 -91 1575 -91 
Q 1294 -91 989 -36 
Q 684 19 347 128 
L 347 722 
Q 666 556 975 473 
Q 1284 391 1588 391 
Q 1994 391 2212 530 
Q 2431 669 2431 922 
Q 2431 1156 2273 1281 
Q 2116 1406 1581 1522 
L 1381 1569 
Q 847 1681 609 1914 
Q 372 2147 372 2553 
Q 372 3047 722 3315 
Q 1072 3584 1716 3584 
Q 2034 3584 2315 3537 
Q 2597 3491 2834 3397 
z
" transform="scale(0.015625)"/>
       <path id="DejaVuSans-69" d="M 603 3500 
L 1178 3500 
L 1178 0 
L 603 0 
L 603 3500 
z
M 603 4863 
L 1178 4863 
L 1178 4134 
L 603 4134 
L 603 4863 
z
" transform="scale(0.015625)"/>
       <path id="DejaVuSans-74" d="M 1172 4494 
L 1172 3500 
L 2356 3500 
L 2356 3053 
L 1172 3053 
L 1172 1153 
Q 1172 725 1289 603 
Q 1406 481 1766 481 
L 2356 481 
L 2356 0 
L 1766 0 
Q 1100 0 847 248 
Q 594 497 594 1153 
L 594 3053 
L 172 3053 
L 172 3500 
L 594 3500 
L 594 4494 
L 1172 4494 
z
" transform="scale(0.015625)"/>
       <path id="DejaVuSans-6e" d="M 3513 2113 
L 3513 0 
L 2938 0 
L 2938 2094 
Q 2938 2591 2744 2837 
Q 2550 3084 2163 3084 
Q 1697 3084 1428 2787 
Q 1159 2491 1159 1978 
L 1159 0 
L 581 0 
L 581 3500 
L 1159 3500 
L 1159 2956 
Q 1366 3272 1645 3428 
Q 1925 3584 2291 3584 
Q 2894 3584 3203 3211 
Q 3513 2838 3513 2113 
z
" transform="scale(0.015625)"/>
       <path id="DejaVuSans-20" transform="scale(0.015625)"/>
       <path id="DejaVuSans-54" d="M -19 4666 
L 3928 4666 
L 3928 4134 
L 2272 4134 
L 2272 0 
L 1638 0 
L 1638 4134 
L -19 4134 
L -19 4666 
z
" transform="scale(0.015625)"/>
       <path id="DejaVuSans-65" d="M 3597 1894 
L 3597 1613 
L 953 1613 
Q 991 1019 1311 708 
Q 1631 397 2203 397 
Q 2534 397 2845 478 
Q 3156 559 3463 722 
L 3463 178 
Q 3153 47 2828 -22 
Q 2503 -91 2169 -91 
Q 1331 -91 842 396 
Q 353 884 353 1716 
Q 353 2575 817 3079 
Q 1281 3584 2069 3584 
Q 2775 3584 3186 3129 
Q 3597 2675 3597 1894 
z
M 3022 2063 
Q 3016 2534 2758 2815 
Q 2500 3097 2075 3097 
Q 1594 3097 1305 2825 
Q 1016 2553 972 2059 
L 3022 2063 
z
" transform="scale(0.015625)"/>
       <path id="DejaVuSans-78" d="M 3513 3500 
L 2247 1797 
L 3578 0 
L 2900 0 
L 1881 1375 
L 863 0 
L 184 0 
L 1544 1831 
L 300 3500 
L 978 3500 
L 1906 2253 
L 2834 3500 
L 3513 3500 
z
" transform="scale(0.015625)"/>
       <path id="DejaVuSans-28" d="M 1984 4856 
Q 1566 4138 1362 3434 
Q 1159 2731 1159 2009 
Q 1159 1288 1364 580 
Q 1569 -128 1984 -844 
L 1484 -844 
Q 1016 -109 783 600 
Q 550 1309 550 2009 
Q 550 2706 781 3412 
Q 1013 4119 1484 4856 
L 1984 4856 
z
" transform="scale(0.015625)"/>
       <path id="DejaVuSans-57" d="M 213 4666 
L 850 4666 
L 1831 722 
L 2809 4666 
L 3519 4666 
L 4500 722 
L 5478 4666 
L 6119 4666 
L 4947 0 
L 4153 0 
L 3169 4050 
L 2175 0 
L 1381 0 
L 213 4666 
z
" transform="scale(0.015625)"/>
       <path id="DejaVuSans-72" d="M 2631 2963 
Q 2534 3019 2420 3045 
Q 2306 3072 2169 3072 
Q 1681 3072 1420 2755 
Q 1159 2438 1159 1844 
L 1159 0 
L 581 0 
L 581 3500 
L 1159 3500 
L 1159 2956 
Q 1341 3275 1631 3429 
Q 1922 3584 2338 3584 
Q 2397 3584 2469 3576 
Q 2541 3569 2628 3553 
L 2631 2963 
z
" transform="scale(0.015625)"/>
       <path id="DejaVuSans-64" d="M 2906 2969 
L 2906 4863 
L 3481 4863 
L 3481 0 
L 2906 0 
L 2906 525 
Q 2725 213 2448 61 
Q 2172 -91 1784 -91 
Q 1150 -91 751 415 
Q 353 922 353 1747 
Q 353 2572 751 3078 
Q 1150 3584 1784 3584 
Q 2172 3584 2448 3432 
Q 2725 3281 2906 2969 
z
M 947 1747 
Q 947 1113 1208 752 
Q 1469 391 1925 391 
Q 2381 391 2643 752 
Q 2906 1113 2906 1747 
Q 2906 2381 2643 2742 
Q 2381 3103 1925 3103 
Q 1469 3103 1208 2742 
Q 947 2381 947 1747 
z
" transform="scale(0.015625)"/>
       <path id="DejaVuSans-29" d="M 513 4856 
L 1013 4856 
Q 1481 4119 1714 3412 
Q 1947 2706 1947 2009 
Q 1947 1309 1714 600 
Q 1481 -109 1013 -844 
L 513 -844 
Q 928 -128 1133 580 
Q 1338 1288 1338 2009 
Q 1338 2731 1133 3434 
Q 928 4138 513 4856 
z
" transform="scale(0.015625)"/>
      </defs>
      <use xlink:href="#DejaVuSans-50"/>
      <use xlink:href="#DejaVuSans-6f" transform="translate(56.677734 0)"/>
      <use xlink:href="#DejaVuSans-73" transform="translate(117.859375 0)"/>
      <use xlink:href="#DejaVuSans-69" transform="translate(169.958984 0)"/>
      <use xlink:href="#DejaVuSans-74" transform="translate(197.742188 0)"/>
      <use xlink:href="#DejaVuSans-69" transform="translate(236.951172 0)"/>
      <use xlink:href="#DejaVuSans-6f" transform="translate(264.734375 0)"/>
      <use xlink:href="#DejaVuSans-6e" transform="translate(325.916016 0)"/>
      <use xlink:href="#DejaVuSans-20" transform="translate(389.294922 0)"/>
      <use xlink:href="#DejaVuSans-69" transform="translate(421.082031 0)"/>
      <use xlink:href="#DejaVuSans-6e" transform="translate(448.865234 0)"/>
      <use xlink:href="#DejaVuSans-20" transform="translate(512.244141 0)"/>
      <use xlink:href="#DejaVuSans-54" transform="translate(544.03125 0)"/>
      <use xlink:href="#DejaVuSans-65" transform="translate(588.115234 0)"/>
      <use xlink:href="#DejaVuSans-78" transform="translate(647.888672 0)"/>
      <use xlink:href="#DejaVuSans-74" transform="translate(707.068359 0)"/>
      <use xlink:href="#DejaVuSans-20" transform="translate(746.277344 0)"/>
      <use xlink:href="#DejaVuSans-28" transform="translate(778.064453 0)"/>
      <use xlink:href="#DejaVuSans-57" transform="translate(817.078125 0)"/>
      <use xlink:href="#DejaVuSans-6f" transform="translate(910.080078 0)"/>
      <use xlink:href="#DejaVuSans-72" transform="translate(971.261719 0)"/>
      <use xlink:href="#DejaVuSans-64" transform="translate(1010.625 0)"/>
      <use xlink:href="#DejaVuSans-73" transform="translate(1074.101562 0)"/>
      <use xlink:href="#DejaVuSans-29" transform="translate(1126.201172 0)"/>
     </g>
    </g>
   </g>
   <g id="matplotlib.axis_2">
    <g id="ytick_1">
     <g id="line2d_11">
      <path d="M 108 344.170197 
L 777.6 344.170197 
" clip-path="url(#p6290492de6)" style="fill: none; stroke: #b0b0b0; stroke-width: 0.8; stroke-linecap: square"/>
     </g>
     <g id="line2d_12">
      <defs>
       <path id="maa3a7bded4" d="M 0 0 
L -3.5 0 
" style="stroke: #000000; stroke-width: 0.8"/>
      </defs>
      <g>
       <use xlink:href="#maa3a7bded4" x="108" y="344.170197" style="stroke: #000000; stroke-width: 0.8"/>
      </g>
     </g>
     <g id="text_7">
      <!-- −0.4 -->
      <g transform="translate(76.717187 347.969416) scale(0.1 -0.1)">
       <defs>
        <path id="DejaVuSans-2212" d="M 678 2272 
L 4684 2272 
L 4684 1741 
L 678 1741 
L 678 2272 
z
" transform="scale(0.015625)"/>
        <path id="DejaVuSans-2e" d="M 684 794 
L 1344 794 
L 1344 0 
L 684 0 
L 684 794 
z
" transform="scale(0.015625)"/>
        <path id="DejaVuSans-34" d="M 2419 4116 
L 825 1625 
L 2419 1625 
L 2419 4116 
z
M 2253 4666 
L 3047 4666 
L 3047 1625 
L 3713 1625 
L 3713 1100 
L 3047 1100 
L 3047 0 
L 2419 0 
L 2419 1100 
L 313 1100 
L 313 1709 
L 2253 4666 
z
" transform="scale(0.015625)"/>
       </defs>
       <use xlink:href="#DejaVuSans-2212"/>
       <use xlink:href="#DejaVuSans-30" transform="translate(83.789062 0)"/>
       <use xlink:href="#DejaVuSans-2e" transform="translate(147.412109 0)"/>
       <use xlink:href="#DejaVuSans-34" transform="translate(179.199219 0)"/>
      </g>
     </g>
    </g>
    <g id="ytick_2">
     <g id="line2d_13">
      <path d="M 108 281.679266 
L 777.6 281.679266 
" clip-path="url(#p6290492de6)" style="fill: none; stroke: #b0b0b0; stroke-width: 0.8; stroke-linecap: square"/>
     </g>
     <g id="line2d_14">
      <g>
       <use xlink:href="#maa3a7bded4" x="108" y="281.679266" style="stroke: #000000; stroke-width: 0.8"/>
      </g>
     </g>
     <g id="text_8">
      <!-- −0.2 -->
      <g transform="translate(76.717187 285.478485) scale(0.1 -0.1)">
       <use xlink:href="#DejaVuSans-2212"/>
       <use xlink:href="#DejaVuSans-30" transform="translate(83.789062 0)"/>
       <use xlink:href="#DejaVuSans-2e" transform="translate(147.412109 0)"/>
       <use xlink:href="#DejaVuSans-32" transform="translate(179.199219 0)"/>
      </g>
     </g>
    </g>
    <g id="ytick_3">
     <g id="line2d_15">
      <path d="M 108 219.188335 
L 777.6 219.188335 
" clip-path="url(#p6290492de6)" style="fill: none; stroke: #b0b0b0; stroke-width: 0.8; stroke-linecap: square"/>
     </g>
     <g id="line2d_16">
      <g>
       <use xlink:href="#maa3a7bded4" x="108" y="219.188335" style="stroke: #000000; stroke-width: 0.8"/>
      </g>
     </g>
     <g id="text_9">
      <!-- 0.0 -->
      <g transform="translate(85.096875 222.987554) scale(0.1 -0.1)">
       <use xlink:href="#DejaVuSans-30"/>
       <use xlink:href="#DejaVuSans-2e" transform="translate(63.623047 0)"/>
       <use xlink:href="#DejaVuSans-30" transform="translate(95.410156 0)"/>
      </g>
     </g>
    </g>
    <g id="ytick_4">
     <g id="line2d_17">
      <path d="M 108 156.697404 
L 777.6 156.697404 
" clip-path="url(#p6290492de6)" style="fill: none; stroke: #b0b0b0; stroke-width: 0.8; stroke-linecap: square"/>
     </g>
     <g id="line2d_18">
      <g>
       <use xlink:href="#maa3a7bded4" x="108" y="156.697404" style="stroke: #000000; stroke-width: 0.8"/>
      </g>
     </g>
     <g id="text_10">
      <!-- 0.2 -->
      <g transform="translate(85.096875 160.496623) scale(0.1 -0.1)">
       <use xlink:href="#DejaVuSans-30"/>
       <use xlink:href="#DejaVuSans-2e" transform="translate(63.623047 0)"/>
       <use xlink:href="#DejaVuSans-32" transform="translate(95.410156 0)"/>
      </g>
     </g>
    </g>
    <g id="ytick_5">
     <g id="line2d_19">
      <path d="M 108 94.206473 
L 777.6 94.206473 
" clip-path="url(#p6290492de6)" style="fill: none; stroke: #b0b0b0; stroke-width: 0.8; stroke-linecap: square"/>
     </g>
     <g id="line2d_20">
      <g>
       <use xlink:href="#maa3a7bded4" x="108" y="94.206473" style="stroke: #000000; stroke-width: 0.8"/>
      </g>
     </g>
     <g id="text_11">
      <!-- 0.4 -->
      <g transform="translate(85.096875 98.005692) scale(0.1 -0.1)">
       <use xlink:href="#DejaVuSans-30"/>
       <use xlink:href="#DejaVuSans-2e" transform="translate(63.623047 0)"/>
       <use xlink:href="#DejaVuSans-34" transform="translate(95.410156 0)"/>
      </g>
     </g>
    </g>
    <g id="text_12">
     <!-- Alignment with characteristic -->
     <g transform="translate(70.6375 291.5975) rotate(-90) scale(0.1 -0.1)">
      <defs>
       <path id="DejaVuSans-41" d="M 2188 4044 
L 1331 1722 
L 3047 1722 
L 2188 4044 
z
M 1831 4666 
L 2547 4666 
L 4325 0 
L 3669 0 
L 3244 1197 
L 1141 1197 
L 716 0 
L 50 0 
L 1831 4666 
z
" transform="scale(0.015625)"/>
       <path id="DejaVuSans-6c" d="M 603 4863 
L 1178 4863 
L 1178 0 
L 603 0 
L 603 4863 
z
" transform="scale(0.015625)"/>
       <path id="DejaVuSans-67" d="M 2906 1791 
Q 2906 2416 2648 2759 
Q 2391 3103 1925 3103 
Q 1463 3103 1205 2759 
Q 947 2416 947 1791 
Q 947 1169 1205 825 
Q 1463 481 1925 481 
Q 2391 481 2648 825 
Q 2906 1169 2906 1791 
z
M 3481 434 
Q 3481 -459 3084 -895 
Q 2688 -1331 1869 -1331 
Q 1566 -1331 1297 -1286 
Q 1028 -1241 775 -1147 
L 775 -588 
Q 1028 -725 1275 -790 
Q 1522 -856 1778 -856 
Q 2344 -856 2625 -561 
Q 2906 -266 2906 331 
L 2906 616 
Q 2728 306 2450 153 
Q 2172 0 1784 0 
Q 1141 0 747 490 
Q 353 981 353 1791 
Q 353 2603 747 3093 
Q 1141 3584 1784 3584 
Q 2172 3584 2450 3431 
Q 2728 3278 2906 2969 
L 2906 3500 
L 3481 3500 
L 3481 434 
z
" transform="scale(0.015625)"/>
       <path id="DejaVuSans-6d" d="M 3328 2828 
Q 3544 3216 3844 3400 
Q 4144 3584 4550 3584 
Q 5097 3584 5394 3201 
Q 5691 2819 5691 2113 
L 5691 0 
L 5113 0 
L 5113 2094 
Q 5113 2597 4934 2840 
Q 4756 3084 4391 3084 
Q 3944 3084 3684 2787 
Q 3425 2491 3425 1978 
L 3425 0 
L 2847 0 
L 2847 2094 
Q 2847 2600 2669 2842 
Q 2491 3084 2119 3084 
Q 1678 3084 1418 2786 
Q 1159 2488 1159 1978 
L 1159 0 
L 581 0 
L 581 3500 
L 1159 3500 
L 1159 2956 
Q 1356 3278 1631 3431 
Q 1906 3584 2284 3584 
Q 2666 3584 2933 3390 
Q 3200 3197 3328 2828 
z
" transform="scale(0.015625)"/>
       <path id="DejaVuSans-77" d="M 269 3500 
L 844 3500 
L 1563 769 
L 2278 3500 
L 2956 3500 
L 3675 769 
L 4391 3500 
L 4966 3500 
L 4050 0 
L 3372 0 
L 2619 2869 
L 1863 0 
L 1184 0 
L 269 3500 
z
" transform="scale(0.015625)"/>
       <path id="DejaVuSans-68" d="M 3513 2113 
L 3513 0 
L 2938 0 
L 2938 2094 
Q 2938 2591 2744 2837 
Q 2550 3084 2163 3084 
Q 1697 3084 1428 2787 
Q 1159 2491 1159 1978 
L 1159 0 
L 581 0 
L 581 4863 
L 1159 4863 
L 1159 2956 
Q 1366 3272 1645 3428 
Q 1925 3584 2291 3584 
Q 2894 3584 3203 3211 
Q 3513 2838 3513 2113 
z
" transform="scale(0.015625)"/>
       <path id="DejaVuSans-63" d="M 3122 3366 
L 3122 2828 
Q 2878 2963 2633 3030 
Q 2388 3097 2138 3097 
Q 1578 3097 1268 2742 
Q 959 2388 959 1747 
Q 959 1106 1268 751 
Q 1578 397 2138 397 
Q 2388 397 2633 464 
Q 2878 531 3122 666 
L 3122 134 
Q 2881 22 2623 -34 
Q 2366 -91 2075 -91 
Q 1284 -91 818 406 
Q 353 903 353 1747 
Q 353 2603 823 3093 
Q 1294 3584 2113 3584 
Q 2378 3584 2631 3529 
Q 2884 3475 3122 3366 
z
" transform="scale(0.015625)"/>
       <path id="DejaVuSans-61" d="M 2194 1759 
Q 1497 1759 1228 1600 
Q 959 1441 959 1056 
Q 959 750 1161 570 
Q 1363 391 1709 391 
Q 2188 391 2477 730 
Q 2766 1069 2766 1631 
L 2766 1759 
L 2194 1759 
z
M 3341 1997 
L 3341 0 
L 2766 0 
L 2766 531 
Q 2569 213 2275 61 
Q 1981 -91 1556 -91 
Q 1019 -91 701 211 
Q 384 513 384 1019 
Q 384 1609 779 1909 
Q 1175 2209 1959 2209 
L 2766 2209 
L 2766 2266 
Q 2766 2663 2505 2880 
Q 2244 3097 1772 3097 
Q 1472 3097 1187 3025 
Q 903 2953 641 2809 
L 641 3341 
Q 956 3463 1253 3523 
Q 1550 3584 1831 3584 
Q 2591 3584 2966 3190 
Q 3341 2797 3341 1997 
z
" transform="scale(0.015625)"/>
      </defs>
      <use xlink:href="#DejaVuSans-41"/>
      <use xlink:href="#DejaVuSans-6c" transform="translate(68.408203 0)"/>
      <use xlink:href="#DejaVuSans-69" transform="translate(96.191406 0)"/>
      <use xlink:href="#DejaVuSans-67" transform="translate(123.974609 0)"/>
      <use xlink:href="#DejaVuSans-6e" transform="translate(187.451172 0)"/>
      <use xlink:href="#DejaVuSans-6d" transform="translate(250.830078 0)"/>
      <use xlink:href="#DejaVuSans-65" transform="translate(348.242188 0)"/>
      <use xlink:href="#DejaVuSans-6e" transform="translate(409.765625 0)"/>
      <use xlink:href="#DejaVuSans-74" transform="translate(473.144531 0)"/>
      <use xlink:href="#DejaVuSans-20" transform="translate(512.353516 0)"/>
      <use xlink:href="#DejaVuSans-77" transform="translate(544.140625 0)"/>
      <use xlink:href="#DejaVuSans-69" transform="translate(625.927734 0)"/>
      <use xlink:href="#DejaVuSans-74" transform="translate(653.710938 0)"/>
      <use xlink:href="#DejaVuSans-68" transform="translate(692.919922 0)"/>
      <use xlink:href="#DejaVuSans-20" transform="translate(756.298828 0)"/>
      <use xlink:href="#DejaVuSans-63" transform="translate(788.085938 0)"/>
      <use xlink:href="#DejaVuSans-68" transform="translate(843.066406 0)"/>
      <use xlink:href="#DejaVuSans-61" transform="translate(906.445312 0)"/>
      <use xlink:href="#DejaVuSans-72" transform="translate(967.724609 0)"/>
      <use xlink:href="#DejaVuSans-61" transform="translate(1008.837891 0)"/>
      <use xlink:href="#DejaVuSans-63" transform="translate(1070.117188 0)"/>
      <use xlink:href="#DejaVuSans-74" transform="translate(1125.097656 0)"/>
      <use xlink:href="#DejaVuSans-65" transform="translate(1164.306641 0)"/>
      <use xlink:href="#DejaVuSans-72" transform="translate(1225.830078 0)"/>
      <use xlink:href="#DejaVuSans-69" transform="translate(1266.943359 0)"/>
      <use xlink:href="#DejaVuSans-73" transform="translate(1294.726562 0)"/>
      <use xlink:href="#DejaVuSans-74" transform="translate(1346.826172 0)"/>
      <use xlink:href="#DejaVuSans-69" transform="translate(1386.035156 0)"/>
      <use xlink:href="#DejaVuSans-63" transform="translate(1413.818359 0)"/>
     </g>
    </g>
   </g>
   <g id="line2d_21">
    <path d="M 138.436364 88.848254 
L 145.04048 107.057959 
L 149.634648 111.915638 
L 155.95163 105.064424 
L 161.407204 98.646379 
L 165.139966 94.682076 
L 171.744082 86.223598 
L 183.229503 97.202115 
L 189.259348 86.579656 
L 196.1506 90.244514 
L 201.319039 101.074436 
L 206.487479 108.397583 
L 208.784563 107.303694 
L 214.240137 96.565367 
L 219.408576 66.96 
L 224.864151 76.051188 
L 230.319726 114.262961 
L 236.923842 128.928247 
L 242.666552 145.677139 
L 246.399314 151.323064 
L 250.132075 135.836227 
L 255.874786 149.095125 
L 257.597599 154.851059 
L 263.627444 160.675278 
L 268.508748 175.613172 
L 274.538593 190.751785 
L 279.707033 217.434839 
L 285.162607 255.04252 
L 291.766724 263.589338 
L 298.083705 296.801997 
L 306.69777 310.994145 
L 312.153345 298.086132 
L 314.163293 298.037398 
L 315.0247 301.814051 
L 319.906003 318.484094 
L 328.520069 350.478615 
L 336.272727 351.59107 
L 342.876844 355.492348 
L 346.32247 365.857852 
L 349.768096 369.36 
L 353.500858 361.592659 
L 358.095026 359.357221 
L 364.124871 342.236933 
L 373.313208 340.924686 
L 375.323156 329.894553 
L 379.055918 327.144221 
L 387.382847 323.076545 
L 388.244254 335.183662 
L 391.68988 343.703053 
L 398.006861 341.810567 
L 399.442539 336.260201 
L 400.878216 337.914059 
L 402.313894 338.4869 
L 406.620926 325.671406 
L 412.076501 323.879102 
L 420.116295 329.21579 
L 423.561921 355.048592 
L 427.868954 351.954674 
L 432.750257 334.094532 
L 435.908748 323.054032 
L 439.354374 309.077759 
L 442.8 289.443616 
L 447.107033 281.124579 
L 451.988336 268.066375 
L 458.879588 240.681162 
L 461.176672 236.678196 
L 465.77084 225.056411 
L 470.652144 208.05756 
L 473.236364 193.755866 
L 475.246312 164.274002 
L 481.563293 153.597687 
L 485.870326 143.482433 
L 492.761578 161.900181 
L 498.504288 157.087682 
L 504.534134 167.715505 
L 507.118353 157.666322 
L 508.266895 156.768929 
L 514.296741 144.754635 
L 520.613722 129.512563 
L 524.633619 156.431234 
L 527.79211 149.403191 
L 531.237736 145.299056 
L 537.841852 140.371897 
L 541.000343 146.397158 
L 541.574614 150.656699 
L 543.010292 141.502835 
L 552.485763 132.605793 
L 555.644254 112.586304 
L 559.951286 108.701796 
L 563.684048 97.389032 
L 566.268268 107.366192 
L 575.743739 106.706359 
L 579.763636 112.90352 
L 583.496398 132.604437 
L 586.367753 125.312972 
L 590.38765 136.623138 
L 593.833276 168.840616 
L 599.575986 189.217845 
L 603.883019 206.59135 
L 606.754374 213.117401 
L 607.902916 222.395734 
L 611.348542 237.744168 
L 614.794168 250.370228 
L 618.239794 271.054673 
L 623.695369 297.968384 
L 628.863808 303.22408 
L 635.467925 306.718486 
L 641.784906 313.796725 
L 645.517667 335.069378 
L 651.547513 338.523456 
L 655.280274 323.967691 
L 659.013036 331.608136 
L 664.755746 326.186617 
L 669.924185 336.948568 
L 673.082676 342.08297 
L 674.518353 354.206126 
L 675.37976 366.486567 
L 677.102573 361.678346 
L 682.271012 344.1285 
L 683.993825 351.872846 
L 684.855232 359.1054 
L 688.300858 364.60335 
L 693.182161 349.042886 
L 693.756432 344.951906 
L 694.904974 342.055771 
L 695.479245 334.197633 
L 701.509091 330.623897 
L 702.370497 324.011055 
L 704.667581 321.840881 
L 707.826072 311.372898 
L 708.687479 310.32635 
L 710.697427 320.879556 
L 712.42024 334.815653 
L 715.291595 321.207801 
L 719.598628 319.693469 
L 722.757118 326.079537 
L 725.915609 326.314098 
L 727.351286 334.140036 
L 727.925557 334.896611 
L 729.64837 333.340726 
L 733.093997 330.79922 
L 735.965352 322.239195 
L 736.539623 330.549414 
L 738.549571 321.610107 
L 739.698113 326.809858 
L 743.71801 321.025194 
L 747.163636 316.940875 
L 747.163636 316.940875 
" clip-path="url(#p6290492de6)" style="fill: none; stroke: #5c3e99; stroke-width: 1.5; stroke-linecap: square"/>
    <defs>
     <path id="mf2f6c37ec9" d="M 0 3 
C 0.795609 3 1.55874 2.683901 2.12132 2.12132 
C 2.683901 1.55874 3 0.795609 3 0 
C 3 -0.795609 2.683901 -1.55874 2.12132 -2.12132 
C 1.55874 -2.683901 0.795609 -3 0 -3 
C -0.795609 -3 -1.55874 -2.683901 -2.12132 -2.12132 
C -2.683901 -1.55874 -3 -0.795609 -3 0 
C -3 0.795609 -2.683901 1.55874 -2.12132 2.12132 
C -1.55874 2.683901 -0.795609 3 0 3 
z
" style="stroke: #5c3e99"/>
    </defs>
    <g clip-path="url(#p6290492de6)">
     <use xlink:href="#mf2f6c37ec9" x="138.436364" y="88.848254" style="fill: #5c3e99; stroke: #5c3e99"/>
     <use xlink:href="#mf2f6c37ec9" x="145.04048" y="107.057959" style="fill: #5c3e99; stroke: #5c3e99"/>
     <use xlink:href="#mf2f6c37ec9" x="149.634648" y="111.915638" style="fill: #5c3e99; stroke: #5c3e99"/>
     <use xlink:href="#mf2f6c37ec9" x="155.95163" y="105.064424" style="fill: #5c3e99; stroke: #5c3e99"/>
     <use xlink:href="#mf2f6c37ec9" x="161.407204" y="98.646379" style="fill: #5c3e99; stroke: #5c3e99"/>
     <use xlink:href="#mf2f6c37ec9" x="165.139966" y="94.682076" style="fill: #5c3e99; stroke: #5c3e99"/>
     <use xlink:href="#mf2f6c37ec9" x="171.744082" y="86.223598" style="fill: #5c3e99; stroke: #5c3e99"/>
     <use xlink:href="#mf2f6c37ec9" x="177.773928" y="91.925028" style="fill: #5c3e99; stroke: #5c3e99"/>
     <use xlink:href="#mf2f6c37ec9" x="183.229503" y="97.202115" style="fill: #5c3e99; stroke: #5c3e99"/>
     <use xlink:href="#mf2f6c37ec9" x="189.259348" y="86.579656" style="fill: #5c3e99; stroke: #5c3e99"/>
     <use xlink:href="#mf2f6c37ec9" x="196.1506" y="90.244514" style="fill: #5c3e99; stroke: #5c3e99"/>
     <use xlink:href="#mf2f6c37ec9" x="201.319039" y="101.074436" style="fill: #5c3e99; stroke: #5c3e99"/>
     <use xlink:href="#mf2f6c37ec9" x="206.487479" y="108.397583" style="fill: #5c3e99; stroke: #5c3e99"/>
     <use xlink:href="#mf2f6c37ec9" x="208.784563" y="107.303694" style="fill: #5c3e99; stroke: #5c3e99"/>
     <use xlink:href="#mf2f6c37ec9" x="214.240137" y="96.565367" style="fill: #5c3e99; stroke: #5c3e99"/>
     <use xlink:href="#mf2f6c37ec9" x="216.537221" y="83.122824" style="fill: #5c3e99; stroke: #5c3e99"/>
     <use xlink:href="#mf2f6c37ec9" x="219.408576" y="66.96" style="fill: #5c3e99; stroke: #5c3e99"/>
     <use xlink:href="#mf2f6c37ec9" x="224.864151" y="76.051188" style="fill: #5c3e99; stroke: #5c3e99"/>
     <use xlink:href="#mf2f6c37ec9" x="230.319726" y="114.262961" style="fill: #5c3e99; stroke: #5c3e99"/>
     <use xlink:href="#mf2f6c37ec9" x="236.923842" y="128.928247" style="fill: #5c3e99; stroke: #5c3e99"/>
     <use xlink:href="#mf2f6c37ec9" x="242.666552" y="145.677139" style="fill: #5c3e99; stroke: #5c3e99"/>
     <use xlink:href="#mf2f6c37ec9" x="246.399314" y="151.323064" style="fill: #5c3e99; stroke: #5c3e99"/>
     <use xlink:href="#mf2f6c37ec9" x="250.132075" y="135.836227" style="fill: #5c3e99; stroke: #5c3e99"/>
     <use xlink:href="#mf2f6c37ec9" x="255.874786" y="149.095125" style="fill: #5c3e99; stroke: #5c3e99"/>
     <use xlink:href="#mf2f6c37ec9" x="257.597599" y="154.851059" style="fill: #5c3e99; stroke: #5c3e99"/>
     <use xlink:href="#mf2f6c37ec9" x="263.627444" y="160.675278" style="fill: #5c3e99; stroke: #5c3e99"/>
     <use xlink:href="#mf2f6c37ec9" x="268.508748" y="175.613172" style="fill: #5c3e99; stroke: #5c3e99"/>
     <use xlink:href="#mf2f6c37ec9" x="274.538593" y="190.751785" style="fill: #5c3e99; stroke: #5c3e99"/>
     <use xlink:href="#mf2f6c37ec9" x="279.707033" y="217.434839" style="fill: #5c3e99; stroke: #5c3e99"/>
     <use xlink:href="#mf2f6c37ec9" x="285.162607" y="255.04252" style="fill: #5c3e99; stroke: #5c3e99"/>
     <use xlink:href="#mf2f6c37ec9" x="291.766724" y="263.589338" style="fill: #5c3e99; stroke: #5c3e99"/>
     <use xlink:href="#mf2f6c37ec9" x="298.083705" y="296.801997" style="fill: #5c3e99; stroke: #5c3e99"/>
     <use xlink:href="#mf2f6c37ec9" x="306.69777" y="310.994145" style="fill: #5c3e99; stroke: #5c3e99"/>
     <use xlink:href="#mf2f6c37ec9" x="312.153345" y="298.086132" style="fill: #5c3e99; stroke: #5c3e99"/>
     <use xlink:href="#mf2f6c37ec9" x="314.163293" y="298.037398" style="fill: #5c3e99; stroke: #5c3e99"/>
     <use xlink:href="#mf2f6c37ec9" x="315.0247" y="301.814051" style="fill: #5c3e99; stroke: #5c3e99"/>
     <use xlink:href="#mf2f6c37ec9" x="319.906003" y="318.484094" style="fill: #5c3e99; stroke: #5c3e99"/>
     <use xlink:href="#mf2f6c37ec9" x="328.520069" y="350.478615" style="fill: #5c3e99; stroke: #5c3e99"/>
     <use xlink:href="#mf2f6c37ec9" x="336.272727" y="351.59107" style="fill: #5c3e99; stroke: #5c3e99"/>
     <use xlink:href="#mf2f6c37ec9" x="342.876844" y="355.492348" style="fill: #5c3e99; stroke: #5c3e99"/>
     <use xlink:href="#mf2f6c37ec9" x="346.32247" y="365.857852" style="fill: #5c3e99; stroke: #5c3e99"/>
     <use xlink:href="#mf2f6c37ec9" x="349.768096" y="369.36" style="fill: #5c3e99; stroke: #5c3e99"/>
     <use xlink:href="#mf2f6c37ec9" x="353.500858" y="361.592659" style="fill: #5c3e99; stroke: #5c3e99"/>
     <use xlink:href="#mf2f6c37ec9" x="358.095026" y="359.357221" style="fill: #5c3e99; stroke: #5c3e99"/>
     <use xlink:href="#mf2f6c37ec9" x="364.124871" y="342.236933" style="fill: #5c3e99; stroke: #5c3e99"/>
     <use xlink:href="#mf2f6c37ec9" x="373.313208" y="340.924686" style="fill: #5c3e99; stroke: #5c3e99"/>
     <use xlink:href="#mf2f6c37ec9" x="375.323156" y="329.894553" style="fill: #5c3e99; stroke: #5c3e99"/>
     <use xlink:href="#mf2f6c37ec9" x="379.055918" y="327.144221" style="fill: #5c3e99; stroke: #5c3e99"/>
     <use xlink:href="#mf2f6c37ec9" x="387.382847" y="323.076545" style="fill: #5c3e99; stroke: #5c3e99"/>
     <use xlink:href="#mf2f6c37ec9" x="388.244254" y="335.183662" style="fill: #5c3e99; stroke: #5c3e99"/>
     <use xlink:href="#mf2f6c37ec9" x="391.68988" y="343.703053" style="fill: #5c3e99; stroke: #5c3e99"/>
     <use xlink:href="#mf2f6c37ec9" x="398.006861" y="341.810567" style="fill: #5c3e99; stroke: #5c3e99"/>
     <use xlink:href="#mf2f6c37ec9" x="399.442539" y="336.260201" style="fill: #5c3e99; stroke: #5c3e99"/>
     <use xlink:href="#mf2f6c37ec9" x="400.878216" y="337.914059" style="fill: #5c3e99; stroke: #5c3e99"/>
     <use xlink:href="#mf2f6c37ec9" x="402.313894" y="338.4869" style="fill: #5c3e99; stroke: #5c3e99"/>
     <use xlink:href="#mf2f6c37ec9" x="406.620926" y="325.671406" style="fill: #5c3e99; stroke: #5c3e99"/>
     <use xlink:href="#mf2f6c37ec9" x="412.076501" y="323.879102" style="fill: #5c3e99; stroke: #5c3e99"/>
     <use xlink:href="#mf2f6c37ec9" x="420.116295" y="329.21579" style="fill: #5c3e99; stroke: #5c3e99"/>
     <use xlink:href="#mf2f6c37ec9" x="421.551973" y="339.870363" style="fill: #5c3e99; stroke: #5c3e99"/>
     <use xlink:href="#mf2f6c37ec9" x="423.561921" y="355.048592" style="fill: #5c3e99; stroke: #5c3e99"/>
     <use xlink:href="#mf2f6c37ec9" x="427.868954" y="351.954674" style="fill: #5c3e99; stroke: #5c3e99"/>
     <use xlink:href="#mf2f6c37ec9" x="432.750257" y="334.094532" style="fill: #5c3e99; stroke: #5c3e99"/>
     <use xlink:href="#mf2f6c37ec9" x="435.908748" y="323.054032" style="fill: #5c3e99; stroke: #5c3e99"/>
     <use xlink:href="#mf2f6c37ec9" x="439.354374" y="309.077759" style="fill: #5c3e99; stroke: #5c3e99"/>
     <use xlink:href="#mf2f6c37ec9" x="440.502916" y="302.557646" style="fill: #5c3e99; stroke: #5c3e99"/>
     <use xlink:href="#mf2f6c37ec9" x="442.8" y="289.443616" style="fill: #5c3e99; stroke: #5c3e99"/>
     <use xlink:href="#mf2f6c37ec9" x="447.107033" y="281.124579" style="fill: #5c3e99; stroke: #5c3e99"/>
     <use xlink:href="#mf2f6c37ec9" x="451.988336" y="268.066375" style="fill: #5c3e99; stroke: #5c3e99"/>
     <use xlink:href="#mf2f6c37ec9" x="458.879588" y="240.681162" style="fill: #5c3e99; stroke: #5c3e99"/>
     <use xlink:href="#mf2f6c37ec9" x="461.176672" y="236.678196" style="fill: #5c3e99; stroke: #5c3e99"/>
     <use xlink:href="#mf2f6c37ec9" x="465.77084" y="225.056411" style="fill: #5c3e99; stroke: #5c3e99"/>
     <use xlink:href="#mf2f6c37ec9" x="470.652144" y="208.05756" style="fill: #5c3e99; stroke: #5c3e99"/>
     <use xlink:href="#mf2f6c37ec9" x="473.236364" y="193.755866" style="fill: #5c3e99; stroke: #5c3e99"/>
     <use xlink:href="#mf2f6c37ec9" x="475.246312" y="164.274002" style="fill: #5c3e99; stroke: #5c3e99"/>
     <use xlink:href="#mf2f6c37ec9" x="481.563293" y="153.597687" style="fill: #5c3e99; stroke: #5c3e99"/>
     <use xlink:href="#mf2f6c37ec9" x="485.870326" y="143.482433" style="fill: #5c3e99; stroke: #5c3e99"/>
     <use xlink:href="#mf2f6c37ec9" x="492.761578" y="161.900181" style="fill: #5c3e99; stroke: #5c3e99"/>
     <use xlink:href="#mf2f6c37ec9" x="498.504288" y="157.087682" style="fill: #5c3e99; stroke: #5c3e99"/>
     <use xlink:href="#mf2f6c37ec9" x="504.534134" y="167.715505" style="fill: #5c3e99; stroke: #5c3e99"/>
     <use xlink:href="#mf2f6c37ec9" x="507.118353" y="157.666322" style="fill: #5c3e99; stroke: #5c3e99"/>
     <use xlink:href="#mf2f6c37ec9" x="508.266895" y="156.768929" style="fill: #5c3e99; stroke: #5c3e99"/>
     <use xlink:href="#mf2f6c37ec9" x="514.296741" y="144.754635" style="fill: #5c3e99; stroke: #5c3e99"/>
     <use xlink:href="#mf2f6c37ec9" x="520.613722" y="129.512563" style="fill: #5c3e99; stroke: #5c3e99"/>
     <use xlink:href="#mf2f6c37ec9" x="524.633619" y="156.431234" style="fill: #5c3e99; stroke: #5c3e99"/>
     <use xlink:href="#mf2f6c37ec9" x="527.79211" y="149.403191" style="fill: #5c3e99; stroke: #5c3e99"/>
     <use xlink:href="#mf2f6c37ec9" x="531.237736" y="145.299056" style="fill: #5c3e99; stroke: #5c3e99"/>
     <use xlink:href="#mf2f6c37ec9" x="537.841852" y="140.371897" style="fill: #5c3e99; stroke: #5c3e99"/>
     <use xlink:href="#mf2f6c37ec9" x="541.000343" y="146.397158" style="fill: #5c3e99; stroke: #5c3e99"/>
     <use xlink:href="#mf2f6c37ec9" x="541.574614" y="150.656699" style="fill: #5c3e99; stroke: #5c3e99"/>
     <use xlink:href="#mf2f6c37ec9" x="543.010292" y="141.502835" style="fill: #5c3e99; stroke: #5c3e99"/>
     <use xlink:href="#mf2f6c37ec9" x="552.485763" y="132.605793" style="fill: #5c3e99; stroke: #5c3e99"/>
     <use xlink:href="#mf2f6c37ec9" x="555.644254" y="112.586304" style="fill: #5c3e99; stroke: #5c3e99"/>
     <use xlink:href="#mf2f6c37ec9" x="559.951286" y="108.701796" style="fill: #5c3e99; stroke: #5c3e99"/>
     <use xlink:href="#mf2f6c37ec9" x="563.684048" y="97.389032" style="fill: #5c3e99; stroke: #5c3e99"/>
     <use xlink:href="#mf2f6c37ec9" x="566.268268" y="107.366192" style="fill: #5c3e99; stroke: #5c3e99"/>
     <use xlink:href="#mf2f6c37ec9" x="575.743739" y="106.706359" style="fill: #5c3e99; stroke: #5c3e99"/>
     <use xlink:href="#mf2f6c37ec9" x="579.763636" y="112.90352" style="fill: #5c3e99; stroke: #5c3e99"/>
     <use xlink:href="#mf2f6c37ec9" x="583.496398" y="132.604437" style="fill: #5c3e99; stroke: #5c3e99"/>
     <use xlink:href="#mf2f6c37ec9" x="586.367753" y="125.312972" style="fill: #5c3e99; stroke: #5c3e99"/>
     <use xlink:href="#mf2f6c37ec9" x="590.38765" y="136.623138" style="fill: #5c3e99; stroke: #5c3e99"/>
     <use xlink:href="#mf2f6c37ec9" x="593.833276" y="168.840616" style="fill: #5c3e99; stroke: #5c3e99"/>
     <use xlink:href="#mf2f6c37ec9" x="599.575986" y="189.217845" style="fill: #5c3e99; stroke: #5c3e99"/>
     <use xlink:href="#mf2f6c37ec9" x="603.883019" y="206.59135" style="fill: #5c3e99; stroke: #5c3e99"/>
     <use xlink:href="#mf2f6c37ec9" x="606.754374" y="213.117401" style="fill: #5c3e99; stroke: #5c3e99"/>
     <use xlink:href="#mf2f6c37ec9" x="607.902916" y="222.395734" style="fill: #5c3e99; stroke: #5c3e99"/>
     <use xlink:href="#mf2f6c37ec9" x="611.348542" y="237.744168" style="fill: #5c3e99; stroke: #5c3e99"/>
     <use xlink:href="#mf2f6c37ec9" x="614.794168" y="250.370228" style="fill: #5c3e99; stroke: #5c3e99"/>
     <use xlink:href="#mf2f6c37ec9" x="618.239794" y="271.054673" style="fill: #5c3e99; stroke: #5c3e99"/>
     <use xlink:href="#mf2f6c37ec9" x="623.695369" y="297.968384" style="fill: #5c3e99; stroke: #5c3e99"/>
     <use xlink:href="#mf2f6c37ec9" x="628.863808" y="303.22408" style="fill: #5c3e99; stroke: #5c3e99"/>
     <use xlink:href="#mf2f6c37ec9" x="635.467925" y="306.718486" style="fill: #5c3e99; stroke: #5c3e99"/>
     <use xlink:href="#mf2f6c37ec9" x="641.784906" y="313.796725" style="fill: #5c3e99; stroke: #5c3e99"/>
     <use xlink:href="#mf2f6c37ec9" x="645.517667" y="335.069378" style="fill: #5c3e99; stroke: #5c3e99"/>
     <use xlink:href="#mf2f6c37ec9" x="651.547513" y="338.523456" style="fill: #5c3e99; stroke: #5c3e99"/>
     <use xlink:href="#mf2f6c37ec9" x="653.270326" y="332.000604" style="fill: #5c3e99; stroke: #5c3e99"/>
     <use xlink:href="#mf2f6c37ec9" x="655.280274" y="323.967691" style="fill: #5c3e99; stroke: #5c3e99"/>
     <use xlink:href="#mf2f6c37ec9" x="659.013036" y="331.608136" style="fill: #5c3e99; stroke: #5c3e99"/>
     <use xlink:href="#mf2f6c37ec9" x="664.755746" y="326.186617" style="fill: #5c3e99; stroke: #5c3e99"/>
     <use xlink:href="#mf2f6c37ec9" x="669.924185" y="336.948568" style="fill: #5c3e99; stroke: #5c3e99"/>
     <use xlink:href="#mf2f6c37ec9" x="673.082676" y="342.08297" style="fill: #5c3e99; stroke: #5c3e99"/>
     <use xlink:href="#mf2f6c37ec9" x="674.518353" y="354.206126" style="fill: #5c3e99; stroke: #5c3e99"/>
     <use xlink:href="#mf2f6c37ec9" x="675.37976" y="366.486567" style="fill: #5c3e99; stroke: #5c3e99"/>
     <use xlink:href="#mf2f6c37ec9" x="677.102573" y="361.678346" style="fill: #5c3e99; stroke: #5c3e99"/>
     <use xlink:href="#mf2f6c37ec9" x="682.271012" y="344.1285" style="fill: #5c3e99; stroke: #5c3e99"/>
     <use xlink:href="#mf2f6c37ec9" x="683.993825" y="351.872846" style="fill: #5c3e99; stroke: #5c3e99"/>
     <use xlink:href="#mf2f6c37ec9" x="684.855232" y="359.1054" style="fill: #5c3e99; stroke: #5c3e99"/>
     <use xlink:href="#mf2f6c37ec9" x="688.300858" y="364.60335" style="fill: #5c3e99; stroke: #5c3e99"/>
     <use xlink:href="#mf2f6c37ec9" x="692.033619" y="352.796423" style="fill: #5c3e99; stroke: #5c3e99"/>
     <use xlink:href="#mf2f6c37ec9" x="693.182161" y="349.042886" style="fill: #5c3e99; stroke: #5c3e99"/>
     <use xlink:href="#mf2f6c37ec9" x="693.756432" y="344.951906" style="fill: #5c3e99; stroke: #5c3e99"/>
     <use xlink:href="#mf2f6c37ec9" x="694.904974" y="342.055771" style="fill: #5c3e99; stroke: #5c3e99"/>
     <use xlink:href="#mf2f6c37ec9" x="695.479245" y="334.197633" style="fill: #5c3e99; stroke: #5c3e99"/>
     <use xlink:href="#mf2f6c37ec9" x="701.509091" y="330.623897" style="fill: #5c3e99; stroke: #5c3e99"/>
     <use xlink:href="#mf2f6c37ec9" x="702.370497" y="324.011055" style="fill: #5c3e99; stroke: #5c3e99"/>
     <use xlink:href="#mf2f6c37ec9" x="704.667581" y="321.840881" style="fill: #5c3e99; stroke: #5c3e99"/>
     <use xlink:href="#mf2f6c37ec9" x="707.826072" y="311.372898" style="fill: #5c3e99; stroke: #5c3e99"/>
     <use xlink:href="#mf2f6c37ec9" x="708.687479" y="310.32635" style="fill: #5c3e99; stroke: #5c3e99"/>
     <use xlink:href="#mf2f6c37ec9" x="710.697427" y="320.879556" style="fill: #5c3e99; stroke: #5c3e99"/>
     <use xlink:href="#mf2f6c37ec9" x="712.42024" y="334.815653" style="fill: #5c3e99; stroke: #5c3e99"/>
     <use xlink:href="#mf2f6c37ec9" x="715.291595" y="321.207801" style="fill: #5c3e99; stroke: #5c3e99"/>
     <use xlink:href="#mf2f6c37ec9" x="719.598628" y="319.693469" style="fill: #5c3e99; stroke: #5c3e99"/>
     <use xlink:href="#mf2f6c37ec9" x="722.757118" y="326.079537" style="fill: #5c3e99; stroke: #5c3e99"/>
     <use xlink:href="#mf2f6c37ec9" x="725.915609" y="326.314098" style="fill: #5c3e99; stroke: #5c3e99"/>
     <use xlink:href="#mf2f6c37ec9" x="727.351286" y="334.140036" style="fill: #5c3e99; stroke: #5c3e99"/>
     <use xlink:href="#mf2f6c37ec9" x="727.925557" y="334.896611" style="fill: #5c3e99; stroke: #5c3e99"/>
     <use xlink:href="#mf2f6c37ec9" x="729.64837" y="333.340726" style="fill: #5c3e99; stroke: #5c3e99"/>
     <use xlink:href="#mf2f6c37ec9" x="733.093997" y="330.79922" style="fill: #5c3e99; stroke: #5c3e99"/>
     <use xlink:href="#mf2f6c37ec9" x="735.965352" y="322.239195" style="fill: #5c3e99; stroke: #5c3e99"/>
     <use xlink:href="#mf2f6c37ec9" x="736.539623" y="330.549414" style="fill: #5c3e99; stroke: #5c3e99"/>
     <use xlink:href="#mf2f6c37ec9" x="738.549571" y="321.610107" style="fill: #5c3e99; stroke: #5c3e99"/>
     <use xlink:href="#mf2f6c37ec9" x="739.698113" y="326.809858" style="fill: #5c3e99; stroke: #5c3e99"/>
     <use xlink:href="#mf2f6c37ec9" x="743.71801" y="321.025194" style="fill: #5c3e99; stroke: #5c3e99"/>
     <use xlink:href="#mf2f6c37ec9" x="747.163636" y="316.940875" style="fill: #5c3e99; stroke: #5c3e99"/>
    </g>
   </g>
   <g id="patch_3">
    <path d="M 108 384.48 
L 108 51.84 
" style="fill: none; stroke: #000000; stroke-width: 0.8; stroke-linejoin: miter; stroke-linecap: square"/>
   </g>
   <g id="patch_4">
    <path d="M 777.6 384.48 
L 777.6 51.84 
" style="fill: none; stroke: #000000; stroke-width: 0.8; stroke-linejoin: miter; stroke-linecap: square"/>
   </g>
   <g id="patch_5">
    <path d="M 108 384.48 
L 777.6 384.48 
" style="fill: none; stroke: #000000; stroke-width: 0.8; stroke-linejoin: miter; stroke-linecap: square"/>
   </g>
   <g id="patch_6">
    <path d="M 108 51.84 
L 777.6 51.84 
" style="fill: none; stroke: #000000; stroke-width: 0.8; stroke-linejoin: miter; stroke-linecap: square"/>
   </g>
   <g id="text_13">
    <!-- Mood as Happy score per sentence -->
    <g transform="translate(337.231875 45.84) scale(0.12 -0.12)">
     <defs>
      <path id="DejaVuSans-4d" d="M 628 4666 
L 1569 4666 
L 2759 1491 
L 3956 4666 
L 4897 4666 
L 4897 0 
L 4281 0 
L 4281 4097 
L 3078 897 
L 2444 897 
L 1241 4097 
L 1241 0 
L 628 0 
L 628 4666 
z
" transform="scale(0.015625)"/>
      <path id="DejaVuSans-48" d="M 628 4666 
L 1259 4666 
L 1259 2753 
L 3553 2753 
L 3553 4666 
L 4184 4666 
L 4184 0 
L 3553 0 
L 3553 2222 
L 1259 2222 
L 1259 0 
L 628 0 
L 628 4666 
z
" transform="scale(0.015625)"/>
      <path id="DejaVuSans-70" d="M 1159 525 
L 1159 -1331 
L 581 -1331 
L 581 3500 
L 1159 3500 
L 1159 2969 
Q 1341 3281 1617 3432 
Q 1894 3584 2278 3584 
Q 2916 3584 3314 3078 
Q 3713 2572 3713 1747 
Q 3713 922 3314 415 
Q 2916 -91 2278 -91 
Q 1894 -91 1617 61 
Q 1341 213 1159 525 
z
M 3116 1747 
Q 3116 2381 2855 2742 
Q 2594 3103 2138 3103 
Q 1681 3103 1420 2742 
Q 1159 2381 1159 1747 
Q 1159 1113 1420 752 
Q 1681 391 2138 391 
Q 2594 391 2855 752 
Q 3116 1113 3116 1747 
z
" transform="scale(0.015625)"/>
      <path id="DejaVuSans-79" d="M 2059 -325 
Q 1816 -950 1584 -1140 
Q 1353 -1331 966 -1331 
L 506 -1331 
L 506 -850 
L 844 -850 
Q 1081 -850 1212 -737 
Q 1344 -625 1503 -206 
L 1606 56 
L 191 3500 
L 800 3500 
L 1894 763 
L 2988 3500 
L 3597 3500 
L 2059 -325 
z
" transform="scale(0.015625)"/>
     </defs>
     <use xlink:href="#DejaVuSans-4d"/>
     <use xlink:href="#DejaVuSans-6f" transform="translate(86.279297 0)"/>
     <use xlink:href="#DejaVuSans-6f" transform="translate(147.460938 0)"/>
     <use xlink:href="#DejaVuSans-64" transform="translate(208.642578 0)"/>
     <use xlink:href="#DejaVuSans-20" transform="translate(272.119141 0)"/>
     <use xlink:href="#DejaVuSans-61" transform="translate(303.90625 0)"/>
     <use xlink:href="#DejaVuSans-73" transform="translate(365.185547 0)"/>
     <use xlink:href="#DejaVuSans-20" transform="translate(417.285156 0)"/>
     <use xlink:href="#DejaVuSans-48" transform="translate(449.072266 0)"/>
     <use xlink:href="#DejaVuSans-61" transform="translate(524.267578 0)"/>
     <use xlink:href="#DejaVuSans-70" transform="translate(585.546875 0)"/>
     <use xlink:href="#DejaVuSans-70" transform="translate(649.023438 0)"/>
     <use xlink:href="#DejaVuSans-79" transform="translate(712.5 0)"/>
     <use xlink:href="#DejaVuSans-20" transform="translate(771.679688 0)"/>
     <use xlink:href="#DejaVuSans-73" transform="translate(803.466797 0)"/>
     <use xlink:href="#DejaVuSans-63" transform="translate(855.566406 0)"/>
     <use xlink:href="#DejaVuSans-6f" transform="translate(910.546875 0)"/>
     <use xlink:href="#DejaVuSans-72" transform="translate(971.728516 0)"/>
     <use xlink:href="#DejaVuSans-65" transform="translate(1010.591797 0)"/>
     <use xlink:href="#DejaVuSans-20" transform="translate(1072.115234 0)"/>
     <use xlink:href="#DejaVuSans-70" transform="translate(1103.902344 0)"/>
     <use xlink:href="#DejaVuSans-65" transform="translate(1167.378906 0)"/>
     <use xlink:href="#DejaVuSans-72" transform="translate(1228.902344 0)"/>
     <use xlink:href="#DejaVuSans-20" transform="translate(1270.015625 0)"/>
     <use xlink:href="#DejaVuSans-73" transform="translate(1301.802734 0)"/>
     <use xlink:href="#DejaVuSans-65" transform="translate(1353.902344 0)"/>
     <use xlink:href="#DejaVuSans-6e" transform="translate(1415.425781 0)"/>
     <use xlink:href="#DejaVuSans-74" transform="translate(1478.804688 0)"/>
     <use xlink:href="#DejaVuSans-65" transform="translate(1518.013672 0)"/>
     <use xlink:href="#DejaVuSans-6e" transform="translate(1579.537109 0)"/>
     <use xlink:href="#DejaVuSans-63" transform="translate(1642.916016 0)"/>
     <use xlink:href="#DejaVuSans-65" transform="translate(1697.896484 0)"/>
    </g>
   </g>
  </g>
 </g>
 <defs>
  <clipPath id="p6290492de6">
   <rect x="108" y="51.84" width="669.6" height="332.64"/>
  </clipPath>
 </defs>
</svg>
