<?xml version="1.0" encoding="utf-8" standalone="no"?>
<!DOCTYPE svg PUBLIC "-//W3C//DTD SVG 1.1//EN"
  "http://www.w3.org/Graphics/SVG/1.1/DTD/svg11.dtd">
<svg xmlns:xlink="http://www.w3.org/1999/xlink" width="864pt" height="432pt" viewBox="0 0 864 432" xmlns="http://www.w3.org/2000/svg" version="1.1">
 <metadata>
  <rdf:RDF xmlns:dc="http://purl.org/dc/elements/1.1/" xmlns:cc="http://creativecommons.org/ns#" xmlns:rdf="http://www.w3.org/1999/02/22-rdf-syntax-ns#">
   <cc:Work>
    <dc:type rdf:resource="http://purl.org/dc/dcmitype/StillImage"/>
    <dc:date>2025-01-03T06:16:02.893285</dc:date>
    <dc:format>image/svg+xml</dc:format>
    <dc:creator>
     <cc:Agent>
      <dc:title>Matplotlib v3.10.0, https://matplotlib.org/</dc:title>
     </cc:Agent>
    </dc:creator>
   </cc:Work>
  </rdf:RDF>
 </metadata>
 <defs>
  <style type="text/css">*{stroke-linejoin: round; stroke-linecap: butt}</style>
 </defs>
 <g id="figure_1">
  <g id="patch_1">
   <path d="M 0 432 
L 864 432 
L 864 0 
L 0 0 
z
" style="fill: #ffffff"/>
  </g>
  <g id="axes_1">
   <g id="patch_2">
    <path d="M 108 384.48 
L 777.6 384.48 
L 777.6 51.84 
L 108 51.84 
z
" style="fill: #ffffff"/>
   </g>
   <g id="matplotlib.axis_1">
    <g id="xtick_1">
     <g id="line2d_1">
      <path d="M 138.436364 384.48 
L 138.436364 51.84 
" clip-path="url(#p58734419f4)" style="fill: none; stroke: #b0b0b0; stroke-width: 0.8; stroke-linecap: square"/>
     </g>
     <g id="line2d_2">
      <defs>
       <path id="mc74e4c49e6" d="M 0 0 
L 0 3.5 
" style="stroke: #000000; stroke-width: 0.8"/>
      </defs>
      <g>
       <use xlink:href="#mc74e4c49e6" x="138.436364" y="384.48" style="stroke: #000000; stroke-width: 0.8"/>
      </g>
     </g>
     <g id="text_1">
      <!-- 0 -->
      <g transform="translate(135.255114 399.078438) scale(0.1 -0.1)">
       <defs>
        <path id="DejaVuSans-30" d="M 2034 4250 
Q 1547 4250 1301 3770 
Q 1056 3291 1056 2328 
Q 1056 1369 1301 889 
Q 1547 409 2034 409 
Q 2525 409 2770 889 
Q 3016 1369 3016 2328 
Q 3016 3291 2770 3770 
Q 2525 4250 2034 4250 
z
M 2034 4750 
Q 2819 4750 3233 4129 
Q 3647 3509 3647 2328 
Q 3647 1150 3233 529 
Q 2819 -91 2034 -91 
Q 1250 -91 836 529 
Q 422 1150 422 2328 
Q 422 3509 836 4129 
Q 1250 4750 2034 4750 
z
" transform="scale(0.015625)"/>
       </defs>
       <use xlink:href="#DejaVuSans-30"/>
      </g>
     </g>
    </g>
    <g id="xtick_2">
     <g id="line2d_3">
      <path d="M 282.004117 384.48 
L 282.004117 51.84 
" clip-path="url(#p58734419f4)" style="fill: none; stroke: #b0b0b0; stroke-width: 0.8; stroke-linecap: square"/>
     </g>
     <g id="line2d_4">
      <g>
       <use xlink:href="#mc74e4c49e6" x="282.004117" y="384.48" style="stroke: #000000; stroke-width: 0.8"/>
      </g>
     </g>
     <g id="text_2">
      <!-- 500 -->
      <g transform="translate(272.460367 399.078438) scale(0.1 -0.1)">
       <defs>
        <path id="DejaVuSans-35" d="M 691 4666 
L 3169 4666 
L 3169 4134 
L 1269 4134 
L 1269 2991 
Q 1406 3038 1543 3061 
Q 1681 3084 1819 3084 
Q 2600 3084 3056 2656 
Q 3513 2228 3513 1497 
Q 3513 744 3044 326 
Q 2575 -91 1722 -91 
Q 1428 -91 1123 -41 
Q 819 9 494 109 
L 494 744 
Q 775 591 1075 516 
Q 1375 441 1709 441 
Q 2250 441 2565 725 
Q 2881 1009 2881 1497 
Q 2881 1984 2565 2268 
Q 2250 2553 1709 2553 
Q 1456 2553 1204 2497 
Q 953 2441 691 2322 
L 691 4666 
z
" transform="scale(0.015625)"/>
       </defs>
       <use xlink:href="#DejaVuSans-35"/>
       <use xlink:href="#DejaVuSans-30" transform="translate(63.623047 0)"/>
       <use xlink:href="#DejaVuSans-30" transform="translate(127.246094 0)"/>
      </g>
     </g>
    </g>
    <g id="xtick_3">
     <g id="line2d_5">
      <path d="M 425.57187 384.48 
L 425.57187 51.84 
" clip-path="url(#p58734419f4)" style="fill: none; stroke: #b0b0b0; stroke-width: 0.8; stroke-linecap: square"/>
     </g>
     <g id="line2d_6">
      <g>
       <use xlink:href="#mc74e4c49e6" x="425.57187" y="384.48" style="stroke: #000000; stroke-width: 0.8"/>
      </g>
     </g>
     <g id="text_3">
      <!-- 1000 -->
      <g transform="translate(412.84687 399.078438) scale(0.1 -0.1)">
       <defs>
        <path id="DejaVuSans-31" d="M 794 531 
L 1825 531 
L 1825 4091 
L 703 3866 
L 703 4441 
L 1819 4666 
L 2450 4666 
L 2450 531 
L 3481 531 
L 3481 0 
L 794 0 
L 794 531 
z
" transform="scale(0.015625)"/>
       </defs>
       <use xlink:href="#DejaVuSans-31"/>
       <use xlink:href="#DejaVuSans-30" transform="translate(63.623047 0)"/>
       <use xlink:href="#DejaVuSans-30" transform="translate(127.246094 0)"/>
       <use xlink:href="#DejaVuSans-30" transform="translate(190.869141 0)"/>
      </g>
     </g>
    </g>
    <g id="xtick_4">
     <g id="line2d_7">
      <path d="M 569.139623 384.48 
L 569.139623 51.84 
" clip-path="url(#p58734419f4)" style="fill: none; stroke: #b0b0b0; stroke-width: 0.8; stroke-linecap: square"/>
     </g>
     <g id="line2d_8">
      <g>
       <use xlink:href="#mc74e4c49e6" x="569.139623" y="384.48" style="stroke: #000000; stroke-width: 0.8"/>
      </g>
     </g>
     <g id="text_4">
      <!-- 1500 -->
      <g transform="translate(556.414623 399.078438) scale(0.1 -0.1)">
       <use xlink:href="#DejaVuSans-31"/>
       <use xlink:href="#DejaVuSans-35" transform="translate(63.623047 0)"/>
       <use xlink:href="#DejaVuSans-30" transform="translate(127.246094 0)"/>
       <use xlink:href="#DejaVuSans-30" transform="translate(190.869141 0)"/>
      </g>
     </g>
    </g>
    <g id="xtick_5">
     <g id="line2d_9">
      <path d="M 712.707376 384.48 
L 712.707376 51.84 
" clip-path="url(#p58734419f4)" style="fill: none; stroke: #b0b0b0; stroke-width: 0.8; stroke-linecap: square"/>
     </g>
     <g id="line2d_10">
      <g>
       <use xlink:href="#mc74e4c49e6" x="712.707376" y="384.48" style="stroke: #000000; stroke-width: 0.8"/>
      </g>
     </g>
     <g id="text_5">
      <!-- 2000 -->
      <g transform="translate(699.982376 399.078438) scale(0.1 -0.1)">
       <defs>
        <path id="DejaVuSans-32" d="M 1228 531 
L 3431 531 
L 3431 0 
L 469 0 
L 469 531 
Q 828 903 1448 1529 
Q 2069 2156 2228 2338 
Q 2531 2678 2651 2914 
Q 2772 3150 2772 3378 
Q 2772 3750 2511 3984 
Q 2250 4219 1831 4219 
Q 1534 4219 1204 4116 
Q 875 4013 500 3803 
L 500 4441 
Q 881 4594 1212 4672 
Q 1544 4750 1819 4750 
Q 2544 4750 2975 4387 
Q 3406 4025 3406 3419 
Q 3406 3131 3298 2873 
Q 3191 2616 2906 2266 
Q 2828 2175 2409 1742 
Q 1991 1309 1228 531 
z
" transform="scale(0.015625)"/>
       </defs>
       <use xlink:href="#DejaVuSans-32"/>
       <use xlink:href="#DejaVuSans-30" transform="translate(63.623047 0)"/>
       <use xlink:href="#DejaVuSans-30" transform="translate(127.246094 0)"/>
       <use xlink:href="#DejaVuSans-30" transform="translate(190.869141 0)"/>
      </g>
     </g>
    </g>
    <g id="text_6">
     <!-- Position in Text (Words) -->
     <g transform="translate(384.540625 412.756563) scale(0.1 -0.1)">
      <defs>
       <path id="DejaVuSans-50" d="M 1259 4147 
L 1259 2394 
L 2053 2394 
Q 2494 2394 2734 2622 
Q 2975 2850 2975 3272 
Q 2975 3691 2734 3919 
Q 2494 4147 2053 4147 
L 1259 4147 
z
M 628 4666 
L 2053 4666 
Q 2838 4666 3239 4311 
Q 3641 3956 3641 3272 
Q 3641 2581 3239 2228 
Q 2838 1875 2053 1875 
L 1259 1875 
L 1259 0 
L 628 0 
L 628 4666 
z
" transform="scale(0.015625)"/>
       <path id="DejaVuSans-6f" d="M 1959 3097 
Q 1497 3097 1228 2736 
Q 959 2375 959 1747 
Q 959 1119 1226 758 
Q 1494 397 1959 397 
Q 2419 397 2687 759 
Q 2956 1122 2956 1747 
Q 2956 2369 2687 2733 
Q 2419 3097 1959 3097 
z
M 1959 3584 
Q 2709 3584 3137 3096 
Q 3566 2609 3566 1747 
Q 3566 888 3137 398 
Q 2709 -91 1959 -91 
Q 1206 -91 779 398 
Q 353 888 353 1747 
Q 353 2609 779 3096 
Q 1206 3584 1959 3584 
z
" transform="scale(0.015625)"/>
       <path id="DejaVuSans-73" d="M 2834 3397 
L 2834 2853 
Q 2591 2978 2328 3040 
Q 2066 3103 1784 3103 
Q 1356 3103 1142 2972 
Q 928 2841 928 2578 
Q 928 2378 1081 2264 
Q 1234 2150 1697 2047 
L 1894 2003 
Q 2506 1872 2764 1633 
Q 3022 1394 3022 966 
Q 3022 478 2636 193 
Q 2250 -91 1575 -91 
Q 1294 -91 989 -36 
Q 684 19 347 128 
L 347 722 
Q 666 556 975 473 
Q 1284 391 1588 391 
Q 1994 391 2212 530 
Q 2431 669 2431 922 
Q 2431 1156 2273 1281 
Q 2116 1406 1581 1522 
L 1381 1569 
Q 847 1681 609 1914 
Q 372 2147 372 2553 
Q 372 3047 722 3315 
Q 1072 3584 1716 3584 
Q 2034 3584 2315 3537 
Q 2597 3491 2834 3397 
z
" transform="scale(0.015625)"/>
       <path id="DejaVuSans-69" d="M 603 3500 
L 1178 3500 
L 1178 0 
L 603 0 
L 603 3500 
z
M 603 4863 
L 1178 4863 
L 1178 4134 
L 603 4134 
L 603 4863 
z
" transform="scale(0.015625)"/>
       <path id="DejaVuSans-74" d="M 1172 4494 
L 1172 3500 
L 2356 3500 
L 2356 3053 
L 1172 3053 
L 1172 1153 
Q 1172 725 1289 603 
Q 1406 481 1766 481 
L 2356 481 
L 2356 0 
L 1766 0 
Q 1100 0 847 248 
Q 594 497 594 1153 
L 594 3053 
L 172 3053 
L 172 3500 
L 594 3500 
L 594 4494 
L 1172 4494 
z
" transform="scale(0.015625)"/>
       <path id="DejaVuSans-6e" d="M 3513 2113 
L 3513 0 
L 2938 0 
L 2938 2094 
Q 2938 2591 2744 2837 
Q 2550 3084 2163 3084 
Q 1697 3084 1428 2787 
Q 1159 2491 1159 1978 
L 1159 0 
L 581 0 
L 581 3500 
L 1159 3500 
L 1159 2956 
Q 1366 3272 1645 3428 
Q 1925 3584 2291 3584 
Q 2894 3584 3203 3211 
Q 3513 2838 3513 2113 
z
" transform="scale(0.015625)"/>
       <path id="DejaVuSans-20" transform="scale(0.015625)"/>
       <path id="DejaVuSans-54" d="M -19 4666 
L 3928 4666 
L 3928 4134 
L 2272 4134 
L 2272 0 
L 1638 0 
L 1638 4134 
L -19 4134 
L -19 4666 
z
" transform="scale(0.015625)"/>
       <path id="DejaVuSans-65" d="M 3597 1894 
L 3597 1613 
L 953 1613 
Q 991 1019 1311 708 
Q 1631 397 2203 397 
Q 2534 397 2845 478 
Q 3156 559 3463 722 
L 3463 178 
Q 3153 47 2828 -22 
Q 2503 -91 2169 -91 
Q 1331 -91 842 396 
Q 353 884 353 1716 
Q 353 2575 817 3079 
Q 1281 3584 2069 3584 
Q 2775 3584 3186 3129 
Q 3597 2675 3597 1894 
z
M 3022 2063 
Q 3016 2534 2758 2815 
Q 2500 3097 2075 3097 
Q 1594 3097 1305 2825 
Q 1016 2553 972 2059 
L 3022 2063 
z
" transform="scale(0.015625)"/>
       <path id="DejaVuSans-78" d="M 3513 3500 
L 2247 1797 
L 3578 0 
L 2900 0 
L 1881 1375 
L 863 0 
L 184 0 
L 1544 1831 
L 300 3500 
L 978 3500 
L 1906 2253 
L 2834 3500 
L 3513 3500 
z
" transform="scale(0.015625)"/>
       <path id="DejaVuSans-28" d="M 1984 4856 
Q 1566 4138 1362 3434 
Q 1159 2731 1159 2009 
Q 1159 1288 1364 580 
Q 1569 -128 1984 -844 
L 1484 -844 
Q 1016 -109 783 600 
Q 550 1309 550 2009 
Q 550 2706 781 3412 
Q 1013 4119 1484 4856 
L 1984 4856 
z
" transform="scale(0.015625)"/>
       <path id="DejaVuSans-57" d="M 213 4666 
L 850 4666 
L 1831 722 
L 2809 4666 
L 3519 4666 
L 4500 722 
L 5478 4666 
L 6119 4666 
L 4947 0 
L 4153 0 
L 3169 4050 
L 2175 0 
L 1381 0 
L 213 4666 
z
" transform="scale(0.015625)"/>
       <path id="DejaVuSans-72" d="M 2631 2963 
Q 2534 3019 2420 3045 
Q 2306 3072 2169 3072 
Q 1681 3072 1420 2755 
Q 1159 2438 1159 1844 
L 1159 0 
L 581 0 
L 581 3500 
L 1159 3500 
L 1159 2956 
Q 1341 3275 1631 3429 
Q 1922 3584 2338 3584 
Q 2397 3584 2469 3576 
Q 2541 3569 2628 3553 
L 2631 2963 
z
" transform="scale(0.015625)"/>
       <path id="DejaVuSans-64" d="M 2906 2969 
L 2906 4863 
L 3481 4863 
L 3481 0 
L 2906 0 
L 2906 525 
Q 2725 213 2448 61 
Q 2172 -91 1784 -91 
Q 1150 -91 751 415 
Q 353 922 353 1747 
Q 353 2572 751 3078 
Q 1150 3584 1784 3584 
Q 2172 3584 2448 3432 
Q 2725 3281 2906 2969 
z
M 947 1747 
Q 947 1113 1208 752 
Q 1469 391 1925 391 
Q 2381 391 2643 752 
Q 2906 1113 2906 1747 
Q 2906 2381 2643 2742 
Q 2381 3103 1925 3103 
Q 1469 3103 1208 2742 
Q 947 2381 947 1747 
z
" transform="scale(0.015625)"/>
       <path id="DejaVuSans-29" d="M 513 4856 
L 1013 4856 
Q 1481 4119 1714 3412 
Q 1947 2706 1947 2009 
Q 1947 1309 1714 600 
Q 1481 -109 1013 -844 
L 513 -844 
Q 928 -128 1133 580 
Q 1338 1288 1338 2009 
Q 1338 2731 1133 3434 
Q 928 4138 513 4856 
z
" transform="scale(0.015625)"/>
      </defs>
      <use xlink:href="#DejaVuSans-50"/>
      <use xlink:href="#DejaVuSans-6f" transform="translate(56.677734 0)"/>
      <use xlink:href="#DejaVuSans-73" transform="translate(117.859375 0)"/>
      <use xlink:href="#DejaVuSans-69" transform="translate(169.958984 0)"/>
      <use xlink:href="#DejaVuSans-74" transform="translate(197.742188 0)"/>
      <use xlink:href="#DejaVuSans-69" transform="translate(236.951172 0)"/>
      <use xlink:href="#DejaVuSans-6f" transform="translate(264.734375 0)"/>
      <use xlink:href="#DejaVuSans-6e" transform="translate(325.916016 0)"/>
      <use xlink:href="#DejaVuSans-20" transform="translate(389.294922 0)"/>
      <use xlink:href="#DejaVuSans-69" transform="translate(421.082031 0)"/>
      <use xlink:href="#DejaVuSans-6e" transform="translate(448.865234 0)"/>
      <use xlink:href="#DejaVuSans-20" transform="translate(512.244141 0)"/>
      <use xlink:href="#DejaVuSans-54" transform="translate(544.03125 0)"/>
      <use xlink:href="#DejaVuSans-65" transform="translate(588.115234 0)"/>
      <use xlink:href="#DejaVuSans-78" transform="translate(647.888672 0)"/>
      <use xlink:href="#DejaVuSans-74" transform="translate(707.068359 0)"/>
      <use xlink:href="#DejaVuSans-20" transform="translate(746.277344 0)"/>
      <use xlink:href="#DejaVuSans-28" transform="translate(778.064453 0)"/>
      <use xlink:href="#DejaVuSans-57" transform="translate(817.078125 0)"/>
      <use xlink:href="#DejaVuSans-6f" transform="translate(910.080078 0)"/>
      <use xlink:href="#DejaVuSans-72" transform="translate(971.261719 0)"/>
      <use xlink:href="#DejaVuSans-64" transform="translate(1010.625 0)"/>
      <use xlink:href="#DejaVuSans-73" transform="translate(1074.101562 0)"/>
      <use xlink:href="#DejaVuSans-29" transform="translate(1126.201172 0)"/>
     </g>
    </g>
   </g>
   <g id="matplotlib.axis_2">
    <g id="ytick_1">
     <g id="line2d_11">
      <path d="M 108 357.356435 
L 777.6 357.356435 
" clip-path="url(#p58734419f4)" style="fill: none; stroke: #b0b0b0; stroke-width: 0.8; stroke-linecap: square"/>
     </g>
     <g id="line2d_12">
      <defs>
       <path id="md7fabda10f" d="M 0 0 
L -3.5 0 
" style="stroke: #000000; stroke-width: 0.8"/>
      </defs>
      <g>
       <use xlink:href="#md7fabda10f" x="108" y="357.356435" style="stroke: #000000; stroke-width: 0.8"/>
      </g>
     </g>
     <g id="text_7">
      <!-- −0.4 -->
      <g transform="translate(76.717187 361.155654) scale(0.1 -0.1)">
       <defs>
        <path id="DejaVuSans-2212" d="M 678 2272 
L 4684 2272 
L 4684 1741 
L 678 1741 
L 678 2272 
z
" transform="scale(0.015625)"/>
        <path id="DejaVuSans-2e" d="M 684 794 
L 1344 794 
L 1344 0 
L 684 0 
L 684 794 
z
" transform="scale(0.015625)"/>
        <path id="DejaVuSans-34" d="M 2419 4116 
L 825 1625 
L 2419 1625 
L 2419 4116 
z
M 2253 4666 
L 3047 4666 
L 3047 1625 
L 3713 1625 
L 3713 1100 
L 3047 1100 
L 3047 0 
L 2419 0 
L 2419 1100 
L 313 1100 
L 313 1709 
L 2253 4666 
z
" transform="scale(0.015625)"/>
       </defs>
       <use xlink:href="#DejaVuSans-2212"/>
       <use xlink:href="#DejaVuSans-30" transform="translate(83.789062 0)"/>
       <use xlink:href="#DejaVuSans-2e" transform="translate(147.412109 0)"/>
       <use xlink:href="#DejaVuSans-34" transform="translate(179.199219 0)"/>
      </g>
     </g>
    </g>
    <g id="ytick_2">
     <g id="line2d_13">
      <path d="M 108 294.548012 
L 777.6 294.548012 
" clip-path="url(#p58734419f4)" style="fill: none; stroke: #b0b0b0; stroke-width: 0.8; stroke-linecap: square"/>
     </g>
     <g id="line2d_14">
      <g>
       <use xlink:href="#md7fabda10f" x="108" y="294.548012" style="stroke: #000000; stroke-width: 0.8"/>
      </g>
     </g>
     <g id="text_8">
      <!-- −0.2 -->
      <g transform="translate(76.717187 298.347231) scale(0.1 -0.1)">
       <use xlink:href="#DejaVuSans-2212"/>
       <use xlink:href="#DejaVuSans-30" transform="translate(83.789062 0)"/>
       <use xlink:href="#DejaVuSans-2e" transform="translate(147.412109 0)"/>
       <use xlink:href="#DejaVuSans-32" transform="translate(179.199219 0)"/>
      </g>
     </g>
    </g>
    <g id="ytick_3">
     <g id="line2d_15">
      <path d="M 108 231.739588 
L 777.6 231.739588 
" clip-path="url(#p58734419f4)" style="fill: none; stroke: #b0b0b0; stroke-width: 0.8; stroke-linecap: square"/>
     </g>
     <g id="line2d_16">
      <g>
       <use xlink:href="#md7fabda10f" x="108" y="231.739588" style="stroke: #000000; stroke-width: 0.8"/>
      </g>
     </g>
     <g id="text_9">
      <!-- 0.0 -->
      <g transform="translate(85.096875 235.538807) scale(0.1 -0.1)">
       <use xlink:href="#DejaVuSans-30"/>
       <use xlink:href="#DejaVuSans-2e" transform="translate(63.623047 0)"/>
       <use xlink:href="#DejaVuSans-30" transform="translate(95.410156 0)"/>
      </g>
     </g>
    </g>
    <g id="ytick_4">
     <g id="line2d_17">
      <path d="M 108 168.931165 
L 777.6 168.931165 
" clip-path="url(#p58734419f4)" style="fill: none; stroke: #b0b0b0; stroke-width: 0.8; stroke-linecap: square"/>
     </g>
     <g id="line2d_18">
      <g>
       <use xlink:href="#md7fabda10f" x="108" y="168.931165" style="stroke: #000000; stroke-width: 0.8"/>
      </g>
     </g>
     <g id="text_10">
      <!-- 0.2 -->
      <g transform="translate(85.096875 172.730384) scale(0.1 -0.1)">
       <use xlink:href="#DejaVuSans-30"/>
       <use xlink:href="#DejaVuSans-2e" transform="translate(63.623047 0)"/>
       <use xlink:href="#DejaVuSans-32" transform="translate(95.410156 0)"/>
      </g>
     </g>
    </g>
    <g id="ytick_5">
     <g id="line2d_19">
      <path d="M 108 106.122742 
L 777.6 106.122742 
" clip-path="url(#p58734419f4)" style="fill: none; stroke: #b0b0b0; stroke-width: 0.8; stroke-linecap: square"/>
     </g>
     <g id="line2d_20">
      <g>
       <use xlink:href="#md7fabda10f" x="108" y="106.122742" style="stroke: #000000; stroke-width: 0.8"/>
      </g>
     </g>
     <g id="text_11">
      <!-- 0.4 -->
      <g transform="translate(85.096875 109.92196) scale(0.1 -0.1)">
       <use xlink:href="#DejaVuSans-30"/>
       <use xlink:href="#DejaVuSans-2e" transform="translate(63.623047 0)"/>
       <use xlink:href="#DejaVuSans-34" transform="translate(95.410156 0)"/>
      </g>
     </g>
    </g>
    <g id="text_12">
     <!-- Alignment with characteristic -->
     <g transform="translate(70.6375 291.5975) rotate(-90) scale(0.1 -0.1)">
      <defs>
       <path id="DejaVuSans-41" d="M 2188 4044 
L 1331 1722 
L 3047 1722 
L 2188 4044 
z
M 1831 4666 
L 2547 4666 
L 4325 0 
L 3669 0 
L 3244 1197 
L 1141 1197 
L 716 0 
L 50 0 
L 1831 4666 
z
" transform="scale(0.015625)"/>
       <path id="DejaVuSans-6c" d="M 603 4863 
L 1178 4863 
L 1178 0 
L 603 0 
L 603 4863 
z
" transform="scale(0.015625)"/>
       <path id="DejaVuSans-67" d="M 2906 1791 
Q 2906 2416 2648 2759 
Q 2391 3103 1925 3103 
Q 1463 3103 1205 2759 
Q 947 2416 947 1791 
Q 947 1169 1205 825 
Q 1463 481 1925 481 
Q 2391 481 2648 825 
Q 2906 1169 2906 1791 
z
M 3481 434 
Q 3481 -459 3084 -895 
Q 2688 -1331 1869 -1331 
Q 1566 -1331 1297 -1286 
Q 1028 -1241 775 -1147 
L 775 -588 
Q 1028 -725 1275 -790 
Q 1522 -856 1778 -856 
Q 2344 -856 2625 -561 
Q 2906 -266 2906 331 
L 2906 616 
Q 2728 306 2450 153 
Q 2172 0 1784 0 
Q 1141 0 747 490 
Q 353 981 353 1791 
Q 353 2603 747 3093 
Q 1141 3584 1784 3584 
Q 2172 3584 2450 3431 
Q 2728 3278 2906 2969 
L 2906 3500 
L 3481 3500 
L 3481 434 
z
" transform="scale(0.015625)"/>
       <path id="DejaVuSans-6d" d="M 3328 2828 
Q 3544 3216 3844 3400 
Q 4144 3584 4550 3584 
Q 5097 3584 5394 3201 
Q 5691 2819 5691 2113 
L 5691 0 
L 5113 0 
L 5113 2094 
Q 5113 2597 4934 2840 
Q 4756 3084 4391 3084 
Q 3944 3084 3684 2787 
Q 3425 2491 3425 1978 
L 3425 0 
L 2847 0 
L 2847 2094 
Q 2847 2600 2669 2842 
Q 2491 3084 2119 3084 
Q 1678 3084 1418 2786 
Q 1159 2488 1159 1978 
L 1159 0 
L 581 0 
L 581 3500 
L 1159 3500 
L 1159 2956 
Q 1356 3278 1631 3431 
Q 1906 3584 2284 3584 
Q 2666 3584 2933 3390 
Q 3200 3197 3328 2828 
z
" transform="scale(0.015625)"/>
       <path id="DejaVuSans-77" d="M 269 3500 
L 844 3500 
L 1563 769 
L 2278 3500 
L 2956 3500 
L 3675 769 
L 4391 3500 
L 4966 3500 
L 4050 0 
L 3372 0 
L 2619 2869 
L 1863 0 
L 1184 0 
L 269 3500 
z
" transform="scale(0.015625)"/>
       <path id="DejaVuSans-68" d="M 3513 2113 
L 3513 0 
L 2938 0 
L 2938 2094 
Q 2938 2591 2744 2837 
Q 2550 3084 2163 3084 
Q 1697 3084 1428 2787 
Q 1159 2491 1159 1978 
L 1159 0 
L 581 0 
L 581 4863 
L 1159 4863 
L 1159 2956 
Q 1366 3272 1645 3428 
Q 1925 3584 2291 3584 
Q 2894 3584 3203 3211 
Q 3513 2838 3513 2113 
z
" transform="scale(0.015625)"/>
       <path id="DejaVuSans-63" d="M 3122 3366 
L 3122 2828 
Q 2878 2963 2633 3030 
Q 2388 3097 2138 3097 
Q 1578 3097 1268 2742 
Q 959 2388 959 1747 
Q 959 1106 1268 751 
Q 1578 397 2138 397 
Q 2388 397 2633 464 
Q 2878 531 3122 666 
L 3122 134 
Q 2881 22 2623 -34 
Q 2366 -91 2075 -91 
Q 1284 -91 818 406 
Q 353 903 353 1747 
Q 353 2603 823 3093 
Q 1294 3584 2113 3584 
Q 2378 3584 2631 3529 
Q 2884 3475 3122 3366 
z
" transform="scale(0.015625)"/>
       <path id="DejaVuSans-61" d="M 2194 1759 
Q 1497 1759 1228 1600 
Q 959 1441 959 1056 
Q 959 750 1161 570 
Q 1363 391 1709 391 
Q 2188 391 2477 730 
Q 2766 1069 2766 1631 
L 2766 1759 
L 2194 1759 
z
M 3341 1997 
L 3341 0 
L 2766 0 
L 2766 531 
Q 2569 213 2275 61 
Q 1981 -91 1556 -91 
Q 1019 -91 701 211 
Q 384 513 384 1019 
Q 384 1609 779 1909 
Q 1175 2209 1959 2209 
L 2766 2209 
L 2766 2266 
Q 2766 2663 2505 2880 
Q 2244 3097 1772 3097 
Q 1472 3097 1187 3025 
Q 903 2953 641 2809 
L 641 3341 
Q 956 3463 1253 3523 
Q 1550 3584 1831 3584 
Q 2591 3584 2966 3190 
Q 3341 2797 3341 1997 
z
" transform="scale(0.015625)"/>
      </defs>
      <use xlink:href="#DejaVuSans-41"/>
      <use xlink:href="#DejaVuSans-6c" transform="translate(68.408203 0)"/>
      <use xlink:href="#DejaVuSans-69" transform="translate(96.191406 0)"/>
      <use xlink:href="#DejaVuSans-67" transform="translate(123.974609 0)"/>
      <use xlink:href="#DejaVuSans-6e" transform="translate(187.451172 0)"/>
      <use xlink:href="#DejaVuSans-6d" transform="translate(250.830078 0)"/>
      <use xlink:href="#DejaVuSans-65" transform="translate(348.242188 0)"/>
      <use xlink:href="#DejaVuSans-6e" transform="translate(409.765625 0)"/>
      <use xlink:href="#DejaVuSans-74" transform="translate(473.144531 0)"/>
      <use xlink:href="#DejaVuSans-20" transform="translate(512.353516 0)"/>
      <use xlink:href="#DejaVuSans-77" transform="translate(544.140625 0)"/>
      <use xlink:href="#DejaVuSans-69" transform="translate(625.927734 0)"/>
      <use xlink:href="#DejaVuSans-74" transform="translate(653.710938 0)"/>
      <use xlink:href="#DejaVuSans-68" transform="translate(692.919922 0)"/>
      <use xlink:href="#DejaVuSans-20" transform="translate(756.298828 0)"/>
      <use xlink:href="#DejaVuSans-63" transform="translate(788.085938 0)"/>
      <use xlink:href="#DejaVuSans-68" transform="translate(843.066406 0)"/>
      <use xlink:href="#DejaVuSans-61" transform="translate(906.445312 0)"/>
      <use xlink:href="#DejaVuSans-72" transform="translate(967.724609 0)"/>
      <use xlink:href="#DejaVuSans-61" transform="translate(1008.837891 0)"/>
      <use xlink:href="#DejaVuSans-63" transform="translate(1070.117188 0)"/>
      <use xlink:href="#DejaVuSans-74" transform="translate(1125.097656 0)"/>
      <use xlink:href="#DejaVuSans-65" transform="translate(1164.306641 0)"/>
      <use xlink:href="#DejaVuSans-72" transform="translate(1225.830078 0)"/>
      <use xlink:href="#DejaVuSans-69" transform="translate(1266.943359 0)"/>
      <use xlink:href="#DejaVuSans-73" transform="translate(1294.726562 0)"/>
      <use xlink:href="#DejaVuSans-74" transform="translate(1346.826172 0)"/>
      <use xlink:href="#DejaVuSans-69" transform="translate(1386.035156 0)"/>
      <use xlink:href="#DejaVuSans-63" transform="translate(1413.818359 0)"/>
     </g>
    </g>
   </g>
   <g id="line2d_21">
    <path d="M 138.436364 90.5365 
L 145.04048 100.049595 
L 149.634648 95.088048 
L 155.95163 81.967665 
L 161.407204 76.015138 
L 165.139966 84.39636 
L 171.744082 91.031903 
L 177.773928 91.16858 
L 183.229503 78.53273 
L 196.1506 66.96 
L 201.319039 79.738954 
L 206.487479 75.618927 
L 208.784563 75.880591 
L 214.240137 71.243273 
L 216.537221 71.346919 
L 219.408576 72.129089 
L 224.864151 78.928869 
L 230.319726 106.981595 
L 236.923842 116.676327 
L 242.666552 118.832661 
L 246.399314 111.224567 
L 250.132075 109.843137 
L 255.874786 131.309522 
L 257.597599 151.626724 
L 263.627444 165.397991 
L 268.508748 178.304869 
L 279.707033 228.723746 
L 285.162607 257.989099 
L 291.766724 262.000041 
L 298.083705 271.277466 
L 306.69777 294.114693 
L 312.153345 295.908218 
L 314.163293 301.737399 
L 315.0247 305.756181 
L 319.906003 329.090748 
L 328.520069 347.47922 
L 336.272727 346.060019 
L 342.876844 344.130667 
L 346.32247 360.869548 
L 349.768096 369.36 
L 353.500858 349.724515 
L 358.095026 351.305768 
L 364.124871 346.925357 
L 373.313208 349.274431 
L 375.323156 356.501407 
L 379.055918 352.708816 
L 387.382847 343.01733 
L 388.244254 347.967423 
L 391.68988 362.236392 
L 398.006861 363.326523 
L 399.442539 357.536379 
L 402.313894 354.271412 
L 406.620926 341.786546 
L 412.076501 330.601054 
L 420.116295 343.83703 
L 421.551973 347.135597 
L 423.561921 355.979816 
L 427.868954 362.200973 
L 432.750257 341.723864 
L 435.908748 330.316253 
L 439.354374 316.251858 
L 440.502916 306.266067 
L 442.8 290.698542 
L 447.107033 271.252505 
L 451.988336 260.015711 
L 458.879588 233.768067 
L 461.176672 218.584091 
L 465.77084 198.546479 
L 470.652144 184.140462 
L 473.236364 165.284506 
L 475.246312 138.050385 
L 481.563293 123.151546 
L 485.870326 102.050304 
L 492.761578 109.744399 
L 498.504288 103.150168 
L 504.534134 110.336849 
L 507.118353 108.009911 
L 508.266895 103.873904 
L 514.296741 101.971684 
L 520.613722 89.955625 
L 524.633619 110.279204 
L 527.79211 111.23938 
L 531.237736 108.838923 
L 537.841852 105.369728 
L 541.000343 112.84261 
L 541.574614 118.832735 
L 543.010292 109.945635 
L 552.485763 100.966514 
L 555.644254 87.32096 
L 559.951286 84.601632 
L 563.684048 77.077789 
L 566.268268 74.228125 
L 575.743739 86.63986 
L 579.763636 95.221 
L 583.496398 105.702201 
L 586.367753 111.093424 
L 590.38765 112.292281 
L 593.833276 133.359736 
L 599.575986 159.031672 
L 603.883019 167.33851 
L 606.754374 183.446459 
L 607.902916 197.399739 
L 611.348542 211.820928 
L 614.794168 221.910972 
L 618.239794 233.876835 
L 628.863808 269.704147 
L 635.467925 261.67723 
L 641.784906 266.488016 
L 645.517667 283.203544 
L 653.270326 274.901332 
L 655.280274 278.82147 
L 659.013036 275.683289 
L 664.755746 276.707855 
L 669.924185 275.257631 
L 673.082676 267.39868 
L 674.518353 276.969326 
L 675.37976 286.798666 
L 677.102573 285.606718 
L 682.271012 280.522939 
L 683.993825 284.194605 
L 684.855232 291.96847 
L 688.300858 291.351293 
L 692.033619 281.910008 
L 693.182161 285.911568 
L 693.756432 284.427069 
L 694.904974 270.244494 
L 695.479245 269.973721 
L 701.509091 273.640237 
L 702.370497 268.37077 
L 704.667581 271.987153 
L 707.826072 263.682097 
L 708.687479 265.554346 
L 710.697427 275.9729 
L 712.42024 288.643456 
L 715.291595 281.280995 
L 719.598628 272.141968 
L 722.757118 278.745176 
L 725.915609 290.811846 
L 727.351286 289.660377 
L 727.925557 297.426528 
L 729.64837 304.050727 
L 733.093997 296.423613 
L 735.965352 286.759447 
L 736.539623 299.289761 
L 738.549571 308.046849 
L 739.698113 318.658833 
L 743.71801 320.37033 
L 747.163636 315.679203 
L 747.163636 315.679203 
" clip-path="url(#p58734419f4)" style="fill: none; stroke: #5c3e99; stroke-width: 1.5; stroke-linecap: square"/>
    <defs>
     <path id="me1bfad955e" d="M 0 3 
C 0.795609 3 1.55874 2.683901 2.12132 2.12132 
C 2.683901 1.55874 3 0.795609 3 0 
C 3 -0.795609 2.683901 -1.55874 2.12132 -2.12132 
C 1.55874 -2.683901 0.795609 -3 0 -3 
C -0.795609 -3 -1.55874 -2.683901 -2.12132 -2.12132 
C -2.683901 -1.55874 -3 -0.795609 -3 0 
C -3 0.795609 -2.683901 1.55874 -2.12132 2.12132 
C -1.55874 2.683901 -0.795609 3 0 3 
z
" style="stroke: #5c3e99"/>
    </defs>
    <g clip-path="url(#p58734419f4)">
     <use xlink:href="#me1bfad955e" x="138.436364" y="90.5365" style="fill: #5c3e99; stroke: #5c3e99"/>
     <use xlink:href="#me1bfad955e" x="145.04048" y="100.049595" style="fill: #5c3e99; stroke: #5c3e99"/>
     <use xlink:href="#me1bfad955e" x="149.634648" y="95.088048" style="fill: #5c3e99; stroke: #5c3e99"/>
     <use xlink:href="#me1bfad955e" x="155.95163" y="81.967665" style="fill: #5c3e99; stroke: #5c3e99"/>
     <use xlink:href="#me1bfad955e" x="161.407204" y="76.015138" style="fill: #5c3e99; stroke: #5c3e99"/>
     <use xlink:href="#me1bfad955e" x="165.139966" y="84.39636" style="fill: #5c3e99; stroke: #5c3e99"/>
     <use xlink:href="#me1bfad955e" x="171.744082" y="91.031903" style="fill: #5c3e99; stroke: #5c3e99"/>
     <use xlink:href="#me1bfad955e" x="177.773928" y="91.16858" style="fill: #5c3e99; stroke: #5c3e99"/>
     <use xlink:href="#me1bfad955e" x="183.229503" y="78.53273" style="fill: #5c3e99; stroke: #5c3e99"/>
     <use xlink:href="#me1bfad955e" x="189.259348" y="73.156873" style="fill: #5c3e99; stroke: #5c3e99"/>
     <use xlink:href="#me1bfad955e" x="196.1506" y="66.96" style="fill: #5c3e99; stroke: #5c3e99"/>
     <use xlink:href="#me1bfad955e" x="201.319039" y="79.738954" style="fill: #5c3e99; stroke: #5c3e99"/>
     <use xlink:href="#me1bfad955e" x="206.487479" y="75.618927" style="fill: #5c3e99; stroke: #5c3e99"/>
     <use xlink:href="#me1bfad955e" x="208.784563" y="75.880591" style="fill: #5c3e99; stroke: #5c3e99"/>
     <use xlink:href="#me1bfad955e" x="214.240137" y="71.243273" style="fill: #5c3e99; stroke: #5c3e99"/>
     <use xlink:href="#me1bfad955e" x="216.537221" y="71.346919" style="fill: #5c3e99; stroke: #5c3e99"/>
     <use xlink:href="#me1bfad955e" x="219.408576" y="72.129089" style="fill: #5c3e99; stroke: #5c3e99"/>
     <use xlink:href="#me1bfad955e" x="224.864151" y="78.928869" style="fill: #5c3e99; stroke: #5c3e99"/>
     <use xlink:href="#me1bfad955e" x="230.319726" y="106.981595" style="fill: #5c3e99; stroke: #5c3e99"/>
     <use xlink:href="#me1bfad955e" x="236.923842" y="116.676327" style="fill: #5c3e99; stroke: #5c3e99"/>
     <use xlink:href="#me1bfad955e" x="242.666552" y="118.832661" style="fill: #5c3e99; stroke: #5c3e99"/>
     <use xlink:href="#me1bfad955e" x="246.399314" y="111.224567" style="fill: #5c3e99; stroke: #5c3e99"/>
     <use xlink:href="#me1bfad955e" x="250.132075" y="109.843137" style="fill: #5c3e99; stroke: #5c3e99"/>
     <use xlink:href="#me1bfad955e" x="255.874786" y="131.309522" style="fill: #5c3e99; stroke: #5c3e99"/>
     <use xlink:href="#me1bfad955e" x="257.597599" y="151.626724" style="fill: #5c3e99; stroke: #5c3e99"/>
     <use xlink:href="#me1bfad955e" x="263.627444" y="165.397991" style="fill: #5c3e99; stroke: #5c3e99"/>
     <use xlink:href="#me1bfad955e" x="268.508748" y="178.304869" style="fill: #5c3e99; stroke: #5c3e99"/>
     <use xlink:href="#me1bfad955e" x="274.538593" y="205.472342" style="fill: #5c3e99; stroke: #5c3e99"/>
     <use xlink:href="#me1bfad955e" x="279.707033" y="228.723746" style="fill: #5c3e99; stroke: #5c3e99"/>
     <use xlink:href="#me1bfad955e" x="285.162607" y="257.989099" style="fill: #5c3e99; stroke: #5c3e99"/>
     <use xlink:href="#me1bfad955e" x="291.766724" y="262.000041" style="fill: #5c3e99; stroke: #5c3e99"/>
     <use xlink:href="#me1bfad955e" x="298.083705" y="271.277466" style="fill: #5c3e99; stroke: #5c3e99"/>
     <use xlink:href="#me1bfad955e" x="306.69777" y="294.114693" style="fill: #5c3e99; stroke: #5c3e99"/>
     <use xlink:href="#me1bfad955e" x="312.153345" y="295.908218" style="fill: #5c3e99; stroke: #5c3e99"/>
     <use xlink:href="#me1bfad955e" x="314.163293" y="301.737399" style="fill: #5c3e99; stroke: #5c3e99"/>
     <use xlink:href="#me1bfad955e" x="315.0247" y="305.756181" style="fill: #5c3e99; stroke: #5c3e99"/>
     <use xlink:href="#me1bfad955e" x="319.906003" y="329.090748" style="fill: #5c3e99; stroke: #5c3e99"/>
     <use xlink:href="#me1bfad955e" x="328.520069" y="347.47922" style="fill: #5c3e99; stroke: #5c3e99"/>
     <use xlink:href="#me1bfad955e" x="336.272727" y="346.060019" style="fill: #5c3e99; stroke: #5c3e99"/>
     <use xlink:href="#me1bfad955e" x="342.876844" y="344.130667" style="fill: #5c3e99; stroke: #5c3e99"/>
     <use xlink:href="#me1bfad955e" x="346.32247" y="360.869548" style="fill: #5c3e99; stroke: #5c3e99"/>
     <use xlink:href="#me1bfad955e" x="349.768096" y="369.36" style="fill: #5c3e99; stroke: #5c3e99"/>
     <use xlink:href="#me1bfad955e" x="353.500858" y="349.724515" style="fill: #5c3e99; stroke: #5c3e99"/>
     <use xlink:href="#me1bfad955e" x="358.095026" y="351.305768" style="fill: #5c3e99; stroke: #5c3e99"/>
     <use xlink:href="#me1bfad955e" x="364.124871" y="346.925357" style="fill: #5c3e99; stroke: #5c3e99"/>
     <use xlink:href="#me1bfad955e" x="373.313208" y="349.274431" style="fill: #5c3e99; stroke: #5c3e99"/>
     <use xlink:href="#me1bfad955e" x="375.323156" y="356.501407" style="fill: #5c3e99; stroke: #5c3e99"/>
     <use xlink:href="#me1bfad955e" x="379.055918" y="352.708816" style="fill: #5c3e99; stroke: #5c3e99"/>
     <use xlink:href="#me1bfad955e" x="387.382847" y="343.01733" style="fill: #5c3e99; stroke: #5c3e99"/>
     <use xlink:href="#me1bfad955e" x="388.244254" y="347.967423" style="fill: #5c3e99; stroke: #5c3e99"/>
     <use xlink:href="#me1bfad955e" x="391.68988" y="362.236392" style="fill: #5c3e99; stroke: #5c3e99"/>
     <use xlink:href="#me1bfad955e" x="398.006861" y="363.326523" style="fill: #5c3e99; stroke: #5c3e99"/>
     <use xlink:href="#me1bfad955e" x="399.442539" y="357.536379" style="fill: #5c3e99; stroke: #5c3e99"/>
     <use xlink:href="#me1bfad955e" x="400.878216" y="355.835386" style="fill: #5c3e99; stroke: #5c3e99"/>
     <use xlink:href="#me1bfad955e" x="402.313894" y="354.271412" style="fill: #5c3e99; stroke: #5c3e99"/>
     <use xlink:href="#me1bfad955e" x="406.620926" y="341.786546" style="fill: #5c3e99; stroke: #5c3e99"/>
     <use xlink:href="#me1bfad955e" x="412.076501" y="330.601054" style="fill: #5c3e99; stroke: #5c3e99"/>
     <use xlink:href="#me1bfad955e" x="420.116295" y="343.83703" style="fill: #5c3e99; stroke: #5c3e99"/>
     <use xlink:href="#me1bfad955e" x="421.551973" y="347.135597" style="fill: #5c3e99; stroke: #5c3e99"/>
     <use xlink:href="#me1bfad955e" x="423.561921" y="355.979816" style="fill: #5c3e99; stroke: #5c3e99"/>
     <use xlink:href="#me1bfad955e" x="427.868954" y="362.200973" style="fill: #5c3e99; stroke: #5c3e99"/>
     <use xlink:href="#me1bfad955e" x="432.750257" y="341.723864" style="fill: #5c3e99; stroke: #5c3e99"/>
     <use xlink:href="#me1bfad955e" x="435.908748" y="330.316253" style="fill: #5c3e99; stroke: #5c3e99"/>
     <use xlink:href="#me1bfad955e" x="439.354374" y="316.251858" style="fill: #5c3e99; stroke: #5c3e99"/>
     <use xlink:href="#me1bfad955e" x="440.502916" y="306.266067" style="fill: #5c3e99; stroke: #5c3e99"/>
     <use xlink:href="#me1bfad955e" x="442.8" y="290.698542" style="fill: #5c3e99; stroke: #5c3e99"/>
     <use xlink:href="#me1bfad955e" x="447.107033" y="271.252505" style="fill: #5c3e99; stroke: #5c3e99"/>
     <use xlink:href="#me1bfad955e" x="451.988336" y="260.015711" style="fill: #5c3e99; stroke: #5c3e99"/>
     <use xlink:href="#me1bfad955e" x="458.879588" y="233.768067" style="fill: #5c3e99; stroke: #5c3e99"/>
     <use xlink:href="#me1bfad955e" x="461.176672" y="218.584091" style="fill: #5c3e99; stroke: #5c3e99"/>
     <use xlink:href="#me1bfad955e" x="465.77084" y="198.546479" style="fill: #5c3e99; stroke: #5c3e99"/>
     <use xlink:href="#me1bfad955e" x="470.652144" y="184.140462" style="fill: #5c3e99; stroke: #5c3e99"/>
     <use xlink:href="#me1bfad955e" x="473.236364" y="165.284506" style="fill: #5c3e99; stroke: #5c3e99"/>
     <use xlink:href="#me1bfad955e" x="475.246312" y="138.050385" style="fill: #5c3e99; stroke: #5c3e99"/>
     <use xlink:href="#me1bfad955e" x="481.563293" y="123.151546" style="fill: #5c3e99; stroke: #5c3e99"/>
     <use xlink:href="#me1bfad955e" x="485.870326" y="102.050304" style="fill: #5c3e99; stroke: #5c3e99"/>
     <use xlink:href="#me1bfad955e" x="492.761578" y="109.744399" style="fill: #5c3e99; stroke: #5c3e99"/>
     <use xlink:href="#me1bfad955e" x="498.504288" y="103.150168" style="fill: #5c3e99; stroke: #5c3e99"/>
     <use xlink:href="#me1bfad955e" x="504.534134" y="110.336849" style="fill: #5c3e99; stroke: #5c3e99"/>
     <use xlink:href="#me1bfad955e" x="507.118353" y="108.009911" style="fill: #5c3e99; stroke: #5c3e99"/>
     <use xlink:href="#me1bfad955e" x="508.266895" y="103.873904" style="fill: #5c3e99; stroke: #5c3e99"/>
     <use xlink:href="#me1bfad955e" x="514.296741" y="101.971684" style="fill: #5c3e99; stroke: #5c3e99"/>
     <use xlink:href="#me1bfad955e" x="520.613722" y="89.955625" style="fill: #5c3e99; stroke: #5c3e99"/>
     <use xlink:href="#me1bfad955e" x="524.633619" y="110.279204" style="fill: #5c3e99; stroke: #5c3e99"/>
     <use xlink:href="#me1bfad955e" x="527.79211" y="111.23938" style="fill: #5c3e99; stroke: #5c3e99"/>
     <use xlink:href="#me1bfad955e" x="531.237736" y="108.838923" style="fill: #5c3e99; stroke: #5c3e99"/>
     <use xlink:href="#me1bfad955e" x="537.841852" y="105.369728" style="fill: #5c3e99; stroke: #5c3e99"/>
     <use xlink:href="#me1bfad955e" x="541.000343" y="112.84261" style="fill: #5c3e99; stroke: #5c3e99"/>
     <use xlink:href="#me1bfad955e" x="541.574614" y="118.832735" style="fill: #5c3e99; stroke: #5c3e99"/>
     <use xlink:href="#me1bfad955e" x="543.010292" y="109.945635" style="fill: #5c3e99; stroke: #5c3e99"/>
     <use xlink:href="#me1bfad955e" x="552.485763" y="100.966514" style="fill: #5c3e99; stroke: #5c3e99"/>
     <use xlink:href="#me1bfad955e" x="555.644254" y="87.32096" style="fill: #5c3e99; stroke: #5c3e99"/>
     <use xlink:href="#me1bfad955e" x="559.951286" y="84.601632" style="fill: #5c3e99; stroke: #5c3e99"/>
     <use xlink:href="#me1bfad955e" x="563.684048" y="77.077789" style="fill: #5c3e99; stroke: #5c3e99"/>
     <use xlink:href="#me1bfad955e" x="566.268268" y="74.228125" style="fill: #5c3e99; stroke: #5c3e99"/>
     <use xlink:href="#me1bfad955e" x="575.743739" y="86.63986" style="fill: #5c3e99; stroke: #5c3e99"/>
     <use xlink:href="#me1bfad955e" x="579.763636" y="95.221" style="fill: #5c3e99; stroke: #5c3e99"/>
     <use xlink:href="#me1bfad955e" x="583.496398" y="105.702201" style="fill: #5c3e99; stroke: #5c3e99"/>
     <use xlink:href="#me1bfad955e" x="586.367753" y="111.093424" style="fill: #5c3e99; stroke: #5c3e99"/>
     <use xlink:href="#me1bfad955e" x="590.38765" y="112.292281" style="fill: #5c3e99; stroke: #5c3e99"/>
     <use xlink:href="#me1bfad955e" x="593.833276" y="133.359736" style="fill: #5c3e99; stroke: #5c3e99"/>
     <use xlink:href="#me1bfad955e" x="599.575986" y="159.031672" style="fill: #5c3e99; stroke: #5c3e99"/>
     <use xlink:href="#me1bfad955e" x="603.883019" y="167.33851" style="fill: #5c3e99; stroke: #5c3e99"/>
     <use xlink:href="#me1bfad955e" x="606.754374" y="183.446459" style="fill: #5c3e99; stroke: #5c3e99"/>
     <use xlink:href="#me1bfad955e" x="607.902916" y="197.399739" style="fill: #5c3e99; stroke: #5c3e99"/>
     <use xlink:href="#me1bfad955e" x="611.348542" y="211.820928" style="fill: #5c3e99; stroke: #5c3e99"/>
     <use xlink:href="#me1bfad955e" x="614.794168" y="221.910972" style="fill: #5c3e99; stroke: #5c3e99"/>
     <use xlink:href="#me1bfad955e" x="618.239794" y="233.876835" style="fill: #5c3e99; stroke: #5c3e99"/>
     <use xlink:href="#me1bfad955e" x="623.695369" y="252.297556" style="fill: #5c3e99; stroke: #5c3e99"/>
     <use xlink:href="#me1bfad955e" x="628.863808" y="269.704147" style="fill: #5c3e99; stroke: #5c3e99"/>
     <use xlink:href="#me1bfad955e" x="635.467925" y="261.67723" style="fill: #5c3e99; stroke: #5c3e99"/>
     <use xlink:href="#me1bfad955e" x="641.784906" y="266.488016" style="fill: #5c3e99; stroke: #5c3e99"/>
     <use xlink:href="#me1bfad955e" x="645.517667" y="283.203544" style="fill: #5c3e99; stroke: #5c3e99"/>
     <use xlink:href="#me1bfad955e" x="651.547513" y="276.70968" style="fill: #5c3e99; stroke: #5c3e99"/>
     <use xlink:href="#me1bfad955e" x="653.270326" y="274.901332" style="fill: #5c3e99; stroke: #5c3e99"/>
     <use xlink:href="#me1bfad955e" x="655.280274" y="278.82147" style="fill: #5c3e99; stroke: #5c3e99"/>
     <use xlink:href="#me1bfad955e" x="659.013036" y="275.683289" style="fill: #5c3e99; stroke: #5c3e99"/>
     <use xlink:href="#me1bfad955e" x="664.755746" y="276.707855" style="fill: #5c3e99; stroke: #5c3e99"/>
     <use xlink:href="#me1bfad955e" x="669.924185" y="275.257631" style="fill: #5c3e99; stroke: #5c3e99"/>
     <use xlink:href="#me1bfad955e" x="673.082676" y="267.39868" style="fill: #5c3e99; stroke: #5c3e99"/>
     <use xlink:href="#me1bfad955e" x="674.518353" y="276.969326" style="fill: #5c3e99; stroke: #5c3e99"/>
     <use xlink:href="#me1bfad955e" x="675.37976" y="286.798666" style="fill: #5c3e99; stroke: #5c3e99"/>
     <use xlink:href="#me1bfad955e" x="677.102573" y="285.606718" style="fill: #5c3e99; stroke: #5c3e99"/>
     <use xlink:href="#me1bfad955e" x="682.271012" y="280.522939" style="fill: #5c3e99; stroke: #5c3e99"/>
     <use xlink:href="#me1bfad955e" x="683.993825" y="284.194605" style="fill: #5c3e99; stroke: #5c3e99"/>
     <use xlink:href="#me1bfad955e" x="684.855232" y="291.96847" style="fill: #5c3e99; stroke: #5c3e99"/>
     <use xlink:href="#me1bfad955e" x="688.300858" y="291.351293" style="fill: #5c3e99; stroke: #5c3e99"/>
     <use xlink:href="#me1bfad955e" x="692.033619" y="281.910008" style="fill: #5c3e99; stroke: #5c3e99"/>
     <use xlink:href="#me1bfad955e" x="693.182161" y="285.911568" style="fill: #5c3e99; stroke: #5c3e99"/>
     <use xlink:href="#me1bfad955e" x="693.756432" y="284.427069" style="fill: #5c3e99; stroke: #5c3e99"/>
     <use xlink:href="#me1bfad955e" x="694.904974" y="270.244494" style="fill: #5c3e99; stroke: #5c3e99"/>
     <use xlink:href="#me1bfad955e" x="695.479245" y="269.973721" style="fill: #5c3e99; stroke: #5c3e99"/>
     <use xlink:href="#me1bfad955e" x="701.509091" y="273.640237" style="fill: #5c3e99; stroke: #5c3e99"/>
     <use xlink:href="#me1bfad955e" x="702.370497" y="268.37077" style="fill: #5c3e99; stroke: #5c3e99"/>
     <use xlink:href="#me1bfad955e" x="704.667581" y="271.987153" style="fill: #5c3e99; stroke: #5c3e99"/>
     <use xlink:href="#me1bfad955e" x="707.826072" y="263.682097" style="fill: #5c3e99; stroke: #5c3e99"/>
     <use xlink:href="#me1bfad955e" x="708.687479" y="265.554346" style="fill: #5c3e99; stroke: #5c3e99"/>
     <use xlink:href="#me1bfad955e" x="710.697427" y="275.9729" style="fill: #5c3e99; stroke: #5c3e99"/>
     <use xlink:href="#me1bfad955e" x="712.42024" y="288.643456" style="fill: #5c3e99; stroke: #5c3e99"/>
     <use xlink:href="#me1bfad955e" x="715.291595" y="281.280995" style="fill: #5c3e99; stroke: #5c3e99"/>
     <use xlink:href="#me1bfad955e" x="719.598628" y="272.141968" style="fill: #5c3e99; stroke: #5c3e99"/>
     <use xlink:href="#me1bfad955e" x="722.757118" y="278.745176" style="fill: #5c3e99; stroke: #5c3e99"/>
     <use xlink:href="#me1bfad955e" x="725.915609" y="290.811846" style="fill: #5c3e99; stroke: #5c3e99"/>
     <use xlink:href="#me1bfad955e" x="727.351286" y="289.660377" style="fill: #5c3e99; stroke: #5c3e99"/>
     <use xlink:href="#me1bfad955e" x="727.925557" y="297.426528" style="fill: #5c3e99; stroke: #5c3e99"/>
     <use xlink:href="#me1bfad955e" x="729.64837" y="304.050727" style="fill: #5c3e99; stroke: #5c3e99"/>
     <use xlink:href="#me1bfad955e" x="733.093997" y="296.423613" style="fill: #5c3e99; stroke: #5c3e99"/>
     <use xlink:href="#me1bfad955e" x="735.965352" y="286.759447" style="fill: #5c3e99; stroke: #5c3e99"/>
     <use xlink:href="#me1bfad955e" x="736.539623" y="299.289761" style="fill: #5c3e99; stroke: #5c3e99"/>
     <use xlink:href="#me1bfad955e" x="738.549571" y="308.046849" style="fill: #5c3e99; stroke: #5c3e99"/>
     <use xlink:href="#me1bfad955e" x="739.698113" y="318.658833" style="fill: #5c3e99; stroke: #5c3e99"/>
     <use xlink:href="#me1bfad955e" x="743.71801" y="320.37033" style="fill: #5c3e99; stroke: #5c3e99"/>
     <use xlink:href="#me1bfad955e" x="747.163636" y="315.679203" style="fill: #5c3e99; stroke: #5c3e99"/>
    </g>
   </g>
   <g id="patch_3">
    <path d="M 108 384.48 
L 108 51.84 
" style="fill: none; stroke: #000000; stroke-width: 0.8; stroke-linejoin: miter; stroke-linecap: square"/>
   </g>
   <g id="patch_4">
    <path d="M 777.6 384.48 
L 777.6 51.84 
" style="fill: none; stroke: #000000; stroke-width: 0.8; stroke-linejoin: miter; stroke-linecap: square"/>
   </g>
   <g id="patch_5">
    <path d="M 108 384.48 
L 777.6 384.48 
" style="fill: none; stroke: #000000; stroke-width: 0.8; stroke-linejoin: miter; stroke-linecap: square"/>
   </g>
   <g id="patch_6">
    <path d="M 108 51.84 
L 777.6 51.84 
" style="fill: none; stroke: #000000; stroke-width: 0.8; stroke-linejoin: miter; stroke-linecap: square"/>
   </g>
   <g id="text_13">
    <!-- Mood as Happy score per sentence -->
    <g transform="translate(337.231875 45.84) scale(0.12 -0.12)">
     <defs>
      <path id="DejaVuSans-4d" d="M 628 4666 
L 1569 4666 
L 2759 1491 
L 3956 4666 
L 4897 4666 
L 4897 0 
L 4281 0 
L 4281 4097 
L 3078 897 
L 2444 897 
L 1241 4097 
L 1241 0 
L 628 0 
L 628 4666 
z
" transform="scale(0.015625)"/>
      <path id="DejaVuSans-48" d="M 628 4666 
L 1259 4666 
L 1259 2753 
L 3553 2753 
L 3553 4666 
L 4184 4666 
L 4184 0 
L 3553 0 
L 3553 2222 
L 1259 2222 
L 1259 0 
L 628 0 
L 628 4666 
z
" transform="scale(0.015625)"/>
      <path id="DejaVuSans-70" d="M 1159 525 
L 1159 -1331 
L 581 -1331 
L 581 3500 
L 1159 3500 
L 1159 2969 
Q 1341 3281 1617 3432 
Q 1894 3584 2278 3584 
Q 2916 3584 3314 3078 
Q 3713 2572 3713 1747 
Q 3713 922 3314 415 
Q 2916 -91 2278 -91 
Q 1894 -91 1617 61 
Q 1341 213 1159 525 
z
M 3116 1747 
Q 3116 2381 2855 2742 
Q 2594 3103 2138 3103 
Q 1681 3103 1420 2742 
Q 1159 2381 1159 1747 
Q 1159 1113 1420 752 
Q 1681 391 2138 391 
Q 2594 391 2855 752 
Q 3116 1113 3116 1747 
z
" transform="scale(0.015625)"/>
      <path id="DejaVuSans-79" d="M 2059 -325 
Q 1816 -950 1584 -1140 
Q 1353 -1331 966 -1331 
L 506 -1331 
L 506 -850 
L 844 -850 
Q 1081 -850 1212 -737 
Q 1344 -625 1503 -206 
L 1606 56 
L 191 3500 
L 800 3500 
L 1894 763 
L 2988 3500 
L 3597 3500 
L 2059 -325 
z
" transform="scale(0.015625)"/>
     </defs>
     <use xlink:href="#DejaVuSans-4d"/>
     <use xlink:href="#DejaVuSans-6f" transform="translate(86.279297 0)"/>
     <use xlink:href="#DejaVuSans-6f" transform="translate(147.460938 0)"/>
     <use xlink:href="#DejaVuSans-64" transform="translate(208.642578 0)"/>
     <use xlink:href="#DejaVuSans-20" transform="translate(272.119141 0)"/>
     <use xlink:href="#DejaVuSans-61" transform="translate(303.90625 0)"/>
     <use xlink:href="#DejaVuSans-73" transform="translate(365.185547 0)"/>
     <use xlink:href="#DejaVuSans-20" transform="translate(417.285156 0)"/>
     <use xlink:href="#DejaVuSans-48" transform="translate(449.072266 0)"/>
     <use xlink:href="#DejaVuSans-61" transform="translate(524.267578 0)"/>
     <use xlink:href="#DejaVuSans-70" transform="translate(585.546875 0)"/>
     <use xlink:href="#DejaVuSans-70" transform="translate(649.023438 0)"/>
     <use xlink:href="#DejaVuSans-79" transform="translate(712.5 0)"/>
     <use xlink:href="#DejaVuSans-20" transform="translate(771.679688 0)"/>
     <use xlink:href="#DejaVuSans-73" transform="translate(803.466797 0)"/>
     <use xlink:href="#DejaVuSans-63" transform="translate(855.566406 0)"/>
     <use xlink:href="#DejaVuSans-6f" transform="translate(910.546875 0)"/>
     <use xlink:href="#DejaVuSans-72" transform="translate(971.728516 0)"/>
     <use xlink:href="#DejaVuSans-65" transform="translate(1010.591797 0)"/>
     <use xlink:href="#DejaVuSans-20" transform="translate(1072.115234 0)"/>
     <use xlink:href="#DejaVuSans-70" transform="translate(1103.902344 0)"/>
     <use xlink:href="#DejaVuSans-65" transform="translate(1167.378906 0)"/>
     <use xlink:href="#DejaVuSans-72" transform="translate(1228.902344 0)"/>
     <use xlink:href="#DejaVuSans-20" transform="translate(1270.015625 0)"/>
     <use xlink:href="#DejaVuSans-73" transform="translate(1301.802734 0)"/>
     <use xlink:href="#DejaVuSans-65" transform="translate(1353.902344 0)"/>
     <use xlink:href="#DejaVuSans-6e" transform="translate(1415.425781 0)"/>
     <use xlink:href="#DejaVuSans-74" transform="translate(1478.804688 0)"/>
     <use xlink:href="#DejaVuSans-65" transform="translate(1518.013672 0)"/>
     <use xlink:href="#DejaVuSans-6e" transform="translate(1579.537109 0)"/>
     <use xlink:href="#DejaVuSans-63" transform="translate(1642.916016 0)"/>
     <use xlink:href="#DejaVuSans-65" transform="translate(1697.896484 0)"/>
    </g>
   </g>
  </g>
 </g>
 <defs>
  <clipPath id="p58734419f4">
   <rect x="108" y="51.84" width="669.6" height="332.64"/>
  </clipPath>
 </defs>
</svg>
